%TF.GenerationSoftware,KiCad,Pcbnew,9.0.8-9.0.8~ubuntu22.04.1*%
%TF.CreationDate,2026-06-12T17:49:26+05:30*%
%TF.ProjectId,Metal-Air_BMS,4d657461-6c2d-4416-9972-5f424d532e6b,V1.2.1*%
%TF.SameCoordinates,Original*%
%TF.FileFunction,Soldermask,Bot*%
%TF.FilePolarity,Negative*%
%FSLAX46Y46*%
G04 Gerber Fmt 4.6, Leading zero omitted, Abs format (unit mm)*
G04 Created by KiCad (PCBNEW 9.0.8-9.0.8~ubuntu22.04.1) date 2026-06-12 17:49:26*
%MOMM*%
%LPD*%
G01*
G04 APERTURE LIST*
G04 Aperture macros list*
%AMRoundRect*
0 Rectangle with rounded corners*
0 $1 Rounding radius*
0 $2 $3 $4 $5 $6 $7 $8 $9 X,Y pos of 4 corners*
0 Add a 4 corners polygon primitive as box body*
4,1,4,$2,$3,$4,$5,$6,$7,$8,$9,$2,$3,0*
0 Add four circle primitives for the rounded corners*
1,1,$1+$1,$2,$3*
1,1,$1+$1,$4,$5*
1,1,$1+$1,$6,$7*
1,1,$1+$1,$8,$9*
0 Add four rect primitives between the rounded corners*
20,1,$1+$1,$2,$3,$4,$5,0*
20,1,$1+$1,$4,$5,$6,$7,0*
20,1,$1+$1,$6,$7,$8,$9,0*
20,1,$1+$1,$8,$9,$2,$3,0*%
G04 Aperture macros list end*
%ADD10RoundRect,0.250000X-0.750000X-0.750000X0.750000X-0.750000X0.750000X0.750000X-0.750000X0.750000X0*%
%ADD11C,2.000000*%
%ADD12C,0.700000*%
%ADD13C,4.400000*%
%ADD14C,1.440000*%
%ADD15R,3.000000X3.000000*%
%ADD16C,3.000000*%
%ADD17R,1.905000X2.000000*%
%ADD18O,1.905000X2.000000*%
%ADD19O,1.700000X1.000000*%
%ADD20RoundRect,0.250000X0.750000X0.750000X-0.750000X0.750000X-0.750000X-0.750000X0.750000X-0.750000X0*%
%ADD21R,1.524000X1.524000*%
%ADD22C,1.524000*%
%ADD23RoundRect,0.250000X-0.600000X-0.725000X0.600000X-0.725000X0.600000X0.725000X-0.600000X0.725000X0*%
%ADD24O,1.700000X1.950000*%
%ADD25R,1.700000X1.700000*%
%ADD26C,1.700000*%
%ADD27RoundRect,0.102000X0.754000X0.754000X-0.754000X0.754000X-0.754000X-0.754000X0.754000X-0.754000X0*%
%ADD28C,1.712000*%
%ADD29C,1.500000*%
%ADD30RoundRect,0.225000X0.335876X0.017678X0.017678X0.335876X-0.335876X-0.017678X-0.017678X-0.335876X0*%
%ADD31RoundRect,0.250000X-0.503814X-0.132583X-0.132583X-0.503814X0.503814X0.132583X0.132583X0.503814X0*%
%ADD32RoundRect,0.250000X-0.350000X-0.450000X0.350000X-0.450000X0.350000X0.450000X-0.350000X0.450000X0*%
%ADD33RoundRect,0.200000X-0.053033X0.335876X-0.335876X0.053033X0.053033X-0.335876X0.335876X-0.053033X0*%
%ADD34RoundRect,0.250000X-0.159099X0.512652X-0.512652X0.159099X0.159099X-0.512652X0.512652X-0.159099X0*%
%ADD35RoundRect,0.250000X-0.141421X1.202082X-1.202082X0.141421X0.141421X-1.202082X1.202082X-0.141421X0*%
%ADD36RoundRect,0.250000X-0.565685X-0.070711X-0.070711X-0.565685X0.565685X0.070711X0.070711X0.565685X0*%
%ADD37RoundRect,0.250000X0.159099X-0.512652X0.512652X-0.159099X-0.159099X0.512652X-0.512652X0.159099X0*%
G04 APERTURE END LIST*
D10*
%TO.C,TH1*%
X163660000Y-97485000D03*
D11*
X166200000Y-97485000D03*
%TD*%
D12*
%TO.C,H4*%
X142820000Y-99000000D03*
X143303274Y-97833274D03*
X143303274Y-100166726D03*
X144470000Y-97350000D03*
D13*
X144470000Y-99000000D03*
D12*
X144470000Y-100650000D03*
X145636726Y-97833274D03*
X145636726Y-100166726D03*
X146120000Y-99000000D03*
%TD*%
D10*
%TO.C,J5*%
X192060000Y-97500000D03*
D11*
X194600000Y-97500000D03*
X197140000Y-97500000D03*
%TD*%
D14*
%TO.C,RV1*%
X184795000Y-92585000D03*
X184795000Y-95125000D03*
X184795000Y-97665000D03*
%TD*%
D15*
%TO.C,J6*%
X231000000Y-65700000D03*
D16*
X231000000Y-75200000D03*
%TD*%
D12*
%TO.C,H3*%
X213190000Y-62420000D03*
X213673274Y-61253274D03*
X213673274Y-63586726D03*
X214840000Y-60770000D03*
D13*
X214840000Y-62420000D03*
D12*
X214840000Y-64070000D03*
X216006726Y-61253274D03*
X216006726Y-63586726D03*
X216490000Y-62420000D03*
%TD*%
D17*
%TO.C,MOSFET1*%
X196920000Y-85000000D03*
D18*
X199460000Y-85000000D03*
X202000000Y-85000000D03*
%TD*%
D19*
%TO.C,J1*%
X146525000Y-76382000D03*
X142725000Y-76382000D03*
X146525000Y-85022000D03*
X142725000Y-85022000D03*
%TD*%
D20*
%TO.C,J10*%
X158750000Y-64115000D03*
D11*
X156210000Y-64115000D03*
X153670000Y-64115000D03*
%TD*%
D15*
%TO.C,J8*%
X224000000Y-92500000D03*
D16*
X233500000Y-92500000D03*
%TD*%
D21*
%TO.C,J9*%
X150200000Y-94230000D03*
D22*
X152700000Y-94230000D03*
X155200000Y-94230000D03*
X157700000Y-94230000D03*
%TD*%
D12*
%TO.C,H1*%
X213190000Y-98990000D03*
X213673274Y-97823274D03*
X213673274Y-100156726D03*
X214840000Y-97340000D03*
D13*
X214840000Y-98990000D03*
D12*
X214840000Y-100640000D03*
X216006726Y-97823274D03*
X216006726Y-100156726D03*
X216490000Y-98990000D03*
%TD*%
D10*
%TO.C,J7*%
X204000000Y-97500000D03*
D11*
X206540000Y-97500000D03*
%TD*%
D23*
%TO.C,J4*%
X172660000Y-91950000D03*
D24*
X175160000Y-91950000D03*
X177660000Y-91950000D03*
%TD*%
D12*
%TO.C,H2*%
X142820000Y-62420000D03*
X143303274Y-61253274D03*
X143303274Y-63586726D03*
X144470000Y-60770000D03*
D13*
X144470000Y-62420000D03*
D12*
X144470000Y-64070000D03*
X145636726Y-61253274D03*
X145636726Y-63586726D03*
X146120000Y-62420000D03*
%TD*%
D25*
%TO.C,J3*%
X206910000Y-65660000D03*
D26*
X206910000Y-71660000D03*
%TD*%
D27*
%TO.C,J2*%
X196762500Y-67150000D03*
D28*
X194262500Y-67150000D03*
X191762500Y-67150000D03*
X189262500Y-67150000D03*
X186762500Y-67150000D03*
%TD*%
D29*
%TO.C,TP10*%
X217660000Y-75850000D03*
%TD*%
%TO.C,TP5*%
X174480000Y-74160000D03*
%TD*%
D30*
%TO.C,C8*%
X179000000Y-72500000D03*
X177903982Y-71403984D03*
%TD*%
D31*
%TO.C,R6*%
X176209530Y-76209530D03*
X177500000Y-77500000D03*
%TD*%
D29*
%TO.C,TP11*%
X190950000Y-83780000D03*
%TD*%
%TO.C,TP8*%
X177480000Y-61030000D03*
%TD*%
D32*
%TO.C,R1*%
X149000000Y-82000000D03*
X151000000Y-82000000D03*
%TD*%
D33*
%TO.C,R7*%
X181333363Y-76666638D03*
X180166637Y-77833362D03*
%TD*%
D29*
%TO.C,TP6*%
X188900000Y-80890000D03*
%TD*%
%TO.C,TP4*%
X190590000Y-78860000D03*
%TD*%
%TO.C,TP2*%
X146270000Y-82180000D03*
%TD*%
D34*
%TO.C,C12*%
X178671751Y-78828249D03*
X177328249Y-80171751D03*
%TD*%
D29*
%TO.C,TP9*%
X217370000Y-81138000D03*
%TD*%
D35*
%TO.C,Y1*%
X184987402Y-77620445D03*
X182371106Y-80236743D03*
%TD*%
D32*
%TO.C,R2*%
X149000000Y-79500000D03*
X151000000Y-79500000D03*
%TD*%
D36*
%TO.C,R10*%
X175585786Y-81285786D03*
X177000000Y-82700000D03*
%TD*%
D29*
%TO.C,TP7*%
X177710000Y-66450000D03*
%TD*%
D37*
%TO.C,C11*%
X182500000Y-75088402D03*
X183843502Y-73744900D03*
%TD*%
D29*
%TO.C,TP1*%
X157000000Y-74800000D03*
%TD*%
D32*
%TO.C,R8*%
X142500000Y-90000000D03*
X144500000Y-90000000D03*
%TD*%
D29*
%TO.C,TP16*%
X190340000Y-87850000D03*
%TD*%
%TO.C,TP13*%
X198360000Y-80760000D03*
%TD*%
%TO.C,TP3*%
X166550000Y-75100000D03*
%TD*%
%TO.C,TP14*%
X208260000Y-92050000D03*
%TD*%
D30*
%TO.C,C1*%
X178898008Y-75998008D03*
X177801992Y-74901992D03*
%TD*%
%TO.C,C6*%
X180175000Y-70925000D03*
X179078984Y-69828984D03*
%TD*%
D29*
%TO.C,TP12*%
X204200000Y-90260000D03*
%TD*%
M02*
