%TF.GenerationSoftware,KiCad,Pcbnew,9.0.8-9.0.8~ubuntu22.04.1*%
%TF.CreationDate,2026-06-12T17:49:26+05:30*%
%TF.ProjectId,Metal-Air_BMS,4d657461-6c2d-4416-9972-5f424d532e6b,V1.2.1*%
%TF.SameCoordinates,Original*%
%TF.FileFunction,Copper,L2,Bot*%
%TF.FilePolarity,Positive*%
%FSLAX46Y46*%
G04 Gerber Fmt 4.6, Leading zero omitted, Abs format (unit mm)*
G04 Created by KiCad (PCBNEW 9.0.8-9.0.8~ubuntu22.04.1) date 2026-06-12 17:49:26*
%MOMM*%
%LPD*%
G01*
G04 APERTURE LIST*
G04 Aperture macros list*
%AMRoundRect*
0 Rectangle with rounded corners*
0 $1 Rounding radius*
0 $2 $3 $4 $5 $6 $7 $8 $9 X,Y pos of 4 corners*
0 Add a 4 corners polygon primitive as box body*
4,1,4,$2,$3,$4,$5,$6,$7,$8,$9,$2,$3,0*
0 Add four circle primitives for the rounded corners*
1,1,$1+$1,$2,$3*
1,1,$1+$1,$4,$5*
1,1,$1+$1,$6,$7*
1,1,$1+$1,$8,$9*
0 Add four rect primitives between the rounded corners*
20,1,$1+$1,$2,$3,$4,$5,0*
20,1,$1+$1,$4,$5,$6,$7,0*
20,1,$1+$1,$6,$7,$8,$9,0*
20,1,$1+$1,$8,$9,$2,$3,0*%
G04 Aperture macros list end*
%TA.AperFunction,ComponentPad*%
%ADD10RoundRect,0.250000X-0.750000X-0.750000X0.750000X-0.750000X0.750000X0.750000X-0.750000X0.750000X0*%
%TD*%
%TA.AperFunction,ComponentPad*%
%ADD11C,2.000000*%
%TD*%
%TA.AperFunction,ComponentPad*%
%ADD12C,0.700000*%
%TD*%
%TA.AperFunction,ComponentPad*%
%ADD13C,4.400000*%
%TD*%
%TA.AperFunction,ComponentPad*%
%ADD14C,1.440000*%
%TD*%
%TA.AperFunction,ComponentPad*%
%ADD15R,3.000000X3.000000*%
%TD*%
%TA.AperFunction,ComponentPad*%
%ADD16C,3.000000*%
%TD*%
%TA.AperFunction,ComponentPad*%
%ADD17R,1.905000X2.000000*%
%TD*%
%TA.AperFunction,ComponentPad*%
%ADD18O,1.905000X2.000000*%
%TD*%
%TA.AperFunction,HeatsinkPad*%
%ADD19O,1.700000X1.000000*%
%TD*%
%TA.AperFunction,ComponentPad*%
%ADD20RoundRect,0.250000X0.750000X0.750000X-0.750000X0.750000X-0.750000X-0.750000X0.750000X-0.750000X0*%
%TD*%
%TA.AperFunction,ComponentPad*%
%ADD21R,1.524000X1.524000*%
%TD*%
%TA.AperFunction,ComponentPad*%
%ADD22C,1.524000*%
%TD*%
%TA.AperFunction,ComponentPad*%
%ADD23RoundRect,0.250000X-0.600000X-0.725000X0.600000X-0.725000X0.600000X0.725000X-0.600000X0.725000X0*%
%TD*%
%TA.AperFunction,ComponentPad*%
%ADD24O,1.700000X1.950000*%
%TD*%
%TA.AperFunction,ComponentPad*%
%ADD25R,1.700000X1.700000*%
%TD*%
%TA.AperFunction,ComponentPad*%
%ADD26C,1.700000*%
%TD*%
%TA.AperFunction,ComponentPad*%
%ADD27R,1.508000X1.508000*%
%TD*%
%TA.AperFunction,ComponentPad*%
%ADD28C,1.508000*%
%TD*%
%TA.AperFunction,SMDPad,CuDef*%
%ADD29C,1.500000*%
%TD*%
%TA.AperFunction,SMDPad,CuDef*%
%ADD30RoundRect,0.225000X0.335876X0.017678X0.017678X0.335876X-0.335876X-0.017678X-0.017678X-0.335876X0*%
%TD*%
%TA.AperFunction,SMDPad,CuDef*%
%ADD31RoundRect,0.250000X-0.503814X-0.132583X-0.132583X-0.503814X0.503814X0.132583X0.132583X0.503814X0*%
%TD*%
%TA.AperFunction,SMDPad,CuDef*%
%ADD32RoundRect,0.250000X-0.350000X-0.450000X0.350000X-0.450000X0.350000X0.450000X-0.350000X0.450000X0*%
%TD*%
%TA.AperFunction,SMDPad,CuDef*%
%ADD33RoundRect,0.200000X-0.053033X0.335876X-0.335876X0.053033X0.053033X-0.335876X0.335876X-0.053033X0*%
%TD*%
%TA.AperFunction,SMDPad,CuDef*%
%ADD34RoundRect,0.250000X-0.159099X0.512652X-0.512652X0.159099X0.159099X-0.512652X0.512652X-0.159099X0*%
%TD*%
%TA.AperFunction,SMDPad,CuDef*%
%ADD35RoundRect,0.250000X-0.141421X1.202082X-1.202082X0.141421X0.141421X-1.202082X1.202082X-0.141421X0*%
%TD*%
%TA.AperFunction,SMDPad,CuDef*%
%ADD36RoundRect,0.250000X-0.565685X-0.070711X-0.070711X-0.565685X0.565685X0.070711X0.070711X0.565685X0*%
%TD*%
%TA.AperFunction,SMDPad,CuDef*%
%ADD37RoundRect,0.250000X0.159099X-0.512652X0.512652X-0.159099X-0.159099X0.512652X-0.512652X0.159099X0*%
%TD*%
%TA.AperFunction,ViaPad*%
%ADD38C,0.700000*%
%TD*%
%TA.AperFunction,Conductor*%
%ADD39C,0.300000*%
%TD*%
%TA.AperFunction,Conductor*%
%ADD40C,0.350000*%
%TD*%
%TA.AperFunction,Conductor*%
%ADD41C,0.500000*%
%TD*%
%TA.AperFunction,Conductor*%
%ADD42C,5.000000*%
%TD*%
%TA.AperFunction,Conductor*%
%ADD43C,0.400000*%
%TD*%
%TA.AperFunction,Conductor*%
%ADD44C,0.700000*%
%TD*%
%TA.AperFunction,Conductor*%
%ADD45C,0.450000*%
%TD*%
%TA.AperFunction,Conductor*%
%ADD46C,0.250000*%
%TD*%
%TA.AperFunction,Conductor*%
%ADD47C,1.000000*%
%TD*%
%TA.AperFunction,Conductor*%
%ADD48C,2.000000*%
%TD*%
G04 APERTURE END LIST*
D10*
%TO.P,TH1,1*%
%TO.N,TEMP*%
X163660000Y-97485000D03*
D11*
%TO.P,TH1,2*%
%TO.N,GND*%
X166200000Y-97485000D03*
%TD*%
D12*
%TO.P,H4,1,1*%
%TO.N,GND*%
X142820000Y-99000000D03*
X143303274Y-97833274D03*
X143303274Y-100166726D03*
X144470000Y-97350000D03*
D13*
X144470000Y-99000000D03*
D12*
X144470000Y-100650000D03*
X145636726Y-97833274D03*
X145636726Y-100166726D03*
X146120000Y-99000000D03*
%TD*%
D10*
%TO.P,J5,1,Pin_1*%
%TO.N,+4.2*%
X192060000Y-97500000D03*
D11*
%TO.P,J5,2,Pin_2*%
%TO.N,-4.2*%
X194600000Y-97500000D03*
%TO.P,J5,3,Pin_3*%
%TO.N,GND*%
X197140000Y-97500000D03*
%TD*%
D14*
%TO.P,RV1,1,1*%
%TO.N,+4.2*%
X184795000Y-92585000D03*
%TO.P,RV1,2,2*%
%TO.N,NEG1*%
X184795000Y-95125000D03*
%TO.P,RV1,3,3*%
%TO.N,-4.2*%
X184795000Y-97665000D03*
%TD*%
D15*
%TO.P,J6,1,Pin_1*%
%TO.N,GND*%
X231000000Y-65700000D03*
D16*
%TO.P,J6,2,Pin_2*%
%TO.N,MA-AIR_BAT*%
X231000000Y-75200000D03*
%TD*%
D12*
%TO.P,H3,1,1*%
%TO.N,GND*%
X213190000Y-62420000D03*
X213673274Y-61253274D03*
X213673274Y-63586726D03*
X214840000Y-60770000D03*
D13*
X214840000Y-62420000D03*
D12*
X214840000Y-64070000D03*
X216006726Y-61253274D03*
X216006726Y-63586726D03*
X216490000Y-62420000D03*
%TD*%
D17*
%TO.P,MOSFET1,1,G*%
%TO.N,Net-(MOSFET1-G)*%
X196920000Y-85000000D03*
D18*
%TO.P,MOSFET1,2,D*%
%TO.N,GND*%
X199460000Y-85000000D03*
%TO.P,MOSFET1,3,S*%
%TO.N,LOAD_GND*%
X202000000Y-85000000D03*
%TD*%
D19*
%TO.P,J1,S1,SHIELD*%
%TO.N,GND*%
X146525000Y-76382000D03*
X142725000Y-76382000D03*
X146525000Y-85022000D03*
X142725000Y-85022000D03*
%TD*%
D20*
%TO.P,J10,1,Pin_1*%
%TO.N,CANH*%
X158750000Y-64115000D03*
D11*
%TO.P,J10,2,Pin_2*%
%TO.N,CANL*%
X156210000Y-64115000D03*
%TO.P,J10,3,Pin_3*%
%TO.N,GND*%
X153670000Y-64115000D03*
%TD*%
D15*
%TO.P,J8,1,Pin_1*%
%TO.N,IN-*%
X224000000Y-92500000D03*
D16*
%TO.P,J8,2,Pin_2*%
%TO.N,LOAD_GND*%
X233500000Y-92500000D03*
%TD*%
D21*
%TO.P,J9,1,Pin_1*%
%TO.N,TX*%
X150200000Y-94230000D03*
D22*
%TO.P,J9,2,Pin_2*%
%TO.N,RX*%
X152700000Y-94230000D03*
%TO.P,J9,3,Pin_3*%
%TO.N,GND*%
X155200000Y-94230000D03*
%TO.P,J9,4,Pin_4*%
%TO.N,3V3*%
X157700000Y-94230000D03*
%TD*%
D12*
%TO.P,H1,1,1*%
%TO.N,GND*%
X213190000Y-98990000D03*
X213673274Y-97823274D03*
X213673274Y-100156726D03*
X214840000Y-97340000D03*
D13*
X214840000Y-98990000D03*
D12*
X214840000Y-100640000D03*
X216006726Y-97823274D03*
X216006726Y-100156726D03*
X216490000Y-98990000D03*
%TD*%
D10*
%TO.P,J7,1,Pin_1*%
%TO.N,BIAS_GND*%
X204000000Y-97500000D03*
D11*
%TO.P,J7,2,Pin_2*%
%TO.N,Net-(D4-K)*%
X206540000Y-97500000D03*
%TD*%
D23*
%TO.P,J4,1,Pin_1*%
%TO.N,H2_SENS*%
X172660000Y-91950000D03*
D24*
%TO.P,J4,2,Pin_2*%
%TO.N,3V3*%
X175160000Y-91950000D03*
%TO.P,J4,3,Pin_3*%
%TO.N,GND*%
X177660000Y-91950000D03*
%TD*%
D12*
%TO.P,H2,1,1*%
%TO.N,GND*%
X142820000Y-62420000D03*
X143303274Y-61253274D03*
X143303274Y-63586726D03*
X144470000Y-60770000D03*
D13*
X144470000Y-62420000D03*
D12*
X144470000Y-64070000D03*
X145636726Y-61253274D03*
X145636726Y-63586726D03*
X146120000Y-62420000D03*
%TD*%
D25*
%TO.P,J3,1,Pin_1*%
%TO.N,5v*%
X206910000Y-65660000D03*
D26*
%TO.P,J3,2,Pin_2*%
%TO.N,BUZZER*%
X206910000Y-71660000D03*
%TD*%
D27*
%TO.P,J2,1,Pin_1*%
%TO.N,3V3*%
X196762500Y-67150000D03*
D28*
%TO.P,J2,2,Pin_2*%
%TO.N,SWCLK*%
X194262500Y-67150000D03*
%TO.P,J2,3,Pin_3*%
%TO.N,GND*%
X191762500Y-67150000D03*
%TO.P,J2,4,Pin_4*%
%TO.N,SWDIO*%
X189262500Y-67150000D03*
%TO.P,J2,5,Pin_5*%
%TO.N,NRST*%
X186762500Y-67150000D03*
%TD*%
D29*
%TO.P,TP10,1,1*%
%TO.N,MA-AIR_BAT*%
X217660000Y-75850000D03*
%TD*%
%TO.P,TP5,1,1*%
%TO.N,VREF+*%
X174480000Y-74160000D03*
%TD*%
D30*
%TO.P,C8,1*%
%TO.N,3V3*%
X179000000Y-72500000D03*
%TO.P,C8,2*%
%TO.N,GND*%
X177903982Y-71403984D03*
%TD*%
D31*
%TO.P,R6,1*%
%TO.N,3V3*%
X176209530Y-76209530D03*
%TO.P,R6,2*%
%TO.N,NRST*%
X177500000Y-77500000D03*
%TD*%
D29*
%TO.P,TP11,1,1*%
%TO.N,Net-(Q3-B)*%
X190950000Y-83780000D03*
%TD*%
%TO.P,TP8,1,1*%
%TO.N,CAN_RX*%
X177480000Y-61030000D03*
%TD*%
D32*
%TO.P,R1,1*%
%TO.N,Net-(J1-CC2)*%
X149000000Y-82000000D03*
%TO.P,R1,2*%
%TO.N,GND*%
X151000000Y-82000000D03*
%TD*%
D33*
%TO.P,R7,1*%
%TO.N,OSC_OUT*%
X181333363Y-76666638D03*
%TO.P,R7,2*%
%TO.N,Net-(C12-Pad1)*%
X180166637Y-77833362D03*
%TD*%
D29*
%TO.P,TP6,1,1*%
%TO.N,SCL*%
X188900000Y-80890000D03*
%TD*%
%TO.P,TP4,1,1*%
%TO.N,SDA*%
X190590000Y-78860000D03*
%TD*%
%TO.P,TP2,1,1*%
%TO.N,VUSB*%
X146270000Y-82180000D03*
%TD*%
D34*
%TO.P,C12,1*%
%TO.N,Net-(C12-Pad1)*%
X178671751Y-78828249D03*
%TO.P,C12,2*%
%TO.N,GND*%
X177328249Y-80171751D03*
%TD*%
D29*
%TO.P,TP9,1,1*%
%TO.N,IN-*%
X217370000Y-81138000D03*
%TD*%
D35*
%TO.P,Y1,1,1*%
%TO.N,OSC_IN*%
X184987402Y-77620445D03*
%TO.P,Y1,2,2*%
%TO.N,Net-(C12-Pad1)*%
X182371106Y-80236743D03*
%TD*%
D32*
%TO.P,R2,1*%
%TO.N,Net-(J1-CC1)*%
X149000000Y-79500000D03*
%TO.P,R2,2*%
%TO.N,GND*%
X151000000Y-79500000D03*
%TD*%
D36*
%TO.P,R10,1*%
%TO.N,TEMP*%
X175585786Y-81285786D03*
%TO.P,R10,2*%
%TO.N,3V3*%
X177000000Y-82700000D03*
%TD*%
D29*
%TO.P,TP7,1,1*%
%TO.N,CAN_TX*%
X177710000Y-66450000D03*
%TD*%
D37*
%TO.P,C11,1*%
%TO.N,OSC_IN*%
X182500000Y-75088402D03*
%TO.P,C11,2*%
%TO.N,GND*%
X183843502Y-73744900D03*
%TD*%
D29*
%TO.P,TP1,1,1*%
%TO.N,5v*%
X157000000Y-74800000D03*
%TD*%
D32*
%TO.P,R8,1*%
%TO.N,Net-(R8-Pad1)*%
X142500000Y-90000000D03*
%TO.P,R8,2*%
%TO.N,3V3*%
X144500000Y-90000000D03*
%TD*%
D29*
%TO.P,TP16,1,1*%
%TO.N,BIAS_OUT*%
X190340000Y-87850000D03*
%TD*%
%TO.P,TP13,1,1*%
%TO.N,Net-(MOSFET1-G)*%
X198360000Y-80760000D03*
%TD*%
%TO.P,TP3,1,1*%
%TO.N,3V3*%
X166550000Y-75100000D03*
%TD*%
%TO.P,TP14,1,1*%
%TO.N,Net-(D4-K)*%
X208260000Y-92050000D03*
%TD*%
D30*
%TO.P,C1,1*%
%TO.N,NRST*%
X178898008Y-75998008D03*
%TO.P,C1,2*%
%TO.N,GND*%
X177801992Y-74901992D03*
%TD*%
%TO.P,C6,1*%
%TO.N,3V3*%
X180175000Y-70925000D03*
%TO.P,C6,2*%
%TO.N,GND*%
X179078984Y-69828984D03*
%TD*%
D29*
%TO.P,TP12,1,1*%
%TO.N,BIAS_GND*%
X204200000Y-90260000D03*
%TD*%
D38*
%TO.N,GND*%
X174100000Y-84400000D03*
%TO.N,NRST*%
X179653907Y-76683381D03*
X150375000Y-71500000D03*
%TO.N,GND*%
X180000000Y-62675000D03*
X201790000Y-77870000D03*
X198250000Y-65250000D03*
X183160000Y-70920000D03*
X194500000Y-71950000D03*
X157500000Y-88250000D03*
X175253616Y-65228785D03*
X188250000Y-69500000D03*
X172250000Y-79500000D03*
X182750000Y-77000000D03*
X172000000Y-71250000D03*
X173430000Y-64690000D03*
X163875000Y-62470000D03*
X207359975Y-78040025D03*
X191500000Y-77500000D03*
X182250000Y-66750000D03*
X184750000Y-65000000D03*
X177810000Y-74810000D03*
%TO.N,VREF+*%
X174870000Y-75640000D03*
%TO.N,5v*%
X196000000Y-80500000D03*
X155800000Y-75400000D03*
%TO.N,3V3*%
X180000000Y-64750000D03*
X209362500Y-82000000D03*
X197000000Y-72000000D03*
X166020000Y-75400000D03*
X175425000Y-87880000D03*
X190166726Y-82166726D03*
X180179254Y-70930000D03*
%TO.N,OSC_IN*%
X181503157Y-75496843D03*
%TO.N,TEMP*%
X175814008Y-80954795D03*
%TO.N,Net-(D4-K)*%
X208260000Y-92050000D03*
%TO.N,BIAS_OUT*%
X190340000Y-87850000D03*
%TO.N,VUSB*%
X146310000Y-82222000D03*
%TO.N,Net-(J1-CC2)*%
X147750000Y-81250000D03*
%TO.N,Net-(J1-CC1)*%
X147750000Y-80000000D03*
%TO.N,SWDIO*%
X187000000Y-77000000D03*
%TO.N,SWCLK*%
X150375000Y-90000000D03*
X190209530Y-76209530D03*
%TO.N,MA-AIR_BAT*%
X217500000Y-75900000D03*
%TO.N,BIAS_GND*%
X204000000Y-90312500D03*
%TO.N,IN-*%
X217440000Y-81040000D03*
%TO.N,Net-(MOSFET1-G)*%
X198360000Y-80760000D03*
%TO.N,Net-(Q2-G)*%
X185957107Y-86207107D03*
X199500000Y-89250000D03*
%TO.N,Net-(Q3-B)*%
X191050000Y-83562500D03*
%TO.N,SDA*%
X190815000Y-79185000D03*
%TO.N,SCL*%
X188619213Y-80900787D03*
%TO.N,OSC_OUT*%
X181333363Y-76666638D03*
%TO.N,Net-(R8-Pad1)*%
X142500000Y-90000000D03*
%TO.N,CAN_TX*%
X177430000Y-65655000D03*
%TO.N,CAN_RX*%
X177340000Y-62030000D03*
%TO.N,GND*%
X167000000Y-69250000D03*
%TD*%
D39*
%TO.N,NRST*%
X178898008Y-76101992D02*
X177500000Y-77500000D01*
D40*
X186762500Y-67150000D02*
X185696183Y-67150000D01*
D39*
X179653907Y-76683381D02*
X179583381Y-76683381D01*
D40*
X185696183Y-67150000D02*
X178898008Y-73948175D01*
X178898008Y-73948175D02*
X178898008Y-75998008D01*
X156375000Y-77500000D02*
X177500000Y-77500000D01*
X150375000Y-71500000D02*
X156375000Y-77500000D01*
D39*
X179583381Y-76683381D02*
X178898008Y-75998008D01*
X178898008Y-75998008D02*
X178898008Y-76101992D01*
D41*
%TO.N,GND*%
X155315000Y-62470000D02*
X163875000Y-62470000D01*
X153670000Y-64115000D02*
X155315000Y-62470000D01*
X151000000Y-79500000D02*
X147882000Y-76382000D01*
D42*
X231000000Y-65700000D02*
X218120000Y-65700000D01*
D39*
X172250000Y-79500000D02*
X169750000Y-82000000D01*
X195366500Y-71083500D02*
X194500000Y-71950000D01*
X181395560Y-73744900D02*
X183160000Y-71980460D01*
X195366500Y-66692708D02*
X195366500Y-71083500D01*
D41*
X200300000Y-94340000D02*
X197140000Y-97500000D01*
X151000000Y-82000000D02*
X151000000Y-79500000D01*
X163875000Y-62470000D02*
X164585000Y-63180000D01*
X147882000Y-76382000D02*
X146525000Y-76382000D01*
X164585000Y-63180000D02*
X179495000Y-63180000D01*
X174714831Y-64690000D02*
X175253616Y-65228785D01*
D39*
X177801992Y-74901992D02*
X177801992Y-74818008D01*
X192866500Y-66046000D02*
X194719792Y-66046000D01*
D41*
X179078984Y-69828984D02*
X179078984Y-70228982D01*
D39*
X194719792Y-66046000D02*
X195366500Y-66692708D01*
X201960025Y-78040025D02*
X201790000Y-77870000D01*
X207359975Y-78040025D02*
X201960025Y-78040025D01*
D41*
X179495000Y-63180000D02*
X180000000Y-62675000D01*
X172000000Y-71250000D02*
X172000000Y-68482401D01*
X173430000Y-64690000D02*
X174714831Y-64690000D01*
D39*
X169750000Y-82000000D02*
X151000000Y-82000000D01*
D41*
X199460000Y-85000000D02*
X200300000Y-85840000D01*
D42*
X218120000Y-65700000D02*
X214840000Y-62420000D01*
D41*
X172000000Y-68482401D02*
X175253616Y-65228785D01*
X179078984Y-70228982D02*
X177903982Y-71403984D01*
D39*
X191762500Y-67150000D02*
X192866500Y-66046000D01*
X177801992Y-74818008D02*
X177810000Y-74810000D01*
X183160000Y-71980460D02*
X183160000Y-70920000D01*
D41*
X200300000Y-85840000D02*
X200300000Y-94340000D01*
%TO.N,VREF+*%
X174480000Y-74160000D02*
X174480000Y-75250000D01*
X174480000Y-75250000D02*
X174870000Y-75640000D01*
D43*
%TO.N,5v*%
X156400000Y-75400000D02*
X157000000Y-74800000D01*
X206910000Y-65660000D02*
X205100000Y-63850000D01*
X156730000Y-75070000D02*
X156130000Y-75070000D01*
X205100000Y-63850000D02*
X165800000Y-63850000D01*
X156130000Y-73520000D02*
X156130000Y-75070000D01*
X156130000Y-75070000D02*
X155800000Y-75400000D01*
D44*
X206910000Y-69590000D02*
X206910000Y-65660000D01*
X196000000Y-80500000D02*
X206910000Y-69590000D01*
D43*
X155800000Y-75400000D02*
X156400000Y-75400000D01*
X165800000Y-63850000D02*
X156130000Y-73520000D01*
X157000000Y-74800000D02*
X156730000Y-75070000D01*
D41*
%TO.N,3V3*%
X186500000Y-65800000D02*
X184331371Y-65800000D01*
X196762500Y-67150000D02*
X194112500Y-64500000D01*
X180191371Y-69940000D02*
X180175000Y-69940000D01*
D45*
X180175000Y-70925000D02*
X180175000Y-71325000D01*
D41*
X194112500Y-64500000D02*
X187800000Y-64500000D01*
D45*
X177000000Y-82700000D02*
X177000000Y-86305000D01*
D41*
X187800000Y-64500000D02*
X186500000Y-65800000D01*
D44*
X166250000Y-75400000D02*
X166550000Y-75100000D01*
D45*
X180000000Y-64750000D02*
X180175000Y-64925000D01*
D41*
X184943274Y-82166726D02*
X175160000Y-91950000D01*
X190166726Y-82166726D02*
X190333452Y-82000000D01*
X197000000Y-72000000D02*
X196762500Y-71762500D01*
X156488000Y-93018000D02*
X157700000Y-94230000D01*
X190333452Y-82000000D02*
X209362500Y-82000000D01*
X176209530Y-76209530D02*
X176209530Y-75221662D01*
D44*
X166020000Y-75400000D02*
X166250000Y-75400000D01*
D41*
X190166726Y-82166726D02*
X184943274Y-82166726D01*
X178931192Y-72500000D02*
X179000000Y-72500000D01*
D39*
X179000000Y-72500000D02*
X179391587Y-72500000D01*
D41*
X147518000Y-93018000D02*
X156488000Y-93018000D01*
X157700000Y-94230000D02*
X172880000Y-94230000D01*
D45*
X177000000Y-86305000D02*
X175425000Y-87880000D01*
D41*
X144500000Y-90000000D02*
X147518000Y-93018000D01*
X172880000Y-94230000D02*
X175160000Y-91950000D01*
D45*
X180175000Y-64925000D02*
X180175000Y-70925000D01*
X180175000Y-71325000D02*
X179000000Y-72500000D01*
D41*
X176209530Y-75221662D02*
X178931192Y-72500000D01*
X196762500Y-71762500D02*
X196762500Y-67150000D01*
X184331371Y-65800000D02*
X180191371Y-69940000D01*
D40*
%TO.N,OSC_IN*%
X184987402Y-77575804D02*
X184987402Y-77620445D01*
D39*
X181502539Y-75496843D02*
X182091559Y-75496843D01*
X182091559Y-75496843D02*
X182500000Y-75088402D01*
D40*
X182500000Y-75088402D02*
X184987402Y-77575804D01*
%TO.N,Net-(C12-Pad1)*%
X182371106Y-80037831D02*
X180166637Y-77833362D01*
X180166637Y-77833362D02*
X179666638Y-77833362D01*
X179666638Y-77833362D02*
X178671751Y-78828249D01*
X182371106Y-80236743D02*
X182371106Y-80037831D01*
D44*
%TO.N,VUSB*%
X146310000Y-82222000D02*
X146310000Y-82220000D01*
X146310000Y-82220000D02*
X146270000Y-82180000D01*
D46*
%TO.N,Net-(J1-CC2)*%
X148500000Y-82000000D02*
X147750000Y-81250000D01*
X149000000Y-82000000D02*
X148500000Y-82000000D01*
%TO.N,Net-(J1-CC1)*%
X148250000Y-79500000D02*
X147750000Y-80000000D01*
X149000000Y-79500000D02*
X148250000Y-79500000D01*
D40*
%TO.N,SWDIO*%
X187000000Y-69412500D02*
X189262500Y-67150000D01*
X187000000Y-77000000D02*
X187000000Y-69412500D01*
D39*
%TO.N,SWCLK*%
X194262500Y-67150000D02*
X190209530Y-71202970D01*
D41*
X150375000Y-90000000D02*
X175209530Y-90000000D01*
X189000000Y-76209530D02*
X190209530Y-76209530D01*
X175209530Y-90000000D02*
X189000000Y-76209530D01*
D39*
X190209530Y-71202970D02*
X190209530Y-76209530D01*
D47*
%TO.N,-4.2*%
X184795000Y-98795000D02*
X185750000Y-99750000D01*
X185750000Y-99750000D02*
X193750000Y-99750000D01*
X194600000Y-98900000D02*
X194600000Y-97500000D01*
X184795000Y-97665000D02*
X184795000Y-98795000D01*
X193750000Y-99750000D02*
X194600000Y-98900000D01*
%TO.N,+4.2*%
X187500000Y-96750000D02*
X187500000Y-94250000D01*
X185835000Y-92585000D02*
X184795000Y-92585000D01*
X192060000Y-97500000D02*
X188250000Y-97500000D01*
X188250000Y-97500000D02*
X187500000Y-96750000D01*
X187500000Y-94250000D02*
X185835000Y-92585000D01*
D39*
%TO.N,MA-AIR_BAT*%
X217610000Y-75900000D02*
X217660000Y-75850000D01*
X217500000Y-75900000D02*
X217610000Y-75900000D01*
D45*
%TO.N,BIAS_GND*%
X204000000Y-90312500D02*
X204147500Y-90312500D01*
X204147500Y-90312500D02*
X204200000Y-90260000D01*
D48*
%TO.N,LOAD_GND*%
X233500000Y-92500000D02*
X225650000Y-100350000D01*
X207175000Y-85000000D02*
X222525000Y-100350000D01*
X202000000Y-85000000D02*
X207175000Y-85000000D01*
X225650000Y-100350000D02*
X222525000Y-100350000D01*
D40*
%TO.N,Net-(Q2-G)*%
X189000000Y-89250000D02*
X185957107Y-86207107D01*
X199500000Y-89250000D02*
X189000000Y-89250000D01*
D41*
%TO.N,Net-(Q3-B)*%
X190950000Y-83662500D02*
X191050000Y-83562500D01*
X190950000Y-83780000D02*
X190950000Y-83662500D01*
D39*
%TO.N,SDA*%
X190815000Y-79085000D02*
X190590000Y-78860000D01*
X190815000Y-79185000D02*
X190815000Y-79085000D01*
%TO.N,SCL*%
X188619213Y-80900787D02*
X188889213Y-80900787D01*
X188889213Y-80900787D02*
X188900000Y-80890000D01*
%TO.N,CAN_TX*%
X177430000Y-65655000D02*
X177430000Y-66170000D01*
X177430000Y-66170000D02*
X177710000Y-66450000D01*
%TO.N,CAN_RX*%
X177340000Y-62030000D02*
X177340000Y-61170000D01*
X177110000Y-61845000D02*
X177110000Y-61400000D01*
X177340000Y-61170000D02*
X177480000Y-61030000D01*
X177110000Y-61400000D02*
X177480000Y-61030000D01*
%TD*%
%TA.AperFunction,Conductor*%
%TO.N,LOAD_GND*%
G36*
X241941418Y-81269685D02*
G01*
X241987173Y-81322489D01*
X241998368Y-81375608D01*
X241858462Y-92148422D01*
X241750593Y-100454328D01*
X241730039Y-100521106D01*
X241719923Y-100534373D01*
X240037052Y-102457655D01*
X239978092Y-102495145D01*
X239943732Y-102500000D01*
X217624000Y-102500000D01*
X217556961Y-102480315D01*
X217511206Y-102427511D01*
X217500000Y-102376000D01*
X217500000Y-99485687D01*
X217503109Y-99458094D01*
X217506540Y-99443063D01*
X217540500Y-99141657D01*
X217540500Y-98838343D01*
X217506540Y-98536937D01*
X217503107Y-98521899D01*
X217500000Y-98494312D01*
X217500000Y-97000000D01*
X217499999Y-96999999D01*
X216249999Y-96531249D01*
X215500000Y-96250000D01*
X215499999Y-96250000D01*
X213750000Y-96250000D01*
X213031239Y-96729174D01*
X212964540Y-96749982D01*
X212962456Y-96750000D01*
X209124000Y-96750000D01*
X209056961Y-96730315D01*
X209011206Y-96677511D01*
X209000000Y-96626000D01*
X209000000Y-93121242D01*
X209019685Y-93054203D01*
X209051118Y-93020922D01*
X209074639Y-93003833D01*
X209074637Y-93003833D01*
X209074646Y-93003828D01*
X209213828Y-92864646D01*
X209329524Y-92705405D01*
X209418884Y-92530025D01*
X209479709Y-92342826D01*
X209510500Y-92148422D01*
X209510500Y-91951577D01*
X209479709Y-91757173D01*
X209418882Y-91569970D01*
X209371743Y-91477455D01*
X209329524Y-91394595D01*
X209213828Y-91235354D01*
X209074646Y-91096172D01*
X209051113Y-91079074D01*
X209008448Y-91023743D01*
X209000000Y-90978757D01*
X209000000Y-88500000D01*
X201174500Y-88500000D01*
X201107461Y-88480315D01*
X201061706Y-88427511D01*
X201050500Y-88376000D01*
X201050500Y-86149145D01*
X202952500Y-86149145D01*
X203107901Y-85993743D01*
X203107902Y-85993741D01*
X203137867Y-85952500D01*
X202952500Y-85952500D01*
X202952500Y-86149145D01*
X201050500Y-86149145D01*
X201050500Y-85902292D01*
X201050500Y-85766082D01*
X201047725Y-85752132D01*
X201047521Y-85741078D01*
X201047671Y-85740528D01*
X201047500Y-85738787D01*
X201047500Y-84927591D01*
X201450000Y-84927591D01*
X201450000Y-85072409D01*
X201487482Y-85212292D01*
X201559890Y-85337708D01*
X201662292Y-85440110D01*
X201787708Y-85512518D01*
X201927591Y-85550000D01*
X202072409Y-85550000D01*
X202212292Y-85512518D01*
X202337708Y-85440110D01*
X202440110Y-85337708D01*
X202512518Y-85212292D01*
X202550000Y-85072409D01*
X202550000Y-84927591D01*
X202512518Y-84787708D01*
X202440110Y-84662292D01*
X202337708Y-84559890D01*
X202212292Y-84487482D01*
X202072409Y-84450000D01*
X201927591Y-84450000D01*
X201787708Y-84487482D01*
X201662292Y-84559890D01*
X201559890Y-84662292D01*
X201487482Y-84787708D01*
X201450000Y-84927591D01*
X201047500Y-84927591D01*
X201047500Y-84047500D01*
X202952500Y-84047500D01*
X203137867Y-84047500D01*
X203107902Y-84006258D01*
X203107901Y-84006256D01*
X202952500Y-83850854D01*
X202952500Y-84047500D01*
X201047500Y-84047500D01*
X201047500Y-83839477D01*
X201022143Y-83819043D01*
X201000079Y-83752749D01*
X201000000Y-83748325D01*
X201000000Y-82874500D01*
X201019685Y-82807461D01*
X201072489Y-82761706D01*
X201124000Y-82750500D01*
X206126000Y-82750500D01*
X206193039Y-82770185D01*
X206238794Y-82822989D01*
X206250000Y-82874500D01*
X206250000Y-83250000D01*
X217376000Y-83250000D01*
X217443039Y-83269685D01*
X217488794Y-83322489D01*
X217500000Y-83374000D01*
X217500000Y-94250000D01*
X222750000Y-99500000D01*
X225500000Y-99500000D01*
X230250000Y-94750000D01*
X230250000Y-92435981D01*
X232850000Y-92435981D01*
X232850000Y-92564019D01*
X232874979Y-92689598D01*
X232923978Y-92807890D01*
X232995112Y-92914351D01*
X233085649Y-93004888D01*
X233192110Y-93076022D01*
X233310402Y-93125021D01*
X233435981Y-93150000D01*
X233564019Y-93150000D01*
X233689598Y-93125021D01*
X233807890Y-93076022D01*
X233914351Y-93004888D01*
X234004888Y-92914351D01*
X234076022Y-92807890D01*
X234125021Y-92689598D01*
X234150000Y-92564019D01*
X234150000Y-92435981D01*
X234125021Y-92310402D01*
X234076022Y-92192110D01*
X234004888Y-92085649D01*
X233914351Y-91995112D01*
X233807890Y-91923978D01*
X233689598Y-91874979D01*
X233564019Y-91850000D01*
X233435981Y-91850000D01*
X233310402Y-91874979D01*
X233192110Y-91923978D01*
X233085649Y-91995112D01*
X232995112Y-92085649D01*
X232923978Y-92192110D01*
X232874979Y-92310402D01*
X232850000Y-92435981D01*
X230250000Y-92435981D01*
X230250000Y-81374000D01*
X230269685Y-81306961D01*
X230322489Y-81261206D01*
X230374000Y-81250000D01*
X241874379Y-81250000D01*
X241941418Y-81269685D01*
G37*
%TD.AperFunction*%
%TD*%
%TA.AperFunction,Conductor*%
%TO.N,5v*%
G36*
X156190075Y-73575903D02*
G01*
X156257086Y-73595662D01*
X156302781Y-73648518D01*
X156313547Y-73709631D01*
X156309872Y-73756320D01*
X157176777Y-74623223D01*
X158043678Y-75490126D01*
X158043678Y-75490125D01*
X158069095Y-75455143D01*
X158158418Y-75279835D01*
X158219221Y-75092705D01*
X158250000Y-74898382D01*
X158250000Y-74701617D01*
X158219221Y-74507294D01*
X158158417Y-74320161D01*
X158089955Y-74185794D01*
X158077059Y-74117125D01*
X158103336Y-74052385D01*
X158160442Y-74012128D01*
X158200440Y-74005500D01*
X159618890Y-74005500D01*
X159685929Y-74025185D01*
X159731684Y-74077989D01*
X159742889Y-74129862D01*
X159740345Y-75000138D01*
X159740345Y-75000139D01*
X159735372Y-76700863D01*
X159715492Y-76767844D01*
X159662554Y-76813445D01*
X159611373Y-76824500D01*
X156706163Y-76824500D01*
X156639124Y-76804815D01*
X156618482Y-76788181D01*
X155673978Y-75843677D01*
X156309873Y-75843677D01*
X156309873Y-75843678D01*
X156344858Y-75869096D01*
X156520164Y-75958418D01*
X156707294Y-76019221D01*
X156901618Y-76050000D01*
X157098382Y-76050000D01*
X157292705Y-76019221D01*
X157479835Y-75958418D01*
X157655143Y-75869095D01*
X157690125Y-75843678D01*
X157690126Y-75843678D01*
X157000001Y-75153553D01*
X157000000Y-75153553D01*
X156309873Y-75843677D01*
X155673978Y-75843677D01*
X154531918Y-74701617D01*
X155750000Y-74701617D01*
X155750000Y-74898382D01*
X155780778Y-75092705D01*
X155841581Y-75279835D01*
X155930905Y-75455145D01*
X155956319Y-75490125D01*
X155956320Y-75490125D01*
X156646446Y-74800000D01*
X156646446Y-74799999D01*
X155956320Y-74109872D01*
X155956320Y-74109873D01*
X155930902Y-74144859D01*
X155930899Y-74144863D01*
X155841582Y-74320161D01*
X155780778Y-74507294D01*
X155750000Y-74701617D01*
X154531918Y-74701617D01*
X154047482Y-74217181D01*
X154013997Y-74155858D01*
X154018981Y-74086166D01*
X154060853Y-74030233D01*
X154126317Y-74005816D01*
X154135163Y-74005500D01*
X155318001Y-74005500D01*
X155318001Y-74005499D01*
X155376501Y-74002102D01*
X155376519Y-74002099D01*
X155376530Y-74002099D01*
X155384000Y-74001228D01*
X155405017Y-73998779D01*
X155462755Y-73988629D01*
X155596645Y-73935950D01*
X155654460Y-73903027D01*
X155656301Y-73902044D01*
X155657366Y-73901373D01*
X155679972Y-73883811D01*
X155770988Y-73813108D01*
X155855142Y-73696405D01*
X155883492Y-73642206D01*
X155932006Y-73591927D01*
X155993502Y-73575681D01*
X156190075Y-73575903D01*
G37*
%TD.AperFunction*%
%TD*%
%TA.AperFunction,Conductor*%
%TO.N,3V3*%
G36*
X165824729Y-74025185D02*
G01*
X165845371Y-74041819D01*
X166639095Y-74835542D01*
X166672580Y-74896865D01*
X166667596Y-74966556D01*
X166639096Y-75010904D01*
X166550000Y-75100000D01*
X166639095Y-75189095D01*
X166672580Y-75250418D01*
X166667596Y-75320110D01*
X166639095Y-75364457D01*
X165859873Y-76143677D01*
X165859873Y-76143678D01*
X165894858Y-76169096D01*
X166070164Y-76258418D01*
X166257294Y-76319221D01*
X166451618Y-76350000D01*
X166620500Y-76350000D01*
X166629185Y-76352550D01*
X166638147Y-76351262D01*
X166662187Y-76362240D01*
X166687539Y-76369685D01*
X166693466Y-76376525D01*
X166701703Y-76380287D01*
X166715992Y-76402521D01*
X166733294Y-76422489D01*
X166735581Y-76433003D01*
X166739477Y-76439065D01*
X166744500Y-76474000D01*
X166744500Y-76700500D01*
X166724815Y-76767539D01*
X166672011Y-76813294D01*
X166620500Y-76824500D01*
X160364876Y-76824500D01*
X160297837Y-76804815D01*
X160252082Y-76752011D01*
X160240877Y-76700137D01*
X160242504Y-76143677D01*
X160245843Y-75001617D01*
X165300000Y-75001617D01*
X165300000Y-75198382D01*
X165330778Y-75392705D01*
X165391581Y-75579835D01*
X165480905Y-75755145D01*
X165506319Y-75790125D01*
X165506320Y-75790125D01*
X166196446Y-75100000D01*
X166196446Y-75099999D01*
X165506320Y-74409872D01*
X165506320Y-74409873D01*
X165480902Y-74444859D01*
X165480899Y-74444863D01*
X165391582Y-74620161D01*
X165330778Y-74807294D01*
X165300000Y-75001617D01*
X160245843Y-75001617D01*
X160248394Y-74129135D01*
X160268274Y-74062156D01*
X160321212Y-74016555D01*
X160372393Y-74005500D01*
X165757690Y-74005500D01*
X165824729Y-74025185D01*
G37*
%TD.AperFunction*%
%TD*%
%TA.AperFunction,Conductor*%
%TO.N,GND*%
G36*
X200437539Y-82770185D02*
G01*
X200483294Y-82822989D01*
X200494500Y-82874500D01*
X200494500Y-83665356D01*
X200474815Y-83732395D01*
X200422011Y-83778150D01*
X200352853Y-83788094D01*
X200297614Y-83765674D01*
X200221276Y-83710211D01*
X200017568Y-83606417D01*
X199800124Y-83535765D01*
X199710000Y-83521490D01*
X199710000Y-84509252D01*
X199672292Y-84487482D01*
X199532409Y-84450000D01*
X199387591Y-84450000D01*
X199247708Y-84487482D01*
X199210000Y-84509252D01*
X199210000Y-83521490D01*
X199209999Y-83521490D01*
X199119875Y-83535765D01*
X198902431Y-83606417D01*
X198698719Y-83710213D01*
X198515939Y-83843010D01*
X198450132Y-83866490D01*
X198382079Y-83850664D01*
X198333384Y-83800558D01*
X198326875Y-83786033D01*
X198316296Y-83757669D01*
X198316295Y-83757667D01*
X198316293Y-83757664D01*
X198230047Y-83642455D01*
X198230044Y-83642452D01*
X198114835Y-83556206D01*
X198114828Y-83556202D01*
X197979982Y-83505908D01*
X197979983Y-83505908D01*
X197920383Y-83499501D01*
X197920381Y-83499500D01*
X197920373Y-83499500D01*
X197920364Y-83499500D01*
X195919629Y-83499500D01*
X195919623Y-83499501D01*
X195860016Y-83505908D01*
X195725171Y-83556202D01*
X195725164Y-83556206D01*
X195609955Y-83642452D01*
X195609952Y-83642455D01*
X195523706Y-83757664D01*
X195523702Y-83757671D01*
X195473408Y-83892517D01*
X195467001Y-83952116D01*
X195467000Y-83952135D01*
X195467000Y-86047870D01*
X195467001Y-86047876D01*
X195473408Y-86107483D01*
X195523702Y-86242328D01*
X195523706Y-86242335D01*
X195609952Y-86357544D01*
X195609955Y-86357547D01*
X195725164Y-86443793D01*
X195725171Y-86443797D01*
X195860017Y-86494091D01*
X195860016Y-86494091D01*
X195866944Y-86494835D01*
X195919627Y-86500500D01*
X197920372Y-86500499D01*
X197979983Y-86494091D01*
X198114831Y-86443796D01*
X198230046Y-86357546D01*
X198316296Y-86242331D01*
X198326872Y-86213974D01*
X198368740Y-86158041D01*
X198434204Y-86133622D01*
X198502477Y-86148472D01*
X198515940Y-86156988D01*
X198698723Y-86289788D01*
X198902429Y-86393582D01*
X199119871Y-86464234D01*
X199210000Y-86478509D01*
X199210000Y-85490747D01*
X199247708Y-85512518D01*
X199387591Y-85550000D01*
X199532409Y-85550000D01*
X199672292Y-85512518D01*
X199710000Y-85490747D01*
X199710000Y-86478508D01*
X199800128Y-86464234D01*
X200017570Y-86393582D01*
X200221276Y-86289788D01*
X200348114Y-86197635D01*
X200413921Y-86174155D01*
X200481974Y-86189980D01*
X200530669Y-86240086D01*
X200545000Y-86297953D01*
X200545000Y-88376000D01*
X200545001Y-88376009D01*
X200556552Y-88483450D01*
X200556554Y-88483462D01*
X200567760Y-88534972D01*
X200601883Y-88637497D01*
X200601886Y-88637503D01*
X200679671Y-88758537D01*
X200679679Y-88758548D01*
X200725423Y-88811340D01*
X200725426Y-88811343D01*
X200725430Y-88811347D01*
X200834164Y-88905567D01*
X200965041Y-88965338D01*
X201032080Y-88985023D01*
X201032084Y-88985024D01*
X201174500Y-89005500D01*
X203417560Y-89005500D01*
X203484599Y-89025185D01*
X203530354Y-89077989D01*
X203540298Y-89147147D01*
X203511273Y-89210703D01*
X203490447Y-89229816D01*
X203385354Y-89306172D01*
X203385352Y-89306174D01*
X203385351Y-89306174D01*
X203246174Y-89445351D01*
X203246174Y-89445352D01*
X203246172Y-89445354D01*
X203207863Y-89498082D01*
X203130476Y-89604594D01*
X203041117Y-89779970D01*
X202980290Y-89967173D01*
X202949500Y-90161577D01*
X202949500Y-90358422D01*
X202980290Y-90552826D01*
X203041117Y-90740029D01*
X203118100Y-90891116D01*
X203130476Y-90915405D01*
X203246172Y-91074646D01*
X203385354Y-91213828D01*
X203544595Y-91329524D01*
X203613240Y-91364500D01*
X203719970Y-91418882D01*
X203719972Y-91418882D01*
X203719975Y-91418884D01*
X203820317Y-91451487D01*
X203907173Y-91479709D01*
X204101578Y-91510500D01*
X204101583Y-91510500D01*
X204298422Y-91510500D01*
X204492826Y-91479709D01*
X204507319Y-91475000D01*
X204680025Y-91418884D01*
X204855405Y-91329524D01*
X205014646Y-91213828D01*
X205153828Y-91074646D01*
X205269524Y-90915405D01*
X205358884Y-90740025D01*
X205419709Y-90552826D01*
X205428155Y-90499500D01*
X205450500Y-90358422D01*
X205450500Y-90161577D01*
X205419709Y-89967173D01*
X205381186Y-89848613D01*
X205358884Y-89779975D01*
X205358882Y-89779972D01*
X205358882Y-89779970D01*
X205308253Y-89680606D01*
X205269524Y-89604595D01*
X205153828Y-89445354D01*
X205014646Y-89306172D01*
X204909553Y-89229817D01*
X204866889Y-89174488D01*
X204860910Y-89104874D01*
X204893516Y-89043079D01*
X204954355Y-89008722D01*
X204982440Y-89005500D01*
X208370500Y-89005500D01*
X208437539Y-89025185D01*
X208483294Y-89077989D01*
X208494500Y-89129500D01*
X208494500Y-90676067D01*
X208474815Y-90743106D01*
X208422011Y-90788861D01*
X208363289Y-90799241D01*
X208363289Y-90799500D01*
X208361827Y-90799500D01*
X208360780Y-90799685D01*
X208358427Y-90799500D01*
X208358417Y-90799500D01*
X208161583Y-90799500D01*
X208161578Y-90799500D01*
X207967173Y-90830290D01*
X207779970Y-90891117D01*
X207604594Y-90980476D01*
X207513741Y-91046485D01*
X207445354Y-91096172D01*
X207445352Y-91096174D01*
X207445351Y-91096174D01*
X207306174Y-91235351D01*
X207306174Y-91235352D01*
X207306172Y-91235354D01*
X207256485Y-91303741D01*
X207190476Y-91394594D01*
X207101117Y-91569970D01*
X207040290Y-91757173D01*
X207009500Y-91951577D01*
X207009500Y-92148422D01*
X207040290Y-92342826D01*
X207101117Y-92530029D01*
X207178069Y-92681055D01*
X207190476Y-92705405D01*
X207306172Y-92864646D01*
X207445354Y-93003828D01*
X207604595Y-93119524D01*
X207651957Y-93143656D01*
X207779970Y-93208882D01*
X207779972Y-93208882D01*
X207779975Y-93208884D01*
X207845111Y-93230048D01*
X207967173Y-93269709D01*
X208161578Y-93300500D01*
X208161583Y-93300500D01*
X208358414Y-93300500D01*
X208358417Y-93300500D01*
X208358419Y-93300499D01*
X208360763Y-93300315D01*
X208361644Y-93300500D01*
X208363289Y-93300500D01*
X208363289Y-93300845D01*
X208429141Y-93314674D01*
X208478901Y-93363722D01*
X208494500Y-93423932D01*
X208494500Y-96626000D01*
X208494501Y-96626009D01*
X208506052Y-96733450D01*
X208506054Y-96733462D01*
X208517260Y-96784972D01*
X208551383Y-96887497D01*
X208551386Y-96887503D01*
X208629171Y-97008537D01*
X208629179Y-97008548D01*
X208674923Y-97061340D01*
X208674926Y-97061343D01*
X208674930Y-97061347D01*
X208783664Y-97155567D01*
X208783667Y-97155568D01*
X208783668Y-97155569D01*
X208906653Y-97211736D01*
X208914541Y-97215338D01*
X208981580Y-97235023D01*
X208981584Y-97235024D01*
X209124000Y-97255500D01*
X209124003Y-97255500D01*
X212962428Y-97255500D01*
X212962456Y-97255500D01*
X212966822Y-97255481D01*
X212968906Y-97255463D01*
X212973033Y-97255411D01*
X213115084Y-97232545D01*
X213181783Y-97211737D01*
X213181785Y-97211736D01*
X213181790Y-97211733D01*
X213181915Y-97211683D01*
X213182797Y-97211253D01*
X213213731Y-97196493D01*
X213299501Y-97155567D01*
X213311638Y-97149776D01*
X213399855Y-97090965D01*
X213871813Y-96776325D01*
X213938512Y-96755518D01*
X213940596Y-96755500D01*
X215385850Y-96755500D01*
X215429389Y-96763395D01*
X215857678Y-96924003D01*
X216776094Y-97268409D01*
X216914039Y-97320138D01*
X216969899Y-97362108D01*
X216994200Y-97427616D01*
X216994500Y-97436243D01*
X216994500Y-98494332D01*
X216997674Y-98550876D01*
X216997675Y-98550885D01*
X217000783Y-98578476D01*
X217000788Y-98578509D01*
X217005359Y-98605413D01*
X217006331Y-98612298D01*
X217034220Y-98859812D01*
X217035000Y-98873696D01*
X217035000Y-99106302D01*
X217034220Y-99120186D01*
X217006332Y-99367688D01*
X217005361Y-99374567D01*
X217000791Y-99401472D01*
X217000784Y-99401517D01*
X216997680Y-99429072D01*
X216997679Y-99429088D01*
X216997679Y-99429089D01*
X216994500Y-99485687D01*
X216994500Y-102376000D01*
X216994501Y-102376009D01*
X217006052Y-102483450D01*
X217006054Y-102483462D01*
X217017260Y-102534972D01*
X217051383Y-102637497D01*
X217051386Y-102637503D01*
X217129171Y-102758537D01*
X217129179Y-102758548D01*
X217174923Y-102811340D01*
X217174926Y-102811343D01*
X217174930Y-102811347D01*
X217283664Y-102905567D01*
X217283667Y-102905568D01*
X217283668Y-102905569D01*
X217408777Y-102962706D01*
X217461581Y-103008461D01*
X217481265Y-103075501D01*
X217461580Y-103142540D01*
X217408776Y-103188295D01*
X217357265Y-103199500D01*
X171624000Y-103199500D01*
X171556961Y-103179815D01*
X171511206Y-103127011D01*
X171500000Y-103075500D01*
X171500000Y-95104500D01*
X171519685Y-95037461D01*
X171572489Y-94991706D01*
X171624000Y-94980500D01*
X172953920Y-94980500D01*
X173051462Y-94961096D01*
X173098913Y-94951658D01*
X173235495Y-94895084D01*
X173284729Y-94862186D01*
X173358416Y-94812952D01*
X174743284Y-93428082D01*
X174804605Y-93394599D01*
X174850361Y-93393292D01*
X175053713Y-93425500D01*
X175053714Y-93425500D01*
X175266286Y-93425500D01*
X175266287Y-93425500D01*
X175476243Y-93392246D01*
X175678412Y-93326557D01*
X175867816Y-93230051D01*
X175896953Y-93208882D01*
X176039786Y-93105109D01*
X176039788Y-93105106D01*
X176039792Y-93105104D01*
X176190104Y-92954792D01*
X176309991Y-92789779D01*
X176365320Y-92747115D01*
X176434933Y-92741136D01*
X176496729Y-92773741D01*
X176510627Y-92789781D01*
X176630272Y-92954459D01*
X176630276Y-92954464D01*
X176780535Y-93104723D01*
X176780540Y-93104727D01*
X176952442Y-93229620D01*
X177141782Y-93326095D01*
X177343871Y-93391757D01*
X177410000Y-93402231D01*
X177410000Y-92354145D01*
X177476657Y-92392630D01*
X177597465Y-92425000D01*
X177722535Y-92425000D01*
X177843343Y-92392630D01*
X177910000Y-92354145D01*
X177910000Y-93402230D01*
X177976126Y-93391757D01*
X177976129Y-93391757D01*
X178178217Y-93326095D01*
X178367557Y-93229620D01*
X178539459Y-93104727D01*
X178539464Y-93104723D01*
X178689723Y-92954464D01*
X178689727Y-92954459D01*
X178814620Y-92782557D01*
X178911095Y-92593217D01*
X178944976Y-92488945D01*
X183574500Y-92488945D01*
X183574500Y-92681054D01*
X183604553Y-92870802D01*
X183663916Y-93053506D01*
X183709850Y-93143656D01*
X183751135Y-93224681D01*
X183864055Y-93380102D01*
X183999898Y-93515945D01*
X184155319Y-93628865D01*
X184260958Y-93682691D01*
X184326493Y-93716083D01*
X184391081Y-93737069D01*
X184448756Y-93776506D01*
X184475955Y-93840865D01*
X184464041Y-93909711D01*
X184416797Y-93961187D01*
X184391081Y-93972931D01*
X184326493Y-93993916D01*
X184155318Y-94081135D01*
X184119054Y-94107483D01*
X183999898Y-94194055D01*
X183999896Y-94194057D01*
X183999895Y-94194057D01*
X183864057Y-94329895D01*
X183864057Y-94329896D01*
X183864055Y-94329898D01*
X183843968Y-94357546D01*
X183751135Y-94485318D01*
X183663916Y-94656493D01*
X183604553Y-94839197D01*
X183574500Y-95028945D01*
X183574500Y-95221054D01*
X183604553Y-95410802D01*
X183663916Y-95593506D01*
X183663918Y-95593509D01*
X183751135Y-95764681D01*
X183864055Y-95920102D01*
X183999898Y-96055945D01*
X184155319Y-96168865D01*
X184326491Y-96256082D01*
X184326493Y-96256083D01*
X184391081Y-96277069D01*
X184448756Y-96316506D01*
X184475955Y-96380865D01*
X184464041Y-96449711D01*
X184416797Y-96501187D01*
X184391081Y-96512931D01*
X184326493Y-96533916D01*
X184155318Y-96621135D01*
X184139252Y-96632808D01*
X183999898Y-96734055D01*
X183999896Y-96734057D01*
X183999895Y-96734057D01*
X183864057Y-96869895D01*
X183864057Y-96869896D01*
X183864055Y-96869898D01*
X183815560Y-96936645D01*
X183751135Y-97025318D01*
X183663916Y-97196493D01*
X183604553Y-97379197D01*
X183574500Y-97568945D01*
X183574500Y-97761054D01*
X183604553Y-97950802D01*
X183663916Y-98133506D01*
X183666093Y-98137778D01*
X183751135Y-98304681D01*
X183751139Y-98304686D01*
X183770818Y-98331772D01*
X183794298Y-98397578D01*
X183794500Y-98404657D01*
X183794500Y-98893543D01*
X183815775Y-99000499D01*
X183832947Y-99086827D01*
X183832950Y-99086839D01*
X183908364Y-99268907D01*
X183908371Y-99268920D01*
X184017860Y-99432781D01*
X184017863Y-99432785D01*
X184161537Y-99576459D01*
X184161559Y-99576479D01*
X184969735Y-100384655D01*
X184969764Y-100384686D01*
X185112214Y-100527136D01*
X185112218Y-100527139D01*
X185276079Y-100636628D01*
X185276092Y-100636635D01*
X185404833Y-100689961D01*
X185447744Y-100707735D01*
X185458164Y-100712051D01*
X185554812Y-100731275D01*
X185603135Y-100740887D01*
X185651458Y-100750500D01*
X185651459Y-100750500D01*
X193848542Y-100750500D01*
X193879566Y-100744328D01*
X193945188Y-100731275D01*
X194041836Y-100712051D01*
X194095165Y-100689961D01*
X194223914Y-100636632D01*
X194387782Y-100527139D01*
X194527139Y-100387782D01*
X194527139Y-100387780D01*
X194537347Y-100377573D01*
X194537348Y-100377570D01*
X195377140Y-99537781D01*
X195486632Y-99373914D01*
X195562052Y-99191835D01*
X195600501Y-98998540D01*
X195600501Y-98801459D01*
X195600501Y-98796349D01*
X195600500Y-98796323D01*
X195600500Y-98672889D01*
X195620185Y-98605850D01*
X195636819Y-98585208D01*
X195744517Y-98477510D01*
X195787547Y-98418283D01*
X195842877Y-98375618D01*
X195897594Y-98367551D01*
X195917340Y-98369105D01*
X196575387Y-97711058D01*
X196580889Y-97731591D01*
X196659881Y-97868408D01*
X196771592Y-97980119D01*
X196908409Y-98059111D01*
X196928940Y-98064612D01*
X196270893Y-98722658D01*
X196353828Y-98782914D01*
X196564197Y-98890102D01*
X196788752Y-98963065D01*
X196788751Y-98963065D01*
X197021948Y-99000000D01*
X197258052Y-99000000D01*
X197491247Y-98963065D01*
X197715802Y-98890102D01*
X197926163Y-98782918D01*
X197926169Y-98782914D01*
X198009104Y-98722658D01*
X198009105Y-98722658D01*
X197351058Y-98064612D01*
X197371591Y-98059111D01*
X197508408Y-97980119D01*
X197620119Y-97868408D01*
X197699111Y-97731591D01*
X197704612Y-97711059D01*
X198362658Y-98369105D01*
X198362658Y-98369104D01*
X198422914Y-98286169D01*
X198422918Y-98286163D01*
X198530102Y-98075802D01*
X198603065Y-97851247D01*
X198640000Y-97618052D01*
X198640000Y-97381947D01*
X198603065Y-97148752D01*
X198530102Y-96924197D01*
X198442939Y-96753129D01*
X198442938Y-96753127D01*
X198422916Y-96713830D01*
X198412855Y-96699983D01*
X202499500Y-96699983D01*
X202499500Y-98300001D01*
X202499501Y-98300018D01*
X202510000Y-98402796D01*
X202510001Y-98402799D01*
X202565185Y-98569331D01*
X202565187Y-98569336D01*
X202587709Y-98605850D01*
X202657288Y-98718656D01*
X202781344Y-98842712D01*
X202930666Y-98934814D01*
X203097203Y-98989999D01*
X203199991Y-99000500D01*
X204800008Y-99000499D01*
X204902797Y-98989999D01*
X205069334Y-98934814D01*
X205218656Y-98842712D01*
X205342712Y-98718656D01*
X205372512Y-98670341D01*
X205424458Y-98623618D01*
X205493420Y-98612395D01*
X205557503Y-98640238D01*
X205558758Y-98641385D01*
X205558786Y-98641353D01*
X205562481Y-98644508D01*
X205562490Y-98644517D01*
X205753567Y-98783343D01*
X205789122Y-98801459D01*
X205964003Y-98890566D01*
X205964005Y-98890566D01*
X205964008Y-98890568D01*
X206084412Y-98929689D01*
X206188631Y-98963553D01*
X206421903Y-99000500D01*
X206421908Y-99000500D01*
X206658097Y-99000500D01*
X206891368Y-98963553D01*
X206892870Y-98963065D01*
X207115992Y-98890568D01*
X207326433Y-98783343D01*
X207517510Y-98644517D01*
X207684517Y-98477510D01*
X207823343Y-98286433D01*
X207930568Y-98075992D01*
X208003553Y-97851368D01*
X208017857Y-97761055D01*
X208040500Y-97618097D01*
X208040500Y-97381902D01*
X208003553Y-97148631D01*
X207930566Y-96924003D01*
X207855320Y-96776326D01*
X207823343Y-96713567D01*
X207684517Y-96522490D01*
X207517510Y-96355483D01*
X207326433Y-96216657D01*
X207115996Y-96109433D01*
X206891368Y-96036446D01*
X206658097Y-95999500D01*
X206658092Y-95999500D01*
X206421908Y-95999500D01*
X206421903Y-95999500D01*
X206188631Y-96036446D01*
X205964003Y-96109433D01*
X205753566Y-96216657D01*
X205654253Y-96288813D01*
X205562490Y-96355483D01*
X205562488Y-96355485D01*
X205558786Y-96358647D01*
X205557305Y-96356913D01*
X205504110Y-96385791D01*
X205434431Y-96380635D01*
X205378601Y-96338626D01*
X205372511Y-96329656D01*
X205360742Y-96310576D01*
X205342712Y-96281344D01*
X205218656Y-96157288D01*
X205069334Y-96065186D01*
X204902797Y-96010001D01*
X204902795Y-96010000D01*
X204800010Y-95999500D01*
X203199998Y-95999500D01*
X203199981Y-95999501D01*
X203097203Y-96010000D01*
X203097200Y-96010001D01*
X202930668Y-96065185D01*
X202930663Y-96065187D01*
X202781342Y-96157289D01*
X202657289Y-96281342D01*
X202565187Y-96430663D01*
X202565185Y-96430668D01*
X202548647Y-96480577D01*
X202510001Y-96597203D01*
X202510001Y-96597204D01*
X202510000Y-96597204D01*
X202499500Y-96699983D01*
X198412855Y-96699983D01*
X198362658Y-96630894D01*
X198362658Y-96630893D01*
X197704612Y-97288940D01*
X197699111Y-97268409D01*
X197620119Y-97131592D01*
X197508408Y-97019881D01*
X197371591Y-96940889D01*
X197351059Y-96935387D01*
X198009105Y-96277340D01*
X198009104Y-96277338D01*
X197926174Y-96217087D01*
X197715802Y-96109897D01*
X197491247Y-96036934D01*
X197491248Y-96036934D01*
X197258052Y-96000000D01*
X197021948Y-96000000D01*
X196788752Y-96036934D01*
X196564197Y-96109897D01*
X196353830Y-96217084D01*
X196270894Y-96277340D01*
X196928941Y-96935387D01*
X196908409Y-96940889D01*
X196771592Y-97019881D01*
X196659881Y-97131592D01*
X196580889Y-97268409D01*
X196575387Y-97288940D01*
X195917340Y-96630893D01*
X195897593Y-96632448D01*
X195893860Y-96631663D01*
X195890222Y-96632808D01*
X195859936Y-96624537D01*
X195829215Y-96618084D01*
X195825429Y-96615114D01*
X195822821Y-96614402D01*
X195813431Y-96605701D01*
X195795712Y-96591800D01*
X195791370Y-96586978D01*
X195744517Y-96522490D01*
X195577510Y-96355483D01*
X195386433Y-96216657D01*
X195175996Y-96109433D01*
X194951368Y-96036446D01*
X194718097Y-95999500D01*
X194718092Y-95999500D01*
X194481908Y-95999500D01*
X194481903Y-95999500D01*
X194248631Y-96036446D01*
X194024003Y-96109433D01*
X193813566Y-96216657D01*
X193714253Y-96288813D01*
X193622490Y-96355483D01*
X193622488Y-96355485D01*
X193618786Y-96358647D01*
X193617305Y-96356913D01*
X193564110Y-96385791D01*
X193494431Y-96380635D01*
X193438601Y-96338626D01*
X193432511Y-96329656D01*
X193420742Y-96310576D01*
X193402712Y-96281344D01*
X193278656Y-96157288D01*
X193129334Y-96065186D01*
X192962797Y-96010001D01*
X192962795Y-96010000D01*
X192860010Y-95999500D01*
X191259998Y-95999500D01*
X191259981Y-95999501D01*
X191157203Y-96010000D01*
X191157200Y-96010001D01*
X190990668Y-96065185D01*
X190990663Y-96065187D01*
X190841342Y-96157289D01*
X190717289Y-96281342D01*
X190717288Y-96281344D01*
X190655904Y-96380865D01*
X190621395Y-96436813D01*
X190619600Y-96435706D01*
X190580313Y-96480337D01*
X190514092Y-96499500D01*
X188715782Y-96499500D01*
X188686341Y-96490855D01*
X188656355Y-96484332D01*
X188651339Y-96480577D01*
X188648743Y-96479815D01*
X188628101Y-96463181D01*
X188536819Y-96371899D01*
X188503334Y-96310576D01*
X188500500Y-96284218D01*
X188500500Y-94354675D01*
X188500501Y-94354654D01*
X188500501Y-94151457D01*
X188500500Y-94151455D01*
X188472579Y-94011087D01*
X188462052Y-93958165D01*
X188386632Y-93776086D01*
X188386631Y-93776085D01*
X188386628Y-93776079D01*
X188277140Y-93612219D01*
X188277137Y-93612215D01*
X186619209Y-91954289D01*
X186619206Y-91954285D01*
X186619206Y-91954286D01*
X186612139Y-91947219D01*
X186612139Y-91947218D01*
X186472782Y-91807861D01*
X186472781Y-91807860D01*
X186472780Y-91807859D01*
X186308920Y-91698371D01*
X186308911Y-91698366D01*
X186234977Y-91667742D01*
X186180165Y-91645038D01*
X186126836Y-91622949D01*
X185983844Y-91594506D01*
X185948536Y-91587482D01*
X185933542Y-91584500D01*
X185933541Y-91584500D01*
X185534658Y-91584500D01*
X185467619Y-91564815D01*
X185461772Y-91560818D01*
X185434681Y-91541135D01*
X185263506Y-91453916D01*
X185080802Y-91394553D01*
X184985928Y-91379526D01*
X184891055Y-91364500D01*
X184698945Y-91364500D01*
X184635696Y-91374517D01*
X184509197Y-91394553D01*
X184326493Y-91453916D01*
X184155318Y-91541135D01*
X184081860Y-91594506D01*
X183999898Y-91654055D01*
X183999896Y-91654057D01*
X183999895Y-91654057D01*
X183864057Y-91789895D01*
X183864057Y-91789896D01*
X183864055Y-91789898D01*
X183815560Y-91856645D01*
X183751135Y-91945318D01*
X183663916Y-92116493D01*
X183604553Y-92299197D01*
X183574500Y-92488945D01*
X178944976Y-92488945D01*
X178959009Y-92445755D01*
X178959009Y-92445754D01*
X178976756Y-92391134D01*
X178976757Y-92391127D01*
X179007030Y-92200000D01*
X178064146Y-92200000D01*
X178102630Y-92133343D01*
X178135000Y-92012535D01*
X178135000Y-91887465D01*
X178102630Y-91766657D01*
X178064146Y-91700000D01*
X179007030Y-91700000D01*
X178976757Y-91508872D01*
X178976757Y-91508869D01*
X178911095Y-91306782D01*
X178814620Y-91117442D01*
X178689727Y-90945540D01*
X178689723Y-90945535D01*
X178539464Y-90795276D01*
X178539459Y-90795272D01*
X178367557Y-90670379D01*
X178178217Y-90573904D01*
X177976131Y-90508243D01*
X177946285Y-90503515D01*
X177883151Y-90473584D01*
X177846221Y-90414271D01*
X177847221Y-90344409D01*
X177878003Y-90293363D01*
X182048032Y-86123335D01*
X185106607Y-86123335D01*
X185106607Y-86290878D01*
X185139289Y-86455181D01*
X185139291Y-86455189D01*
X185203402Y-86609967D01*
X185296480Y-86749269D01*
X185414944Y-86867733D01*
X185507601Y-86929644D01*
X185554244Y-86960810D01*
X185709025Y-87024923D01*
X185810193Y-87045046D01*
X185872100Y-87077429D01*
X185873680Y-87078981D01*
X188475305Y-89680606D01*
X188569394Y-89774695D01*
X188569397Y-89774697D01*
X188569398Y-89774698D01*
X188680020Y-89848613D01*
X188680024Y-89848615D01*
X188680031Y-89848620D01*
X188716037Y-89863534D01*
X188802964Y-89899541D01*
X188933464Y-89925499D01*
X188933468Y-89925500D01*
X188933469Y-89925500D01*
X198942483Y-89925500D01*
X199009522Y-89945185D01*
X199011374Y-89946398D01*
X199097131Y-90003699D01*
X199097137Y-90003703D01*
X199251918Y-90067816D01*
X199416228Y-90100499D01*
X199416232Y-90100500D01*
X199416233Y-90100500D01*
X199583768Y-90100500D01*
X199583769Y-90100499D01*
X199748082Y-90067816D01*
X199902863Y-90003703D01*
X200042162Y-89910626D01*
X200160626Y-89792162D01*
X200253703Y-89652863D01*
X200317816Y-89498082D01*
X200350500Y-89333767D01*
X200350500Y-89166233D01*
X200317816Y-89001918D01*
X200268227Y-88882201D01*
X200253704Y-88847139D01*
X200160626Y-88707837D01*
X200042162Y-88589373D01*
X199902860Y-88496295D01*
X199748082Y-88432184D01*
X199748074Y-88432182D01*
X199583771Y-88399500D01*
X199583767Y-88399500D01*
X199416233Y-88399500D01*
X199416228Y-88399500D01*
X199251925Y-88432182D01*
X199251917Y-88432184D01*
X199097140Y-88496295D01*
X199097131Y-88496300D01*
X199011374Y-88553602D01*
X198944697Y-88574480D01*
X198942483Y-88574500D01*
X191576668Y-88574500D01*
X191509629Y-88554815D01*
X191463874Y-88502011D01*
X191453930Y-88432853D01*
X191466183Y-88394205D01*
X191498882Y-88330029D01*
X191498882Y-88330028D01*
X191498884Y-88330025D01*
X191559709Y-88142826D01*
X191562044Y-88128082D01*
X191590500Y-87948422D01*
X191590500Y-87751577D01*
X191559709Y-87557173D01*
X191498882Y-87369970D01*
X191409523Y-87194594D01*
X191359902Y-87126297D01*
X191293828Y-87035354D01*
X191154646Y-86896172D01*
X190995405Y-86780476D01*
X190820029Y-86691117D01*
X190632826Y-86630290D01*
X190438422Y-86599500D01*
X190438417Y-86599500D01*
X190241583Y-86599500D01*
X190241578Y-86599500D01*
X190047173Y-86630290D01*
X189859970Y-86691117D01*
X189684594Y-86780476D01*
X189593741Y-86846485D01*
X189525354Y-86896172D01*
X189525352Y-86896174D01*
X189525351Y-86896174D01*
X189386174Y-87035351D01*
X189386174Y-87035352D01*
X189386172Y-87035354D01*
X189366679Y-87062184D01*
X189270476Y-87194594D01*
X189181117Y-87369970D01*
X189120290Y-87557173D01*
X189089500Y-87751577D01*
X189089500Y-87948422D01*
X189111809Y-88089275D01*
X189102854Y-88158568D01*
X189057858Y-88212020D01*
X188991107Y-88232660D01*
X188923793Y-88213935D01*
X188901655Y-88196354D01*
X186828981Y-86123680D01*
X186795496Y-86062357D01*
X186795075Y-86060339D01*
X186774923Y-85959025D01*
X186710810Y-85804244D01*
X186667073Y-85738787D01*
X186617733Y-85664944D01*
X186499269Y-85546480D01*
X186359967Y-85453402D01*
X186205189Y-85389291D01*
X186205181Y-85389289D01*
X186040878Y-85356607D01*
X186040874Y-85356607D01*
X185873340Y-85356607D01*
X185873335Y-85356607D01*
X185709032Y-85389289D01*
X185709024Y-85389291D01*
X185554246Y-85453402D01*
X185414944Y-85546480D01*
X185296480Y-85664944D01*
X185203402Y-85804246D01*
X185139291Y-85959024D01*
X185139289Y-85959032D01*
X185106607Y-86123335D01*
X182048032Y-86123335D01*
X185217823Y-82953545D01*
X185279146Y-82920060D01*
X185305504Y-82917226D01*
X189731465Y-82917226D01*
X189739641Y-82918852D01*
X189744720Y-82917936D01*
X189778917Y-82926665D01*
X189822518Y-82944725D01*
X189876922Y-82988566D01*
X189898987Y-83054860D01*
X189882341Y-83120077D01*
X189882688Y-83120254D01*
X189881903Y-83121794D01*
X189881708Y-83122559D01*
X189880800Y-83124066D01*
X189880477Y-83124592D01*
X189791117Y-83299970D01*
X189730290Y-83487173D01*
X189699500Y-83681577D01*
X189699500Y-83878422D01*
X189730290Y-84072826D01*
X189791117Y-84260029D01*
X189880476Y-84435405D01*
X189996172Y-84594646D01*
X190135354Y-84733828D01*
X190294595Y-84849524D01*
X190358153Y-84881908D01*
X190469970Y-84938882D01*
X190469972Y-84938882D01*
X190469975Y-84938884D01*
X190570317Y-84971487D01*
X190657173Y-84999709D01*
X190851578Y-85030500D01*
X190851583Y-85030500D01*
X191048422Y-85030500D01*
X191242826Y-84999709D01*
X191430025Y-84938884D01*
X191605405Y-84849524D01*
X191764646Y-84733828D01*
X191903828Y-84594646D01*
X192019524Y-84435405D01*
X192108884Y-84260025D01*
X192169709Y-84072826D01*
X192184864Y-83977142D01*
X192192425Y-83929408D01*
X192192425Y-83929407D01*
X192200500Y-83878423D01*
X192200500Y-83681577D01*
X192169709Y-83487173D01*
X192108882Y-83299970D01*
X192050773Y-83185925D01*
X192019524Y-83124595D01*
X191903828Y-82965354D01*
X191900655Y-82962181D01*
X191867170Y-82900858D01*
X191872154Y-82831166D01*
X191914026Y-82775233D01*
X191979490Y-82750816D01*
X191988336Y-82750500D01*
X200370500Y-82750500D01*
X200437539Y-82770185D01*
G37*
%TD.AperFunction*%
%TA.AperFunction,Conductor*%
G36*
X176493414Y-78195185D02*
G01*
X176514056Y-78211819D01*
X176705597Y-78403359D01*
X176872096Y-78569858D01*
X176872104Y-78569864D01*
X176872109Y-78569869D01*
X176952195Y-78635110D01*
X176952198Y-78635112D01*
X176952203Y-78635116D01*
X177059840Y-78689172D01*
X177110914Y-78736850D01*
X177128104Y-78804572D01*
X177105952Y-78870837D01*
X177051491Y-78914606D01*
X177032786Y-78920640D01*
X176910891Y-78949529D01*
X176754207Y-79028219D01*
X176674171Y-79093418D01*
X176674152Y-79093435D01*
X176638819Y-79128767D01*
X177505026Y-79994974D01*
X178371230Y-80861179D01*
X178371231Y-80861179D01*
X178406564Y-80825846D01*
X178406579Y-80825829D01*
X178471782Y-80745789D01*
X178550468Y-80589111D01*
X178590902Y-80418510D01*
X178590902Y-80243190D01*
X178590090Y-80239765D01*
X178590218Y-80237336D01*
X178590064Y-80236015D01*
X178590289Y-80235988D01*
X178593780Y-80169993D01*
X178634605Y-80113292D01*
X178699605Y-80087664D01*
X178739344Y-80090504D01*
X178743129Y-80091402D01*
X178743132Y-80091402D01*
X178918568Y-80091402D01*
X178918571Y-80091402D01*
X179089283Y-80050941D01*
X179246065Y-79972204D01*
X179326172Y-79906947D01*
X179750447Y-79482670D01*
X179815706Y-79402563D01*
X179894443Y-79245781D01*
X179934904Y-79075069D01*
X179934904Y-78978788D01*
X179939335Y-78963694D01*
X179938794Y-78947973D01*
X179948978Y-78930856D01*
X179954589Y-78911749D01*
X179966476Y-78901448D01*
X179974521Y-78887928D01*
X179992343Y-78879034D01*
X180007393Y-78865994D01*
X180023775Y-78863349D01*
X180037039Y-78856731D01*
X180060164Y-78857475D01*
X180072312Y-78855515D01*
X180080538Y-78856409D01*
X180134614Y-78869738D01*
X180203074Y-78869738D01*
X180209758Y-78870465D01*
X180236063Y-78881399D01*
X180263389Y-78889423D01*
X180271935Y-78896310D01*
X180274276Y-78897283D01*
X180275706Y-78899348D01*
X180284031Y-78906057D01*
X180702796Y-79324822D01*
X180736281Y-79386145D01*
X180731297Y-79455837D01*
X180702797Y-79500182D01*
X180693481Y-79509500D01*
X180602975Y-79600006D01*
X180537721Y-79680108D01*
X180458983Y-79836890D01*
X180418526Y-80007591D01*
X180418524Y-80007604D01*
X180418524Y-80183038D01*
X180418525Y-80183049D01*
X180458983Y-80353752D01*
X180458985Y-80353755D01*
X180537722Y-80510536D01*
X180537724Y-80510539D01*
X180537726Y-80510542D01*
X180594663Y-80580436D01*
X180602979Y-80590644D01*
X180602984Y-80590649D01*
X180602985Y-80590650D01*
X181992567Y-81980231D01*
X182026052Y-82041554D01*
X182021068Y-82111246D01*
X181992567Y-82155593D01*
X177937181Y-86210980D01*
X177875858Y-86244465D01*
X177806166Y-86239481D01*
X177750233Y-86197609D01*
X177725816Y-86132145D01*
X177725500Y-86123299D01*
X177725500Y-83582202D01*
X177745185Y-83515163D01*
X177761815Y-83494525D01*
X178131729Y-83124611D01*
X178196988Y-83044504D01*
X178275725Y-82887723D01*
X178316186Y-82717010D01*
X178316186Y-82541568D01*
X178283311Y-82402863D01*
X178275726Y-82370858D01*
X178269122Y-82357709D01*
X178196988Y-82214075D01*
X178196984Y-82214070D01*
X178196983Y-82214068D01*
X178131740Y-82133978D01*
X178131739Y-82133977D01*
X178131731Y-82133967D01*
X177616634Y-81618872D01*
X177583150Y-81557550D01*
X177588134Y-81487859D01*
X177630005Y-81431925D01*
X177675721Y-81410534D01*
X177745608Y-81393970D01*
X177902287Y-81315284D01*
X177982339Y-81250073D01*
X177982344Y-81250068D01*
X178017678Y-81214733D01*
X178017678Y-81214732D01*
X177151472Y-80348528D01*
X176285266Y-79482322D01*
X176285265Y-79482322D01*
X176249934Y-79517654D01*
X176249917Y-79517673D01*
X176184715Y-79597712D01*
X176106029Y-79754390D01*
X176067090Y-79918689D01*
X176032475Y-79979381D01*
X175970543Y-80011725D01*
X175917835Y-80010749D01*
X175744225Y-79969601D01*
X175744220Y-79969600D01*
X175744218Y-79969600D01*
X175568776Y-79969600D01*
X175568774Y-79969600D01*
X175568768Y-79969601D01*
X175398065Y-80010059D01*
X175293724Y-80062461D01*
X175241282Y-80088798D01*
X175241281Y-80088799D01*
X175241275Y-80088803D01*
X175161185Y-80154046D01*
X175161167Y-80154062D01*
X174454060Y-80861171D01*
X174454054Y-80861179D01*
X174388797Y-80941283D01*
X174310059Y-81098065D01*
X174269601Y-81268768D01*
X174269600Y-81268779D01*
X174269600Y-81444214D01*
X174269601Y-81444225D01*
X174310059Y-81614927D01*
X174310061Y-81614930D01*
X174388798Y-81771711D01*
X174388800Y-81771714D01*
X174388802Y-81771717D01*
X174406470Y-81793405D01*
X174454055Y-81851819D01*
X175019753Y-82417515D01*
X175099861Y-82482774D01*
X175228200Y-82547227D01*
X175256644Y-82561512D01*
X175399189Y-82595296D01*
X175427354Y-82601972D01*
X175427357Y-82601972D01*
X175559814Y-82601972D01*
X175626853Y-82621657D01*
X175672608Y-82674461D01*
X175683814Y-82725972D01*
X175683814Y-82858428D01*
X175683815Y-82858439D01*
X175724273Y-83029141D01*
X175724275Y-83029144D01*
X175803012Y-83185925D01*
X175803014Y-83185928D01*
X175803016Y-83185931D01*
X175868259Y-83266021D01*
X175868269Y-83266033D01*
X176158443Y-83556206D01*
X176238181Y-83635943D01*
X176271666Y-83697266D01*
X176274500Y-83723624D01*
X176274500Y-85953125D01*
X176254815Y-86020164D01*
X176238181Y-86040806D01*
X175253305Y-87025681D01*
X175191982Y-87059166D01*
X175189821Y-87059616D01*
X175176925Y-87062181D01*
X175176919Y-87062183D01*
X175022139Y-87126295D01*
X174882837Y-87219373D01*
X174764373Y-87337837D01*
X174671295Y-87477139D01*
X174607184Y-87631917D01*
X174607182Y-87631925D01*
X174574500Y-87796228D01*
X174574500Y-87963771D01*
X174607182Y-88128074D01*
X174607184Y-88128082D01*
X174671295Y-88282860D01*
X174764373Y-88422162D01*
X174882837Y-88540626D01*
X174955793Y-88589373D01*
X175022137Y-88633703D01*
X175176918Y-88697816D01*
X175177442Y-88697920D01*
X175177691Y-88698050D01*
X175182750Y-88699585D01*
X175182459Y-88700543D01*
X175239355Y-88730300D01*
X175273934Y-88791013D01*
X175270200Y-88860783D01*
X175240941Y-88907220D01*
X174934981Y-89213181D01*
X174873658Y-89246666D01*
X174847300Y-89249500D01*
X171624000Y-89249500D01*
X171556961Y-89229815D01*
X171511206Y-89177011D01*
X171500000Y-89125500D01*
X171500000Y-78299500D01*
X171519685Y-78232461D01*
X171572489Y-78186706D01*
X171624000Y-78175500D01*
X176426375Y-78175500D01*
X176493414Y-78195185D01*
G37*
%TD.AperFunction*%
%TA.AperFunction,Conductor*%
G36*
X238002702Y-57300617D02*
G01*
X238404202Y-57318147D01*
X238414937Y-57319087D01*
X238810693Y-57371189D01*
X238821331Y-57373064D01*
X239211043Y-57459462D01*
X239221484Y-57462260D01*
X239602169Y-57582288D01*
X239612315Y-57585981D01*
X239981102Y-57738738D01*
X239990893Y-57743304D01*
X240344942Y-57927611D01*
X240354310Y-57933019D01*
X240690954Y-58147484D01*
X240699815Y-58153689D01*
X241016492Y-58396684D01*
X241024779Y-58403638D01*
X241319056Y-58673294D01*
X241326705Y-58680943D01*
X241596361Y-58975220D01*
X241603315Y-58983507D01*
X241846310Y-59300184D01*
X241852515Y-59309045D01*
X242066980Y-59645689D01*
X242072388Y-59655057D01*
X242256692Y-60009099D01*
X242261264Y-60018903D01*
X242414014Y-60387674D01*
X242417714Y-60397840D01*
X242537738Y-60778512D01*
X242540538Y-60788960D01*
X242626933Y-61178660D01*
X242628811Y-61189314D01*
X242680910Y-61585042D01*
X242681853Y-61595818D01*
X242699382Y-61997297D01*
X242699500Y-62002706D01*
X242699500Y-81106300D01*
X242679815Y-81173339D01*
X242627011Y-81219094D01*
X242557853Y-81229038D01*
X242494297Y-81200013D01*
X242457719Y-81145077D01*
X242446992Y-81112496D01*
X242369208Y-80991462D01*
X242369199Y-80991451D01*
X242323455Y-80938659D01*
X242323451Y-80938656D01*
X242323449Y-80938653D01*
X242214715Y-80844433D01*
X242214712Y-80844431D01*
X242214710Y-80844430D01*
X242083844Y-80784664D01*
X242083839Y-80784662D01*
X242083838Y-80784662D01*
X242016799Y-80764977D01*
X242016801Y-80764977D01*
X242016796Y-80764976D01*
X241954726Y-80756052D01*
X241874379Y-80744500D01*
X230374000Y-80744500D01*
X230373991Y-80744500D01*
X230373990Y-80744501D01*
X230266549Y-80756052D01*
X230266537Y-80756054D01*
X230215027Y-80767260D01*
X230112502Y-80801383D01*
X230112496Y-80801386D01*
X229991462Y-80879171D01*
X229991451Y-80879179D01*
X229938659Y-80924923D01*
X229844433Y-81033664D01*
X229844430Y-81033668D01*
X229784660Y-81164542D01*
X229783116Y-81168685D01*
X229781196Y-81167969D01*
X229747960Y-81219702D01*
X229684408Y-81248735D01*
X229666744Y-81250000D01*
X222874000Y-81250000D01*
X222806961Y-81230315D01*
X222761206Y-81177511D01*
X222750000Y-81126000D01*
X222750000Y-78124000D01*
X222769685Y-78056961D01*
X222822489Y-78011206D01*
X222874000Y-78000000D01*
X238500000Y-78000000D01*
X238500000Y-68250000D01*
X213250000Y-68250000D01*
X212754212Y-70728939D01*
X212738949Y-70768418D01*
X212001521Y-71997464D01*
X211998366Y-72002450D01*
X211500000Y-72749999D01*
X211500000Y-72750000D01*
X211500000Y-76849455D01*
X211628633Y-76852187D01*
X211695239Y-76873290D01*
X211739863Y-76927054D01*
X211750000Y-76976159D01*
X211750000Y-82620500D01*
X211730315Y-82687539D01*
X211677511Y-82733294D01*
X211626000Y-82744500D01*
X210119248Y-82744500D01*
X210052209Y-82724815D01*
X210006454Y-82672011D01*
X209996510Y-82602853D01*
X210020727Y-82547885D01*
X210019742Y-82547227D01*
X210062810Y-82482771D01*
X210116203Y-82402863D01*
X210180316Y-82248082D01*
X210213000Y-82083767D01*
X210213000Y-81916233D01*
X210180316Y-81751918D01*
X210116203Y-81597137D01*
X210085037Y-81550494D01*
X210023126Y-81457837D01*
X209904662Y-81339373D01*
X209765360Y-81246295D01*
X209610582Y-81182184D01*
X209610574Y-81182182D01*
X209446271Y-81149500D01*
X209446267Y-81149500D01*
X209278733Y-81149500D01*
X209278728Y-81149500D01*
X209114425Y-81182182D01*
X209114417Y-81182184D01*
X208974692Y-81240061D01*
X208927239Y-81249500D01*
X199686477Y-81249500D01*
X199619438Y-81229815D01*
X199573683Y-81177011D01*
X199563739Y-81107853D01*
X199568547Y-81087180D01*
X199579707Y-81052833D01*
X199579707Y-81052831D01*
X199579709Y-81052826D01*
X199595572Y-80952666D01*
X199610500Y-80858422D01*
X199610500Y-80661577D01*
X199579709Y-80467173D01*
X199518882Y-80279970D01*
X199462846Y-80169993D01*
X199429524Y-80104595D01*
X199313828Y-79945354D01*
X199174646Y-79806172D01*
X199015405Y-79690476D01*
X198984337Y-79674646D01*
X198840029Y-79601117D01*
X198652827Y-79540291D01*
X198469905Y-79511318D01*
X198406771Y-79481388D01*
X198369840Y-79422077D01*
X198370838Y-79352214D01*
X198401621Y-79301166D01*
X205492508Y-72210279D01*
X205553829Y-72176796D01*
X205623521Y-72181780D01*
X205679454Y-72223652D01*
X205690671Y-72241666D01*
X205754949Y-72367817D01*
X205879890Y-72539786D01*
X206030213Y-72690109D01*
X206202179Y-72815048D01*
X206202181Y-72815049D01*
X206202184Y-72815051D01*
X206391588Y-72911557D01*
X206593757Y-72977246D01*
X206803713Y-73010500D01*
X206803714Y-73010500D01*
X207016286Y-73010500D01*
X207016287Y-73010500D01*
X207226243Y-72977246D01*
X207428412Y-72911557D01*
X207617816Y-72815051D01*
X207639789Y-72799086D01*
X207789786Y-72690109D01*
X207789788Y-72690106D01*
X207789792Y-72690104D01*
X207940104Y-72539792D01*
X207940106Y-72539788D01*
X207940109Y-72539786D01*
X208065048Y-72367820D01*
X208065050Y-72367817D01*
X208065051Y-72367816D01*
X208161557Y-72178412D01*
X208227246Y-71976243D01*
X208260500Y-71766287D01*
X208260500Y-71553713D01*
X208227246Y-71343757D01*
X208161557Y-71141588D01*
X208065051Y-70952184D01*
X208065049Y-70952181D01*
X208065048Y-70952179D01*
X207940109Y-70780213D01*
X207789786Y-70629890D01*
X207617820Y-70504951D01*
X207491667Y-70440673D01*
X207440871Y-70392698D01*
X207424076Y-70324877D01*
X207446613Y-70258743D01*
X207460279Y-70242509D01*
X207570627Y-70132162D01*
X207663704Y-69992863D01*
X207727816Y-69838081D01*
X207748824Y-69732469D01*
X207760500Y-69673767D01*
X207760500Y-67126975D01*
X207780185Y-67059937D01*
X207832989Y-67014182D01*
X207860135Y-67006736D01*
X207859932Y-67005876D01*
X207867479Y-67004092D01*
X207867481Y-67004091D01*
X207867483Y-67004091D01*
X208002331Y-66953796D01*
X208117546Y-66867546D01*
X208203796Y-66752331D01*
X208254091Y-66617483D01*
X208260500Y-66557873D01*
X208260499Y-65635981D01*
X208260499Y-64762129D01*
X208260498Y-64762123D01*
X208254091Y-64702516D01*
X208203797Y-64567671D01*
X208203793Y-64567664D01*
X208117547Y-64452455D01*
X208117544Y-64452452D01*
X208002335Y-64366206D01*
X208002328Y-64366202D01*
X207867482Y-64315908D01*
X207867483Y-64315908D01*
X207807883Y-64309501D01*
X207807881Y-64309500D01*
X207807873Y-64309500D01*
X207807865Y-64309500D01*
X206601519Y-64309500D01*
X206572078Y-64300855D01*
X206542092Y-64294332D01*
X206537076Y-64290577D01*
X206534480Y-64289815D01*
X206513838Y-64273181D01*
X206477189Y-64236532D01*
X206392812Y-64152155D01*
X229000000Y-64152155D01*
X229000000Y-65450000D01*
X230399999Y-65450000D01*
X230374979Y-65510402D01*
X230350000Y-65635981D01*
X230350000Y-65764019D01*
X230374979Y-65889598D01*
X230399999Y-65950000D01*
X229000000Y-65950000D01*
X229000000Y-67247844D01*
X229006401Y-67307372D01*
X229006403Y-67307379D01*
X229056645Y-67442086D01*
X229056649Y-67442093D01*
X229142809Y-67557187D01*
X229142812Y-67557190D01*
X229257906Y-67643350D01*
X229257913Y-67643354D01*
X229392620Y-67693596D01*
X229392627Y-67693598D01*
X229452155Y-67699999D01*
X229452172Y-67700000D01*
X230750000Y-67700000D01*
X230750000Y-66300001D01*
X230810402Y-66325021D01*
X230935981Y-66350000D01*
X231064019Y-66350000D01*
X231189598Y-66325021D01*
X231250000Y-66300001D01*
X231250000Y-67700000D01*
X232547828Y-67700000D01*
X232547844Y-67699999D01*
X232607372Y-67693598D01*
X232607379Y-67693596D01*
X232742086Y-67643354D01*
X232742093Y-67643350D01*
X232857187Y-67557190D01*
X232857190Y-67557187D01*
X232943350Y-67442093D01*
X232943354Y-67442086D01*
X232993596Y-67307379D01*
X232993598Y-67307372D01*
X232999999Y-67247844D01*
X233000000Y-67247827D01*
X233000000Y-65950000D01*
X231600001Y-65950000D01*
X231625021Y-65889598D01*
X231650000Y-65764019D01*
X231650000Y-65635981D01*
X231625021Y-65510402D01*
X231600001Y-65450000D01*
X233000000Y-65450000D01*
X233000000Y-64152172D01*
X232999999Y-64152155D01*
X232993598Y-64092627D01*
X232993596Y-64092620D01*
X232943354Y-63957913D01*
X232943350Y-63957906D01*
X232857190Y-63842812D01*
X232857187Y-63842809D01*
X232742093Y-63756649D01*
X232742086Y-63756645D01*
X232607379Y-63706403D01*
X232607372Y-63706401D01*
X232547844Y-63700000D01*
X231250000Y-63700000D01*
X231250000Y-65099998D01*
X231189598Y-65074979D01*
X231064019Y-65050000D01*
X230935981Y-65050000D01*
X230810402Y-65074979D01*
X230750000Y-65099998D01*
X230750000Y-63700000D01*
X229452155Y-63700000D01*
X229392627Y-63706401D01*
X229392620Y-63706403D01*
X229257913Y-63756645D01*
X229257906Y-63756649D01*
X229142812Y-63842809D01*
X229142809Y-63842812D01*
X229056649Y-63957906D01*
X229056645Y-63957913D01*
X229006403Y-64092620D01*
X229006401Y-64092627D01*
X229000000Y-64152155D01*
X206392812Y-64152155D01*
X205546546Y-63305888D01*
X205546545Y-63305887D01*
X205431807Y-63229222D01*
X205304332Y-63176421D01*
X205304322Y-63176418D01*
X205168996Y-63149500D01*
X205168994Y-63149500D01*
X205168993Y-63149500D01*
X171155123Y-63149500D01*
X171088084Y-63129815D01*
X171042329Y-63077011D01*
X171031204Y-63029979D01*
X171024620Y-62847815D01*
X170955358Y-60931577D01*
X176229500Y-60931577D01*
X176229500Y-61128422D01*
X176260290Y-61322826D01*
X176321117Y-61510029D01*
X176410476Y-61685406D01*
X176435817Y-61720283D01*
X176459298Y-61786089D01*
X176459500Y-61793170D01*
X176459500Y-61909069D01*
X176459500Y-61909071D01*
X176459499Y-61909071D01*
X176485687Y-62040719D01*
X176485224Y-62040810D01*
X176489500Y-62069624D01*
X176489500Y-62113771D01*
X176522182Y-62278074D01*
X176522184Y-62278082D01*
X176586295Y-62432860D01*
X176679373Y-62572162D01*
X176797837Y-62690626D01*
X176890494Y-62752537D01*
X176937137Y-62783703D01*
X177091918Y-62847816D01*
X177256228Y-62880499D01*
X177256232Y-62880500D01*
X177256233Y-62880500D01*
X177423768Y-62880500D01*
X177423769Y-62880499D01*
X177588082Y-62847816D01*
X177742863Y-62783703D01*
X177882162Y-62690626D01*
X178000626Y-62572162D01*
X178093703Y-62432863D01*
X178157816Y-62278082D01*
X178177354Y-62179852D01*
X178190500Y-62113769D01*
X178190798Y-62110743D01*
X178191397Y-62109258D01*
X178191689Y-62107792D01*
X178191967Y-62107847D01*
X178216956Y-62045955D01*
X178241314Y-62022575D01*
X178294646Y-61983828D01*
X178433828Y-61844646D01*
X178549524Y-61685405D01*
X178638884Y-61510025D01*
X178699709Y-61322826D01*
X178730500Y-61128422D01*
X178730500Y-60931577D01*
X178699709Y-60737173D01*
X178638882Y-60549970D01*
X178591743Y-60457455D01*
X178549524Y-60374595D01*
X178433828Y-60215354D01*
X178294646Y-60076172D01*
X178135405Y-59960476D01*
X177960029Y-59871117D01*
X177772826Y-59810290D01*
X177578422Y-59779500D01*
X177578417Y-59779500D01*
X177381583Y-59779500D01*
X177381578Y-59779500D01*
X177187173Y-59810290D01*
X176999970Y-59871117D01*
X176824594Y-59960476D01*
X176733741Y-60026485D01*
X176665354Y-60076172D01*
X176665352Y-60076174D01*
X176665351Y-60076174D01*
X176526174Y-60215351D01*
X176526174Y-60215352D01*
X176526172Y-60215354D01*
X176476485Y-60283741D01*
X176410476Y-60374594D01*
X176321117Y-60549970D01*
X176260290Y-60737173D01*
X176229500Y-60931577D01*
X170955358Y-60931577D01*
X170828758Y-57428978D01*
X170846008Y-57361272D01*
X170897125Y-57313640D01*
X170952677Y-57300500D01*
X237952405Y-57300500D01*
X237997294Y-57300500D01*
X238002702Y-57300617D01*
G37*
%TD.AperFunction*%
%TA.AperFunction,Conductor*%
G36*
X204825520Y-64570185D02*
G01*
X204846162Y-64586819D01*
X205523181Y-65263838D01*
X205556666Y-65325161D01*
X205559500Y-65351519D01*
X205559500Y-66557870D01*
X205559501Y-66557876D01*
X205565908Y-66617483D01*
X205616202Y-66752328D01*
X205616206Y-66752335D01*
X205702452Y-66867544D01*
X205702455Y-66867547D01*
X205817664Y-66953793D01*
X205817671Y-66953797D01*
X205952517Y-67004091D01*
X205960062Y-67005874D01*
X205959523Y-67008151D01*
X206013287Y-67030408D01*
X206053147Y-67087793D01*
X206059500Y-67126975D01*
X206059500Y-69186348D01*
X206039815Y-69253387D01*
X206023181Y-69274029D01*
X195339375Y-79957834D01*
X195339372Y-79957838D01*
X195246297Y-80097133D01*
X195246296Y-80097136D01*
X195203237Y-80201091D01*
X195203237Y-80201092D01*
X195182184Y-80251917D01*
X195182182Y-80251925D01*
X195149500Y-80416228D01*
X195149500Y-80583771D01*
X195182182Y-80748074D01*
X195182185Y-80748086D01*
X195197336Y-80784663D01*
X195246292Y-80902856D01*
X195246299Y-80902869D01*
X195339375Y-81042166D01*
X195343210Y-81046839D01*
X195370521Y-81111150D01*
X195358727Y-81180017D01*
X195311573Y-81231575D01*
X195247354Y-81249500D01*
X190254334Y-81249500D01*
X190187295Y-81229815D01*
X190141540Y-81177011D01*
X190131596Y-81107853D01*
X190131861Y-81106102D01*
X190150500Y-80988422D01*
X190150500Y-80791577D01*
X190119709Y-80597173D01*
X190060917Y-80416233D01*
X190058884Y-80409975D01*
X190058882Y-80409972D01*
X190058882Y-80409970D01*
X189992646Y-80279975D01*
X189969524Y-80234595D01*
X189941715Y-80196320D01*
X189918236Y-80130515D01*
X189934061Y-80062461D01*
X189984167Y-80013766D01*
X190052645Y-79999890D01*
X190098330Y-80012951D01*
X190109968Y-80018881D01*
X190109971Y-80018881D01*
X190109975Y-80018884D01*
X190208636Y-80050941D01*
X190297173Y-80079709D01*
X190491578Y-80110500D01*
X190491583Y-80110500D01*
X190688422Y-80110500D01*
X190882826Y-80079709D01*
X190917397Y-80068476D01*
X191070025Y-80018884D01*
X191245405Y-79929524D01*
X191404646Y-79813828D01*
X191543828Y-79674646D01*
X191659524Y-79515405D01*
X191748884Y-79340025D01*
X191809709Y-79152826D01*
X191820552Y-79084364D01*
X191840500Y-78958422D01*
X191840500Y-78761577D01*
X191809709Y-78567173D01*
X191774355Y-78458367D01*
X191748884Y-78379975D01*
X191748882Y-78379972D01*
X191748882Y-78379970D01*
X191673722Y-78232461D01*
X191659524Y-78204595D01*
X191543828Y-78045354D01*
X191404646Y-77906172D01*
X191245405Y-77790476D01*
X191070029Y-77701117D01*
X190882826Y-77640290D01*
X190688422Y-77609500D01*
X190688417Y-77609500D01*
X190491583Y-77609500D01*
X190491578Y-77609500D01*
X190297173Y-77640290D01*
X190109970Y-77701117D01*
X189934594Y-77790476D01*
X189884305Y-77827014D01*
X189775354Y-77906172D01*
X189775352Y-77906174D01*
X189775351Y-77906174D01*
X189636174Y-78045351D01*
X189636174Y-78045352D01*
X189636172Y-78045354D01*
X189627739Y-78056961D01*
X189520476Y-78204594D01*
X189431117Y-78379970D01*
X189370290Y-78567173D01*
X189339500Y-78761577D01*
X189339500Y-78958422D01*
X189370290Y-79152826D01*
X189431117Y-79340029D01*
X189484692Y-79445175D01*
X189517467Y-79509500D01*
X189520478Y-79515408D01*
X189548283Y-79553679D01*
X189571763Y-79619485D01*
X189555938Y-79687539D01*
X189505832Y-79736234D01*
X189437354Y-79750109D01*
X189391672Y-79737050D01*
X189380029Y-79731118D01*
X189380028Y-79731117D01*
X189380025Y-79731116D01*
X189302925Y-79706064D01*
X189192826Y-79670290D01*
X188998422Y-79639500D01*
X188998417Y-79639500D01*
X188801583Y-79639500D01*
X188801578Y-79639500D01*
X188607173Y-79670290D01*
X188419970Y-79731117D01*
X188244594Y-79820476D01*
X188192667Y-79858204D01*
X188085354Y-79936172D01*
X188085352Y-79936174D01*
X188085351Y-79936174D01*
X187946174Y-80075351D01*
X187946174Y-80075352D01*
X187946172Y-80075354D01*
X187906095Y-80130515D01*
X187830476Y-80234594D01*
X187741117Y-80409970D01*
X187680290Y-80597173D01*
X187649500Y-80791577D01*
X187649500Y-80988422D01*
X187680290Y-81182826D01*
X187697442Y-81235611D01*
X187702139Y-81250068D01*
X187703387Y-81253907D01*
X187705382Y-81323748D01*
X187669302Y-81383581D01*
X187606602Y-81414410D01*
X187585456Y-81416226D01*
X185154033Y-81416226D01*
X185086994Y-81396541D01*
X185041239Y-81343737D01*
X185031295Y-81274579D01*
X185060320Y-81211023D01*
X185066352Y-81204545D01*
X187106426Y-79164472D01*
X189274549Y-76996349D01*
X189335872Y-76962864D01*
X189362230Y-76960030D01*
X189774269Y-76960030D01*
X189821721Y-76969468D01*
X189961448Y-77027346D01*
X190122515Y-77059384D01*
X190125758Y-77060029D01*
X190125762Y-77060030D01*
X190125763Y-77060030D01*
X190293298Y-77060030D01*
X190293299Y-77060029D01*
X190457612Y-77027346D01*
X190612393Y-76963233D01*
X190751692Y-76870156D01*
X190870156Y-76751692D01*
X190963233Y-76612393D01*
X191027346Y-76457612D01*
X191060030Y-76293297D01*
X191060030Y-76125763D01*
X191027346Y-75961448D01*
X190963233Y-75806667D01*
X190912340Y-75730501D01*
X190880928Y-75683489D01*
X190860050Y-75616811D01*
X190860030Y-75614598D01*
X190860030Y-71523776D01*
X190879715Y-71456737D01*
X190896344Y-71436100D01*
X193915513Y-68416930D01*
X193976834Y-68383447D01*
X194022590Y-68382140D01*
X194163764Y-68404500D01*
X194163769Y-68404500D01*
X194361236Y-68404500D01*
X194556263Y-68373610D01*
X194563739Y-68371181D01*
X194744061Y-68312591D01*
X194920001Y-68222944D01*
X195025455Y-68146328D01*
X195079746Y-68106884D01*
X195079748Y-68106881D01*
X195079752Y-68106879D01*
X195219379Y-67967252D01*
X195283682Y-67878744D01*
X195339010Y-67836080D01*
X195408623Y-67830099D01*
X195470419Y-67862704D01*
X195504777Y-67923543D01*
X195507652Y-67948573D01*
X195507824Y-67948564D01*
X195507974Y-67951371D01*
X195508000Y-67951595D01*
X195508000Y-67951852D01*
X195508001Y-67951876D01*
X195514408Y-68011483D01*
X195564702Y-68146328D01*
X195564706Y-68146335D01*
X195650952Y-68261544D01*
X195650955Y-68261547D01*
X195766164Y-68347793D01*
X195766171Y-68347797D01*
X195901011Y-68398089D01*
X195901017Y-68398091D01*
X195901245Y-68398115D01*
X195901413Y-68398184D01*
X195908562Y-68399874D01*
X195908288Y-68401031D01*
X195965796Y-68424846D01*
X196005650Y-68482234D01*
X196012000Y-68521405D01*
X196012000Y-71836418D01*
X196012000Y-71836420D01*
X196011999Y-71836420D01*
X196040840Y-71981407D01*
X196040843Y-71981417D01*
X196097414Y-72117992D01*
X196097415Y-72117994D01*
X196097416Y-72117995D01*
X196115130Y-72144506D01*
X196171888Y-72229452D01*
X196171889Y-72229455D01*
X196183346Y-72250888D01*
X196246295Y-72402860D01*
X196339373Y-72542162D01*
X196457837Y-72660626D01*
X196550494Y-72722537D01*
X196597137Y-72753703D01*
X196751918Y-72817816D01*
X196916228Y-72850499D01*
X196916232Y-72850500D01*
X196916233Y-72850500D01*
X197083768Y-72850500D01*
X197083769Y-72850499D01*
X197248082Y-72817816D01*
X197402863Y-72753703D01*
X197542162Y-72660626D01*
X197660626Y-72542162D01*
X197753703Y-72402863D01*
X197817816Y-72248082D01*
X197850500Y-72083767D01*
X197850500Y-71916233D01*
X197817816Y-71751918D01*
X197753703Y-71597137D01*
X197704685Y-71523776D01*
X197660626Y-71457837D01*
X197549319Y-71346530D01*
X197515834Y-71285207D01*
X197513000Y-71258849D01*
X197513000Y-68521406D01*
X197532685Y-68454367D01*
X197585489Y-68408612D01*
X197616486Y-68400108D01*
X197616432Y-68399876D01*
X197622944Y-68398336D01*
X197623750Y-68398116D01*
X197623983Y-68398091D01*
X197623989Y-68398089D01*
X197691407Y-68372943D01*
X197758831Y-68347796D01*
X197874046Y-68261546D01*
X197960296Y-68146331D01*
X198010591Y-68011483D01*
X198017000Y-67951873D01*
X198016999Y-66348128D01*
X198010591Y-66288517D01*
X197979399Y-66204888D01*
X197960297Y-66153671D01*
X197960293Y-66153664D01*
X197874047Y-66038455D01*
X197874044Y-66038452D01*
X197758835Y-65952206D01*
X197758828Y-65952202D01*
X197623982Y-65901908D01*
X197623983Y-65901908D01*
X197564383Y-65895501D01*
X197564381Y-65895500D01*
X197564373Y-65895500D01*
X197564365Y-65895500D01*
X196620730Y-65895500D01*
X196553691Y-65875815D01*
X196533049Y-65859181D01*
X195436049Y-64762181D01*
X195402564Y-64700858D01*
X195407548Y-64631166D01*
X195449420Y-64575233D01*
X195514884Y-64550816D01*
X195523730Y-64550500D01*
X204758481Y-64550500D01*
X204825520Y-64570185D01*
G37*
%TD.AperFunction*%
%TA.AperFunction,Conductor*%
G36*
X182480723Y-76330069D02*
G01*
X182553829Y-76347395D01*
X182571378Y-76351555D01*
X182571381Y-76351555D01*
X182754043Y-76351555D01*
X182754043Y-76354232D01*
X182810657Y-76363880D01*
X182843914Y-76387617D01*
X183241956Y-76785659D01*
X183275441Y-76846982D01*
X183270457Y-76916674D01*
X183241958Y-76961019D01*
X183219286Y-76983691D01*
X183219275Y-76983703D01*
X183154017Y-77063810D01*
X183075279Y-77220592D01*
X183034821Y-77391295D01*
X183034820Y-77391306D01*
X183034820Y-77566740D01*
X183034821Y-77566751D01*
X183075279Y-77737454D01*
X183101526Y-77789717D01*
X183154018Y-77894238D01*
X183154020Y-77894241D01*
X183154022Y-77894244D01*
X183200058Y-77950756D01*
X183219275Y-77974346D01*
X183219280Y-77974351D01*
X183219281Y-77974352D01*
X184608864Y-79363934D01*
X184642349Y-79425257D01*
X184637365Y-79494949D01*
X184608864Y-79539296D01*
X184289956Y-79858204D01*
X184228633Y-79891689D01*
X184158941Y-79886705D01*
X184114596Y-79858205D01*
X182725007Y-78468618D01*
X182644899Y-78403359D01*
X182566157Y-78363814D01*
X182488115Y-78324620D01*
X182317412Y-78284162D01*
X182317407Y-78284161D01*
X182317405Y-78284161D01*
X182141964Y-78284161D01*
X182141962Y-78284161D01*
X182141956Y-78284162D01*
X181971251Y-78324621D01*
X181812916Y-78404139D01*
X181744173Y-78416635D01*
X181679587Y-78389982D01*
X181669585Y-78381009D01*
X181239332Y-77950756D01*
X181224628Y-77923828D01*
X181208036Y-77898010D01*
X181207144Y-77891809D01*
X181205847Y-77889433D01*
X181203013Y-77863075D01*
X181203013Y-77827014D01*
X181222698Y-77759975D01*
X181275502Y-77714220D01*
X181327013Y-77703014D01*
X181471452Y-77703014D01*
X181636621Y-77662304D01*
X181787248Y-77583248D01*
X181841691Y-77537876D01*
X182204601Y-77174966D01*
X182249973Y-77120523D01*
X182329029Y-76969896D01*
X182369739Y-76804727D01*
X182369739Y-76634615D01*
X182331729Y-76480400D01*
X182334798Y-76410599D01*
X182375118Y-76353537D01*
X182439887Y-76327331D01*
X182480723Y-76330069D01*
G37*
%TD.AperFunction*%
%TA.AperFunction,Conductor*%
G36*
X179092539Y-64570185D02*
G01*
X179138294Y-64622989D01*
X179149500Y-64674500D01*
X179149500Y-64833771D01*
X179182182Y-64998074D01*
X179182184Y-64998082D01*
X179246295Y-65152860D01*
X179339372Y-65292160D01*
X179339373Y-65292161D01*
X179339374Y-65292162D01*
X179413182Y-65365970D01*
X179446666Y-65427291D01*
X179449500Y-65453650D01*
X179449500Y-68674824D01*
X179429815Y-68741863D01*
X179377011Y-68787618D01*
X179307853Y-68797562D01*
X179296904Y-68795482D01*
X179181400Y-68768108D01*
X179011923Y-68768108D01*
X178847004Y-68807194D01*
X178695560Y-68883252D01*
X178695553Y-68883257D01*
X178618182Y-68946284D01*
X178618165Y-68946299D01*
X178584009Y-68980454D01*
X178584009Y-68980455D01*
X179168080Y-69564526D01*
X179201565Y-69625849D01*
X179196581Y-69695541D01*
X179168080Y-69739888D01*
X178989888Y-69918079D01*
X178928565Y-69951564D01*
X178858873Y-69946580D01*
X178814526Y-69918079D01*
X178230456Y-69334009D01*
X178230455Y-69334009D01*
X178196300Y-69368165D01*
X178196283Y-69368184D01*
X178133257Y-69445552D01*
X178133252Y-69445560D01*
X178057194Y-69597004D01*
X178018108Y-69761922D01*
X178018108Y-69931400D01*
X178057193Y-70096316D01*
X178090913Y-70163456D01*
X178103410Y-70232199D01*
X178076758Y-70296786D01*
X178019419Y-70336710D01*
X177980103Y-70343108D01*
X177836921Y-70343108D01*
X177672002Y-70382194D01*
X177520558Y-70458252D01*
X177520551Y-70458257D01*
X177443180Y-70521284D01*
X177443163Y-70521299D01*
X177409007Y-70555454D01*
X177409007Y-70555455D01*
X177993078Y-71139526D01*
X178026563Y-71200849D01*
X178021579Y-71270541D01*
X177993078Y-71314888D01*
X177903982Y-71403984D01*
X177993077Y-71493079D01*
X178026562Y-71554402D01*
X178021578Y-71624094D01*
X177993077Y-71668441D01*
X177391330Y-72270188D01*
X177391330Y-72270189D01*
X177407813Y-72286672D01*
X177407829Y-72286686D01*
X177485196Y-72349710D01*
X177485203Y-72349715D01*
X177636647Y-72425774D01*
X177668965Y-72433433D01*
X177729658Y-72468047D01*
X177762003Y-72529979D01*
X177755730Y-72599566D01*
X177728051Y-72641772D01*
X175928671Y-74441152D01*
X175867348Y-74474637D01*
X175797656Y-74469653D01*
X175741723Y-74427781D01*
X175717306Y-74362317D01*
X175718516Y-74334077D01*
X175727187Y-74279337D01*
X175730500Y-74258419D01*
X175730500Y-74061577D01*
X175699709Y-73867173D01*
X175639107Y-73680662D01*
X175638884Y-73679975D01*
X175638882Y-73679972D01*
X175638882Y-73679970D01*
X175591743Y-73587455D01*
X175549524Y-73504595D01*
X175433828Y-73345354D01*
X175294646Y-73206172D01*
X175135405Y-73090476D01*
X174960029Y-73001117D01*
X174772826Y-72940290D01*
X174578422Y-72909500D01*
X174578417Y-72909500D01*
X174381583Y-72909500D01*
X174381578Y-72909500D01*
X174187173Y-72940290D01*
X173999970Y-73001117D01*
X173824594Y-73090476D01*
X173733741Y-73156485D01*
X173665354Y-73206172D01*
X173665352Y-73206174D01*
X173665351Y-73206174D01*
X173526174Y-73345351D01*
X173526174Y-73345352D01*
X173526172Y-73345354D01*
X173492757Y-73391346D01*
X173410476Y-73504594D01*
X173321117Y-73679970D01*
X173260290Y-73867173D01*
X173229500Y-74061577D01*
X173229500Y-74258422D01*
X173260290Y-74452826D01*
X173321117Y-74640029D01*
X173373655Y-74743140D01*
X173410476Y-74815405D01*
X173526172Y-74974646D01*
X173665354Y-75113828D01*
X173678385Y-75123295D01*
X173721050Y-75178622D01*
X173729500Y-75223613D01*
X173729500Y-75323918D01*
X173729500Y-75323920D01*
X173729499Y-75323920D01*
X173758340Y-75468907D01*
X173758343Y-75468917D01*
X173814913Y-75605490D01*
X173814914Y-75605491D01*
X173814916Y-75605495D01*
X173829004Y-75626579D01*
X173897048Y-75728416D01*
X173971478Y-75802846D01*
X174031539Y-75862906D01*
X174058419Y-75903135D01*
X174116295Y-76042860D01*
X174209373Y-76182162D01*
X174327837Y-76300626D01*
X174408065Y-76354232D01*
X174467137Y-76393703D01*
X174621918Y-76457816D01*
X174771116Y-76487493D01*
X174786228Y-76490499D01*
X174786232Y-76490500D01*
X174871549Y-76490500D01*
X174938588Y-76510185D01*
X174984343Y-76562989D01*
X174986136Y-76567110D01*
X174989921Y-76576264D01*
X174995677Y-76600546D01*
X175019966Y-76648911D01*
X175021703Y-76653110D01*
X175024954Y-76683508D01*
X175030423Y-76713592D01*
X175028635Y-76717923D01*
X175029134Y-76722584D01*
X175015432Y-76749918D01*
X175003770Y-76778179D01*
X174999923Y-76780856D01*
X174997824Y-76785046D01*
X174971523Y-76800631D01*
X174946430Y-76818103D01*
X174940377Y-76819087D01*
X174937716Y-76820665D01*
X174931966Y-76820456D01*
X174907116Y-76824500D01*
X171624000Y-76824500D01*
X171556961Y-76804815D01*
X171511206Y-76752011D01*
X171500000Y-76700500D01*
X171500000Y-75999997D01*
X171331455Y-71336922D01*
X176843106Y-71336922D01*
X176843106Y-71506400D01*
X176882192Y-71671318D01*
X176958250Y-71822762D01*
X176958255Y-71822769D01*
X177021288Y-71900147D01*
X177021300Y-71900160D01*
X177037775Y-71916635D01*
X177037776Y-71916635D01*
X177550428Y-71403983D01*
X177055454Y-70909009D01*
X177055453Y-70909009D01*
X177021298Y-70943165D01*
X177021281Y-70943184D01*
X176958255Y-71020552D01*
X176958250Y-71020560D01*
X176882192Y-71172004D01*
X176843106Y-71336922D01*
X171331455Y-71336922D01*
X171331356Y-71334178D01*
X171151262Y-66351577D01*
X176459500Y-66351577D01*
X176459500Y-66548422D01*
X176490290Y-66742826D01*
X176551117Y-66930029D01*
X176617309Y-67059937D01*
X176640476Y-67105405D01*
X176756172Y-67264646D01*
X176895354Y-67403828D01*
X177054595Y-67519524D01*
X177114602Y-67550099D01*
X177229970Y-67608882D01*
X177229972Y-67608882D01*
X177229975Y-67608884D01*
X177330317Y-67641487D01*
X177417173Y-67669709D01*
X177611578Y-67700500D01*
X177611583Y-67700500D01*
X177808422Y-67700500D01*
X178002826Y-67669709D01*
X178190025Y-67608884D01*
X178365405Y-67519524D01*
X178524646Y-67403828D01*
X178663828Y-67264646D01*
X178779524Y-67105405D01*
X178868884Y-66930025D01*
X178929709Y-66742826D01*
X178940531Y-66674497D01*
X178960500Y-66548422D01*
X178960500Y-66351577D01*
X178929709Y-66157173D01*
X178874699Y-65987873D01*
X178868884Y-65969975D01*
X178868882Y-65969972D01*
X178868882Y-65969970D01*
X178779523Y-65794594D01*
X178738962Y-65738767D01*
X178663828Y-65635354D01*
X178524646Y-65496172D01*
X178401798Y-65406917D01*
X178365403Y-65380474D01*
X178243236Y-65318228D01*
X178192439Y-65270254D01*
X178184970Y-65255197D01*
X178183703Y-65252137D01*
X178183701Y-65252134D01*
X178183700Y-65252131D01*
X178090626Y-65112838D01*
X178090623Y-65112834D01*
X177972162Y-64994373D01*
X177832860Y-64901295D01*
X177678082Y-64837184D01*
X177678074Y-64837182D01*
X177513771Y-64804500D01*
X177513767Y-64804500D01*
X177346233Y-64804500D01*
X177346228Y-64804500D01*
X177181925Y-64837182D01*
X177181917Y-64837184D01*
X177027139Y-64901295D01*
X176887837Y-64994373D01*
X176769373Y-65112837D01*
X176676295Y-65252139D01*
X176612184Y-65406917D01*
X176612182Y-65406925D01*
X176579500Y-65571228D01*
X176579500Y-65738771D01*
X176596218Y-65822818D01*
X176589991Y-65892410D01*
X176585086Y-65903303D01*
X176551114Y-65969976D01*
X176551114Y-65969978D01*
X176490291Y-66157169D01*
X176490291Y-66157172D01*
X176459500Y-66351577D01*
X171151262Y-66351577D01*
X171151248Y-66351190D01*
X171090807Y-64678979D01*
X171108057Y-64611272D01*
X171159174Y-64563640D01*
X171214726Y-64550500D01*
X179025500Y-64550500D01*
X179092539Y-64570185D01*
G37*
%TD.AperFunction*%
%TA.AperFunction,Conductor*%
G36*
X185836900Y-68038851D02*
G01*
X185863260Y-68040737D01*
X185872313Y-68046555D01*
X185879353Y-68048087D01*
X185907607Y-68069238D01*
X185945253Y-68106884D01*
X186068658Y-68196541D01*
X186104999Y-68222944D01*
X186280939Y-68312591D01*
X186406137Y-68353270D01*
X186468736Y-68373610D01*
X186663764Y-68404500D01*
X186753336Y-68404500D01*
X186820375Y-68424185D01*
X186866130Y-68476989D01*
X186876074Y-68546147D01*
X186847049Y-68609703D01*
X186841017Y-68616181D01*
X186475307Y-68981890D01*
X186475304Y-68981894D01*
X186401383Y-69092524D01*
X186401378Y-69092534D01*
X186350459Y-69215463D01*
X186350457Y-69215471D01*
X186325308Y-69341907D01*
X186325305Y-69341922D01*
X186324500Y-69345961D01*
X186324500Y-76442482D01*
X186319171Y-76460627D01*
X186318834Y-76479536D01*
X186305334Y-76507751D01*
X186304815Y-76509521D01*
X186303602Y-76511373D01*
X186266082Y-76567525D01*
X186212469Y-76612330D01*
X186143144Y-76621037D01*
X186080117Y-76590882D01*
X186075299Y-76586315D01*
X185341310Y-75852327D01*
X185341303Y-75852320D01*
X185261195Y-75787061D01*
X185148573Y-75730501D01*
X185104411Y-75708322D01*
X184933708Y-75667864D01*
X184933703Y-75667863D01*
X184933701Y-75667863D01*
X184758260Y-75667863D01*
X184758258Y-75667863D01*
X184758252Y-75667864D01*
X184587549Y-75708322D01*
X184483026Y-75760815D01*
X184430766Y-75787061D01*
X184430765Y-75787062D01*
X184430759Y-75787065D01*
X184365039Y-75840602D01*
X184300630Y-75867681D01*
X184231806Y-75855638D01*
X184199043Y-75832144D01*
X183799215Y-75432316D01*
X183785034Y-75406346D01*
X183768579Y-75381745D01*
X183767951Y-75375062D01*
X183765730Y-75370993D01*
X183762917Y-75346908D01*
X183762735Y-75336985D01*
X183763153Y-75335222D01*
X183763153Y-75159780D01*
X183759178Y-75143011D01*
X183758934Y-75129670D01*
X183764778Y-75108325D01*
X183765948Y-75086224D01*
X183773825Y-75075283D01*
X183777386Y-75062281D01*
X183793844Y-75047482D01*
X183806776Y-75029524D01*
X183819316Y-75024579D01*
X183829342Y-75015566D01*
X183851186Y-75012015D01*
X183871776Y-75003898D01*
X183892155Y-75005355D01*
X183898307Y-75004356D01*
X183902272Y-75006079D01*
X183911516Y-75006741D01*
X183914941Y-75007553D01*
X184090261Y-75007553D01*
X184260862Y-74967119D01*
X184417540Y-74888433D01*
X184497592Y-74823222D01*
X184497597Y-74823217D01*
X184532931Y-74787882D01*
X184532931Y-74787881D01*
X183666725Y-73921677D01*
X183489947Y-73744899D01*
X184197055Y-73744899D01*
X184886483Y-74434328D01*
X184886484Y-74434328D01*
X184921817Y-74398995D01*
X184921832Y-74398978D01*
X184987035Y-74318938D01*
X185065721Y-74162260D01*
X185106155Y-73991659D01*
X185106155Y-73816338D01*
X185065721Y-73645737D01*
X184987033Y-73489056D01*
X184921834Y-73409020D01*
X184921818Y-73409002D01*
X184727385Y-73214569D01*
X184197055Y-73744899D01*
X183489947Y-73744899D01*
X182800519Y-73055471D01*
X182800518Y-73055471D01*
X182765187Y-73090803D01*
X182765170Y-73090822D01*
X182699968Y-73170861D01*
X182621282Y-73327539D01*
X182580849Y-73498140D01*
X182580849Y-73673462D01*
X182581662Y-73676893D01*
X182581533Y-73679321D01*
X182581687Y-73680636D01*
X182581462Y-73680662D01*
X182577968Y-73746665D01*
X182537138Y-73803363D01*
X182472137Y-73828987D01*
X182432413Y-73826147D01*
X182428627Y-73825250D01*
X182428625Y-73825249D01*
X182428622Y-73825249D01*
X182253180Y-73825249D01*
X182253178Y-73825249D01*
X182253172Y-73825250D01*
X182082468Y-73865709D01*
X181925686Y-73944446D01*
X181845589Y-74009695D01*
X181845571Y-74009711D01*
X181421307Y-74433977D01*
X181421298Y-74433987D01*
X181356043Y-74514090D01*
X181298690Y-74628293D01*
X181251012Y-74679368D01*
X181235333Y-74687204D01*
X181100294Y-74743139D01*
X180960994Y-74836216D01*
X180842530Y-74954680D01*
X180749452Y-75093982D01*
X180685341Y-75248760D01*
X180685339Y-75248768D01*
X180652657Y-75413071D01*
X180652657Y-75580614D01*
X180685339Y-75744917D01*
X180685341Y-75744925D01*
X180702794Y-75787061D01*
X180709333Y-75802846D01*
X180716802Y-75872315D01*
X180685527Y-75934795D01*
X180682453Y-75937980D01*
X180484555Y-76135878D01*
X180423232Y-76169363D01*
X180353540Y-76164379D01*
X180309193Y-76135878D01*
X180196069Y-76022754D01*
X180056769Y-75929677D01*
X180016336Y-75912929D01*
X179961934Y-75869087D01*
X179943133Y-75826965D01*
X179938323Y-75806669D01*
X179920272Y-75730505D01*
X179844157Y-75578948D01*
X179781075Y-75501509D01*
X179681635Y-75402069D01*
X179609827Y-75330261D01*
X179576342Y-75268938D01*
X179573508Y-75242580D01*
X179573508Y-74279337D01*
X179593193Y-74212298D01*
X179609822Y-74191661D01*
X181099567Y-72701916D01*
X183154072Y-72701916D01*
X183843502Y-73391346D01*
X183843503Y-73391346D01*
X184373832Y-72861016D01*
X184179386Y-72666572D01*
X184099339Y-72601365D01*
X183942664Y-72522680D01*
X183772063Y-72482247D01*
X183596743Y-72482247D01*
X183426141Y-72522680D01*
X183269460Y-72601368D01*
X183189424Y-72666567D01*
X183189405Y-72666584D01*
X183154072Y-72701916D01*
X181099567Y-72701916D01*
X185732245Y-68069237D01*
X185740190Y-68064899D01*
X185745616Y-68057652D01*
X185770375Y-68048417D01*
X185793568Y-68035753D01*
X185802597Y-68036398D01*
X185811080Y-68033235D01*
X185836900Y-68038851D01*
G37*
%TD.AperFunction*%
%TA.AperFunction,Conductor*%
G36*
X191296575Y-67342993D02*
G01*
X191362401Y-67457007D01*
X191455493Y-67550099D01*
X191569507Y-67615925D01*
X191633090Y-67632962D01*
X191069509Y-68196541D01*
X191069510Y-68196542D01*
X191105255Y-68222512D01*
X191105268Y-68222520D01*
X191281126Y-68312126D01*
X191468853Y-68373123D01*
X191663803Y-68404000D01*
X191789191Y-68404000D01*
X191856230Y-68423685D01*
X191901985Y-68476489D01*
X191911929Y-68545647D01*
X191882904Y-68609203D01*
X191876872Y-68615681D01*
X189704257Y-70788295D01*
X189704254Y-70788298D01*
X189654027Y-70863470D01*
X189633065Y-70894841D01*
X189584029Y-71013225D01*
X189584027Y-71013231D01*
X189559030Y-71138898D01*
X189559030Y-75335030D01*
X189539345Y-75402069D01*
X189486541Y-75447824D01*
X189435030Y-75459030D01*
X188926076Y-75459030D01*
X188897242Y-75464764D01*
X188897243Y-75464765D01*
X188781092Y-75487869D01*
X188781086Y-75487871D01*
X188748313Y-75501446D01*
X188748298Y-75501453D01*
X188744393Y-75503071D01*
X188644505Y-75544446D01*
X188601069Y-75573469D01*
X188594471Y-75577877D01*
X188594464Y-75577881D01*
X188521579Y-75626581D01*
X188521578Y-75626582D01*
X187887181Y-76260980D01*
X187825858Y-76294465D01*
X187756166Y-76289481D01*
X187700233Y-76247609D01*
X187675816Y-76182145D01*
X187675500Y-76173299D01*
X187675500Y-69743662D01*
X187695185Y-69676623D01*
X187711814Y-69655986D01*
X188946036Y-68421763D01*
X189007357Y-68388280D01*
X189053109Y-68386973D01*
X189163769Y-68404500D01*
X189163771Y-68404500D01*
X189361236Y-68404500D01*
X189556263Y-68373610D01*
X189563739Y-68371181D01*
X189744061Y-68312591D01*
X189920001Y-68222944D01*
X190025455Y-68146328D01*
X190079746Y-68106884D01*
X190079748Y-68106881D01*
X190079752Y-68106879D01*
X190219379Y-67967252D01*
X190219381Y-67967248D01*
X190219384Y-67967246D01*
X190335441Y-67807505D01*
X190335440Y-67807505D01*
X190335444Y-67807501D01*
X190402297Y-67676295D01*
X190450269Y-67625502D01*
X190518090Y-67608707D01*
X190584225Y-67631244D01*
X190623265Y-67676298D01*
X190689983Y-67807239D01*
X190715957Y-67842988D01*
X190715957Y-67842989D01*
X191279537Y-67279409D01*
X191296575Y-67342993D01*
G37*
%TD.AperFunction*%
%TA.AperFunction,Conductor*%
G36*
X186455810Y-64570185D02*
G01*
X186501565Y-64622989D01*
X186511509Y-64692147D01*
X186482484Y-64755703D01*
X186476457Y-64762174D01*
X186337337Y-64901295D01*
X186225451Y-65013181D01*
X186164128Y-65046666D01*
X186137770Y-65049500D01*
X184257451Y-65049500D01*
X184112463Y-65078340D01*
X184112453Y-65078343D01*
X183975882Y-65134912D01*
X183975869Y-65134919D01*
X183852955Y-65217048D01*
X183852951Y-65217051D01*
X181112181Y-67957822D01*
X181050858Y-67991307D01*
X180981166Y-67986323D01*
X180925233Y-67944451D01*
X180900816Y-67878987D01*
X180900500Y-67870141D01*
X180900500Y-64853542D01*
X180872620Y-64713383D01*
X180871746Y-64710503D01*
X180871731Y-64708917D01*
X180871431Y-64707406D01*
X180871717Y-64707348D01*
X180871118Y-64640636D01*
X180908362Y-64581521D01*
X180971654Y-64551926D01*
X180990404Y-64550500D01*
X186388771Y-64550500D01*
X186455810Y-64570185D01*
G37*
%TD.AperFunction*%
%TA.AperFunction,Conductor*%
G36*
X193817309Y-65270185D02*
G01*
X193837951Y-65286819D01*
X194235872Y-65684740D01*
X194269357Y-65746063D01*
X194264373Y-65815755D01*
X194222501Y-65871688D01*
X194167589Y-65894894D01*
X193968736Y-65926389D01*
X193780941Y-65987408D01*
X193604995Y-66077058D01*
X193445253Y-66193115D01*
X193305615Y-66332753D01*
X193189556Y-66492497D01*
X193122703Y-66623702D01*
X193074729Y-66674497D01*
X193006907Y-66691292D01*
X192940773Y-66668754D01*
X192901734Y-66623701D01*
X192835020Y-66492768D01*
X192835012Y-66492755D01*
X192809042Y-66457010D01*
X192809041Y-66457009D01*
X192245462Y-67020590D01*
X192228425Y-66957007D01*
X192162599Y-66842993D01*
X192069507Y-66749901D01*
X191955493Y-66684075D01*
X191891909Y-66667037D01*
X192455489Y-66103457D01*
X192419739Y-66077483D01*
X192243873Y-65987873D01*
X192056146Y-65926876D01*
X191861197Y-65896000D01*
X191663803Y-65896000D01*
X191468853Y-65926876D01*
X191281126Y-65987873D01*
X191105262Y-66077482D01*
X191105260Y-66077483D01*
X191069510Y-66103456D01*
X191069510Y-66103457D01*
X191633091Y-66667037D01*
X191569507Y-66684075D01*
X191455493Y-66749901D01*
X191362401Y-66842993D01*
X191296575Y-66957007D01*
X191279537Y-67020590D01*
X190715957Y-66457010D01*
X190715956Y-66457010D01*
X190689983Y-66492760D01*
X190689982Y-66492762D01*
X190623265Y-66623701D01*
X190575290Y-66674497D01*
X190507469Y-66691292D01*
X190441334Y-66668754D01*
X190402296Y-66623702D01*
X190335444Y-66492499D01*
X190309659Y-66457009D01*
X190219384Y-66332753D01*
X190079746Y-66193115D01*
X189920004Y-66077058D01*
X189920003Y-66077057D01*
X189920001Y-66077056D01*
X189744061Y-65987409D01*
X189722336Y-65980350D01*
X189556263Y-65926389D01*
X189361236Y-65895500D01*
X189361231Y-65895500D01*
X189163769Y-65895500D01*
X189163764Y-65895500D01*
X188968736Y-65926389D01*
X188780941Y-65987408D01*
X188604995Y-66077058D01*
X188445253Y-66193115D01*
X188305615Y-66332753D01*
X188189558Y-66492495D01*
X188189557Y-66492497D01*
X188189556Y-66492499D01*
X188123068Y-66622989D01*
X188122985Y-66623151D01*
X188075010Y-66673947D01*
X188007189Y-66690742D01*
X187941054Y-66668204D01*
X187902015Y-66623151D01*
X187835444Y-66492499D01*
X187809659Y-66457009D01*
X187719384Y-66332753D01*
X187579750Y-66193119D01*
X187579745Y-66193115D01*
X187458868Y-66105293D01*
X187416202Y-66049963D01*
X187410223Y-65980350D01*
X187442828Y-65918555D01*
X187443998Y-65917368D01*
X188074548Y-65286819D01*
X188135871Y-65253334D01*
X188162229Y-65250500D01*
X193750270Y-65250500D01*
X193817309Y-65270185D01*
G37*
%TD.AperFunction*%
%TD*%
%TA.AperFunction,Conductor*%
%TO.N,GND*%
G36*
X150685376Y-72769685D02*
G01*
X150706018Y-72786319D01*
X150713681Y-72793982D01*
X150747166Y-72855305D01*
X150750000Y-72881663D01*
X150750000Y-78176000D01*
X150730315Y-78243039D01*
X150677511Y-78288794D01*
X150626004Y-78300000D01*
X150600029Y-78300000D01*
X150600012Y-78300001D01*
X150497302Y-78310494D01*
X150330880Y-78365641D01*
X150330875Y-78365643D01*
X150181657Y-78457682D01*
X150088034Y-78551305D01*
X150026710Y-78584789D01*
X149957019Y-78579805D01*
X149912672Y-78551304D01*
X149818657Y-78457289D01*
X149818656Y-78457288D01*
X149669334Y-78365186D01*
X149502797Y-78310001D01*
X149502795Y-78310000D01*
X149400010Y-78299500D01*
X148599998Y-78299500D01*
X148599980Y-78299501D01*
X148497203Y-78310000D01*
X148497200Y-78310001D01*
X148330668Y-78365185D01*
X148330663Y-78365187D01*
X148181342Y-78457289D01*
X148057289Y-78581342D01*
X147965187Y-78730663D01*
X147965185Y-78730668D01*
X147910001Y-78897201D01*
X147910000Y-78897207D01*
X147907414Y-78922521D01*
X147881016Y-78987212D01*
X147870093Y-78999211D01*
X147862129Y-79006883D01*
X147851267Y-79014142D01*
X147764142Y-79101267D01*
X147764139Y-79101270D01*
X147763347Y-79102061D01*
X147763292Y-79102115D01*
X147752227Y-79113181D01*
X147690904Y-79146666D01*
X147672270Y-79148669D01*
X147672294Y-79148903D01*
X147666228Y-79149500D01*
X147501925Y-79182182D01*
X147501917Y-79182184D01*
X147347139Y-79246295D01*
X147207837Y-79339373D01*
X147089373Y-79457837D01*
X146996295Y-79597139D01*
X146932184Y-79751917D01*
X146932182Y-79751925D01*
X146899500Y-79916228D01*
X146899500Y-80083771D01*
X146932182Y-80248074D01*
X146932184Y-80248082D01*
X146996295Y-80402860D01*
X147089373Y-80542161D01*
X147092800Y-80546337D01*
X147120112Y-80610647D01*
X147108319Y-80679515D01*
X147092800Y-80703663D01*
X147089373Y-80707838D01*
X146996296Y-80847137D01*
X146945206Y-80970479D01*
X146901364Y-81024882D01*
X146835070Y-81046946D01*
X146774350Y-81033510D01*
X146750029Y-81021117D01*
X146562826Y-80960290D01*
X146368422Y-80929500D01*
X146368417Y-80929500D01*
X146171583Y-80929500D01*
X146171578Y-80929500D01*
X145977173Y-80960290D01*
X145789970Y-81021117D01*
X145614594Y-81110476D01*
X145523741Y-81176485D01*
X145455354Y-81226172D01*
X145455352Y-81226174D01*
X145455351Y-81226174D01*
X145316174Y-81365351D01*
X145316174Y-81365352D01*
X145316172Y-81365354D01*
X145266485Y-81433741D01*
X145200476Y-81524594D01*
X145111117Y-81699970D01*
X145050290Y-81887173D01*
X145019500Y-82081577D01*
X145019500Y-82278422D01*
X145050290Y-82472826D01*
X145111117Y-82660029D01*
X145166811Y-82769334D01*
X145200476Y-82835405D01*
X145316172Y-82994646D01*
X145455354Y-83133828D01*
X145614595Y-83249524D01*
X145697455Y-83291743D01*
X145789970Y-83338882D01*
X145789972Y-83338882D01*
X145789975Y-83338884D01*
X145890317Y-83371487D01*
X145977173Y-83399709D01*
X146171578Y-83430500D01*
X146171583Y-83430500D01*
X146368422Y-83430500D01*
X146562826Y-83399709D01*
X146750025Y-83338884D01*
X146925405Y-83249524D01*
X147084646Y-83133828D01*
X147223828Y-82994646D01*
X147339524Y-82835405D01*
X147428884Y-82660025D01*
X147489709Y-82472826D01*
X147511467Y-82335451D01*
X147520500Y-82278422D01*
X147520500Y-82222606D01*
X147524688Y-82208342D01*
X147523966Y-82193493D01*
X147534333Y-82175493D01*
X147540185Y-82155567D01*
X147551418Y-82145832D01*
X147558840Y-82132949D01*
X147577293Y-82123412D01*
X147592989Y-82109812D01*
X147608755Y-82107152D01*
X147620910Y-82100871D01*
X147645621Y-82100934D01*
X147656163Y-82099156D01*
X147662473Y-82099752D01*
X147666233Y-82100500D01*
X147670389Y-82100500D01*
X147676211Y-82101050D01*
X147703452Y-82111923D01*
X147731587Y-82120185D01*
X147738887Y-82126068D01*
X147741102Y-82126952D01*
X147742614Y-82129071D01*
X147752229Y-82136819D01*
X147863181Y-82247771D01*
X147896666Y-82309094D01*
X147899500Y-82335451D01*
X147899500Y-82500000D01*
X147899501Y-82500019D01*
X147910000Y-82602796D01*
X147910001Y-82602799D01*
X147965185Y-82769331D01*
X147965186Y-82769334D01*
X148057288Y-82918656D01*
X148181344Y-83042712D01*
X148330666Y-83134814D01*
X148497203Y-83189999D01*
X148599991Y-83200500D01*
X148625999Y-83200499D01*
X148693036Y-83220181D01*
X148738793Y-83272984D01*
X148750000Y-83324499D01*
X148750000Y-83750000D01*
X153500000Y-83750000D01*
X153500000Y-77374000D01*
X153519685Y-77306961D01*
X153572489Y-77261206D01*
X153624000Y-77250000D01*
X155118337Y-77250000D01*
X155185376Y-77269685D01*
X155206018Y-77286319D01*
X155850305Y-77930606D01*
X155944394Y-78024695D01*
X155944397Y-78024697D01*
X155944398Y-78024698D01*
X156055020Y-78098613D01*
X156055023Y-78098614D01*
X156055031Y-78098620D01*
X156177964Y-78149540D01*
X156177968Y-78149540D01*
X156177969Y-78149541D01*
X156308466Y-78175500D01*
X170861192Y-78175500D01*
X170928231Y-78195185D01*
X170973986Y-78247989D01*
X170985185Y-78298234D01*
X171095655Y-89124238D01*
X171076656Y-89191472D01*
X171024322Y-89237763D01*
X170971662Y-89249500D01*
X150810261Y-89249500D01*
X150762808Y-89240061D01*
X150740119Y-89230663D01*
X150623082Y-89182184D01*
X150623074Y-89182182D01*
X150458771Y-89149500D01*
X150458767Y-89149500D01*
X150291233Y-89149500D01*
X150291228Y-89149500D01*
X150126925Y-89182182D01*
X150126917Y-89182184D01*
X149972139Y-89246295D01*
X149832837Y-89339373D01*
X149714373Y-89457837D01*
X149621295Y-89597139D01*
X149557184Y-89751917D01*
X149557182Y-89751925D01*
X149524500Y-89916228D01*
X149524500Y-90083771D01*
X149557182Y-90248074D01*
X149557184Y-90248082D01*
X149621295Y-90402860D01*
X149714373Y-90542162D01*
X149832837Y-90660626D01*
X149924178Y-90721658D01*
X149972137Y-90753703D01*
X150126918Y-90817816D01*
X150291228Y-90850499D01*
X150291232Y-90850500D01*
X150291233Y-90850500D01*
X150458768Y-90850500D01*
X150458769Y-90850499D01*
X150623082Y-90817816D01*
X150762808Y-90759938D01*
X150810261Y-90750500D01*
X170989508Y-90750500D01*
X171056547Y-90770185D01*
X171102302Y-90822989D01*
X171113502Y-90873235D01*
X171138818Y-93354237D01*
X171119819Y-93421472D01*
X171067485Y-93467763D01*
X171014825Y-93479500D01*
X158778447Y-93479500D01*
X158711408Y-93459815D01*
X158678129Y-93428386D01*
X158673106Y-93421472D01*
X158662981Y-93407536D01*
X158522464Y-93267019D01*
X158361694Y-93150213D01*
X158184632Y-93059994D01*
X158184629Y-93059993D01*
X157995637Y-92998587D01*
X157897498Y-92983043D01*
X157799361Y-92967500D01*
X157600639Y-92967500D01*
X157600636Y-92967500D01*
X157575182Y-92971531D01*
X157505889Y-92962574D01*
X157468106Y-92936738D01*
X156966421Y-92435052D01*
X156966414Y-92435046D01*
X156892729Y-92385812D01*
X156892729Y-92385813D01*
X156843491Y-92352913D01*
X156706917Y-92296343D01*
X156706907Y-92296340D01*
X156561920Y-92267500D01*
X156561918Y-92267500D01*
X147880229Y-92267500D01*
X147813190Y-92247815D01*
X147792548Y-92231181D01*
X145636818Y-90075450D01*
X145603333Y-90014127D01*
X145600499Y-89987769D01*
X145600499Y-89499998D01*
X145600498Y-89499981D01*
X145589999Y-89397203D01*
X145589998Y-89397200D01*
X145550612Y-89278342D01*
X145534814Y-89230666D01*
X145442712Y-89081344D01*
X145318656Y-88957288D01*
X145169334Y-88865186D01*
X145002797Y-88810001D01*
X145002795Y-88810000D01*
X144900010Y-88799500D01*
X144099998Y-88799500D01*
X144099980Y-88799501D01*
X143997203Y-88810000D01*
X143997200Y-88810001D01*
X143830668Y-88865185D01*
X143830663Y-88865187D01*
X143681342Y-88957289D01*
X143587681Y-89050951D01*
X143526358Y-89084436D01*
X143456666Y-89079452D01*
X143412319Y-89050951D01*
X143318657Y-88957289D01*
X143318656Y-88957288D01*
X143169334Y-88865186D01*
X143002797Y-88810001D01*
X143002795Y-88810000D01*
X142900010Y-88799500D01*
X142099998Y-88799500D01*
X142099980Y-88799501D01*
X141997203Y-88810000D01*
X141997200Y-88810001D01*
X141830668Y-88865185D01*
X141830663Y-88865187D01*
X141681342Y-88957289D01*
X141557289Y-89081342D01*
X141465187Y-89230663D01*
X141465185Y-89230668D01*
X141460007Y-89246295D01*
X141410001Y-89397203D01*
X141410001Y-89397204D01*
X141410000Y-89397204D01*
X141399500Y-89499983D01*
X141399500Y-90500001D01*
X141399501Y-90500019D01*
X141410000Y-90602796D01*
X141410001Y-90602799D01*
X141449388Y-90721658D01*
X141465186Y-90769334D01*
X141557288Y-90918656D01*
X141681344Y-91042712D01*
X141830666Y-91134814D01*
X141997203Y-91189999D01*
X142099991Y-91200500D01*
X142900008Y-91200499D01*
X142900016Y-91200498D01*
X142900019Y-91200498D01*
X142956302Y-91194748D01*
X143002797Y-91189999D01*
X143169334Y-91134814D01*
X143318656Y-91042712D01*
X143412319Y-90949049D01*
X143473642Y-90915564D01*
X143543334Y-90920548D01*
X143587681Y-90949049D01*
X143681344Y-91042712D01*
X143830666Y-91134814D01*
X143997203Y-91189999D01*
X144099991Y-91200500D01*
X144587769Y-91200499D01*
X144654808Y-91220183D01*
X144675450Y-91236818D01*
X145824445Y-92385812D01*
X146935049Y-93496416D01*
X147039584Y-93600951D01*
X147039587Y-93600953D01*
X147039588Y-93600954D01*
X147162503Y-93683083D01*
X147162506Y-93683085D01*
X147212665Y-93703861D01*
X147219080Y-93706518D01*
X147299088Y-93739659D01*
X147415241Y-93762763D01*
X147438380Y-93767365D01*
X147444081Y-93768500D01*
X147444082Y-93768500D01*
X147444083Y-93768500D01*
X147591918Y-93768500D01*
X148813500Y-93768500D01*
X148880539Y-93788185D01*
X148926294Y-93840989D01*
X148937500Y-93892500D01*
X148937500Y-95039870D01*
X148937501Y-95039876D01*
X148943908Y-95099483D01*
X148994202Y-95234328D01*
X148994206Y-95234335D01*
X149080452Y-95349544D01*
X149080455Y-95349547D01*
X149195664Y-95435793D01*
X149195671Y-95435797D01*
X149330517Y-95486091D01*
X149330516Y-95486091D01*
X149337444Y-95486835D01*
X149390127Y-95492500D01*
X151009872Y-95492499D01*
X151069483Y-95486091D01*
X151204331Y-95435796D01*
X151319546Y-95349546D01*
X151405796Y-95234331D01*
X151456091Y-95099483D01*
X151462299Y-95041739D01*
X151489034Y-94977193D01*
X151546426Y-94937344D01*
X151616251Y-94934849D01*
X151676341Y-94970501D01*
X151685904Y-94982112D01*
X151727869Y-95039870D01*
X151737019Y-95052464D01*
X151877536Y-95192981D01*
X152038306Y-95309787D01*
X152116333Y-95349544D01*
X152215367Y-95400005D01*
X152215370Y-95400006D01*
X152309866Y-95430709D01*
X152404364Y-95461413D01*
X152600639Y-95492500D01*
X152600640Y-95492500D01*
X152799360Y-95492500D01*
X152799361Y-95492500D01*
X152995636Y-95461413D01*
X153184632Y-95400005D01*
X153361694Y-95309787D01*
X153522464Y-95192981D01*
X153662981Y-95052464D01*
X153779787Y-94891694D01*
X153839796Y-94773919D01*
X153887769Y-94723124D01*
X153955590Y-94706329D01*
X154021725Y-94728866D01*
X154060765Y-94773920D01*
X154120641Y-94891432D01*
X154147730Y-94928715D01*
X154717038Y-94359407D01*
X154734076Y-94422992D01*
X154799902Y-94537006D01*
X154892994Y-94630098D01*
X155007008Y-94695924D01*
X155070591Y-94712961D01*
X154501283Y-95282268D01*
X154501283Y-95282269D01*
X154538567Y-95309358D01*
X154715562Y-95399542D01*
X154904477Y-95460924D01*
X155100679Y-95492000D01*
X155299321Y-95492000D01*
X155495520Y-95460924D01*
X155495523Y-95460924D01*
X155684437Y-95399542D01*
X155861425Y-95309362D01*
X155898716Y-95282268D01*
X155329409Y-94712961D01*
X155392992Y-94695924D01*
X155507006Y-94630098D01*
X155600098Y-94537006D01*
X155665924Y-94422992D01*
X155682961Y-94359408D01*
X156252268Y-94928715D01*
X156279364Y-94891422D01*
X156339234Y-94773921D01*
X156387208Y-94723124D01*
X156455029Y-94706329D01*
X156521164Y-94728866D01*
X156560203Y-94773919D01*
X156620213Y-94891694D01*
X156737019Y-95052464D01*
X156877536Y-95192981D01*
X157038306Y-95309787D01*
X157116333Y-95349544D01*
X157215367Y-95400005D01*
X157215370Y-95400006D01*
X157309866Y-95430709D01*
X157404364Y-95461413D01*
X157600639Y-95492500D01*
X157600640Y-95492500D01*
X157799360Y-95492500D01*
X157799361Y-95492500D01*
X157995636Y-95461413D01*
X158184632Y-95400005D01*
X158361694Y-95309787D01*
X158522464Y-95192981D01*
X158662981Y-95052464D01*
X158678129Y-95031613D01*
X158733460Y-94988949D01*
X158778447Y-94980500D01*
X171032671Y-94980500D01*
X171099710Y-95000185D01*
X171145465Y-95052989D01*
X171156665Y-95103235D01*
X171160059Y-95435793D01*
X171210860Y-100414329D01*
X171238002Y-103074237D01*
X171219003Y-103141472D01*
X171166669Y-103187763D01*
X171114009Y-103199500D01*
X145192706Y-103199500D01*
X145187297Y-103199382D01*
X144785818Y-103181853D01*
X144775042Y-103180910D01*
X144379314Y-103128811D01*
X144368660Y-103126933D01*
X143978960Y-103040538D01*
X143968512Y-103037738D01*
X143587840Y-102917714D01*
X143577674Y-102914014D01*
X143208903Y-102761264D01*
X143199099Y-102756692D01*
X142845057Y-102572388D01*
X142835689Y-102566980D01*
X142499045Y-102352515D01*
X142490184Y-102346310D01*
X142173507Y-102103315D01*
X142165220Y-102096361D01*
X141870943Y-101826705D01*
X141863294Y-101819056D01*
X141593638Y-101524779D01*
X141586684Y-101516492D01*
X141343689Y-101199815D01*
X141337484Y-101190954D01*
X141123019Y-100854310D01*
X141117611Y-100844942D01*
X140933307Y-100490900D01*
X140928735Y-100481096D01*
X140775981Y-100112315D01*
X140772285Y-100102159D01*
X140652261Y-99721487D01*
X140649461Y-99711039D01*
X140563066Y-99321339D01*
X140561188Y-99310685D01*
X140540849Y-99156193D01*
X140509087Y-98914937D01*
X140508147Y-98904202D01*
X140490618Y-98502702D01*
X140490500Y-98497293D01*
X140490500Y-96684983D01*
X162159500Y-96684983D01*
X162159500Y-98285001D01*
X162159501Y-98285018D01*
X162170000Y-98387796D01*
X162170001Y-98387799D01*
X162191410Y-98452405D01*
X162225186Y-98554334D01*
X162317288Y-98703656D01*
X162441344Y-98827712D01*
X162590666Y-98919814D01*
X162757203Y-98974999D01*
X162859991Y-98985500D01*
X164460008Y-98985499D01*
X164562797Y-98974999D01*
X164729334Y-98919814D01*
X164878656Y-98827712D01*
X165002712Y-98703656D01*
X165094814Y-98554334D01*
X165149999Y-98387797D01*
X165160500Y-98285009D01*
X165160499Y-98222305D01*
X165180183Y-98155269D01*
X165196818Y-98134626D01*
X165635387Y-97696058D01*
X165640889Y-97716591D01*
X165719881Y-97853408D01*
X165831592Y-97965119D01*
X165968409Y-98044111D01*
X165988940Y-98049612D01*
X165330893Y-98707658D01*
X165413828Y-98767914D01*
X165624197Y-98875102D01*
X165848752Y-98948065D01*
X165848751Y-98948065D01*
X166081948Y-98985000D01*
X166318052Y-98985000D01*
X166551247Y-98948065D01*
X166775802Y-98875102D01*
X166986163Y-98767918D01*
X166986169Y-98767914D01*
X167069104Y-98707658D01*
X167069105Y-98707658D01*
X166411058Y-98049612D01*
X166431591Y-98044111D01*
X166568408Y-97965119D01*
X166680119Y-97853408D01*
X166759111Y-97716591D01*
X166764612Y-97696059D01*
X167422658Y-98354105D01*
X167422658Y-98354104D01*
X167482914Y-98271169D01*
X167482918Y-98271163D01*
X167590102Y-98060802D01*
X167663065Y-97836247D01*
X167700000Y-97603052D01*
X167700000Y-97366947D01*
X167663065Y-97133752D01*
X167590102Y-96909197D01*
X167482914Y-96698828D01*
X167422658Y-96615894D01*
X167422658Y-96615893D01*
X166764612Y-97273940D01*
X166759111Y-97253409D01*
X166680119Y-97116592D01*
X166568408Y-97004881D01*
X166431591Y-96925889D01*
X166411059Y-96920387D01*
X167069105Y-96262340D01*
X167069104Y-96262338D01*
X166986174Y-96202087D01*
X166775802Y-96094897D01*
X166551247Y-96021934D01*
X166551248Y-96021934D01*
X166318052Y-95985000D01*
X166081948Y-95985000D01*
X165848752Y-96021934D01*
X165624197Y-96094897D01*
X165413830Y-96202084D01*
X165330894Y-96262340D01*
X165988941Y-96920387D01*
X165968409Y-96925889D01*
X165831592Y-97004881D01*
X165719881Y-97116592D01*
X165640889Y-97253409D01*
X165635387Y-97273941D01*
X165196818Y-96835372D01*
X165163333Y-96774049D01*
X165160499Y-96747691D01*
X165160499Y-96684998D01*
X165160498Y-96684981D01*
X165149999Y-96582203D01*
X165149998Y-96582200D01*
X165094814Y-96415666D01*
X165002712Y-96266344D01*
X164878656Y-96142288D01*
X164729334Y-96050186D01*
X164562797Y-95995001D01*
X164562795Y-95995000D01*
X164460010Y-95984500D01*
X162859998Y-95984500D01*
X162859981Y-95984501D01*
X162757203Y-95995000D01*
X162757200Y-95995001D01*
X162590668Y-96050185D01*
X162590663Y-96050187D01*
X162441342Y-96142289D01*
X162317289Y-96266342D01*
X162225187Y-96415663D01*
X162225186Y-96415666D01*
X162170001Y-96582203D01*
X162170001Y-96582204D01*
X162170000Y-96582204D01*
X162159500Y-96684983D01*
X140490500Y-96684983D01*
X140490500Y-84772000D01*
X141405138Y-84772000D01*
X142325272Y-84772000D01*
X142233386Y-84810060D01*
X142163060Y-84880386D01*
X142125000Y-84972272D01*
X142125000Y-85071728D01*
X142163060Y-85163614D01*
X142233386Y-85233940D01*
X142325272Y-85272000D01*
X141405138Y-85272000D01*
X141413430Y-85313690D01*
X141413430Y-85313692D01*
X141488807Y-85495671D01*
X141488814Y-85495684D01*
X141598248Y-85659462D01*
X141598251Y-85659466D01*
X141737533Y-85798748D01*
X141737537Y-85798751D01*
X141901315Y-85908185D01*
X141901328Y-85908192D01*
X142083306Y-85983569D01*
X142083318Y-85983572D01*
X142276504Y-86021999D01*
X142276508Y-86022000D01*
X142475000Y-86022000D01*
X142475000Y-85272000D01*
X142975000Y-85272000D01*
X142975000Y-86022000D01*
X143173492Y-86022000D01*
X143173495Y-86021999D01*
X143366681Y-85983572D01*
X143366693Y-85983569D01*
X143548671Y-85908192D01*
X143548684Y-85908185D01*
X143712462Y-85798751D01*
X143712466Y-85798748D01*
X143851748Y-85659466D01*
X143851751Y-85659462D01*
X143961185Y-85495684D01*
X143961192Y-85495671D01*
X144036569Y-85313692D01*
X144036569Y-85313690D01*
X144044862Y-85272000D01*
X143124728Y-85272000D01*
X143216614Y-85233940D01*
X143286940Y-85163614D01*
X143325000Y-85071728D01*
X143325000Y-84972272D01*
X143286940Y-84880386D01*
X143216614Y-84810060D01*
X143124728Y-84772000D01*
X144044862Y-84772000D01*
X145205138Y-84772000D01*
X146125272Y-84772000D01*
X146033386Y-84810060D01*
X145963060Y-84880386D01*
X145925000Y-84972272D01*
X145925000Y-85071728D01*
X145963060Y-85163614D01*
X146033386Y-85233940D01*
X146125272Y-85272000D01*
X145205138Y-85272000D01*
X145213430Y-85313690D01*
X145213430Y-85313692D01*
X145288807Y-85495671D01*
X145288814Y-85495684D01*
X145398248Y-85659462D01*
X145398251Y-85659466D01*
X145537533Y-85798748D01*
X145537537Y-85798751D01*
X145701315Y-85908185D01*
X145701328Y-85908192D01*
X145883306Y-85983569D01*
X145883318Y-85983572D01*
X146076504Y-86021999D01*
X146076508Y-86022000D01*
X146275000Y-86022000D01*
X146275000Y-85272000D01*
X146775000Y-85272000D01*
X146775000Y-86022000D01*
X146973492Y-86022000D01*
X146973495Y-86021999D01*
X147166681Y-85983572D01*
X147166693Y-85983569D01*
X147348671Y-85908192D01*
X147348684Y-85908185D01*
X147512462Y-85798751D01*
X147512466Y-85798748D01*
X147651748Y-85659466D01*
X147651751Y-85659462D01*
X147761185Y-85495684D01*
X147761192Y-85495671D01*
X147836569Y-85313692D01*
X147836569Y-85313690D01*
X147844862Y-85272000D01*
X146924728Y-85272000D01*
X147016614Y-85233940D01*
X147086940Y-85163614D01*
X147125000Y-85071728D01*
X147125000Y-84972272D01*
X147086940Y-84880386D01*
X147016614Y-84810060D01*
X146924728Y-84772000D01*
X147844862Y-84772000D01*
X147836569Y-84730309D01*
X147836569Y-84730307D01*
X147761192Y-84548328D01*
X147761185Y-84548315D01*
X147651751Y-84384537D01*
X147651748Y-84384533D01*
X147512466Y-84245251D01*
X147512462Y-84245248D01*
X147348684Y-84135814D01*
X147348671Y-84135807D01*
X147166693Y-84060430D01*
X147166681Y-84060427D01*
X146973495Y-84022000D01*
X146775000Y-84022000D01*
X146775000Y-84772000D01*
X146275000Y-84772000D01*
X146275000Y-84022000D01*
X146076504Y-84022000D01*
X145883318Y-84060427D01*
X145883306Y-84060430D01*
X145701328Y-84135807D01*
X145701315Y-84135814D01*
X145537537Y-84245248D01*
X145537533Y-84245251D01*
X145398251Y-84384533D01*
X145398248Y-84384537D01*
X145288814Y-84548315D01*
X145288807Y-84548328D01*
X145213430Y-84730307D01*
X145213430Y-84730309D01*
X145205138Y-84772000D01*
X144044862Y-84772000D01*
X144036569Y-84730309D01*
X144036569Y-84730307D01*
X143961192Y-84548328D01*
X143961185Y-84548315D01*
X143851751Y-84384537D01*
X143851748Y-84384533D01*
X143712466Y-84245251D01*
X143712462Y-84245248D01*
X143548684Y-84135814D01*
X143548671Y-84135807D01*
X143366693Y-84060430D01*
X143366681Y-84060427D01*
X143173495Y-84022000D01*
X142975000Y-84022000D01*
X142975000Y-84772000D01*
X142475000Y-84772000D01*
X142475000Y-84022000D01*
X142276504Y-84022000D01*
X142083318Y-84060427D01*
X142083306Y-84060430D01*
X141901328Y-84135807D01*
X141901315Y-84135814D01*
X141737537Y-84245248D01*
X141737533Y-84245251D01*
X141598251Y-84384533D01*
X141598248Y-84384537D01*
X141488814Y-84548315D01*
X141488807Y-84548328D01*
X141413430Y-84730307D01*
X141413430Y-84730309D01*
X141405138Y-84772000D01*
X140490500Y-84772000D01*
X140490500Y-76132000D01*
X141405138Y-76132000D01*
X142325272Y-76132000D01*
X142233386Y-76170060D01*
X142163060Y-76240386D01*
X142125000Y-76332272D01*
X142125000Y-76431728D01*
X142163060Y-76523614D01*
X142233386Y-76593940D01*
X142325272Y-76632000D01*
X141405138Y-76632000D01*
X141413430Y-76673690D01*
X141413430Y-76673692D01*
X141488807Y-76855671D01*
X141488814Y-76855684D01*
X141598248Y-77019462D01*
X141598251Y-77019466D01*
X141737533Y-77158748D01*
X141737537Y-77158751D01*
X141901315Y-77268185D01*
X141901328Y-77268192D01*
X142083306Y-77343569D01*
X142083318Y-77343572D01*
X142276504Y-77381999D01*
X142276508Y-77382000D01*
X142475000Y-77382000D01*
X142475000Y-76632000D01*
X142975000Y-76632000D01*
X142975000Y-77382000D01*
X143173492Y-77382000D01*
X143173495Y-77381999D01*
X143366681Y-77343572D01*
X143366693Y-77343569D01*
X143548671Y-77268192D01*
X143548684Y-77268185D01*
X143712462Y-77158751D01*
X143712466Y-77158748D01*
X143851748Y-77019466D01*
X143851751Y-77019462D01*
X143961185Y-76855684D01*
X143961192Y-76855671D01*
X144036569Y-76673692D01*
X144036569Y-76673690D01*
X144044862Y-76632000D01*
X143124728Y-76632000D01*
X143216614Y-76593940D01*
X143286940Y-76523614D01*
X143325000Y-76431728D01*
X143325000Y-76332272D01*
X143286940Y-76240386D01*
X143216614Y-76170060D01*
X143124728Y-76132000D01*
X144044862Y-76132000D01*
X145205138Y-76132000D01*
X146125272Y-76132000D01*
X146033386Y-76170060D01*
X145963060Y-76240386D01*
X145925000Y-76332272D01*
X145925000Y-76431728D01*
X145963060Y-76523614D01*
X146033386Y-76593940D01*
X146125272Y-76632000D01*
X145205138Y-76632000D01*
X145213430Y-76673690D01*
X145213430Y-76673692D01*
X145288807Y-76855671D01*
X145288814Y-76855684D01*
X145398248Y-77019462D01*
X145398251Y-77019466D01*
X145537533Y-77158748D01*
X145537537Y-77158751D01*
X145701315Y-77268185D01*
X145701328Y-77268192D01*
X145883306Y-77343569D01*
X145883318Y-77343572D01*
X146076504Y-77381999D01*
X146076508Y-77382000D01*
X146275000Y-77382000D01*
X146275000Y-76632000D01*
X146775000Y-76632000D01*
X146775000Y-77382000D01*
X146973492Y-77382000D01*
X146973495Y-77381999D01*
X147166681Y-77343572D01*
X147166693Y-77343569D01*
X147348671Y-77268192D01*
X147348684Y-77268185D01*
X147512462Y-77158751D01*
X147512466Y-77158748D01*
X147651748Y-77019466D01*
X147651751Y-77019462D01*
X147761185Y-76855684D01*
X147761192Y-76855671D01*
X147836569Y-76673692D01*
X147836569Y-76673690D01*
X147844862Y-76632000D01*
X146924728Y-76632000D01*
X147016614Y-76593940D01*
X147086940Y-76523614D01*
X147125000Y-76431728D01*
X147125000Y-76332272D01*
X147086940Y-76240386D01*
X147016614Y-76170060D01*
X146924728Y-76132000D01*
X147844862Y-76132000D01*
X147836569Y-76090309D01*
X147836569Y-76090307D01*
X147761192Y-75908328D01*
X147761185Y-75908315D01*
X147651751Y-75744537D01*
X147651748Y-75744533D01*
X147512466Y-75605251D01*
X147512462Y-75605248D01*
X147348684Y-75495814D01*
X147348671Y-75495807D01*
X147166693Y-75420430D01*
X147166681Y-75420427D01*
X146973495Y-75382000D01*
X146775000Y-75382000D01*
X146775000Y-76132000D01*
X146275000Y-76132000D01*
X146275000Y-75382000D01*
X146076504Y-75382000D01*
X145883318Y-75420427D01*
X145883306Y-75420430D01*
X145701328Y-75495807D01*
X145701315Y-75495814D01*
X145537537Y-75605248D01*
X145537533Y-75605251D01*
X145398251Y-75744533D01*
X145398248Y-75744537D01*
X145288814Y-75908315D01*
X145288807Y-75908328D01*
X145213430Y-76090307D01*
X145213430Y-76090309D01*
X145205138Y-76132000D01*
X144044862Y-76132000D01*
X144036569Y-76090309D01*
X144036569Y-76090307D01*
X143961192Y-75908328D01*
X143961185Y-75908315D01*
X143851751Y-75744537D01*
X143851748Y-75744533D01*
X143712466Y-75605251D01*
X143712462Y-75605248D01*
X143548684Y-75495814D01*
X143548671Y-75495807D01*
X143366693Y-75420430D01*
X143366681Y-75420427D01*
X143173495Y-75382000D01*
X142975000Y-75382000D01*
X142975000Y-76132000D01*
X142475000Y-76132000D01*
X142475000Y-75382000D01*
X142276504Y-75382000D01*
X142083318Y-75420427D01*
X142083306Y-75420430D01*
X141901328Y-75495807D01*
X141901315Y-75495814D01*
X141737537Y-75605248D01*
X141737533Y-75605251D01*
X141598251Y-75744533D01*
X141598248Y-75744537D01*
X141488814Y-75908315D01*
X141488807Y-75908328D01*
X141413430Y-76090307D01*
X141413430Y-76090309D01*
X141405138Y-76132000D01*
X140490500Y-76132000D01*
X140490500Y-72874000D01*
X140510185Y-72806961D01*
X140562989Y-72761206D01*
X140614500Y-72750000D01*
X150618337Y-72750000D01*
X150685376Y-72769685D01*
G37*
%TD.AperFunction*%
%TA.AperFunction,Conductor*%
G36*
X170789200Y-64570185D02*
G01*
X170834955Y-64622989D01*
X170846155Y-64673235D01*
X170855100Y-65549812D01*
X170882653Y-68250000D01*
X170968183Y-76632000D01*
X170968870Y-76699235D01*
X170949870Y-76766472D01*
X170897536Y-76812763D01*
X170844876Y-76824500D01*
X167374000Y-76824500D01*
X167306961Y-76804815D01*
X167261206Y-76752011D01*
X167250000Y-76700500D01*
X167250000Y-76200303D01*
X167269685Y-76133264D01*
X167301111Y-76099988D01*
X167364646Y-76053828D01*
X167503828Y-75914646D01*
X167619524Y-75755405D01*
X167708884Y-75580025D01*
X167769709Y-75392826D01*
X167787575Y-75280025D01*
X167800500Y-75198422D01*
X167800500Y-75001577D01*
X167769709Y-74807173D01*
X167735400Y-74701583D01*
X167708884Y-74619975D01*
X167708882Y-74619972D01*
X167708882Y-74619970D01*
X167619523Y-74444594D01*
X167503828Y-74285354D01*
X167364646Y-74146172D01*
X167359814Y-74142661D01*
X167301114Y-74100012D01*
X167258448Y-74044682D01*
X167250000Y-73999695D01*
X167250000Y-73500000D01*
X157440019Y-73500000D01*
X157372980Y-73480315D01*
X157327225Y-73427511D01*
X157317281Y-73358353D01*
X157346306Y-73294797D01*
X157352338Y-73288319D01*
X166053838Y-64586819D01*
X166115161Y-64553334D01*
X166141519Y-64550500D01*
X170722161Y-64550500D01*
X170789200Y-64570185D01*
G37*
%TD.AperFunction*%
%TA.AperFunction,Conductor*%
G36*
X170715220Y-57320185D02*
G01*
X170760975Y-57372989D01*
X170772175Y-57423235D01*
X170798562Y-60009099D01*
X170828780Y-62970485D01*
X170829329Y-63024235D01*
X170810329Y-63091472D01*
X170757995Y-63137763D01*
X170705335Y-63149500D01*
X165731003Y-63149500D01*
X165622590Y-63171065D01*
X165622589Y-63171065D01*
X165595671Y-63176420D01*
X165468190Y-63229224D01*
X165353454Y-63305887D01*
X155585887Y-73073454D01*
X155509222Y-73188192D01*
X155456421Y-73315667D01*
X155456418Y-73315677D01*
X155439607Y-73400192D01*
X155407222Y-73462103D01*
X155346506Y-73496677D01*
X155317990Y-73500000D01*
X153381663Y-73500000D01*
X153314624Y-73480315D01*
X153293982Y-73463681D01*
X151246874Y-71416573D01*
X151213389Y-71355250D01*
X151212968Y-71353232D01*
X151192816Y-71251918D01*
X151128703Y-71097137D01*
X151097537Y-71050494D01*
X151035626Y-70957837D01*
X150917162Y-70839373D01*
X150777860Y-70746295D01*
X150623082Y-70682184D01*
X150623074Y-70682182D01*
X150458771Y-70649500D01*
X150458767Y-70649500D01*
X150291233Y-70649500D01*
X150291228Y-70649500D01*
X150126925Y-70682182D01*
X150126917Y-70682184D01*
X149972139Y-70746295D01*
X149832837Y-70839373D01*
X149714373Y-70957837D01*
X149621295Y-71097139D01*
X149557184Y-71251917D01*
X149557182Y-71251925D01*
X149524500Y-71416228D01*
X149524500Y-71583771D01*
X149557182Y-71748074D01*
X149557184Y-71748082D01*
X149621295Y-71902860D01*
X149714373Y-72042162D01*
X149832837Y-72160626D01*
X149902487Y-72207164D01*
X149972137Y-72253703D01*
X149987987Y-72260268D01*
X149990813Y-72261439D01*
X150045216Y-72305280D01*
X150067281Y-72371574D01*
X150050002Y-72439273D01*
X149998865Y-72486884D01*
X149943360Y-72500000D01*
X140614500Y-72500000D01*
X140547461Y-72480315D01*
X140501706Y-72427511D01*
X140490500Y-72376000D01*
X140490500Y-63996947D01*
X152170000Y-63996947D01*
X152170000Y-64233052D01*
X152206934Y-64466247D01*
X152279897Y-64690802D01*
X152387087Y-64901174D01*
X152447338Y-64984104D01*
X152447340Y-64984105D01*
X153105387Y-64326058D01*
X153110889Y-64346591D01*
X153189881Y-64483408D01*
X153301592Y-64595119D01*
X153438409Y-64674111D01*
X153458940Y-64679612D01*
X152800893Y-65337658D01*
X152883828Y-65397914D01*
X153094197Y-65505102D01*
X153318752Y-65578065D01*
X153318751Y-65578065D01*
X153551948Y-65615000D01*
X153788052Y-65615000D01*
X154021247Y-65578065D01*
X154245802Y-65505102D01*
X154456163Y-65397918D01*
X154456169Y-65397914D01*
X154539104Y-65337658D01*
X154539105Y-65337658D01*
X153881058Y-64679612D01*
X153901591Y-64674111D01*
X154038408Y-64595119D01*
X154150119Y-64483408D01*
X154229111Y-64346591D01*
X154234612Y-64326059D01*
X154892657Y-64984104D01*
X154912404Y-64982550D01*
X154980781Y-64996914D01*
X155022451Y-65033282D01*
X155065483Y-65092510D01*
X155232490Y-65259517D01*
X155423567Y-65398343D01*
X155522991Y-65449002D01*
X155634003Y-65505566D01*
X155634005Y-65505566D01*
X155634008Y-65505568D01*
X155754412Y-65544689D01*
X155858631Y-65578553D01*
X156091903Y-65615500D01*
X156091908Y-65615500D01*
X156328097Y-65615500D01*
X156561368Y-65578553D01*
X156562870Y-65578065D01*
X156785992Y-65505568D01*
X156996433Y-65398343D01*
X157187510Y-65259517D01*
X157187516Y-65259511D01*
X157191221Y-65256348D01*
X157192784Y-65258179D01*
X157245292Y-65229339D01*
X157314996Y-65234152D01*
X157371032Y-65275885D01*
X157377487Y-65285342D01*
X157407287Y-65333655D01*
X157407288Y-65333656D01*
X157531344Y-65457712D01*
X157680666Y-65549814D01*
X157847203Y-65604999D01*
X157949991Y-65615500D01*
X159550008Y-65615499D01*
X159652797Y-65604999D01*
X159819334Y-65549814D01*
X159968656Y-65457712D01*
X160092712Y-65333656D01*
X160184814Y-65184334D01*
X160239999Y-65017797D01*
X160250500Y-64915009D01*
X160250499Y-63314992D01*
X160243440Y-63245893D01*
X160239999Y-63212203D01*
X160239998Y-63212200D01*
X160228142Y-63176420D01*
X160184814Y-63045666D01*
X160092712Y-62896344D01*
X159968656Y-62772288D01*
X159819334Y-62680186D01*
X159652797Y-62625001D01*
X159652795Y-62625000D01*
X159550010Y-62614500D01*
X157949998Y-62614500D01*
X157949981Y-62614501D01*
X157847203Y-62625000D01*
X157847200Y-62625001D01*
X157680668Y-62680185D01*
X157680663Y-62680187D01*
X157531342Y-62772289D01*
X157407287Y-62896344D01*
X157377487Y-62944658D01*
X157325539Y-62991382D01*
X157256576Y-63002603D01*
X157192494Y-62974759D01*
X157191241Y-62973614D01*
X157191214Y-62973647D01*
X157187517Y-62970490D01*
X157187510Y-62970483D01*
X156996433Y-62831657D01*
X156785996Y-62724433D01*
X156561368Y-62651446D01*
X156328097Y-62614500D01*
X156328092Y-62614500D01*
X156091908Y-62614500D01*
X156091903Y-62614500D01*
X155858631Y-62651446D01*
X155634003Y-62724433D01*
X155423566Y-62831657D01*
X155340047Y-62892338D01*
X155232490Y-62970483D01*
X155232488Y-62970485D01*
X155232487Y-62970485D01*
X155065482Y-63137490D01*
X155022451Y-63196717D01*
X154967120Y-63239382D01*
X154912405Y-63247448D01*
X154892658Y-63245893D01*
X154234612Y-63903940D01*
X154229111Y-63883409D01*
X154150119Y-63746592D01*
X154038408Y-63634881D01*
X153901591Y-63555889D01*
X153881059Y-63550387D01*
X154539105Y-62892340D01*
X154539104Y-62892338D01*
X154456174Y-62832087D01*
X154245802Y-62724897D01*
X154021247Y-62651934D01*
X154021248Y-62651934D01*
X153788052Y-62615000D01*
X153551948Y-62615000D01*
X153318752Y-62651934D01*
X153094197Y-62724897D01*
X152883830Y-62832084D01*
X152800894Y-62892340D01*
X153458941Y-63550387D01*
X153438409Y-63555889D01*
X153301592Y-63634881D01*
X153189881Y-63746592D01*
X153110889Y-63883409D01*
X153105387Y-63903941D01*
X152447340Y-63245894D01*
X152387084Y-63328830D01*
X152279897Y-63539197D01*
X152206934Y-63763752D01*
X152170000Y-63996947D01*
X140490500Y-63996947D01*
X140490500Y-62002706D01*
X140490618Y-61997297D01*
X140492227Y-61960438D01*
X140508147Y-61595795D01*
X140509087Y-61585064D01*
X140561189Y-61189302D01*
X140563063Y-61178672D01*
X140649463Y-60788950D01*
X140652261Y-60778512D01*
X140744400Y-60486282D01*
X140772291Y-60397823D01*
X140775978Y-60387691D01*
X140928741Y-60018888D01*
X140933299Y-60009114D01*
X141117617Y-59655046D01*
X141123012Y-59645700D01*
X141337493Y-59309031D01*
X141343689Y-59300184D01*
X141586684Y-58983507D01*
X141593623Y-58975237D01*
X141863304Y-58680932D01*
X141870932Y-58673304D01*
X142165237Y-58403623D01*
X142173500Y-58396689D01*
X142490186Y-58153687D01*
X142499031Y-58147493D01*
X142835700Y-57933012D01*
X142845046Y-57927617D01*
X143199114Y-57743299D01*
X143208888Y-57738741D01*
X143577691Y-57585978D01*
X143587823Y-57582291D01*
X143968521Y-57462258D01*
X143978950Y-57459463D01*
X144368672Y-57373063D01*
X144379302Y-57371189D01*
X144775064Y-57319087D01*
X144785795Y-57318147D01*
X145187297Y-57300617D01*
X145192706Y-57300500D01*
X170648181Y-57300500D01*
X170715220Y-57320185D01*
G37*
%TD.AperFunction*%
%TD*%
%TA.AperFunction,Conductor*%
%TO.N,IN-*%
G36*
X222187539Y-79269685D02*
G01*
X222233294Y-79322489D01*
X222244500Y-79374000D01*
X222244500Y-81126007D01*
X222249289Y-81170541D01*
X222250000Y-81183797D01*
X222250000Y-81500000D01*
X222315144Y-81500000D01*
X222382183Y-81519685D01*
X222408855Y-81542795D01*
X222424930Y-81561347D01*
X222533664Y-81655567D01*
X222533667Y-81655568D01*
X222533668Y-81655569D01*
X222661352Y-81713882D01*
X222664541Y-81715338D01*
X222731580Y-81735023D01*
X222731584Y-81735024D01*
X222874000Y-81755500D01*
X222874003Y-81755500D01*
X229620500Y-81755500D01*
X229687539Y-81775185D01*
X229733294Y-81827989D01*
X229744500Y-81879500D01*
X229744500Y-94082111D01*
X229724815Y-94149150D01*
X229708181Y-94169792D01*
X225064792Y-98813181D01*
X225003469Y-98846666D01*
X224977111Y-98849500D01*
X223197889Y-98849500D01*
X223130850Y-98829815D01*
X223110208Y-98813181D01*
X218344871Y-94047844D01*
X222000000Y-94047844D01*
X222006401Y-94107372D01*
X222006403Y-94107379D01*
X222056645Y-94242086D01*
X222056649Y-94242093D01*
X222142809Y-94357187D01*
X222142812Y-94357190D01*
X222257906Y-94443350D01*
X222257913Y-94443354D01*
X222392620Y-94493596D01*
X222392627Y-94493598D01*
X222452155Y-94499999D01*
X222452172Y-94500000D01*
X222500000Y-94500000D01*
X225500000Y-94500000D01*
X225547828Y-94500000D01*
X225547844Y-94499999D01*
X225607372Y-94493598D01*
X225607379Y-94493596D01*
X225742086Y-94443354D01*
X225742093Y-94443350D01*
X225857187Y-94357190D01*
X225857190Y-94357187D01*
X225943350Y-94242093D01*
X225943354Y-94242086D01*
X225993596Y-94107379D01*
X225993598Y-94107372D01*
X225999999Y-94047844D01*
X226000000Y-94047827D01*
X226000000Y-94000000D01*
X225500000Y-94000000D01*
X225500000Y-94500000D01*
X222500000Y-94500000D01*
X222500000Y-94000000D01*
X222000000Y-94000000D01*
X222000000Y-94047844D01*
X218344871Y-94047844D01*
X218041819Y-93744792D01*
X218008334Y-93683469D01*
X218005500Y-93657111D01*
X218005500Y-92435981D01*
X223350000Y-92435981D01*
X223350000Y-92564019D01*
X223374979Y-92689598D01*
X223423978Y-92807890D01*
X223495112Y-92914351D01*
X223585649Y-93004888D01*
X223692110Y-93076022D01*
X223810402Y-93125021D01*
X223935981Y-93150000D01*
X224064019Y-93150000D01*
X224189598Y-93125021D01*
X224307890Y-93076022D01*
X224414351Y-93004888D01*
X224504888Y-92914351D01*
X224576022Y-92807890D01*
X224625021Y-92689598D01*
X224650000Y-92564019D01*
X224650000Y-92435981D01*
X224625021Y-92310402D01*
X224576022Y-92192110D01*
X224504888Y-92085649D01*
X224414351Y-91995112D01*
X224307890Y-91923978D01*
X224189598Y-91874979D01*
X224064019Y-91850000D01*
X223935981Y-91850000D01*
X223810402Y-91874979D01*
X223692110Y-91923978D01*
X223585649Y-91995112D01*
X223495112Y-92085649D01*
X223423978Y-92192110D01*
X223374979Y-92310402D01*
X223350000Y-92435981D01*
X218005500Y-92435981D01*
X218005500Y-90952155D01*
X222000000Y-90952155D01*
X222000000Y-91000000D01*
X222500000Y-91000000D01*
X225500000Y-91000000D01*
X226000000Y-91000000D01*
X226000000Y-90952172D01*
X225999999Y-90952155D01*
X225993598Y-90892627D01*
X225993596Y-90892620D01*
X225943354Y-90757913D01*
X225943350Y-90757906D01*
X225857190Y-90642812D01*
X225857187Y-90642809D01*
X225742093Y-90556649D01*
X225742086Y-90556645D01*
X225607379Y-90506403D01*
X225607372Y-90506401D01*
X225547844Y-90500000D01*
X225500000Y-90500000D01*
X225500000Y-91000000D01*
X222500000Y-91000000D01*
X222500000Y-90500000D01*
X222452155Y-90500000D01*
X222392627Y-90506401D01*
X222392620Y-90506403D01*
X222257913Y-90556645D01*
X222257906Y-90556649D01*
X222142812Y-90642809D01*
X222142809Y-90642812D01*
X222056649Y-90757906D01*
X222056645Y-90757913D01*
X222006403Y-90892620D01*
X222006401Y-90892627D01*
X222000000Y-90952155D01*
X218005500Y-90952155D01*
X218005500Y-83374010D01*
X218005500Y-83374000D01*
X217993947Y-83266544D01*
X217982741Y-83215033D01*
X217977069Y-83197991D01*
X217948616Y-83112502D01*
X217948613Y-83112496D01*
X217870828Y-82991462D01*
X217870825Y-82991457D01*
X217870820Y-82991451D01*
X217825076Y-82938659D01*
X217825072Y-82938656D01*
X217825070Y-82938653D01*
X217716336Y-82844433D01*
X217716333Y-82844431D01*
X217716331Y-82844430D01*
X217585465Y-82784664D01*
X217585460Y-82784662D01*
X217585459Y-82784662D01*
X217518420Y-82764977D01*
X217518422Y-82764977D01*
X217518417Y-82764976D01*
X217470944Y-82758150D01*
X217376000Y-82744500D01*
X217375998Y-82744500D01*
X212379500Y-82744500D01*
X212312461Y-82724815D01*
X212266706Y-82672011D01*
X212255500Y-82620500D01*
X212255500Y-82375562D01*
X217193096Y-82375562D01*
X217271623Y-82388000D01*
X217468376Y-82388000D01*
X217546901Y-82375561D01*
X217370001Y-82198660D01*
X217193096Y-82375562D01*
X212255500Y-82375562D01*
X212255500Y-81039617D01*
X216120000Y-81039617D01*
X216120000Y-81236382D01*
X216132436Y-81314901D01*
X216309338Y-81138000D01*
X218430660Y-81138000D01*
X218607561Y-81314901D01*
X218620000Y-81236375D01*
X218620000Y-81039623D01*
X218607562Y-80961097D01*
X218430660Y-81138000D01*
X216309338Y-81138000D01*
X216309339Y-81137999D01*
X216132437Y-80961097D01*
X216132436Y-80961097D01*
X216120000Y-81039617D01*
X212255500Y-81039617D01*
X212255500Y-79900436D01*
X217193097Y-79900436D01*
X217193097Y-79900437D01*
X217369999Y-80077339D01*
X217546901Y-79900436D01*
X217468382Y-79888000D01*
X217271618Y-79888000D01*
X217193097Y-79900436D01*
X212255500Y-79900436D01*
X212255500Y-79374000D01*
X212275185Y-79306961D01*
X212327989Y-79261206D01*
X212379500Y-79250000D01*
X222120500Y-79250000D01*
X222187539Y-79269685D01*
G37*
%TD.AperFunction*%
%TD*%
%TA.AperFunction,Conductor*%
%TO.N,MA-AIR_BAT*%
G36*
X237937539Y-68775185D02*
G01*
X237983294Y-68827989D01*
X237994500Y-68879500D01*
X237994500Y-77370500D01*
X237974815Y-77437539D01*
X237922011Y-77483294D01*
X237870500Y-77494500D01*
X222874000Y-77494500D01*
X222873991Y-77494500D01*
X222873990Y-77494501D01*
X222766549Y-77506052D01*
X222766537Y-77506054D01*
X222715027Y-77517260D01*
X222612502Y-77551383D01*
X222612496Y-77551386D01*
X222491462Y-77629171D01*
X222491458Y-77629173D01*
X222438653Y-77674930D01*
X222410687Y-77707204D01*
X222351908Y-77744978D01*
X222316975Y-77750000D01*
X212379500Y-77750000D01*
X212312461Y-77730315D01*
X212266706Y-77677511D01*
X212255500Y-77626000D01*
X212255500Y-77087562D01*
X217483096Y-77087562D01*
X217561623Y-77100000D01*
X217758376Y-77100000D01*
X217836901Y-77087561D01*
X217660001Y-76910660D01*
X217483096Y-77087562D01*
X212255500Y-77087562D01*
X212255500Y-76976165D01*
X212255499Y-76976147D01*
X212248826Y-76910821D01*
X212245061Y-76873961D01*
X212234924Y-76824856D01*
X212204037Y-76726871D01*
X212149558Y-76638008D01*
X212128840Y-76604213D01*
X212128834Y-76604205D01*
X212124808Y-76599354D01*
X212084212Y-76550443D01*
X212084211Y-76550442D01*
X212084207Y-76550438D01*
X212084206Y-76550437D01*
X212046326Y-76516179D01*
X212009808Y-76456612D01*
X212005500Y-76424211D01*
X212005500Y-75751617D01*
X216410000Y-75751617D01*
X216410000Y-75948382D01*
X216422436Y-76026901D01*
X216599338Y-75850000D01*
X218720660Y-75850000D01*
X218897561Y-76026901D01*
X218910000Y-75948375D01*
X218910000Y-75751623D01*
X218897562Y-75673097D01*
X218720660Y-75850000D01*
X216599338Y-75850000D01*
X216599339Y-75849999D01*
X216422437Y-75673097D01*
X216422436Y-75673097D01*
X216410000Y-75751617D01*
X212005500Y-75751617D01*
X212005500Y-75135981D01*
X230350000Y-75135981D01*
X230350000Y-75264019D01*
X230374979Y-75389598D01*
X230423978Y-75507890D01*
X230495112Y-75614351D01*
X230585649Y-75704888D01*
X230692110Y-75776022D01*
X230810402Y-75825021D01*
X230935981Y-75850000D01*
X231064019Y-75850000D01*
X231189598Y-75825021D01*
X231307890Y-75776022D01*
X231414351Y-75704888D01*
X231504888Y-75614351D01*
X231576022Y-75507890D01*
X231625021Y-75389598D01*
X231650000Y-75264019D01*
X231650000Y-75135981D01*
X231625021Y-75010402D01*
X231576022Y-74892110D01*
X231504888Y-74785649D01*
X231414351Y-74695112D01*
X231307890Y-74623978D01*
X231189598Y-74574979D01*
X231064019Y-74550000D01*
X230935981Y-74550000D01*
X230810402Y-74574979D01*
X230692110Y-74623978D01*
X230585649Y-74695112D01*
X230495112Y-74785649D01*
X230423978Y-74892110D01*
X230374979Y-75010402D01*
X230350000Y-75135981D01*
X212005500Y-75135981D01*
X212005500Y-74612436D01*
X217483097Y-74612436D01*
X217483097Y-74612437D01*
X217659999Y-74789339D01*
X217836901Y-74612436D01*
X217758382Y-74600000D01*
X217561618Y-74600000D01*
X217483097Y-74612436D01*
X212005500Y-74612436D01*
X212005500Y-72940597D01*
X212025185Y-72873558D01*
X212026326Y-72871814D01*
X212418982Y-72282830D01*
X212425525Y-72272755D01*
X212425530Y-72272748D01*
X212428685Y-72267762D01*
X212434984Y-72257542D01*
X212553758Y-72059585D01*
X212563235Y-72045955D01*
X213000000Y-71500000D01*
X213500000Y-70500000D01*
X213500000Y-69589833D01*
X213502408Y-69565515D01*
X213644475Y-68855182D01*
X213676925Y-68793304D01*
X213737677Y-68758794D01*
X213766067Y-68755500D01*
X237870500Y-68755500D01*
X237937539Y-68775185D01*
G37*
%TD.AperFunction*%
%TD*%
M02*
