%TF.GenerationSoftware,KiCad,Pcbnew,9.0.8-9.0.8~ubuntu22.04.1*%
%TF.CreationDate,2026-06-12T17:49:26+05:30*%
%TF.ProjectId,Metal-Air_BMS,4d657461-6c2d-4416-9972-5f424d532e6b,V1.2.1*%
%TF.SameCoordinates,Original*%
%TF.FileFunction,Paste,Top*%
%TF.FilePolarity,Positive*%
%FSLAX46Y46*%
G04 Gerber Fmt 4.6, Leading zero omitted, Abs format (unit mm)*
G04 Created by KiCad (PCBNEW 9.0.8-9.0.8~ubuntu22.04.1) date 2026-06-12 17:49:26*
%MOMM*%
%LPD*%
G01*
G04 APERTURE LIST*
G04 Aperture macros list*
%AMRoundRect*
0 Rectangle with rounded corners*
0 $1 Rounding radius*
0 $2 $3 $4 $5 $6 $7 $8 $9 X,Y pos of 4 corners*
0 Add a 4 corners polygon primitive as box body*
4,1,4,$2,$3,$4,$5,$6,$7,$8,$9,$2,$3,0*
0 Add four circle primitives for the rounded corners*
1,1,$1+$1,$2,$3*
1,1,$1+$1,$4,$5*
1,1,$1+$1,$6,$7*
1,1,$1+$1,$8,$9*
0 Add four rect primitives between the rounded corners*
20,1,$1+$1,$2,$3,$4,$5,0*
20,1,$1+$1,$4,$5,$6,$7,0*
20,1,$1+$1,$6,$7,$8,$9,0*
20,1,$1+$1,$8,$9,$2,$3,0*%
G04 Aperture macros list end*
%ADD10RoundRect,0.250000X0.450000X-0.325000X0.450000X0.325000X-0.450000X0.325000X-0.450000X-0.325000X0*%
%ADD11RoundRect,0.250000X0.350000X0.450000X-0.350000X0.450000X-0.350000X-0.450000X0.350000X-0.450000X0*%
%ADD12RoundRect,0.150000X0.825000X0.150000X-0.825000X0.150000X-0.825000X-0.150000X0.825000X-0.150000X0*%
%ADD13RoundRect,0.300000X0.325000X0.300000X-0.325000X0.300000X-0.325000X-0.300000X0.325000X-0.300000X0*%
%ADD14RoundRect,0.317500X-0.382500X-0.317500X0.382500X-0.317500X0.382500X0.317500X-0.382500X0.317500X0*%
%ADD15RoundRect,0.225000X0.335876X0.017678X0.017678X0.335876X-0.335876X-0.017678X-0.017678X-0.335876X0*%
%ADD16RoundRect,0.200000X-0.335876X-0.053033X-0.053033X-0.335876X0.335876X0.053033X0.053033X0.335876X0*%
%ADD17RoundRect,0.250000X0.565685X0.070711X0.070711X0.565685X-0.565685X-0.070711X-0.070711X-0.565685X0*%
%ADD18RoundRect,0.150000X-0.150000X0.587500X-0.150000X-0.587500X0.150000X-0.587500X0.150000X0.587500X0*%
%ADD19RoundRect,0.250000X-1.450000X0.537500X-1.450000X-0.537500X1.450000X-0.537500X1.450000X0.537500X0*%
%ADD20RoundRect,0.250000X-0.350000X-0.450000X0.350000X-0.450000X0.350000X0.450000X-0.350000X0.450000X0*%
%ADD21RoundRect,0.250000X0.450000X-0.350000X0.450000X0.350000X-0.450000X0.350000X-0.450000X-0.350000X0*%
%ADD22RoundRect,0.150000X-0.587500X-0.150000X0.587500X-0.150000X0.587500X0.150000X-0.587500X0.150000X0*%
%ADD23RoundRect,0.175000X-0.625000X0.175000X-0.625000X-0.175000X0.625000X-0.175000X0.625000X0.175000X0*%
%ADD24RoundRect,0.200000X-0.600000X0.200000X-0.600000X-0.200000X0.600000X-0.200000X0.600000X0.200000X0*%
%ADD25RoundRect,0.225000X-0.575000X0.225000X-0.575000X-0.225000X0.575000X-0.225000X0.575000X0.225000X0*%
%ADD26RoundRect,0.250000X0.337500X0.475000X-0.337500X0.475000X-0.337500X-0.475000X0.337500X-0.475000X0*%
%ADD27RoundRect,0.250000X0.475000X-0.337500X0.475000X0.337500X-0.475000X0.337500X-0.475000X-0.337500X0*%
%ADD28RoundRect,0.250000X-0.450000X0.350000X-0.450000X-0.350000X0.450000X-0.350000X0.450000X0.350000X0*%
%ADD29R,1.250000X1.000000*%
%ADD30RoundRect,0.250000X-0.097227X0.574524X-0.574524X0.097227X0.097227X-0.574524X0.574524X-0.097227X0*%
%ADD31RoundRect,0.218750X0.335876X0.026517X0.026517X0.335876X-0.335876X-0.026517X-0.026517X-0.335876X0*%
%ADD32RoundRect,0.035000X-0.700000X-0.105000X0.700000X-0.105000X0.700000X0.105000X-0.700000X0.105000X0*%
%ADD33RoundRect,0.150000X0.587500X0.150000X-0.587500X0.150000X-0.587500X-0.150000X0.587500X-0.150000X0*%
%ADD34RoundRect,0.250000X-1.975000X1.350000X-1.975000X-1.350000X1.975000X-1.350000X1.975000X1.350000X0*%
%ADD35RoundRect,0.075000X-0.521491X0.415425X0.415425X-0.521491X0.521491X-0.415425X-0.415425X0.521491X0*%
%ADD36RoundRect,0.075000X-0.521491X-0.415425X-0.415425X-0.521491X0.521491X0.415425X0.415425X0.521491X0*%
%ADD37RoundRect,0.250000X-0.337500X-0.475000X0.337500X-0.475000X0.337500X0.475000X-0.337500X0.475000X0*%
%ADD38R,1.422400X0.533400*%
%ADD39RoundRect,0.250000X-0.325000X-0.450000X0.325000X-0.450000X0.325000X0.450000X-0.325000X0.450000X0*%
%ADD40RoundRect,0.250000X0.503814X0.132583X0.132583X0.503814X-0.503814X-0.132583X-0.132583X-0.503814X0*%
%ADD41RoundRect,0.150000X-0.512500X-0.150000X0.512500X-0.150000X0.512500X0.150000X-0.512500X0.150000X0*%
%ADD42RoundRect,0.250000X-0.250000X0.250000X-0.250000X-0.250000X0.250000X-0.250000X0.250000X0.250000X0*%
G04 APERTURE END LIST*
D10*
%TO.C,F1*%
X149962500Y-84850000D03*
X149962500Y-82800000D03*
%TD*%
D11*
%TO.C,R12*%
X196000000Y-74000000D03*
X194000000Y-74000000D03*
%TD*%
D12*
%TO.C,U4*%
X176725000Y-65655000D03*
X176725000Y-64385000D03*
X176725000Y-63115000D03*
X176725000Y-61845000D03*
X171775000Y-61845000D03*
X171775000Y-63115000D03*
X171775000Y-64385000D03*
X171775000Y-65655000D03*
%TD*%
D13*
%TO.C,D4*%
X206600000Y-88650000D03*
X206600000Y-90340000D03*
X206600000Y-92000000D03*
X208300000Y-88650000D03*
X208300000Y-90340000D03*
X208300000Y-92000000D03*
X210000000Y-88650000D03*
X210000000Y-90340000D03*
X210000000Y-92000000D03*
D14*
X207260000Y-86535000D03*
X209340000Y-86535000D03*
%TD*%
D15*
%TO.C,C4*%
X177179254Y-73928594D03*
X176083238Y-72832578D03*
%TD*%
D16*
%TO.C,R5*%
X189000000Y-81000000D03*
X190166726Y-82166726D03*
%TD*%
D17*
%TO.C,R13*%
X185957107Y-86207107D03*
X184542893Y-84792893D03*
%TD*%
D18*
%TO.C,Q3*%
X192950000Y-83562500D03*
X191050000Y-83562500D03*
X192000000Y-85437500D03*
%TD*%
D17*
%TO.C,R14*%
X188707107Y-73467107D03*
X187292893Y-72052893D03*
%TD*%
D19*
%TO.C,C3*%
X155800000Y-75400000D03*
X155800000Y-79675000D03*
%TD*%
D20*
%TO.C,R20*%
X166500000Y-65750000D03*
X168500000Y-65750000D03*
%TD*%
D21*
%TO.C,R15*%
X199500000Y-91250000D03*
X199500000Y-89250000D03*
%TD*%
D22*
%TO.C,Q2*%
X202062500Y-89300000D03*
X202062500Y-91200000D03*
X203937500Y-90250000D03*
%TD*%
D15*
%TO.C,C2*%
X178679254Y-72428594D03*
X177583238Y-71332578D03*
%TD*%
D23*
%TO.C,J1*%
X146705000Y-80202000D03*
D24*
X146705000Y-82222000D03*
D25*
X146705000Y-83452000D03*
D23*
X146705000Y-81202000D03*
D24*
X146705000Y-79182000D03*
D25*
X146705000Y-77952000D03*
%TD*%
D26*
%TO.C,C9*%
X152037500Y-79800000D03*
X149962500Y-79800000D03*
%TD*%
D27*
%TO.C,C16*%
X180000000Y-64750000D03*
X180000000Y-62675000D03*
%TD*%
D20*
%TO.C,R3*%
X159200000Y-71200000D03*
X161200000Y-71200000D03*
%TD*%
D28*
%TO.C,R21*%
X168500000Y-61470000D03*
X168500000Y-63470000D03*
%TD*%
D29*
%TO.C,SW1*%
X150375000Y-71500000D03*
X142625000Y-71500000D03*
%TD*%
D30*
%TO.C,C13*%
X177125000Y-80825000D03*
X175657754Y-82292246D03*
%TD*%
D31*
%TO.C,FB1*%
X175679254Y-75428594D03*
X174565560Y-74314900D03*
%TD*%
D26*
%TO.C,C15*%
X209362500Y-82000000D03*
X207287500Y-82000000D03*
%TD*%
D32*
%TO.C,U3*%
X204920000Y-77570000D03*
X204920000Y-78070000D03*
X204920000Y-78570000D03*
X204920000Y-79070000D03*
X204920000Y-79570000D03*
X209220000Y-79570000D03*
X209220000Y-79070000D03*
X209220000Y-78570000D03*
X209220000Y-78070000D03*
X209220000Y-77570000D03*
%TD*%
D11*
%TO.C,R18*%
X197500000Y-81500000D03*
X195500000Y-81500000D03*
%TD*%
D33*
%TO.C,D5*%
X165750000Y-63420000D03*
X165750000Y-61520000D03*
X163875000Y-62470000D03*
%TD*%
D26*
%TO.C,C10*%
X152000000Y-76800000D03*
X149925000Y-76800000D03*
%TD*%
D21*
%TO.C,R11*%
X191437500Y-72000000D03*
X191437500Y-70000000D03*
%TD*%
D34*
%TO.C,R17*%
X217500000Y-75900000D03*
X217500000Y-81100000D03*
%TD*%
D35*
%TO.C,U2*%
X182180466Y-72340718D03*
X181826912Y-72694272D03*
X181473359Y-73047825D03*
X181119805Y-73401379D03*
X180766252Y-73754932D03*
X180412699Y-74108485D03*
X180059145Y-74462039D03*
X179705592Y-74815592D03*
X179352039Y-75169145D03*
X178998485Y-75522699D03*
X178644932Y-75876252D03*
X178291378Y-76229806D03*
D36*
X178291378Y-78227382D03*
X178644932Y-78580936D03*
X178998485Y-78934489D03*
X179352039Y-79288043D03*
X179705592Y-79641596D03*
X180059145Y-79995149D03*
X180412699Y-80348703D03*
X180766252Y-80702256D03*
X181119805Y-81055809D03*
X181473359Y-81409363D03*
X181826912Y-81762916D03*
X182180466Y-82116470D03*
D35*
X184178042Y-82116470D03*
X184531596Y-81762916D03*
X184885149Y-81409363D03*
X185238703Y-81055809D03*
X185592256Y-80702256D03*
X185945809Y-80348703D03*
X186299363Y-79995149D03*
X186652916Y-79641596D03*
X187006469Y-79288043D03*
X187360023Y-78934489D03*
X187713576Y-78580936D03*
X188067130Y-78227382D03*
D36*
X188067130Y-76229806D03*
X187713576Y-75876252D03*
X187360023Y-75522699D03*
X187006469Y-75169145D03*
X186652916Y-74815592D03*
X186299363Y-74462039D03*
X185945809Y-74108485D03*
X185592256Y-73754932D03*
X185238703Y-73401379D03*
X184885149Y-73047825D03*
X184531596Y-72694272D03*
X184178042Y-72340718D03*
%TD*%
D37*
%TO.C,C14*%
X175425000Y-87880000D03*
X177500000Y-87880000D03*
%TD*%
D22*
%TO.C,Q1*%
X194500000Y-70050000D03*
X194500000Y-71950000D03*
X196375000Y-71000000D03*
%TD*%
D11*
%TO.C,R19*%
X173400000Y-68000000D03*
X171400000Y-68000000D03*
%TD*%
D38*
%TO.C,U5*%
X191400000Y-88190000D03*
X191400000Y-89460000D03*
X191400000Y-90730000D03*
X191400000Y-92000000D03*
X196988000Y-92000000D03*
X196988000Y-90730000D03*
X196988000Y-89460000D03*
X196988000Y-88190000D03*
%TD*%
D39*
%TO.C,D2*%
X154750000Y-71200000D03*
X156800000Y-71200000D03*
%TD*%
D40*
%TO.C,R9*%
X191245235Y-77845235D03*
X189954765Y-76554765D03*
%TD*%
D41*
%TO.C,U1*%
X159162500Y-76587500D03*
X159162500Y-77537500D03*
X159162500Y-78487500D03*
X161437500Y-78487500D03*
X161437500Y-76587500D03*
%TD*%
D17*
%TO.C,R16*%
X188207107Y-84207107D03*
X186792893Y-82792893D03*
%TD*%
D19*
%TO.C,C7*%
X164800000Y-75400000D03*
X164800000Y-79675000D03*
%TD*%
D16*
%TO.C,R4*%
X190500000Y-79500000D03*
X191666726Y-80666726D03*
%TD*%
D29*
%TO.C,SW2*%
X150375000Y-90000000D03*
X142625000Y-90000000D03*
%TD*%
D15*
%TO.C,C5*%
X180179254Y-70928594D03*
X179083238Y-69832578D03*
%TD*%
D22*
%TO.C,D1*%
X152587500Y-82800000D03*
X152587500Y-84700000D03*
X154462500Y-83750000D03*
%TD*%
D42*
%TO.C,D3*%
X198937500Y-69750000D03*
X198937500Y-72250000D03*
%TD*%
M02*
