%TF.GenerationSoftware,KiCad,Pcbnew,9.0.8-9.0.8~ubuntu22.04.1*%
%TF.CreationDate,2026-06-12T17:49:26+05:30*%
%TF.ProjectId,Metal-Air_BMS,4d657461-6c2d-4416-9972-5f424d532e6b,V1.2.1*%
%TF.SameCoordinates,Original*%
%TF.FileFunction,Legend,Top*%
%TF.FilePolarity,Positive*%
%FSLAX46Y46*%
G04 Gerber Fmt 4.6, Leading zero omitted, Abs format (unit mm)*
G04 Created by KiCad (PCBNEW 9.0.8-9.0.8~ubuntu22.04.1) date 2026-06-12 17:49:26*
%MOMM*%
%LPD*%
G01*
G04 APERTURE LIST*
%ADD10C,0.200000*%
%ADD11C,0.150000*%
%ADD12C,0.250000*%
%ADD13C,0.300000*%
%ADD14C,0.120000*%
%ADD15C,0.000000*%
%ADD16C,0.127000*%
%ADD17C,0.060000*%
%ADD18C,0.152400*%
G04 APERTURE END LIST*
D10*
X158300000Y-88700000D02*
X168300000Y-88700000D01*
X168300000Y-90700000D01*
X158300000Y-90700000D01*
X158300000Y-88700000D01*
D11*
X145367969Y-87175247D02*
X145482255Y-87213342D01*
X145482255Y-87213342D02*
X145520350Y-87251438D01*
X145520350Y-87251438D02*
X145558446Y-87327628D01*
X145558446Y-87327628D02*
X145558446Y-87441914D01*
X145558446Y-87441914D02*
X145520350Y-87518104D01*
X145520350Y-87518104D02*
X145482255Y-87556200D01*
X145482255Y-87556200D02*
X145406065Y-87594295D01*
X145406065Y-87594295D02*
X145101303Y-87594295D01*
X145101303Y-87594295D02*
X145101303Y-86794295D01*
X145101303Y-86794295D02*
X145367969Y-86794295D01*
X145367969Y-86794295D02*
X145444160Y-86832390D01*
X145444160Y-86832390D02*
X145482255Y-86870485D01*
X145482255Y-86870485D02*
X145520350Y-86946676D01*
X145520350Y-86946676D02*
X145520350Y-87022866D01*
X145520350Y-87022866D02*
X145482255Y-87099057D01*
X145482255Y-87099057D02*
X145444160Y-87137152D01*
X145444160Y-87137152D02*
X145367969Y-87175247D01*
X145367969Y-87175247D02*
X145101303Y-87175247D01*
X146053684Y-86794295D02*
X146206065Y-86794295D01*
X146206065Y-86794295D02*
X146282255Y-86832390D01*
X146282255Y-86832390D02*
X146358446Y-86908580D01*
X146358446Y-86908580D02*
X146396541Y-87060961D01*
X146396541Y-87060961D02*
X146396541Y-87327628D01*
X146396541Y-87327628D02*
X146358446Y-87480009D01*
X146358446Y-87480009D02*
X146282255Y-87556200D01*
X146282255Y-87556200D02*
X146206065Y-87594295D01*
X146206065Y-87594295D02*
X146053684Y-87594295D01*
X146053684Y-87594295D02*
X145977493Y-87556200D01*
X145977493Y-87556200D02*
X145901303Y-87480009D01*
X145901303Y-87480009D02*
X145863207Y-87327628D01*
X145863207Y-87327628D02*
X145863207Y-87060961D01*
X145863207Y-87060961D02*
X145901303Y-86908580D01*
X145901303Y-86908580D02*
X145977493Y-86832390D01*
X145977493Y-86832390D02*
X146053684Y-86794295D01*
X146891779Y-86794295D02*
X147044160Y-86794295D01*
X147044160Y-86794295D02*
X147120350Y-86832390D01*
X147120350Y-86832390D02*
X147196541Y-86908580D01*
X147196541Y-86908580D02*
X147234636Y-87060961D01*
X147234636Y-87060961D02*
X147234636Y-87327628D01*
X147234636Y-87327628D02*
X147196541Y-87480009D01*
X147196541Y-87480009D02*
X147120350Y-87556200D01*
X147120350Y-87556200D02*
X147044160Y-87594295D01*
X147044160Y-87594295D02*
X146891779Y-87594295D01*
X146891779Y-87594295D02*
X146815588Y-87556200D01*
X146815588Y-87556200D02*
X146739398Y-87480009D01*
X146739398Y-87480009D02*
X146701302Y-87327628D01*
X146701302Y-87327628D02*
X146701302Y-87060961D01*
X146701302Y-87060961D02*
X146739398Y-86908580D01*
X146739398Y-86908580D02*
X146815588Y-86832390D01*
X146815588Y-86832390D02*
X146891779Y-86794295D01*
X147463207Y-86794295D02*
X147920350Y-86794295D01*
X147691778Y-87594295D02*
X147691778Y-86794295D01*
X145139398Y-74694295D02*
X145139398Y-73894295D01*
X145139398Y-73894295D02*
X145596541Y-74694295D01*
X145596541Y-74694295D02*
X145596541Y-73894295D01*
X146434636Y-74694295D02*
X146167969Y-74313342D01*
X145977493Y-74694295D02*
X145977493Y-73894295D01*
X145977493Y-73894295D02*
X146282255Y-73894295D01*
X146282255Y-73894295D02*
X146358445Y-73932390D01*
X146358445Y-73932390D02*
X146396540Y-73970485D01*
X146396540Y-73970485D02*
X146434636Y-74046676D01*
X146434636Y-74046676D02*
X146434636Y-74160961D01*
X146434636Y-74160961D02*
X146396540Y-74237152D01*
X146396540Y-74237152D02*
X146358445Y-74275247D01*
X146358445Y-74275247D02*
X146282255Y-74313342D01*
X146282255Y-74313342D02*
X145977493Y-74313342D01*
X146739397Y-74656200D02*
X146853683Y-74694295D01*
X146853683Y-74694295D02*
X147044159Y-74694295D01*
X147044159Y-74694295D02*
X147120350Y-74656200D01*
X147120350Y-74656200D02*
X147158445Y-74618104D01*
X147158445Y-74618104D02*
X147196540Y-74541914D01*
X147196540Y-74541914D02*
X147196540Y-74465723D01*
X147196540Y-74465723D02*
X147158445Y-74389533D01*
X147158445Y-74389533D02*
X147120350Y-74351438D01*
X147120350Y-74351438D02*
X147044159Y-74313342D01*
X147044159Y-74313342D02*
X146891778Y-74275247D01*
X146891778Y-74275247D02*
X146815588Y-74237152D01*
X146815588Y-74237152D02*
X146777493Y-74199057D01*
X146777493Y-74199057D02*
X146739397Y-74122866D01*
X146739397Y-74122866D02*
X146739397Y-74046676D01*
X146739397Y-74046676D02*
X146777493Y-73970485D01*
X146777493Y-73970485D02*
X146815588Y-73932390D01*
X146815588Y-73932390D02*
X146891778Y-73894295D01*
X146891778Y-73894295D02*
X147082255Y-73894295D01*
X147082255Y-73894295D02*
X147196540Y-73932390D01*
X147425112Y-73894295D02*
X147882255Y-73894295D01*
X147653683Y-74694295D02*
X147653683Y-73894295D01*
D10*
X158972054Y-89901504D02*
X159448244Y-89901504D01*
X158876816Y-90187219D02*
X159210149Y-89187219D01*
X159210149Y-89187219D02*
X159543482Y-90187219D01*
X160353006Y-90187219D02*
X159876816Y-90187219D01*
X159876816Y-90187219D02*
X159876816Y-89187219D01*
X160686340Y-89806266D02*
X161448245Y-89806266D01*
X161876816Y-89901504D02*
X162353006Y-89901504D01*
X161781578Y-90187219D02*
X162114911Y-89187219D01*
X162114911Y-89187219D02*
X162448244Y-90187219D01*
X162781578Y-90187219D02*
X162781578Y-89187219D01*
X163829196Y-90187219D02*
X163495863Y-89711028D01*
X163257768Y-90187219D02*
X163257768Y-89187219D01*
X163257768Y-89187219D02*
X163638720Y-89187219D01*
X163638720Y-89187219D02*
X163733958Y-89234838D01*
X163733958Y-89234838D02*
X163781577Y-89282457D01*
X163781577Y-89282457D02*
X163829196Y-89377695D01*
X163829196Y-89377695D02*
X163829196Y-89520552D01*
X163829196Y-89520552D02*
X163781577Y-89615790D01*
X163781577Y-89615790D02*
X163733958Y-89663409D01*
X163733958Y-89663409D02*
X163638720Y-89711028D01*
X163638720Y-89711028D02*
X163257768Y-89711028D01*
X165353006Y-89663409D02*
X165495863Y-89711028D01*
X165495863Y-89711028D02*
X165543482Y-89758647D01*
X165543482Y-89758647D02*
X165591101Y-89853885D01*
X165591101Y-89853885D02*
X165591101Y-89996742D01*
X165591101Y-89996742D02*
X165543482Y-90091980D01*
X165543482Y-90091980D02*
X165495863Y-90139600D01*
X165495863Y-90139600D02*
X165400625Y-90187219D01*
X165400625Y-90187219D02*
X165019673Y-90187219D01*
X165019673Y-90187219D02*
X165019673Y-89187219D01*
X165019673Y-89187219D02*
X165353006Y-89187219D01*
X165353006Y-89187219D02*
X165448244Y-89234838D01*
X165448244Y-89234838D02*
X165495863Y-89282457D01*
X165495863Y-89282457D02*
X165543482Y-89377695D01*
X165543482Y-89377695D02*
X165543482Y-89472933D01*
X165543482Y-89472933D02*
X165495863Y-89568171D01*
X165495863Y-89568171D02*
X165448244Y-89615790D01*
X165448244Y-89615790D02*
X165353006Y-89663409D01*
X165353006Y-89663409D02*
X165019673Y-89663409D01*
X166019673Y-90187219D02*
X166019673Y-89187219D01*
X166019673Y-89187219D02*
X166353006Y-89901504D01*
X166353006Y-89901504D02*
X166686339Y-89187219D01*
X166686339Y-89187219D02*
X166686339Y-90187219D01*
X167114911Y-90139600D02*
X167257768Y-90187219D01*
X167257768Y-90187219D02*
X167495863Y-90187219D01*
X167495863Y-90187219D02*
X167591101Y-90139600D01*
X167591101Y-90139600D02*
X167638720Y-90091980D01*
X167638720Y-90091980D02*
X167686339Y-89996742D01*
X167686339Y-89996742D02*
X167686339Y-89901504D01*
X167686339Y-89901504D02*
X167638720Y-89806266D01*
X167638720Y-89806266D02*
X167591101Y-89758647D01*
X167591101Y-89758647D02*
X167495863Y-89711028D01*
X167495863Y-89711028D02*
X167305387Y-89663409D01*
X167305387Y-89663409D02*
X167210149Y-89615790D01*
X167210149Y-89615790D02*
X167162530Y-89568171D01*
X167162530Y-89568171D02*
X167114911Y-89472933D01*
X167114911Y-89472933D02*
X167114911Y-89377695D01*
X167114911Y-89377695D02*
X167162530Y-89282457D01*
X167162530Y-89282457D02*
X167210149Y-89234838D01*
X167210149Y-89234838D02*
X167305387Y-89187219D01*
X167305387Y-89187219D02*
X167543482Y-89187219D01*
X167543482Y-89187219D02*
X167686339Y-89234838D01*
D12*
X152432568Y-101974619D02*
X152432568Y-102784142D01*
X152432568Y-102784142D02*
X152480187Y-102879380D01*
X152480187Y-102879380D02*
X152527806Y-102927000D01*
X152527806Y-102927000D02*
X152623044Y-102974619D01*
X152623044Y-102974619D02*
X152813520Y-102974619D01*
X152813520Y-102974619D02*
X152908758Y-102927000D01*
X152908758Y-102927000D02*
X152956377Y-102879380D01*
X152956377Y-102879380D02*
X153003996Y-102784142D01*
X153003996Y-102784142D02*
X153003996Y-101974619D01*
X153432568Y-102688904D02*
X153908758Y-102688904D01*
X153337330Y-102974619D02*
X153670663Y-101974619D01*
X153670663Y-101974619D02*
X154003996Y-102974619D01*
X154908758Y-102974619D02*
X154575425Y-102498428D01*
X154337330Y-102974619D02*
X154337330Y-101974619D01*
X154337330Y-101974619D02*
X154718282Y-101974619D01*
X154718282Y-101974619D02*
X154813520Y-102022238D01*
X154813520Y-102022238D02*
X154861139Y-102069857D01*
X154861139Y-102069857D02*
X154908758Y-102165095D01*
X154908758Y-102165095D02*
X154908758Y-102307952D01*
X154908758Y-102307952D02*
X154861139Y-102403190D01*
X154861139Y-102403190D02*
X154813520Y-102450809D01*
X154813520Y-102450809D02*
X154718282Y-102498428D01*
X154718282Y-102498428D02*
X154337330Y-102498428D01*
X155194473Y-101974619D02*
X155765901Y-101974619D01*
X155480187Y-102974619D02*
X155480187Y-101974619D01*
X163349711Y-101954619D02*
X163921139Y-101954619D01*
X163635425Y-102954619D02*
X163635425Y-101954619D01*
X164254473Y-102430809D02*
X164587806Y-102430809D01*
X164730663Y-102954619D02*
X164254473Y-102954619D01*
X164254473Y-102954619D02*
X164254473Y-101954619D01*
X164254473Y-101954619D02*
X164730663Y-101954619D01*
X165159235Y-102954619D02*
X165159235Y-101954619D01*
X165159235Y-101954619D02*
X165492568Y-102668904D01*
X165492568Y-102668904D02*
X165825901Y-101954619D01*
X165825901Y-101954619D02*
X165825901Y-102954619D01*
X166302092Y-102954619D02*
X166302092Y-101954619D01*
X166302092Y-101954619D02*
X166683044Y-101954619D01*
X166683044Y-101954619D02*
X166778282Y-102002238D01*
X166778282Y-102002238D02*
X166825901Y-102049857D01*
X166825901Y-102049857D02*
X166873520Y-102145095D01*
X166873520Y-102145095D02*
X166873520Y-102287952D01*
X166873520Y-102287952D02*
X166825901Y-102383190D01*
X166825901Y-102383190D02*
X166778282Y-102430809D01*
X166778282Y-102430809D02*
X166683044Y-102478428D01*
X166683044Y-102478428D02*
X166302092Y-102478428D01*
X171272568Y-102904619D02*
X171272568Y-101904619D01*
X171272568Y-102380809D02*
X171843996Y-102380809D01*
X171843996Y-102904619D02*
X171843996Y-101904619D01*
X172272568Y-101999857D02*
X172320187Y-101952238D01*
X172320187Y-101952238D02*
X172415425Y-101904619D01*
X172415425Y-101904619D02*
X172653520Y-101904619D01*
X172653520Y-101904619D02*
X172748758Y-101952238D01*
X172748758Y-101952238D02*
X172796377Y-101999857D01*
X172796377Y-101999857D02*
X172843996Y-102095095D01*
X172843996Y-102095095D02*
X172843996Y-102190333D01*
X172843996Y-102190333D02*
X172796377Y-102333190D01*
X172796377Y-102333190D02*
X172224949Y-102904619D01*
X172224949Y-102904619D02*
X172843996Y-102904619D01*
X173986854Y-102857000D02*
X174129711Y-102904619D01*
X174129711Y-102904619D02*
X174367806Y-102904619D01*
X174367806Y-102904619D02*
X174463044Y-102857000D01*
X174463044Y-102857000D02*
X174510663Y-102809380D01*
X174510663Y-102809380D02*
X174558282Y-102714142D01*
X174558282Y-102714142D02*
X174558282Y-102618904D01*
X174558282Y-102618904D02*
X174510663Y-102523666D01*
X174510663Y-102523666D02*
X174463044Y-102476047D01*
X174463044Y-102476047D02*
X174367806Y-102428428D01*
X174367806Y-102428428D02*
X174177330Y-102380809D01*
X174177330Y-102380809D02*
X174082092Y-102333190D01*
X174082092Y-102333190D02*
X174034473Y-102285571D01*
X174034473Y-102285571D02*
X173986854Y-102190333D01*
X173986854Y-102190333D02*
X173986854Y-102095095D01*
X173986854Y-102095095D02*
X174034473Y-101999857D01*
X174034473Y-101999857D02*
X174082092Y-101952238D01*
X174082092Y-101952238D02*
X174177330Y-101904619D01*
X174177330Y-101904619D02*
X174415425Y-101904619D01*
X174415425Y-101904619D02*
X174558282Y-101952238D01*
X174986854Y-102380809D02*
X175320187Y-102380809D01*
X175463044Y-102904619D02*
X174986854Y-102904619D01*
X174986854Y-102904619D02*
X174986854Y-101904619D01*
X174986854Y-101904619D02*
X175463044Y-101904619D01*
X175891616Y-102904619D02*
X175891616Y-101904619D01*
X175891616Y-101904619D02*
X176463044Y-102904619D01*
X176463044Y-102904619D02*
X176463044Y-101904619D01*
X176891616Y-102857000D02*
X177034473Y-102904619D01*
X177034473Y-102904619D02*
X177272568Y-102904619D01*
X177272568Y-102904619D02*
X177367806Y-102857000D01*
X177367806Y-102857000D02*
X177415425Y-102809380D01*
X177415425Y-102809380D02*
X177463044Y-102714142D01*
X177463044Y-102714142D02*
X177463044Y-102618904D01*
X177463044Y-102618904D02*
X177415425Y-102523666D01*
X177415425Y-102523666D02*
X177367806Y-102476047D01*
X177367806Y-102476047D02*
X177272568Y-102428428D01*
X177272568Y-102428428D02*
X177082092Y-102380809D01*
X177082092Y-102380809D02*
X176986854Y-102333190D01*
X176986854Y-102333190D02*
X176939235Y-102285571D01*
X176939235Y-102285571D02*
X176891616Y-102190333D01*
X176891616Y-102190333D02*
X176891616Y-102095095D01*
X176891616Y-102095095D02*
X176939235Y-101999857D01*
X176939235Y-101999857D02*
X176986854Y-101952238D01*
X176986854Y-101952238D02*
X177082092Y-101904619D01*
X177082092Y-101904619D02*
X177320187Y-101904619D01*
X177320187Y-101904619D02*
X177463044Y-101952238D01*
X178082092Y-101904619D02*
X178272568Y-101904619D01*
X178272568Y-101904619D02*
X178367806Y-101952238D01*
X178367806Y-101952238D02*
X178463044Y-102047476D01*
X178463044Y-102047476D02*
X178510663Y-102237952D01*
X178510663Y-102237952D02*
X178510663Y-102571285D01*
X178510663Y-102571285D02*
X178463044Y-102761761D01*
X178463044Y-102761761D02*
X178367806Y-102857000D01*
X178367806Y-102857000D02*
X178272568Y-102904619D01*
X178272568Y-102904619D02*
X178082092Y-102904619D01*
X178082092Y-102904619D02*
X177986854Y-102857000D01*
X177986854Y-102857000D02*
X177891616Y-102761761D01*
X177891616Y-102761761D02*
X177843997Y-102571285D01*
X177843997Y-102571285D02*
X177843997Y-102237952D01*
X177843997Y-102237952D02*
X177891616Y-102047476D01*
X177891616Y-102047476D02*
X177986854Y-101952238D01*
X177986854Y-101952238D02*
X178082092Y-101904619D01*
X179510663Y-102904619D02*
X179177330Y-102428428D01*
X178939235Y-102904619D02*
X178939235Y-101904619D01*
X178939235Y-101904619D02*
X179320187Y-101904619D01*
X179320187Y-101904619D02*
X179415425Y-101952238D01*
X179415425Y-101952238D02*
X179463044Y-101999857D01*
X179463044Y-101999857D02*
X179510663Y-102095095D01*
X179510663Y-102095095D02*
X179510663Y-102237952D01*
X179510663Y-102237952D02*
X179463044Y-102333190D01*
X179463044Y-102333190D02*
X179415425Y-102380809D01*
X179415425Y-102380809D02*
X179320187Y-102428428D01*
X179320187Y-102428428D02*
X178939235Y-102428428D01*
X192242568Y-102430809D02*
X192575901Y-102430809D01*
X192718758Y-102954619D02*
X192242568Y-102954619D01*
X192242568Y-102954619D02*
X192242568Y-101954619D01*
X192242568Y-101954619D02*
X192718758Y-101954619D01*
X193052092Y-101954619D02*
X193718758Y-102954619D01*
X193718758Y-101954619D02*
X193052092Y-102954619D01*
X193956854Y-101954619D02*
X194528282Y-101954619D01*
X194242568Y-102954619D02*
X194242568Y-101954619D01*
X195956854Y-102430809D02*
X196099711Y-102478428D01*
X196099711Y-102478428D02*
X196147330Y-102526047D01*
X196147330Y-102526047D02*
X196194949Y-102621285D01*
X196194949Y-102621285D02*
X196194949Y-102764142D01*
X196194949Y-102764142D02*
X196147330Y-102859380D01*
X196147330Y-102859380D02*
X196099711Y-102907000D01*
X196099711Y-102907000D02*
X196004473Y-102954619D01*
X196004473Y-102954619D02*
X195623521Y-102954619D01*
X195623521Y-102954619D02*
X195623521Y-101954619D01*
X195623521Y-101954619D02*
X195956854Y-101954619D01*
X195956854Y-101954619D02*
X196052092Y-102002238D01*
X196052092Y-102002238D02*
X196099711Y-102049857D01*
X196099711Y-102049857D02*
X196147330Y-102145095D01*
X196147330Y-102145095D02*
X196147330Y-102240333D01*
X196147330Y-102240333D02*
X196099711Y-102335571D01*
X196099711Y-102335571D02*
X196052092Y-102383190D01*
X196052092Y-102383190D02*
X195956854Y-102430809D01*
X195956854Y-102430809D02*
X195623521Y-102430809D01*
X196575902Y-102668904D02*
X197052092Y-102668904D01*
X196480664Y-102954619D02*
X196813997Y-101954619D01*
X196813997Y-101954619D02*
X197147330Y-102954619D01*
X197337807Y-101954619D02*
X197909235Y-101954619D01*
X197623521Y-102954619D02*
X197623521Y-101954619D01*
X203013044Y-101964675D02*
X203203520Y-101964675D01*
X203203520Y-101964675D02*
X203298758Y-102012294D01*
X203298758Y-102012294D02*
X203393996Y-102107532D01*
X203393996Y-102107532D02*
X203441615Y-102298008D01*
X203441615Y-102298008D02*
X203441615Y-102631341D01*
X203441615Y-102631341D02*
X203393996Y-102821817D01*
X203393996Y-102821817D02*
X203298758Y-102917056D01*
X203298758Y-102917056D02*
X203203520Y-102964675D01*
X203203520Y-102964675D02*
X203013044Y-102964675D01*
X203013044Y-102964675D02*
X202917806Y-102917056D01*
X202917806Y-102917056D02*
X202822568Y-102821817D01*
X202822568Y-102821817D02*
X202774949Y-102631341D01*
X202774949Y-102631341D02*
X202774949Y-102298008D01*
X202774949Y-102298008D02*
X202822568Y-102107532D01*
X202822568Y-102107532D02*
X202917806Y-102012294D01*
X202917806Y-102012294D02*
X203013044Y-101964675D01*
X203870187Y-101964675D02*
X203870187Y-102774198D01*
X203870187Y-102774198D02*
X203917806Y-102869436D01*
X203917806Y-102869436D02*
X203965425Y-102917056D01*
X203965425Y-102917056D02*
X204060663Y-102964675D01*
X204060663Y-102964675D02*
X204251139Y-102964675D01*
X204251139Y-102964675D02*
X204346377Y-102917056D01*
X204346377Y-102917056D02*
X204393996Y-102869436D01*
X204393996Y-102869436D02*
X204441615Y-102774198D01*
X204441615Y-102774198D02*
X204441615Y-101964675D01*
X204774949Y-101964675D02*
X205346377Y-101964675D01*
X205060663Y-102964675D02*
X205060663Y-101964675D01*
X205679711Y-102964675D02*
X205679711Y-101964675D01*
X205679711Y-101964675D02*
X206060663Y-101964675D01*
X206060663Y-101964675D02*
X206155901Y-102012294D01*
X206155901Y-102012294D02*
X206203520Y-102059913D01*
X206203520Y-102059913D02*
X206251139Y-102155151D01*
X206251139Y-102155151D02*
X206251139Y-102298008D01*
X206251139Y-102298008D02*
X206203520Y-102393246D01*
X206203520Y-102393246D02*
X206155901Y-102440865D01*
X206155901Y-102440865D02*
X206060663Y-102488484D01*
X206060663Y-102488484D02*
X205679711Y-102488484D01*
X206679711Y-101964675D02*
X206679711Y-102774198D01*
X206679711Y-102774198D02*
X206727330Y-102869436D01*
X206727330Y-102869436D02*
X206774949Y-102917056D01*
X206774949Y-102917056D02*
X206870187Y-102964675D01*
X206870187Y-102964675D02*
X207060663Y-102964675D01*
X207060663Y-102964675D02*
X207155901Y-102917056D01*
X207155901Y-102917056D02*
X207203520Y-102869436D01*
X207203520Y-102869436D02*
X207251139Y-102774198D01*
X207251139Y-102774198D02*
X207251139Y-101964675D01*
X207584473Y-101964675D02*
X208155901Y-101964675D01*
X207870187Y-102964675D02*
X207870187Y-101964675D01*
X227688758Y-102594619D02*
X227212568Y-102594619D01*
X227212568Y-102594619D02*
X227212568Y-101594619D01*
X228212568Y-101594619D02*
X228403044Y-101594619D01*
X228403044Y-101594619D02*
X228498282Y-101642238D01*
X228498282Y-101642238D02*
X228593520Y-101737476D01*
X228593520Y-101737476D02*
X228641139Y-101927952D01*
X228641139Y-101927952D02*
X228641139Y-102261285D01*
X228641139Y-102261285D02*
X228593520Y-102451761D01*
X228593520Y-102451761D02*
X228498282Y-102547000D01*
X228498282Y-102547000D02*
X228403044Y-102594619D01*
X228403044Y-102594619D02*
X228212568Y-102594619D01*
X228212568Y-102594619D02*
X228117330Y-102547000D01*
X228117330Y-102547000D02*
X228022092Y-102451761D01*
X228022092Y-102451761D02*
X227974473Y-102261285D01*
X227974473Y-102261285D02*
X227974473Y-101927952D01*
X227974473Y-101927952D02*
X228022092Y-101737476D01*
X228022092Y-101737476D02*
X228117330Y-101642238D01*
X228117330Y-101642238D02*
X228212568Y-101594619D01*
X229022092Y-102308904D02*
X229498282Y-102308904D01*
X228926854Y-102594619D02*
X229260187Y-101594619D01*
X229260187Y-101594619D02*
X229593520Y-102594619D01*
X229926854Y-102594619D02*
X229926854Y-101594619D01*
X229926854Y-101594619D02*
X230164949Y-101594619D01*
X230164949Y-101594619D02*
X230307806Y-101642238D01*
X230307806Y-101642238D02*
X230403044Y-101737476D01*
X230403044Y-101737476D02*
X230450663Y-101832714D01*
X230450663Y-101832714D02*
X230498282Y-102023190D01*
X230498282Y-102023190D02*
X230498282Y-102166047D01*
X230498282Y-102166047D02*
X230450663Y-102356523D01*
X230450663Y-102356523D02*
X230403044Y-102451761D01*
X230403044Y-102451761D02*
X230307806Y-102547000D01*
X230307806Y-102547000D02*
X230164949Y-102594619D01*
X230164949Y-102594619D02*
X229926854Y-102594619D01*
D13*
X241657542Y-75946917D02*
X240457542Y-75946917D01*
X240457542Y-75946917D02*
X241314685Y-75546917D01*
X241314685Y-75546917D02*
X240457542Y-75146917D01*
X240457542Y-75146917D02*
X241657542Y-75146917D01*
X241314685Y-74632631D02*
X241314685Y-74061203D01*
X241657542Y-74746917D02*
X240457542Y-74346917D01*
X240457542Y-74346917D02*
X241657542Y-73946917D01*
X241200400Y-73546917D02*
X241200400Y-72632632D01*
X241314685Y-72118346D02*
X241314685Y-71546918D01*
X241657542Y-72232632D02*
X240457542Y-71832632D01*
X240457542Y-71832632D02*
X241657542Y-71432632D01*
X241657542Y-71032632D02*
X240457542Y-71032632D01*
X241657542Y-69775489D02*
X241086114Y-70175489D01*
X241657542Y-70461203D02*
X240457542Y-70461203D01*
X240457542Y-70461203D02*
X240457542Y-70004060D01*
X240457542Y-70004060D02*
X240514685Y-69889775D01*
X240514685Y-69889775D02*
X240571828Y-69832632D01*
X240571828Y-69832632D02*
X240686114Y-69775489D01*
X240686114Y-69775489D02*
X240857542Y-69775489D01*
X240857542Y-69775489D02*
X240971828Y-69832632D01*
X240971828Y-69832632D02*
X241028971Y-69889775D01*
X241028971Y-69889775D02*
X241086114Y-70004060D01*
X241086114Y-70004060D02*
X241086114Y-70461203D01*
X241543257Y-67661203D02*
X241600400Y-67718346D01*
X241600400Y-67718346D02*
X241657542Y-67889774D01*
X241657542Y-67889774D02*
X241657542Y-68004060D01*
X241657542Y-68004060D02*
X241600400Y-68175489D01*
X241600400Y-68175489D02*
X241486114Y-68289774D01*
X241486114Y-68289774D02*
X241371828Y-68346917D01*
X241371828Y-68346917D02*
X241143257Y-68404060D01*
X241143257Y-68404060D02*
X240971828Y-68404060D01*
X240971828Y-68404060D02*
X240743257Y-68346917D01*
X240743257Y-68346917D02*
X240628971Y-68289774D01*
X240628971Y-68289774D02*
X240514685Y-68175489D01*
X240514685Y-68175489D02*
X240457542Y-68004060D01*
X240457542Y-68004060D02*
X240457542Y-67889774D01*
X240457542Y-67889774D02*
X240514685Y-67718346D01*
X240514685Y-67718346D02*
X240571828Y-67661203D01*
X241028971Y-67146917D02*
X241028971Y-66746917D01*
X241657542Y-66575489D02*
X241657542Y-67146917D01*
X241657542Y-67146917D02*
X240457542Y-67146917D01*
X240457542Y-67146917D02*
X240457542Y-66575489D01*
X241657542Y-65489775D02*
X241657542Y-66061203D01*
X241657542Y-66061203D02*
X240457542Y-66061203D01*
X241657542Y-64518346D02*
X241657542Y-65089774D01*
X241657542Y-65089774D02*
X240457542Y-65089774D01*
X159221203Y-58316742D02*
X159278346Y-58259600D01*
X159278346Y-58259600D02*
X159449774Y-58202457D01*
X159449774Y-58202457D02*
X159564060Y-58202457D01*
X159564060Y-58202457D02*
X159735489Y-58259600D01*
X159735489Y-58259600D02*
X159849774Y-58373885D01*
X159849774Y-58373885D02*
X159906917Y-58488171D01*
X159906917Y-58488171D02*
X159964060Y-58716742D01*
X159964060Y-58716742D02*
X159964060Y-58888171D01*
X159964060Y-58888171D02*
X159906917Y-59116742D01*
X159906917Y-59116742D02*
X159849774Y-59231028D01*
X159849774Y-59231028D02*
X159735489Y-59345314D01*
X159735489Y-59345314D02*
X159564060Y-59402457D01*
X159564060Y-59402457D02*
X159449774Y-59402457D01*
X159449774Y-59402457D02*
X159278346Y-59345314D01*
X159278346Y-59345314D02*
X159221203Y-59288171D01*
X158764060Y-58545314D02*
X158192632Y-58545314D01*
X158878346Y-58202457D02*
X158478346Y-59402457D01*
X158478346Y-59402457D02*
X158078346Y-58202457D01*
X157678346Y-58202457D02*
X157678346Y-59402457D01*
X157678346Y-59402457D02*
X156992632Y-58202457D01*
X156992632Y-58202457D02*
X156992632Y-59402457D01*
X155106917Y-58831028D02*
X154935489Y-58773885D01*
X154935489Y-58773885D02*
X154878346Y-58716742D01*
X154878346Y-58716742D02*
X154821203Y-58602457D01*
X154821203Y-58602457D02*
X154821203Y-58431028D01*
X154821203Y-58431028D02*
X154878346Y-58316742D01*
X154878346Y-58316742D02*
X154935489Y-58259600D01*
X154935489Y-58259600D02*
X155049774Y-58202457D01*
X155049774Y-58202457D02*
X155506917Y-58202457D01*
X155506917Y-58202457D02*
X155506917Y-59402457D01*
X155506917Y-59402457D02*
X155106917Y-59402457D01*
X155106917Y-59402457D02*
X154992632Y-59345314D01*
X154992632Y-59345314D02*
X154935489Y-59288171D01*
X154935489Y-59288171D02*
X154878346Y-59173885D01*
X154878346Y-59173885D02*
X154878346Y-59059600D01*
X154878346Y-59059600D02*
X154935489Y-58945314D01*
X154935489Y-58945314D02*
X154992632Y-58888171D01*
X154992632Y-58888171D02*
X155106917Y-58831028D01*
X155106917Y-58831028D02*
X155506917Y-58831028D01*
X154306917Y-59402457D02*
X154306917Y-58431028D01*
X154306917Y-58431028D02*
X154249774Y-58316742D01*
X154249774Y-58316742D02*
X154192632Y-58259600D01*
X154192632Y-58259600D02*
X154078346Y-58202457D01*
X154078346Y-58202457D02*
X153849774Y-58202457D01*
X153849774Y-58202457D02*
X153735489Y-58259600D01*
X153735489Y-58259600D02*
X153678346Y-58316742D01*
X153678346Y-58316742D02*
X153621203Y-58431028D01*
X153621203Y-58431028D02*
X153621203Y-59402457D01*
X153106917Y-58259600D02*
X152935489Y-58202457D01*
X152935489Y-58202457D02*
X152649774Y-58202457D01*
X152649774Y-58202457D02*
X152535489Y-58259600D01*
X152535489Y-58259600D02*
X152478346Y-58316742D01*
X152478346Y-58316742D02*
X152421203Y-58431028D01*
X152421203Y-58431028D02*
X152421203Y-58545314D01*
X152421203Y-58545314D02*
X152478346Y-58659600D01*
X152478346Y-58659600D02*
X152535489Y-58716742D01*
X152535489Y-58716742D02*
X152649774Y-58773885D01*
X152649774Y-58773885D02*
X152878346Y-58831028D01*
X152878346Y-58831028D02*
X152992631Y-58888171D01*
X152992631Y-58888171D02*
X153049774Y-58945314D01*
X153049774Y-58945314D02*
X153106917Y-59059600D01*
X153106917Y-59059600D02*
X153106917Y-59173885D01*
X153106917Y-59173885D02*
X153049774Y-59288171D01*
X153049774Y-59288171D02*
X152992631Y-59345314D01*
X152992631Y-59345314D02*
X152878346Y-59402457D01*
X152878346Y-59402457D02*
X152592631Y-59402457D01*
X152592631Y-59402457D02*
X152421203Y-59345314D01*
X197894060Y-57861533D02*
X197722632Y-57804390D01*
X197722632Y-57804390D02*
X197436917Y-57804390D01*
X197436917Y-57804390D02*
X197322632Y-57861533D01*
X197322632Y-57861533D02*
X197265489Y-57918675D01*
X197265489Y-57918675D02*
X197208346Y-58032961D01*
X197208346Y-58032961D02*
X197208346Y-58147247D01*
X197208346Y-58147247D02*
X197265489Y-58261533D01*
X197265489Y-58261533D02*
X197322632Y-58318675D01*
X197322632Y-58318675D02*
X197436917Y-58375818D01*
X197436917Y-58375818D02*
X197665489Y-58432961D01*
X197665489Y-58432961D02*
X197779774Y-58490104D01*
X197779774Y-58490104D02*
X197836917Y-58547247D01*
X197836917Y-58547247D02*
X197894060Y-58661533D01*
X197894060Y-58661533D02*
X197894060Y-58775818D01*
X197894060Y-58775818D02*
X197836917Y-58890104D01*
X197836917Y-58890104D02*
X197779774Y-58947247D01*
X197779774Y-58947247D02*
X197665489Y-59004390D01*
X197665489Y-59004390D02*
X197379774Y-59004390D01*
X197379774Y-59004390D02*
X197208346Y-58947247D01*
X196808346Y-59004390D02*
X196522632Y-57804390D01*
X196522632Y-57804390D02*
X196294060Y-58661533D01*
X196294060Y-58661533D02*
X196065489Y-57804390D01*
X196065489Y-57804390D02*
X195779775Y-59004390D01*
X195322631Y-57804390D02*
X195322631Y-59004390D01*
X195322631Y-59004390D02*
X195036917Y-59004390D01*
X195036917Y-59004390D02*
X194865488Y-58947247D01*
X194865488Y-58947247D02*
X194751203Y-58832961D01*
X194751203Y-58832961D02*
X194694060Y-58718675D01*
X194694060Y-58718675D02*
X194636917Y-58490104D01*
X194636917Y-58490104D02*
X194636917Y-58318675D01*
X194636917Y-58318675D02*
X194694060Y-58090104D01*
X194694060Y-58090104D02*
X194751203Y-57975818D01*
X194751203Y-57975818D02*
X194865488Y-57861533D01*
X194865488Y-57861533D02*
X195036917Y-57804390D01*
X195036917Y-57804390D02*
X195322631Y-57804390D01*
X193208345Y-57804390D02*
X193208345Y-59004390D01*
X193208345Y-59004390D02*
X192751202Y-59004390D01*
X192751202Y-59004390D02*
X192636917Y-58947247D01*
X192636917Y-58947247D02*
X192579774Y-58890104D01*
X192579774Y-58890104D02*
X192522631Y-58775818D01*
X192522631Y-58775818D02*
X192522631Y-58604390D01*
X192522631Y-58604390D02*
X192579774Y-58490104D01*
X192579774Y-58490104D02*
X192636917Y-58432961D01*
X192636917Y-58432961D02*
X192751202Y-58375818D01*
X192751202Y-58375818D02*
X193208345Y-58375818D01*
X191322631Y-57804390D02*
X191722631Y-58375818D01*
X192008345Y-57804390D02*
X192008345Y-59004390D01*
X192008345Y-59004390D02*
X191551202Y-59004390D01*
X191551202Y-59004390D02*
X191436917Y-58947247D01*
X191436917Y-58947247D02*
X191379774Y-58890104D01*
X191379774Y-58890104D02*
X191322631Y-58775818D01*
X191322631Y-58775818D02*
X191322631Y-58604390D01*
X191322631Y-58604390D02*
X191379774Y-58490104D01*
X191379774Y-58490104D02*
X191436917Y-58432961D01*
X191436917Y-58432961D02*
X191551202Y-58375818D01*
X191551202Y-58375818D02*
X192008345Y-58375818D01*
X190579774Y-59004390D02*
X190351202Y-59004390D01*
X190351202Y-59004390D02*
X190236917Y-58947247D01*
X190236917Y-58947247D02*
X190122631Y-58832961D01*
X190122631Y-58832961D02*
X190065488Y-58604390D01*
X190065488Y-58604390D02*
X190065488Y-58204390D01*
X190065488Y-58204390D02*
X190122631Y-57975818D01*
X190122631Y-57975818D02*
X190236917Y-57861533D01*
X190236917Y-57861533D02*
X190351202Y-57804390D01*
X190351202Y-57804390D02*
X190579774Y-57804390D01*
X190579774Y-57804390D02*
X190694060Y-57861533D01*
X190694060Y-57861533D02*
X190808345Y-57975818D01*
X190808345Y-57975818D02*
X190865488Y-58204390D01*
X190865488Y-58204390D02*
X190865488Y-58604390D01*
X190865488Y-58604390D02*
X190808345Y-58832961D01*
X190808345Y-58832961D02*
X190694060Y-58947247D01*
X190694060Y-58947247D02*
X190579774Y-59004390D01*
X188922631Y-58947247D02*
X189036917Y-59004390D01*
X189036917Y-59004390D02*
X189208345Y-59004390D01*
X189208345Y-59004390D02*
X189379774Y-58947247D01*
X189379774Y-58947247D02*
X189494059Y-58832961D01*
X189494059Y-58832961D02*
X189551202Y-58718675D01*
X189551202Y-58718675D02*
X189608345Y-58490104D01*
X189608345Y-58490104D02*
X189608345Y-58318675D01*
X189608345Y-58318675D02*
X189551202Y-58090104D01*
X189551202Y-58090104D02*
X189494059Y-57975818D01*
X189494059Y-57975818D02*
X189379774Y-57861533D01*
X189379774Y-57861533D02*
X189208345Y-57804390D01*
X189208345Y-57804390D02*
X189094059Y-57804390D01*
X189094059Y-57804390D02*
X188922631Y-57861533D01*
X188922631Y-57861533D02*
X188865488Y-57918675D01*
X188865488Y-57918675D02*
X188865488Y-58318675D01*
X188865488Y-58318675D02*
X189094059Y-58318675D01*
X187665488Y-57804390D02*
X188065488Y-58375818D01*
X188351202Y-57804390D02*
X188351202Y-59004390D01*
X188351202Y-59004390D02*
X187894059Y-59004390D01*
X187894059Y-59004390D02*
X187779774Y-58947247D01*
X187779774Y-58947247D02*
X187722631Y-58890104D01*
X187722631Y-58890104D02*
X187665488Y-58775818D01*
X187665488Y-58775818D02*
X187665488Y-58604390D01*
X187665488Y-58604390D02*
X187722631Y-58490104D01*
X187722631Y-58490104D02*
X187779774Y-58432961D01*
X187779774Y-58432961D02*
X187894059Y-58375818D01*
X187894059Y-58375818D02*
X188351202Y-58375818D01*
X187208345Y-58147247D02*
X186636917Y-58147247D01*
X187322631Y-57804390D02*
X186922631Y-59004390D01*
X186922631Y-59004390D02*
X186522631Y-57804390D01*
X186122631Y-57804390D02*
X186122631Y-59004390D01*
X186122631Y-59004390D02*
X185722631Y-58147247D01*
X185722631Y-58147247D02*
X185322631Y-59004390D01*
X185322631Y-59004390D02*
X185322631Y-57804390D01*
D11*
X194485714Y-76012295D02*
X194219047Y-75631342D01*
X194028571Y-76012295D02*
X194028571Y-75212295D01*
X194028571Y-75212295D02*
X194333333Y-75212295D01*
X194333333Y-75212295D02*
X194409523Y-75250390D01*
X194409523Y-75250390D02*
X194447618Y-75288485D01*
X194447618Y-75288485D02*
X194485714Y-75364676D01*
X194485714Y-75364676D02*
X194485714Y-75478961D01*
X194485714Y-75478961D02*
X194447618Y-75555152D01*
X194447618Y-75555152D02*
X194409523Y-75593247D01*
X194409523Y-75593247D02*
X194333333Y-75631342D01*
X194333333Y-75631342D02*
X194028571Y-75631342D01*
X195247618Y-76012295D02*
X194790475Y-76012295D01*
X195019047Y-76012295D02*
X195019047Y-75212295D01*
X195019047Y-75212295D02*
X194942856Y-75326580D01*
X194942856Y-75326580D02*
X194866666Y-75402771D01*
X194866666Y-75402771D02*
X194790475Y-75440866D01*
X195552380Y-75288485D02*
X195590476Y-75250390D01*
X195590476Y-75250390D02*
X195666666Y-75212295D01*
X195666666Y-75212295D02*
X195857142Y-75212295D01*
X195857142Y-75212295D02*
X195933333Y-75250390D01*
X195933333Y-75250390D02*
X195971428Y-75288485D01*
X195971428Y-75288485D02*
X196009523Y-75364676D01*
X196009523Y-75364676D02*
X196009523Y-75440866D01*
X196009523Y-75440866D02*
X195971428Y-75555152D01*
X195971428Y-75555152D02*
X195514285Y-76012295D01*
X195514285Y-76012295D02*
X196009523Y-76012295D01*
X174632666Y-71811620D02*
X174578791Y-71811620D01*
X174578791Y-71811620D02*
X174471042Y-71757746D01*
X174471042Y-71757746D02*
X174417167Y-71703871D01*
X174417167Y-71703871D02*
X174363292Y-71596121D01*
X174363292Y-71596121D02*
X174363292Y-71488372D01*
X174363292Y-71488372D02*
X174390230Y-71407559D01*
X174390230Y-71407559D02*
X174471042Y-71272872D01*
X174471042Y-71272872D02*
X174551854Y-71192060D01*
X174551854Y-71192060D02*
X174686541Y-71111248D01*
X174686541Y-71111248D02*
X174767353Y-71084311D01*
X174767353Y-71084311D02*
X174875103Y-71084311D01*
X174875103Y-71084311D02*
X174982852Y-71138185D01*
X174982852Y-71138185D02*
X175036727Y-71192060D01*
X175036727Y-71192060D02*
X175090602Y-71299810D01*
X175090602Y-71299810D02*
X175090602Y-71353685D01*
X175440788Y-71973245D02*
X175063665Y-72350369D01*
X175521600Y-71623059D02*
X174982852Y-71892433D01*
X174982852Y-71892433D02*
X175333039Y-72242619D01*
X188319537Y-82631900D02*
X188400350Y-82173964D01*
X187996289Y-82308651D02*
X188561974Y-81742966D01*
X188561974Y-81742966D02*
X188777473Y-81958465D01*
X188777473Y-81958465D02*
X188804411Y-82039277D01*
X188804411Y-82039277D02*
X188804411Y-82093152D01*
X188804411Y-82093152D02*
X188777473Y-82173964D01*
X188777473Y-82173964D02*
X188696661Y-82254777D01*
X188696661Y-82254777D02*
X188615849Y-82281714D01*
X188615849Y-82281714D02*
X188561974Y-82281714D01*
X188561974Y-82281714D02*
X188481162Y-82254777D01*
X188481162Y-82254777D02*
X188265663Y-82039277D01*
X189397033Y-82578025D02*
X189127659Y-82308651D01*
X189127659Y-82308651D02*
X188831348Y-82551088D01*
X188831348Y-82551088D02*
X188885223Y-82551088D01*
X188885223Y-82551088D02*
X188966035Y-82578025D01*
X188966035Y-82578025D02*
X189100722Y-82712712D01*
X189100722Y-82712712D02*
X189127659Y-82793525D01*
X189127659Y-82793525D02*
X189127659Y-82847399D01*
X189127659Y-82847399D02*
X189100722Y-82928212D01*
X189100722Y-82928212D02*
X188966035Y-83062899D01*
X188966035Y-83062899D02*
X188885223Y-83089836D01*
X188885223Y-83089836D02*
X188831348Y-83089836D01*
X188831348Y-83089836D02*
X188750536Y-83062899D01*
X188750536Y-83062899D02*
X188615849Y-82928212D01*
X188615849Y-82928212D02*
X188588911Y-82847399D01*
X188588911Y-82847399D02*
X188588911Y-82793525D01*
X183307099Y-86533762D02*
X183408114Y-85961343D01*
X182903038Y-86129701D02*
X183610145Y-85422595D01*
X183610145Y-85422595D02*
X183879519Y-85691969D01*
X183879519Y-85691969D02*
X183913191Y-85792984D01*
X183913191Y-85792984D02*
X183913191Y-85860327D01*
X183913191Y-85860327D02*
X183879519Y-85961343D01*
X183879519Y-85961343D02*
X183778504Y-86062358D01*
X183778504Y-86062358D02*
X183677488Y-86096030D01*
X183677488Y-86096030D02*
X183610145Y-86096030D01*
X183610145Y-86096030D02*
X183509130Y-86062358D01*
X183509130Y-86062358D02*
X183239756Y-85792984D01*
X183980534Y-87207197D02*
X183576473Y-86803136D01*
X183778504Y-87005167D02*
X184485610Y-86298060D01*
X184485610Y-86298060D02*
X184317252Y-86331732D01*
X184317252Y-86331732D02*
X184182565Y-86331732D01*
X184182565Y-86331732D02*
X184081549Y-86298060D01*
X184923343Y-86735793D02*
X185361076Y-87173526D01*
X185361076Y-87173526D02*
X184856000Y-87207198D01*
X184856000Y-87207198D02*
X184957015Y-87308213D01*
X184957015Y-87308213D02*
X184990687Y-87409228D01*
X184990687Y-87409228D02*
X184990687Y-87476572D01*
X184990687Y-87476572D02*
X184957015Y-87577587D01*
X184957015Y-87577587D02*
X184788656Y-87745946D01*
X184788656Y-87745946D02*
X184687641Y-87779617D01*
X184687641Y-87779617D02*
X184620298Y-87779617D01*
X184620298Y-87779617D02*
X184519282Y-87745946D01*
X184519282Y-87745946D02*
X184317252Y-87543915D01*
X184317252Y-87543915D02*
X184283580Y-87442900D01*
X184283580Y-87442900D02*
X184283580Y-87375556D01*
X185180163Y-70592526D02*
X185260975Y-70134590D01*
X184856914Y-70269277D02*
X185422600Y-69703592D01*
X185422600Y-69703592D02*
X185638099Y-69919091D01*
X185638099Y-69919091D02*
X185665036Y-69999903D01*
X185665036Y-69999903D02*
X185665036Y-70053778D01*
X185665036Y-70053778D02*
X185638099Y-70134590D01*
X185638099Y-70134590D02*
X185557287Y-70215402D01*
X185557287Y-70215402D02*
X185476474Y-70242340D01*
X185476474Y-70242340D02*
X185422600Y-70242340D01*
X185422600Y-70242340D02*
X185341787Y-70215402D01*
X185341787Y-70215402D02*
X185126288Y-69999903D01*
X185718911Y-71131274D02*
X185395662Y-70808025D01*
X185557287Y-70969649D02*
X186122972Y-70403964D01*
X186122972Y-70403964D02*
X185988285Y-70430901D01*
X185988285Y-70430901D02*
X185880535Y-70430901D01*
X185880535Y-70430901D02*
X185799723Y-70403964D01*
X186580908Y-71239024D02*
X186203784Y-71616147D01*
X186661720Y-70888837D02*
X186122972Y-71158211D01*
X186122972Y-71158211D02*
X186473158Y-71508398D01*
X166985714Y-67637295D02*
X166719047Y-67256342D01*
X166528571Y-67637295D02*
X166528571Y-66837295D01*
X166528571Y-66837295D02*
X166833333Y-66837295D01*
X166833333Y-66837295D02*
X166909523Y-66875390D01*
X166909523Y-66875390D02*
X166947618Y-66913485D01*
X166947618Y-66913485D02*
X166985714Y-66989676D01*
X166985714Y-66989676D02*
X166985714Y-67103961D01*
X166985714Y-67103961D02*
X166947618Y-67180152D01*
X166947618Y-67180152D02*
X166909523Y-67218247D01*
X166909523Y-67218247D02*
X166833333Y-67256342D01*
X166833333Y-67256342D02*
X166528571Y-67256342D01*
X167290475Y-66913485D02*
X167328571Y-66875390D01*
X167328571Y-66875390D02*
X167404761Y-66837295D01*
X167404761Y-66837295D02*
X167595237Y-66837295D01*
X167595237Y-66837295D02*
X167671428Y-66875390D01*
X167671428Y-66875390D02*
X167709523Y-66913485D01*
X167709523Y-66913485D02*
X167747618Y-66989676D01*
X167747618Y-66989676D02*
X167747618Y-67065866D01*
X167747618Y-67065866D02*
X167709523Y-67180152D01*
X167709523Y-67180152D02*
X167252380Y-67637295D01*
X167252380Y-67637295D02*
X167747618Y-67637295D01*
X168242857Y-66837295D02*
X168319047Y-66837295D01*
X168319047Y-66837295D02*
X168395238Y-66875390D01*
X168395238Y-66875390D02*
X168433333Y-66913485D01*
X168433333Y-66913485D02*
X168471428Y-66989676D01*
X168471428Y-66989676D02*
X168509523Y-67142057D01*
X168509523Y-67142057D02*
X168509523Y-67332533D01*
X168509523Y-67332533D02*
X168471428Y-67484914D01*
X168471428Y-67484914D02*
X168433333Y-67561104D01*
X168433333Y-67561104D02*
X168395238Y-67599200D01*
X168395238Y-67599200D02*
X168319047Y-67637295D01*
X168319047Y-67637295D02*
X168242857Y-67637295D01*
X168242857Y-67637295D02*
X168166666Y-67599200D01*
X168166666Y-67599200D02*
X168128571Y-67561104D01*
X168128571Y-67561104D02*
X168090476Y-67484914D01*
X168090476Y-67484914D02*
X168052380Y-67332533D01*
X168052380Y-67332533D02*
X168052380Y-67142057D01*
X168052380Y-67142057D02*
X168090476Y-66989676D01*
X168090476Y-66989676D02*
X168128571Y-66913485D01*
X168128571Y-66913485D02*
X168166666Y-66875390D01*
X168166666Y-66875390D02*
X168242857Y-66837295D01*
X198857142Y-93454819D02*
X198523809Y-92978628D01*
X198285714Y-93454819D02*
X198285714Y-92454819D01*
X198285714Y-92454819D02*
X198666666Y-92454819D01*
X198666666Y-92454819D02*
X198761904Y-92502438D01*
X198761904Y-92502438D02*
X198809523Y-92550057D01*
X198809523Y-92550057D02*
X198857142Y-92645295D01*
X198857142Y-92645295D02*
X198857142Y-92788152D01*
X198857142Y-92788152D02*
X198809523Y-92883390D01*
X198809523Y-92883390D02*
X198761904Y-92931009D01*
X198761904Y-92931009D02*
X198666666Y-92978628D01*
X198666666Y-92978628D02*
X198285714Y-92978628D01*
X199809523Y-93454819D02*
X199238095Y-93454819D01*
X199523809Y-93454819D02*
X199523809Y-92454819D01*
X199523809Y-92454819D02*
X199428571Y-92597676D01*
X199428571Y-92597676D02*
X199333333Y-92692914D01*
X199333333Y-92692914D02*
X199238095Y-92740533D01*
X200714285Y-92454819D02*
X200238095Y-92454819D01*
X200238095Y-92454819D02*
X200190476Y-92931009D01*
X200190476Y-92931009D02*
X200238095Y-92883390D01*
X200238095Y-92883390D02*
X200333333Y-92835771D01*
X200333333Y-92835771D02*
X200571428Y-92835771D01*
X200571428Y-92835771D02*
X200666666Y-92883390D01*
X200666666Y-92883390D02*
X200714285Y-92931009D01*
X200714285Y-92931009D02*
X200761904Y-93026247D01*
X200761904Y-93026247D02*
X200761904Y-93264342D01*
X200761904Y-93264342D02*
X200714285Y-93359580D01*
X200714285Y-93359580D02*
X200666666Y-93407200D01*
X200666666Y-93407200D02*
X200571428Y-93454819D01*
X200571428Y-93454819D02*
X200333333Y-93454819D01*
X200333333Y-93454819D02*
X200238095Y-93407200D01*
X200238095Y-93407200D02*
X200190476Y-93359580D01*
X176207666Y-70386620D02*
X176153791Y-70386620D01*
X176153791Y-70386620D02*
X176046042Y-70332746D01*
X176046042Y-70332746D02*
X175992167Y-70278871D01*
X175992167Y-70278871D02*
X175938292Y-70171121D01*
X175938292Y-70171121D02*
X175938292Y-70063372D01*
X175938292Y-70063372D02*
X175965230Y-69982559D01*
X175965230Y-69982559D02*
X176046042Y-69847872D01*
X176046042Y-69847872D02*
X176126854Y-69767060D01*
X176126854Y-69767060D02*
X176261541Y-69686248D01*
X176261541Y-69686248D02*
X176342353Y-69659311D01*
X176342353Y-69659311D02*
X176450103Y-69659311D01*
X176450103Y-69659311D02*
X176557852Y-69713185D01*
X176557852Y-69713185D02*
X176611727Y-69767060D01*
X176611727Y-69767060D02*
X176665602Y-69874810D01*
X176665602Y-69874810D02*
X176665602Y-69928685D01*
X176881101Y-70144184D02*
X176934976Y-70144184D01*
X176934976Y-70144184D02*
X177015788Y-70171121D01*
X177015788Y-70171121D02*
X177150475Y-70305808D01*
X177150475Y-70305808D02*
X177177413Y-70386620D01*
X177177413Y-70386620D02*
X177177413Y-70440495D01*
X177177413Y-70440495D02*
X177150475Y-70521307D01*
X177150475Y-70521307D02*
X177096600Y-70575182D01*
X177096600Y-70575182D02*
X176988851Y-70629057D01*
X176988851Y-70629057D02*
X176342353Y-70629057D01*
X176342353Y-70629057D02*
X176692539Y-70979243D01*
X150866667Y-81646104D02*
X150828571Y-81684200D01*
X150828571Y-81684200D02*
X150714286Y-81722295D01*
X150714286Y-81722295D02*
X150638095Y-81722295D01*
X150638095Y-81722295D02*
X150523809Y-81684200D01*
X150523809Y-81684200D02*
X150447619Y-81608009D01*
X150447619Y-81608009D02*
X150409524Y-81531819D01*
X150409524Y-81531819D02*
X150371428Y-81379438D01*
X150371428Y-81379438D02*
X150371428Y-81265152D01*
X150371428Y-81265152D02*
X150409524Y-81112771D01*
X150409524Y-81112771D02*
X150447619Y-81036580D01*
X150447619Y-81036580D02*
X150523809Y-80960390D01*
X150523809Y-80960390D02*
X150638095Y-80922295D01*
X150638095Y-80922295D02*
X150714286Y-80922295D01*
X150714286Y-80922295D02*
X150828571Y-80960390D01*
X150828571Y-80960390D02*
X150866667Y-80998485D01*
X151247619Y-81722295D02*
X151400000Y-81722295D01*
X151400000Y-81722295D02*
X151476190Y-81684200D01*
X151476190Y-81684200D02*
X151514286Y-81646104D01*
X151514286Y-81646104D02*
X151590476Y-81531819D01*
X151590476Y-81531819D02*
X151628571Y-81379438D01*
X151628571Y-81379438D02*
X151628571Y-81074676D01*
X151628571Y-81074676D02*
X151590476Y-80998485D01*
X151590476Y-80998485D02*
X151552381Y-80960390D01*
X151552381Y-80960390D02*
X151476190Y-80922295D01*
X151476190Y-80922295D02*
X151323809Y-80922295D01*
X151323809Y-80922295D02*
X151247619Y-80960390D01*
X151247619Y-80960390D02*
X151209524Y-80998485D01*
X151209524Y-80998485D02*
X151171428Y-81074676D01*
X151171428Y-81074676D02*
X151171428Y-81265152D01*
X151171428Y-81265152D02*
X151209524Y-81341342D01*
X151209524Y-81341342D02*
X151247619Y-81379438D01*
X151247619Y-81379438D02*
X151323809Y-81417533D01*
X151323809Y-81417533D02*
X151476190Y-81417533D01*
X151476190Y-81417533D02*
X151552381Y-81379438D01*
X151552381Y-81379438D02*
X151590476Y-81341342D01*
X151590476Y-81341342D02*
X151628571Y-81265152D01*
X181886104Y-64226785D02*
X181924200Y-64264881D01*
X181924200Y-64264881D02*
X181962295Y-64379166D01*
X181962295Y-64379166D02*
X181962295Y-64455357D01*
X181962295Y-64455357D02*
X181924200Y-64569643D01*
X181924200Y-64569643D02*
X181848009Y-64645833D01*
X181848009Y-64645833D02*
X181771819Y-64683928D01*
X181771819Y-64683928D02*
X181619438Y-64722024D01*
X181619438Y-64722024D02*
X181505152Y-64722024D01*
X181505152Y-64722024D02*
X181352771Y-64683928D01*
X181352771Y-64683928D02*
X181276580Y-64645833D01*
X181276580Y-64645833D02*
X181200390Y-64569643D01*
X181200390Y-64569643D02*
X181162295Y-64455357D01*
X181162295Y-64455357D02*
X181162295Y-64379166D01*
X181162295Y-64379166D02*
X181200390Y-64264881D01*
X181200390Y-64264881D02*
X181238485Y-64226785D01*
X181962295Y-63464881D02*
X181962295Y-63922024D01*
X181962295Y-63693452D02*
X181162295Y-63693452D01*
X181162295Y-63693452D02*
X181276580Y-63769643D01*
X181276580Y-63769643D02*
X181352771Y-63845833D01*
X181352771Y-63845833D02*
X181390866Y-63922024D01*
X181162295Y-62779166D02*
X181162295Y-62931547D01*
X181162295Y-62931547D02*
X181200390Y-63007738D01*
X181200390Y-63007738D02*
X181238485Y-63045833D01*
X181238485Y-63045833D02*
X181352771Y-63122023D01*
X181352771Y-63122023D02*
X181505152Y-63160119D01*
X181505152Y-63160119D02*
X181809914Y-63160119D01*
X181809914Y-63160119D02*
X181886104Y-63122023D01*
X181886104Y-63122023D02*
X181924200Y-63083928D01*
X181924200Y-63083928D02*
X181962295Y-63007738D01*
X181962295Y-63007738D02*
X181962295Y-62855357D01*
X181962295Y-62855357D02*
X181924200Y-62779166D01*
X181924200Y-62779166D02*
X181886104Y-62741071D01*
X181886104Y-62741071D02*
X181809914Y-62702976D01*
X181809914Y-62702976D02*
X181619438Y-62702976D01*
X181619438Y-62702976D02*
X181543247Y-62741071D01*
X181543247Y-62741071D02*
X181505152Y-62779166D01*
X181505152Y-62779166D02*
X181467057Y-62855357D01*
X181467057Y-62855357D02*
X181467057Y-63007738D01*
X181467057Y-63007738D02*
X181505152Y-63083928D01*
X181505152Y-63083928D02*
X181543247Y-63122023D01*
X181543247Y-63122023D02*
X181619438Y-63160119D01*
X170362295Y-63014285D02*
X169981342Y-63280952D01*
X170362295Y-63471428D02*
X169562295Y-63471428D01*
X169562295Y-63471428D02*
X169562295Y-63166666D01*
X169562295Y-63166666D02*
X169600390Y-63090476D01*
X169600390Y-63090476D02*
X169638485Y-63052381D01*
X169638485Y-63052381D02*
X169714676Y-63014285D01*
X169714676Y-63014285D02*
X169828961Y-63014285D01*
X169828961Y-63014285D02*
X169905152Y-63052381D01*
X169905152Y-63052381D02*
X169943247Y-63090476D01*
X169943247Y-63090476D02*
X169981342Y-63166666D01*
X169981342Y-63166666D02*
X169981342Y-63471428D01*
X169638485Y-62709524D02*
X169600390Y-62671428D01*
X169600390Y-62671428D02*
X169562295Y-62595238D01*
X169562295Y-62595238D02*
X169562295Y-62404762D01*
X169562295Y-62404762D02*
X169600390Y-62328571D01*
X169600390Y-62328571D02*
X169638485Y-62290476D01*
X169638485Y-62290476D02*
X169714676Y-62252381D01*
X169714676Y-62252381D02*
X169790866Y-62252381D01*
X169790866Y-62252381D02*
X169905152Y-62290476D01*
X169905152Y-62290476D02*
X170362295Y-62747619D01*
X170362295Y-62747619D02*
X170362295Y-62252381D01*
X170362295Y-61490476D02*
X170362295Y-61947619D01*
X170362295Y-61719047D02*
X169562295Y-61719047D01*
X169562295Y-61719047D02*
X169676580Y-61795238D01*
X169676580Y-61795238D02*
X169752771Y-61871428D01*
X169752771Y-61871428D02*
X169790866Y-61947619D01*
X177379009Y-83455392D02*
X177379009Y-83522736D01*
X177379009Y-83522736D02*
X177311665Y-83657423D01*
X177311665Y-83657423D02*
X177244322Y-83724766D01*
X177244322Y-83724766D02*
X177109635Y-83792110D01*
X177109635Y-83792110D02*
X176974948Y-83792110D01*
X176974948Y-83792110D02*
X176873933Y-83758438D01*
X176873933Y-83758438D02*
X176705574Y-83657423D01*
X176705574Y-83657423D02*
X176604559Y-83556408D01*
X176604559Y-83556408D02*
X176503543Y-83388049D01*
X176503543Y-83388049D02*
X176469872Y-83287034D01*
X176469872Y-83287034D02*
X176469872Y-83152347D01*
X176469872Y-83152347D02*
X176537215Y-83017660D01*
X176537215Y-83017660D02*
X176604559Y-82950316D01*
X176604559Y-82950316D02*
X176739246Y-82882973D01*
X176739246Y-82882973D02*
X176806589Y-82882973D01*
X178119787Y-82849301D02*
X177715726Y-83253362D01*
X177917757Y-83051331D02*
X177210650Y-82344225D01*
X177210650Y-82344225D02*
X177244322Y-82512583D01*
X177244322Y-82512583D02*
X177244322Y-82647270D01*
X177244322Y-82647270D02*
X177210650Y-82748286D01*
X177648383Y-81906492D02*
X178086116Y-81468759D01*
X178086116Y-81468759D02*
X178119788Y-81973835D01*
X178119788Y-81973835D02*
X178220803Y-81872820D01*
X178220803Y-81872820D02*
X178321818Y-81839148D01*
X178321818Y-81839148D02*
X178389162Y-81839148D01*
X178389162Y-81839148D02*
X178490177Y-81872820D01*
X178490177Y-81872820D02*
X178658536Y-82041179D01*
X178658536Y-82041179D02*
X178692207Y-82142194D01*
X178692207Y-82142194D02*
X178692207Y-82209537D01*
X178692207Y-82209537D02*
X178658536Y-82310553D01*
X178658536Y-82310553D02*
X178456505Y-82512583D01*
X178456505Y-82512583D02*
X178355490Y-82546255D01*
X178355490Y-82546255D02*
X178288146Y-82546255D01*
X172824285Y-72533365D02*
X172635724Y-72344804D01*
X172339412Y-72641115D02*
X172905098Y-72075430D01*
X172905098Y-72075430D02*
X173174472Y-72344804D01*
X173309158Y-73018238D02*
X173363033Y-73125988D01*
X173363033Y-73125988D02*
X173363033Y-73179863D01*
X173363033Y-73179863D02*
X173336096Y-73260675D01*
X173336096Y-73260675D02*
X173255284Y-73341487D01*
X173255284Y-73341487D02*
X173174471Y-73368425D01*
X173174471Y-73368425D02*
X173120597Y-73368425D01*
X173120597Y-73368425D02*
X173039784Y-73341487D01*
X173039784Y-73341487D02*
X172824285Y-73125988D01*
X172824285Y-73125988D02*
X173389971Y-72560303D01*
X173389971Y-72560303D02*
X173578532Y-72748864D01*
X173578532Y-72748864D02*
X173605470Y-72829677D01*
X173605470Y-72829677D02*
X173605470Y-72883551D01*
X173605470Y-72883551D02*
X173578532Y-72964364D01*
X173578532Y-72964364D02*
X173524658Y-73018238D01*
X173524658Y-73018238D02*
X173443845Y-73045176D01*
X173443845Y-73045176D02*
X173389971Y-73045176D01*
X173389971Y-73045176D02*
X173309158Y-73018238D01*
X173309158Y-73018238D02*
X173120597Y-72829677D01*
X173686282Y-73987985D02*
X173363033Y-73664736D01*
X173524658Y-73826360D02*
X174090343Y-73260675D01*
X174090343Y-73260675D02*
X173955656Y-73287612D01*
X173955656Y-73287612D02*
X173847906Y-73287612D01*
X173847906Y-73287612D02*
X173767094Y-73260675D01*
X207785714Y-83886104D02*
X207747618Y-83924200D01*
X207747618Y-83924200D02*
X207633333Y-83962295D01*
X207633333Y-83962295D02*
X207557142Y-83962295D01*
X207557142Y-83962295D02*
X207442856Y-83924200D01*
X207442856Y-83924200D02*
X207366666Y-83848009D01*
X207366666Y-83848009D02*
X207328571Y-83771819D01*
X207328571Y-83771819D02*
X207290475Y-83619438D01*
X207290475Y-83619438D02*
X207290475Y-83505152D01*
X207290475Y-83505152D02*
X207328571Y-83352771D01*
X207328571Y-83352771D02*
X207366666Y-83276580D01*
X207366666Y-83276580D02*
X207442856Y-83200390D01*
X207442856Y-83200390D02*
X207557142Y-83162295D01*
X207557142Y-83162295D02*
X207633333Y-83162295D01*
X207633333Y-83162295D02*
X207747618Y-83200390D01*
X207747618Y-83200390D02*
X207785714Y-83238485D01*
X208547618Y-83962295D02*
X208090475Y-83962295D01*
X208319047Y-83962295D02*
X208319047Y-83162295D01*
X208319047Y-83162295D02*
X208242856Y-83276580D01*
X208242856Y-83276580D02*
X208166666Y-83352771D01*
X208166666Y-83352771D02*
X208090475Y-83390866D01*
X209271428Y-83162295D02*
X208890476Y-83162295D01*
X208890476Y-83162295D02*
X208852380Y-83543247D01*
X208852380Y-83543247D02*
X208890476Y-83505152D01*
X208890476Y-83505152D02*
X208966666Y-83467057D01*
X208966666Y-83467057D02*
X209157142Y-83467057D01*
X209157142Y-83467057D02*
X209233333Y-83505152D01*
X209233333Y-83505152D02*
X209271428Y-83543247D01*
X209271428Y-83543247D02*
X209309523Y-83619438D01*
X209309523Y-83619438D02*
X209309523Y-83809914D01*
X209309523Y-83809914D02*
X209271428Y-83886104D01*
X209271428Y-83886104D02*
X209233333Y-83924200D01*
X209233333Y-83924200D02*
X209157142Y-83962295D01*
X209157142Y-83962295D02*
X208966666Y-83962295D01*
X208966666Y-83962295D02*
X208890476Y-83924200D01*
X208890476Y-83924200D02*
X208852380Y-83886104D01*
X198985714Y-81862295D02*
X198719047Y-81481342D01*
X198528571Y-81862295D02*
X198528571Y-81062295D01*
X198528571Y-81062295D02*
X198833333Y-81062295D01*
X198833333Y-81062295D02*
X198909523Y-81100390D01*
X198909523Y-81100390D02*
X198947618Y-81138485D01*
X198947618Y-81138485D02*
X198985714Y-81214676D01*
X198985714Y-81214676D02*
X198985714Y-81328961D01*
X198985714Y-81328961D02*
X198947618Y-81405152D01*
X198947618Y-81405152D02*
X198909523Y-81443247D01*
X198909523Y-81443247D02*
X198833333Y-81481342D01*
X198833333Y-81481342D02*
X198528571Y-81481342D01*
X199747618Y-81862295D02*
X199290475Y-81862295D01*
X199519047Y-81862295D02*
X199519047Y-81062295D01*
X199519047Y-81062295D02*
X199442856Y-81176580D01*
X199442856Y-81176580D02*
X199366666Y-81252771D01*
X199366666Y-81252771D02*
X199290475Y-81290866D01*
X200204761Y-81405152D02*
X200128571Y-81367057D01*
X200128571Y-81367057D02*
X200090476Y-81328961D01*
X200090476Y-81328961D02*
X200052380Y-81252771D01*
X200052380Y-81252771D02*
X200052380Y-81214676D01*
X200052380Y-81214676D02*
X200090476Y-81138485D01*
X200090476Y-81138485D02*
X200128571Y-81100390D01*
X200128571Y-81100390D02*
X200204761Y-81062295D01*
X200204761Y-81062295D02*
X200357142Y-81062295D01*
X200357142Y-81062295D02*
X200433333Y-81100390D01*
X200433333Y-81100390D02*
X200471428Y-81138485D01*
X200471428Y-81138485D02*
X200509523Y-81214676D01*
X200509523Y-81214676D02*
X200509523Y-81252771D01*
X200509523Y-81252771D02*
X200471428Y-81328961D01*
X200471428Y-81328961D02*
X200433333Y-81367057D01*
X200433333Y-81367057D02*
X200357142Y-81405152D01*
X200357142Y-81405152D02*
X200204761Y-81405152D01*
X200204761Y-81405152D02*
X200128571Y-81443247D01*
X200128571Y-81443247D02*
X200090476Y-81481342D01*
X200090476Y-81481342D02*
X200052380Y-81557533D01*
X200052380Y-81557533D02*
X200052380Y-81709914D01*
X200052380Y-81709914D02*
X200090476Y-81786104D01*
X200090476Y-81786104D02*
X200128571Y-81824200D01*
X200128571Y-81824200D02*
X200204761Y-81862295D01*
X200204761Y-81862295D02*
X200357142Y-81862295D01*
X200357142Y-81862295D02*
X200433333Y-81824200D01*
X200433333Y-81824200D02*
X200471428Y-81786104D01*
X200471428Y-81786104D02*
X200509523Y-81709914D01*
X200509523Y-81709914D02*
X200509523Y-81557533D01*
X200509523Y-81557533D02*
X200471428Y-81481342D01*
X200471428Y-81481342D02*
X200433333Y-81443247D01*
X200433333Y-81443247D02*
X200357142Y-81405152D01*
X150448214Y-78606104D02*
X150410118Y-78644200D01*
X150410118Y-78644200D02*
X150295833Y-78682295D01*
X150295833Y-78682295D02*
X150219642Y-78682295D01*
X150219642Y-78682295D02*
X150105356Y-78644200D01*
X150105356Y-78644200D02*
X150029166Y-78568009D01*
X150029166Y-78568009D02*
X149991071Y-78491819D01*
X149991071Y-78491819D02*
X149952975Y-78339438D01*
X149952975Y-78339438D02*
X149952975Y-78225152D01*
X149952975Y-78225152D02*
X149991071Y-78072771D01*
X149991071Y-78072771D02*
X150029166Y-77996580D01*
X150029166Y-77996580D02*
X150105356Y-77920390D01*
X150105356Y-77920390D02*
X150219642Y-77882295D01*
X150219642Y-77882295D02*
X150295833Y-77882295D01*
X150295833Y-77882295D02*
X150410118Y-77920390D01*
X150410118Y-77920390D02*
X150448214Y-77958485D01*
X151210118Y-78682295D02*
X150752975Y-78682295D01*
X150981547Y-78682295D02*
X150981547Y-77882295D01*
X150981547Y-77882295D02*
X150905356Y-77996580D01*
X150905356Y-77996580D02*
X150829166Y-78072771D01*
X150829166Y-78072771D02*
X150752975Y-78110866D01*
X151705357Y-77882295D02*
X151781547Y-77882295D01*
X151781547Y-77882295D02*
X151857738Y-77920390D01*
X151857738Y-77920390D02*
X151895833Y-77958485D01*
X151895833Y-77958485D02*
X151933928Y-78034676D01*
X151933928Y-78034676D02*
X151972023Y-78187057D01*
X151972023Y-78187057D02*
X151972023Y-78377533D01*
X151972023Y-78377533D02*
X151933928Y-78529914D01*
X151933928Y-78529914D02*
X151895833Y-78606104D01*
X151895833Y-78606104D02*
X151857738Y-78644200D01*
X151857738Y-78644200D02*
X151781547Y-78682295D01*
X151781547Y-78682295D02*
X151705357Y-78682295D01*
X151705357Y-78682295D02*
X151629166Y-78644200D01*
X151629166Y-78644200D02*
X151591071Y-78606104D01*
X151591071Y-78606104D02*
X151552976Y-78529914D01*
X151552976Y-78529914D02*
X151514880Y-78377533D01*
X151514880Y-78377533D02*
X151514880Y-78187057D01*
X151514880Y-78187057D02*
X151552976Y-78034676D01*
X151552976Y-78034676D02*
X151591071Y-77958485D01*
X151591071Y-77958485D02*
X151629166Y-77920390D01*
X151629166Y-77920390D02*
X151705357Y-77882295D01*
X190985714Y-73862295D02*
X190719047Y-73481342D01*
X190528571Y-73862295D02*
X190528571Y-73062295D01*
X190528571Y-73062295D02*
X190833333Y-73062295D01*
X190833333Y-73062295D02*
X190909523Y-73100390D01*
X190909523Y-73100390D02*
X190947618Y-73138485D01*
X190947618Y-73138485D02*
X190985714Y-73214676D01*
X190985714Y-73214676D02*
X190985714Y-73328961D01*
X190985714Y-73328961D02*
X190947618Y-73405152D01*
X190947618Y-73405152D02*
X190909523Y-73443247D01*
X190909523Y-73443247D02*
X190833333Y-73481342D01*
X190833333Y-73481342D02*
X190528571Y-73481342D01*
X191747618Y-73862295D02*
X191290475Y-73862295D01*
X191519047Y-73862295D02*
X191519047Y-73062295D01*
X191519047Y-73062295D02*
X191442856Y-73176580D01*
X191442856Y-73176580D02*
X191366666Y-73252771D01*
X191366666Y-73252771D02*
X191290475Y-73290866D01*
X192509523Y-73862295D02*
X192052380Y-73862295D01*
X192280952Y-73862295D02*
X192280952Y-73062295D01*
X192280952Y-73062295D02*
X192204761Y-73176580D01*
X192204761Y-73176580D02*
X192128571Y-73252771D01*
X192128571Y-73252771D02*
X192052380Y-73290866D01*
X175948214Y-89706104D02*
X175910118Y-89744200D01*
X175910118Y-89744200D02*
X175795833Y-89782295D01*
X175795833Y-89782295D02*
X175719642Y-89782295D01*
X175719642Y-89782295D02*
X175605356Y-89744200D01*
X175605356Y-89744200D02*
X175529166Y-89668009D01*
X175529166Y-89668009D02*
X175491071Y-89591819D01*
X175491071Y-89591819D02*
X175452975Y-89439438D01*
X175452975Y-89439438D02*
X175452975Y-89325152D01*
X175452975Y-89325152D02*
X175491071Y-89172771D01*
X175491071Y-89172771D02*
X175529166Y-89096580D01*
X175529166Y-89096580D02*
X175605356Y-89020390D01*
X175605356Y-89020390D02*
X175719642Y-88982295D01*
X175719642Y-88982295D02*
X175795833Y-88982295D01*
X175795833Y-88982295D02*
X175910118Y-89020390D01*
X175910118Y-89020390D02*
X175948214Y-89058485D01*
X176710118Y-89782295D02*
X176252975Y-89782295D01*
X176481547Y-89782295D02*
X176481547Y-88982295D01*
X176481547Y-88982295D02*
X176405356Y-89096580D01*
X176405356Y-89096580D02*
X176329166Y-89172771D01*
X176329166Y-89172771D02*
X176252975Y-89210866D01*
X177395833Y-89248961D02*
X177395833Y-89782295D01*
X177205357Y-88944200D02*
X177014880Y-89515628D01*
X177014880Y-89515628D02*
X177510119Y-89515628D01*
X171885714Y-69912295D02*
X171619047Y-69531342D01*
X171428571Y-69912295D02*
X171428571Y-69112295D01*
X171428571Y-69112295D02*
X171733333Y-69112295D01*
X171733333Y-69112295D02*
X171809523Y-69150390D01*
X171809523Y-69150390D02*
X171847618Y-69188485D01*
X171847618Y-69188485D02*
X171885714Y-69264676D01*
X171885714Y-69264676D02*
X171885714Y-69378961D01*
X171885714Y-69378961D02*
X171847618Y-69455152D01*
X171847618Y-69455152D02*
X171809523Y-69493247D01*
X171809523Y-69493247D02*
X171733333Y-69531342D01*
X171733333Y-69531342D02*
X171428571Y-69531342D01*
X172647618Y-69912295D02*
X172190475Y-69912295D01*
X172419047Y-69912295D02*
X172419047Y-69112295D01*
X172419047Y-69112295D02*
X172342856Y-69226580D01*
X172342856Y-69226580D02*
X172266666Y-69302771D01*
X172266666Y-69302771D02*
X172190475Y-69340866D01*
X173028571Y-69912295D02*
X173180952Y-69912295D01*
X173180952Y-69912295D02*
X173257142Y-69874200D01*
X173257142Y-69874200D02*
X173295238Y-69836104D01*
X173295238Y-69836104D02*
X173371428Y-69721819D01*
X173371428Y-69721819D02*
X173409523Y-69569438D01*
X173409523Y-69569438D02*
X173409523Y-69264676D01*
X173409523Y-69264676D02*
X173371428Y-69188485D01*
X173371428Y-69188485D02*
X173333333Y-69150390D01*
X173333333Y-69150390D02*
X173257142Y-69112295D01*
X173257142Y-69112295D02*
X173104761Y-69112295D01*
X173104761Y-69112295D02*
X173028571Y-69150390D01*
X173028571Y-69150390D02*
X172990476Y-69188485D01*
X172990476Y-69188485D02*
X172952380Y-69264676D01*
X172952380Y-69264676D02*
X172952380Y-69455152D01*
X172952380Y-69455152D02*
X172990476Y-69531342D01*
X172990476Y-69531342D02*
X173028571Y-69569438D01*
X173028571Y-69569438D02*
X173104761Y-69607533D01*
X173104761Y-69607533D02*
X173257142Y-69607533D01*
X173257142Y-69607533D02*
X173333333Y-69569438D01*
X173333333Y-69569438D02*
X173371428Y-69531342D01*
X173371428Y-69531342D02*
X173409523Y-69455152D01*
X190561800Y-87238419D02*
X190561800Y-87476514D01*
X190323705Y-87381276D02*
X190561800Y-87476514D01*
X190561800Y-87476514D02*
X190799895Y-87381276D01*
X190418943Y-87666990D02*
X190561800Y-87476514D01*
X190561800Y-87476514D02*
X190704657Y-87666990D01*
X189144772Y-78457135D02*
X189225585Y-77999199D01*
X188821524Y-78133886D02*
X189387209Y-77568201D01*
X189387209Y-77568201D02*
X189602708Y-77783700D01*
X189602708Y-77783700D02*
X189629646Y-77864512D01*
X189629646Y-77864512D02*
X189629646Y-77918387D01*
X189629646Y-77918387D02*
X189602708Y-77999199D01*
X189602708Y-77999199D02*
X189521896Y-78080012D01*
X189521896Y-78080012D02*
X189441084Y-78106949D01*
X189441084Y-78106949D02*
X189387209Y-78106949D01*
X189387209Y-78106949D02*
X189306397Y-78080012D01*
X189306397Y-78080012D02*
X189090898Y-77864512D01*
X189414146Y-78726509D02*
X189521896Y-78834259D01*
X189521896Y-78834259D02*
X189602708Y-78861196D01*
X189602708Y-78861196D02*
X189656583Y-78861196D01*
X189656583Y-78861196D02*
X189791270Y-78834259D01*
X189791270Y-78834259D02*
X189925957Y-78753447D01*
X189925957Y-78753447D02*
X190141456Y-78537947D01*
X190141456Y-78537947D02*
X190168394Y-78457135D01*
X190168394Y-78457135D02*
X190168394Y-78403260D01*
X190168394Y-78403260D02*
X190141456Y-78322448D01*
X190141456Y-78322448D02*
X190033707Y-78214699D01*
X190033707Y-78214699D02*
X189952894Y-78187761D01*
X189952894Y-78187761D02*
X189899020Y-78187761D01*
X189899020Y-78187761D02*
X189818207Y-78214699D01*
X189818207Y-78214699D02*
X189683520Y-78349386D01*
X189683520Y-78349386D02*
X189656583Y-78430198D01*
X189656583Y-78430198D02*
X189656583Y-78484073D01*
X189656583Y-78484073D02*
X189683520Y-78564885D01*
X189683520Y-78564885D02*
X189791270Y-78672634D01*
X189791270Y-78672634D02*
X189872082Y-78699572D01*
X189872082Y-78699572D02*
X189925957Y-78699572D01*
X189925957Y-78699572D02*
X190006769Y-78672634D01*
X209083866Y-66040951D02*
X209083866Y-65279047D01*
X209464819Y-65659999D02*
X208702914Y-65659999D01*
X185830163Y-84517526D02*
X185910975Y-84059590D01*
X185506914Y-84194277D02*
X186072600Y-83628592D01*
X186072600Y-83628592D02*
X186288099Y-83844091D01*
X186288099Y-83844091D02*
X186315036Y-83924903D01*
X186315036Y-83924903D02*
X186315036Y-83978778D01*
X186315036Y-83978778D02*
X186288099Y-84059590D01*
X186288099Y-84059590D02*
X186207287Y-84140402D01*
X186207287Y-84140402D02*
X186126474Y-84167340D01*
X186126474Y-84167340D02*
X186072600Y-84167340D01*
X186072600Y-84167340D02*
X185991787Y-84140402D01*
X185991787Y-84140402D02*
X185776288Y-83924903D01*
X186368911Y-85056274D02*
X186045662Y-84733025D01*
X186207287Y-84894649D02*
X186772972Y-84328964D01*
X186772972Y-84328964D02*
X186638285Y-84355901D01*
X186638285Y-84355901D02*
X186530535Y-84355901D01*
X186530535Y-84355901D02*
X186449723Y-84328964D01*
X187419470Y-84975462D02*
X187311720Y-84867712D01*
X187311720Y-84867712D02*
X187230908Y-84840775D01*
X187230908Y-84840775D02*
X187177033Y-84840775D01*
X187177033Y-84840775D02*
X187042346Y-84867712D01*
X187042346Y-84867712D02*
X186907659Y-84948524D01*
X186907659Y-84948524D02*
X186692160Y-85164024D01*
X186692160Y-85164024D02*
X186665223Y-85244836D01*
X186665223Y-85244836D02*
X186665223Y-85298711D01*
X186665223Y-85298711D02*
X186692160Y-85379523D01*
X186692160Y-85379523D02*
X186799910Y-85487272D01*
X186799910Y-85487272D02*
X186880722Y-85514210D01*
X186880722Y-85514210D02*
X186934597Y-85514210D01*
X186934597Y-85514210D02*
X187015409Y-85487272D01*
X187015409Y-85487272D02*
X187150096Y-85352585D01*
X187150096Y-85352585D02*
X187177033Y-85271773D01*
X187177033Y-85271773D02*
X187177033Y-85217898D01*
X187177033Y-85217898D02*
X187150096Y-85137086D01*
X187150096Y-85137086D02*
X187042346Y-85029337D01*
X187042346Y-85029337D02*
X186961534Y-85002399D01*
X186961534Y-85002399D02*
X186907659Y-85002399D01*
X186907659Y-85002399D02*
X186826847Y-85029337D01*
X189909537Y-81051900D02*
X189990350Y-80593964D01*
X189586289Y-80728651D02*
X190151974Y-80162966D01*
X190151974Y-80162966D02*
X190367473Y-80378465D01*
X190367473Y-80378465D02*
X190394411Y-80459277D01*
X190394411Y-80459277D02*
X190394411Y-80513152D01*
X190394411Y-80513152D02*
X190367473Y-80593964D01*
X190367473Y-80593964D02*
X190286661Y-80674777D01*
X190286661Y-80674777D02*
X190205849Y-80701714D01*
X190205849Y-80701714D02*
X190151974Y-80701714D01*
X190151974Y-80701714D02*
X190071162Y-80674777D01*
X190071162Y-80674777D02*
X189855663Y-80459277D01*
X190771534Y-81159650D02*
X190394411Y-81536774D01*
X190852346Y-80809464D02*
X190313598Y-81078838D01*
X190313598Y-81078838D02*
X190663785Y-81429024D01*
X177632666Y-68836619D02*
X177578791Y-68836619D01*
X177578791Y-68836619D02*
X177471042Y-68782745D01*
X177471042Y-68782745D02*
X177417167Y-68728870D01*
X177417167Y-68728870D02*
X177363292Y-68621120D01*
X177363292Y-68621120D02*
X177363292Y-68513371D01*
X177363292Y-68513371D02*
X177390230Y-68432558D01*
X177390230Y-68432558D02*
X177471042Y-68297871D01*
X177471042Y-68297871D02*
X177551854Y-68217059D01*
X177551854Y-68217059D02*
X177686541Y-68136247D01*
X177686541Y-68136247D02*
X177767353Y-68109310D01*
X177767353Y-68109310D02*
X177875103Y-68109310D01*
X177875103Y-68109310D02*
X177982852Y-68163184D01*
X177982852Y-68163184D02*
X178036727Y-68217059D01*
X178036727Y-68217059D02*
X178090602Y-68324809D01*
X178090602Y-68324809D02*
X178090602Y-68378684D01*
X178656287Y-68836619D02*
X178386913Y-68567245D01*
X178386913Y-68567245D02*
X178090602Y-68809682D01*
X178090602Y-68809682D02*
X178144477Y-68809682D01*
X178144477Y-68809682D02*
X178225289Y-68836619D01*
X178225289Y-68836619D02*
X178359976Y-68971306D01*
X178359976Y-68971306D02*
X178386913Y-69052119D01*
X178386913Y-69052119D02*
X178386913Y-69105993D01*
X178386913Y-69105993D02*
X178359976Y-69186806D01*
X178359976Y-69186806D02*
X178225289Y-69321493D01*
X178225289Y-69321493D02*
X178144477Y-69348430D01*
X178144477Y-69348430D02*
X178090602Y-69348430D01*
X178090602Y-69348430D02*
X178009790Y-69321493D01*
X178009790Y-69321493D02*
X177875103Y-69186806D01*
X177875103Y-69186806D02*
X177848165Y-69105993D01*
X177848165Y-69105993D02*
X177848165Y-69052119D01*
D14*
%TO.C,F1*%
X149252500Y-84086252D02*
X149252500Y-83563748D01*
X150672500Y-84086252D02*
X150672500Y-83563748D01*
%TO.C,R12*%
X195227064Y-73265000D02*
X194772936Y-73265000D01*
X195227064Y-74735000D02*
X194772936Y-74735000D01*
%TO.C,U4*%
X172190000Y-61190000D02*
X176310000Y-61190000D01*
X172190000Y-61285000D02*
X172190000Y-61190000D01*
X172190000Y-66310000D02*
X172190000Y-66215000D01*
X176310000Y-61190000D02*
X176310000Y-61285000D01*
X176310000Y-66215000D02*
X176310000Y-66310000D01*
X176310000Y-66310000D02*
X172190000Y-66310000D01*
X177090000Y-66550000D02*
X176610000Y-66550000D01*
X176850000Y-66220000D01*
X177090000Y-66550000D01*
G36*
X177090000Y-66550000D02*
G01*
X176610000Y-66550000D01*
X176850000Y-66220000D01*
X177090000Y-66550000D01*
G37*
%TO.C,TH1*%
X162020000Y-94265000D02*
X167840000Y-94265000D01*
X162020000Y-95985000D02*
X167840000Y-95985000D01*
X162020000Y-99085000D02*
X167840000Y-99085000D01*
X162020000Y-100085000D02*
X167840000Y-100085000D01*
X162020000Y-101005000D02*
X162020000Y-94265000D01*
X163360000Y-101005000D02*
X162020000Y-101005000D01*
X167840000Y-94265000D02*
X167840000Y-101005000D01*
X167840000Y-101005000D02*
X163960000Y-101005000D01*
X164100000Y-101615000D02*
X163220000Y-101615000D01*
X163660000Y-101005000D01*
X164100000Y-101615000D01*
G36*
X164100000Y-101615000D02*
G01*
X163220000Y-101615000D01*
X163660000Y-101005000D01*
X164100000Y-101615000D01*
G37*
%TO.C,D4*%
X206040000Y-86430000D02*
X206040000Y-87700000D01*
X210560000Y-86140000D02*
X210320000Y-86140000D01*
X210560000Y-86140000D02*
X210560000Y-87700000D01*
X206300000Y-86110000D02*
X206020000Y-86110000D01*
X206300000Y-85830000D01*
X206300000Y-86110000D01*
G36*
X206300000Y-86110000D02*
G01*
X206020000Y-86110000D01*
X206300000Y-85830000D01*
X206300000Y-86110000D01*
G37*
%TO.C,C4*%
X176370027Y-73840616D02*
X176171216Y-73641805D01*
X177091276Y-73119367D02*
X176892465Y-72920556D01*
%TO.C,Q3*%
X190440000Y-83740000D02*
X190490000Y-83740000D01*
X190440000Y-85260000D02*
X190440000Y-83740000D01*
X191440000Y-85260000D02*
X190440000Y-85260000D01*
X191610000Y-83740000D02*
X192390000Y-83740000D01*
X193510000Y-83740000D02*
X193560000Y-83740000D01*
X193560000Y-83740000D02*
X193560000Y-85260000D01*
X193560000Y-85260000D02*
X192560000Y-85260000D01*
X192380000Y-83200000D02*
X192050000Y-83440000D01*
X192050000Y-82960000D01*
X192380000Y-83200000D01*
G36*
X192380000Y-83200000D02*
G01*
X192050000Y-83440000D01*
X192050000Y-82960000D01*
X192380000Y-83200000D01*
G37*
%TO.C,R14*%
X187640835Y-73440282D02*
X187319718Y-73119165D01*
X188680282Y-72400835D02*
X188359165Y-72079718D01*
%TO.C,J5*%
X190420000Y-94280000D02*
X198780000Y-94280000D01*
X190420000Y-96000000D02*
X198780000Y-96000000D01*
X190420000Y-99100000D02*
X198780000Y-99100000D01*
X190420000Y-100100000D02*
X198780000Y-100100000D01*
X190420000Y-101020000D02*
X190420000Y-94280000D01*
X191760000Y-101020000D02*
X190420000Y-101020000D01*
X198780000Y-94280000D02*
X198780000Y-101020000D01*
X198780000Y-101020000D02*
X192360000Y-101020000D01*
X192500000Y-101630000D02*
X191620000Y-101630000D01*
X192060000Y-101020000D01*
X192500000Y-101630000D01*
G36*
X192500000Y-101630000D02*
G01*
X191620000Y-101630000D01*
X192060000Y-101020000D01*
X192500000Y-101630000D01*
G37*
%TO.C,RV1*%
X182275000Y-90250000D02*
X187325000Y-90250000D01*
X182275000Y-100000000D02*
X182275000Y-90250000D01*
X184740000Y-100000000D02*
X187150000Y-100000000D01*
X184740000Y-101520000D02*
X184740000Y-100000000D01*
X185945000Y-101520000D02*
X185945000Y-100760000D01*
X187150000Y-100000000D02*
X187150000Y-101520000D01*
X187150000Y-101520000D02*
X184740000Y-101520000D01*
X187325000Y-90250000D02*
X187325000Y-100000000D01*
X187325000Y-100000000D02*
X182275000Y-100000000D01*
%TO.C,J6*%
X222850000Y-59950000D02*
X239150000Y-59950000D01*
X222850000Y-80950000D02*
X222850000Y-59950000D01*
X224100000Y-70450000D02*
X222850000Y-70450000D01*
X239150000Y-59950000D02*
X239150000Y-80950000D01*
X239150000Y-70450000D02*
X237900000Y-70450000D01*
X239150000Y-80950000D02*
X222850000Y-80950000D01*
%TO.C,C3*%
X154090000Y-76376248D02*
X154090000Y-78698752D01*
X157510000Y-76376248D02*
X157510000Y-78698752D01*
%TO.C,R20*%
X167272936Y-65015000D02*
X167727064Y-65015000D01*
%TO.C,MOSFET1*%
X194350000Y-83120000D02*
X204570000Y-83120000D01*
X194350000Y-86360000D02*
X194350000Y-83120000D01*
X204570000Y-83120000D02*
X204570000Y-86360000D01*
X204570000Y-86360000D02*
X194350000Y-86360000D01*
%TO.C,R15*%
X198765000Y-90477064D02*
X198765000Y-90022936D01*
X200235000Y-90477064D02*
X200235000Y-90022936D01*
%TO.C,Q2*%
X202240000Y-88690000D02*
X203760000Y-88690000D01*
X202240000Y-88740000D02*
X202240000Y-88690000D01*
X202240000Y-90640000D02*
X202240000Y-89860000D01*
X202240000Y-91810000D02*
X202240000Y-91760000D01*
X203760000Y-88690000D02*
X203760000Y-89690000D01*
X203760000Y-90810000D02*
X203760000Y-91810000D01*
X203760000Y-91810000D02*
X202240000Y-91810000D01*
X201940000Y-90200000D02*
X201460000Y-90200000D01*
X201700000Y-89870000D01*
X201940000Y-90200000D01*
G36*
X201940000Y-90200000D02*
G01*
X201460000Y-90200000D01*
X201700000Y-89870000D01*
X201940000Y-90200000D01*
G37*
D15*
%TO.C,G\u002A\u002A\u002A*%
G36*
X166146814Y-87112586D02*
G01*
X166249989Y-87116218D01*
X166249989Y-87222521D01*
X166249989Y-87328823D01*
X166146814Y-87332455D01*
X166043638Y-87336088D01*
X166043638Y-87222521D01*
X166043638Y-87108954D01*
X166146814Y-87112586D01*
G37*
G36*
X166018626Y-84539950D02*
G01*
X166018626Y-84983919D01*
X166234357Y-84985900D01*
X166306652Y-84986450D01*
X166371262Y-84986728D01*
X166423593Y-84986729D01*
X166459051Y-84986453D01*
X166471974Y-84986048D01*
X166483237Y-84988111D01*
X166489855Y-84999931D01*
X166493003Y-85026437D01*
X166493855Y-85072560D01*
X166493859Y-85077863D01*
X166493859Y-85171511D01*
X166162446Y-85171511D01*
X165831033Y-85171511D01*
X165831033Y-84633747D01*
X165831033Y-84095982D01*
X165924829Y-84095982D01*
X166018626Y-84095982D01*
X166018626Y-84539950D01*
G37*
G36*
X163802458Y-82035593D02*
G01*
X163798783Y-82126263D01*
X163658092Y-82126263D01*
X163517401Y-82126263D01*
X163517398Y-82573358D01*
X163517395Y-83020453D01*
X163423598Y-83020453D01*
X163329802Y-83020453D01*
X163329802Y-82576484D01*
X163329802Y-82132516D01*
X163204741Y-82130952D01*
X163150070Y-82130138D01*
X163104113Y-82129212D01*
X163073084Y-82128312D01*
X163064047Y-82127826D01*
X163054192Y-82115024D01*
X163047602Y-82078502D01*
X163044739Y-82035593D01*
X163041065Y-81944923D01*
X163423598Y-81944923D01*
X163806132Y-81944923D01*
X163802458Y-82035593D01*
G37*
G36*
X164642949Y-82170034D02*
G01*
X164642949Y-82395145D01*
X164843047Y-82395145D01*
X165043145Y-82395145D01*
X165043145Y-82170034D01*
X165043145Y-81944923D01*
X165136942Y-81944923D01*
X165230738Y-81944923D01*
X165230738Y-82482688D01*
X165230738Y-83020453D01*
X165136942Y-83020453D01*
X165043145Y-83020453D01*
X165043145Y-82802222D01*
X165043145Y-82583991D01*
X164855366Y-82580237D01*
X164788823Y-82579188D01*
X164730959Y-82578806D01*
X164686478Y-82579079D01*
X164660086Y-82580000D01*
X164655268Y-82580653D01*
X164650723Y-82594386D01*
X164647088Y-82630463D01*
X164644510Y-82686228D01*
X164643137Y-82759025D01*
X164642949Y-82802637D01*
X164642949Y-83020453D01*
X164549152Y-83020453D01*
X164455356Y-83020453D01*
X164455356Y-82482688D01*
X164455356Y-81944923D01*
X164549152Y-81944923D01*
X164642949Y-81944923D01*
X164642949Y-82170034D01*
G37*
G36*
X166603836Y-82035593D02*
G01*
X166601175Y-82082869D01*
X166596862Y-82110463D01*
X166589242Y-82123708D01*
X166576663Y-82127934D01*
X166575149Y-82128060D01*
X166554759Y-82128728D01*
X166514034Y-82129445D01*
X166457654Y-82130152D01*
X166390297Y-82130787D01*
X166334406Y-82131186D01*
X166118675Y-82132516D01*
X166118675Y-82263830D01*
X166118675Y-82395145D01*
X166349018Y-82395145D01*
X166579361Y-82395145D01*
X166577255Y-82485815D01*
X166575149Y-82576484D01*
X166346912Y-82579893D01*
X166118675Y-82583301D01*
X166118675Y-82708081D01*
X166118675Y-82832860D01*
X166362545Y-82832860D01*
X166606415Y-82832860D01*
X166606415Y-82926656D01*
X166606415Y-83020453D01*
X166268749Y-83020453D01*
X165931082Y-83020453D01*
X165931082Y-82482688D01*
X165931082Y-81944923D01*
X166269297Y-81944923D01*
X166607511Y-81944923D01*
X166603836Y-82035593D01*
G37*
G36*
X170720940Y-84189778D02*
G01*
X170720940Y-84283574D01*
X170477070Y-84283574D01*
X170233200Y-84283574D01*
X170233200Y-84414889D01*
X170233200Y-84546204D01*
X170464564Y-84546204D01*
X170695927Y-84546204D01*
X170695927Y-84632409D01*
X170694319Y-84682539D01*
X170688948Y-84712020D01*
X170678999Y-84725042D01*
X170677746Y-84725591D01*
X170659640Y-84727908D01*
X170621094Y-84729886D01*
X170566675Y-84731387D01*
X170500956Y-84732273D01*
X170449509Y-84732455D01*
X170239453Y-84732342D01*
X170235889Y-84858130D01*
X170232325Y-84983919D01*
X170435987Y-84985186D01*
X170508115Y-84985485D01*
X170574323Y-84985482D01*
X170629283Y-84985199D01*
X170667670Y-84984656D01*
X170680295Y-84984228D01*
X170720940Y-84982003D01*
X170720940Y-85076757D01*
X170720940Y-85171511D01*
X170383274Y-85171511D01*
X170045607Y-85171511D01*
X170045607Y-84633747D01*
X170045607Y-84095982D01*
X170383274Y-84095982D01*
X170720940Y-84095982D01*
X170720940Y-84189778D01*
G37*
G36*
X168955088Y-84418015D02*
G01*
X168997929Y-84502514D01*
X169037944Y-84581361D01*
X169073491Y-84651329D01*
X169102929Y-84709189D01*
X169124615Y-84751710D01*
X169136909Y-84775665D01*
X169137899Y-84777567D01*
X169143575Y-84786967D01*
X169148042Y-84789386D01*
X169151446Y-84782467D01*
X169153929Y-84763850D01*
X169155637Y-84731178D01*
X169156713Y-84682091D01*
X169157303Y-84614231D01*
X169157549Y-84525238D01*
X169157593Y-84455534D01*
X169157670Y-84095982D01*
X169251467Y-84095982D01*
X169345263Y-84095982D01*
X169345263Y-84634252D01*
X169345263Y-85172523D01*
X169243678Y-85168890D01*
X169142093Y-85165258D01*
X169055882Y-85002678D01*
X169017805Y-84930513D01*
X168973208Y-84845425D01*
X168926969Y-84756755D01*
X168883968Y-84673844D01*
X168872952Y-84652506D01*
X168776233Y-84464914D01*
X168772911Y-84818212D01*
X168769590Y-85171511D01*
X168675989Y-85171511D01*
X168582387Y-85171511D01*
X168582387Y-84633747D01*
X168582387Y-84095982D01*
X168687141Y-84095982D01*
X168791895Y-84095982D01*
X168955088Y-84418015D01*
G37*
G36*
X164696100Y-84096257D02*
G01*
X164789069Y-84096570D01*
X164860675Y-84097476D01*
X164914563Y-84099232D01*
X164954381Y-84102097D01*
X164983774Y-84106329D01*
X165006389Y-84112188D01*
X165025084Y-84119570D01*
X165064300Y-84144124D01*
X165105727Y-84180508D01*
X165142749Y-84221729D01*
X165168750Y-84260796D01*
X165176024Y-84279098D01*
X165178429Y-84302275D01*
X165179697Y-84344193D01*
X165179730Y-84398600D01*
X165178688Y-84450894D01*
X165174460Y-84595231D01*
X165118182Y-84653436D01*
X165084568Y-84686418D01*
X165053757Y-84710545D01*
X165020960Y-84727186D01*
X164981386Y-84737711D01*
X164930246Y-84743489D01*
X164862749Y-84745891D01*
X164793424Y-84746302D01*
X164605430Y-84746302D01*
X164605430Y-84958907D01*
X164605430Y-85171511D01*
X164511634Y-85171511D01*
X164417838Y-85171511D01*
X164417838Y-84633747D01*
X164417838Y-84571216D01*
X164605430Y-84571216D01*
X164766324Y-84571216D01*
X164833980Y-84570827D01*
X164881561Y-84569222D01*
X164913995Y-84565741D01*
X164936212Y-84559725D01*
X164953143Y-84550515D01*
X164960169Y-84545296D01*
X164977067Y-84529952D01*
X164986940Y-84512451D01*
X164991651Y-84485955D01*
X164993062Y-84443629D01*
X164993121Y-84424346D01*
X164992460Y-84373301D01*
X164988154Y-84336381D01*
X164976717Y-84311297D01*
X164954661Y-84295762D01*
X164918501Y-84287489D01*
X164864751Y-84284189D01*
X164789923Y-84283576D01*
X164778578Y-84283574D01*
X164605430Y-84283574D01*
X164605430Y-84427395D01*
X164605430Y-84571216D01*
X164417838Y-84571216D01*
X164417838Y-84427395D01*
X164417838Y-84095982D01*
X164696100Y-84096257D01*
G37*
G36*
X167512649Y-84096225D02*
G01*
X167625666Y-84096468D01*
X167805714Y-84618357D01*
X167843403Y-84727578D01*
X167878672Y-84829745D01*
X167910666Y-84922377D01*
X167938527Y-85002997D01*
X167961398Y-85069126D01*
X167978424Y-85118286D01*
X167988747Y-85147999D01*
X167991518Y-85155879D01*
X167987842Y-85163932D01*
X167967482Y-85168851D01*
X167927251Y-85171138D01*
X167892760Y-85171457D01*
X167788246Y-85171402D01*
X167751220Y-85058901D01*
X167714194Y-84946400D01*
X167511375Y-84946400D01*
X167308557Y-84946400D01*
X167284324Y-85012058D01*
X167267274Y-85059364D01*
X167251225Y-85105666D01*
X167244937Y-85124613D01*
X167229783Y-85171511D01*
X167130703Y-85171511D01*
X167084454Y-85170421D01*
X167049672Y-85167525D01*
X167032323Y-85163388D01*
X167031401Y-85162132D01*
X167035349Y-85148736D01*
X167046735Y-85114152D01*
X167064731Y-85060797D01*
X167088512Y-84991089D01*
X167117248Y-84907447D01*
X167150113Y-84812288D01*
X167174088Y-84743175D01*
X167373461Y-84743175D01*
X167376613Y-84750316D01*
X167394874Y-84755056D01*
X167431298Y-84757755D01*
X167488937Y-84758774D01*
X167505816Y-84758808D01*
X167561321Y-84758020D01*
X167606241Y-84755881D01*
X167635545Y-84752732D01*
X167644426Y-84749441D01*
X167640538Y-84730131D01*
X167629989Y-84694240D01*
X167614454Y-84646425D01*
X167595605Y-84591347D01*
X167575117Y-84533663D01*
X167554662Y-84478033D01*
X167535914Y-84429115D01*
X167520547Y-84391569D01*
X167510234Y-84370054D01*
X167507014Y-84366893D01*
X167499832Y-84381930D01*
X167486496Y-84416248D01*
X167468656Y-84465368D01*
X167447967Y-84524808D01*
X167438594Y-84552457D01*
X167417351Y-84615435D01*
X167398636Y-84670558D01*
X167384032Y-84713189D01*
X167375124Y-84738689D01*
X167373461Y-84743175D01*
X167174088Y-84743175D01*
X167186279Y-84708031D01*
X167215405Y-84624367D01*
X167399632Y-84095982D01*
X167512649Y-84096225D01*
G37*
G36*
X165030813Y-86249417D02*
G01*
X165088474Y-86253002D01*
X165129510Y-86259247D01*
X165131360Y-86259727D01*
X165173946Y-86279172D01*
X165222983Y-86313402D01*
X165271409Y-86356157D01*
X165312161Y-86401175D01*
X165338174Y-86442195D01*
X165338786Y-86443611D01*
X165344415Y-86463612D01*
X165348767Y-86495482D01*
X165351961Y-86541786D01*
X165354116Y-86605089D01*
X165355354Y-86687955D01*
X165355794Y-86792949D01*
X165355799Y-86807272D01*
X165355799Y-87130689D01*
X165317282Y-87188840D01*
X165259450Y-87260365D01*
X165194707Y-87312393D01*
X165159229Y-87330718D01*
X165127523Y-87338124D01*
X165077143Y-87343323D01*
X165014218Y-87346344D01*
X164944879Y-87347214D01*
X164875254Y-87345960D01*
X164811472Y-87342611D01*
X164759664Y-87337194D01*
X164725958Y-87329736D01*
X164723537Y-87328756D01*
X164690509Y-87308194D01*
X164649423Y-87274306D01*
X164607342Y-87233690D01*
X164571333Y-87192944D01*
X164556816Y-87173080D01*
X164549434Y-87149247D01*
X164543155Y-87104653D01*
X164540979Y-87078700D01*
X164724239Y-87078700D01*
X164759926Y-87119345D01*
X164795613Y-87159990D01*
X164940670Y-87159990D01*
X165085726Y-87159990D01*
X165126967Y-87120018D01*
X165168207Y-87080046D01*
X165168207Y-86799861D01*
X165168207Y-86519675D01*
X165125686Y-86477154D01*
X165083165Y-86434633D01*
X164945044Y-86434633D01*
X164883603Y-86435036D01*
X164841597Y-86436893D01*
X164813453Y-86441172D01*
X164793599Y-86448845D01*
X164776463Y-86460882D01*
X164771834Y-86464787D01*
X164736745Y-86494940D01*
X164730492Y-86786820D01*
X164724239Y-87078700D01*
X164540979Y-87078700D01*
X164538031Y-87043527D01*
X164534110Y-86970099D01*
X164531445Y-86888598D01*
X164530086Y-86803252D01*
X164530082Y-86718291D01*
X164531486Y-86637945D01*
X164534346Y-86566443D01*
X164538715Y-86508013D01*
X164544642Y-86466885D01*
X164548218Y-86454098D01*
X164573728Y-86408291D01*
X164613584Y-86359325D01*
X164660766Y-86314209D01*
X164708256Y-86279954D01*
X164735595Y-86266959D01*
X164772469Y-86259144D01*
X164827355Y-86253355D01*
X164893326Y-86249720D01*
X164963455Y-86248366D01*
X165030813Y-86249417D01*
G37*
G36*
X163524049Y-84387731D02*
G01*
X163564806Y-84395380D01*
X163614907Y-84419228D01*
X163667049Y-84460053D01*
X163713526Y-84511798D01*
X163714367Y-84512932D01*
X163726085Y-84530822D01*
X163734023Y-84550362D01*
X163738906Y-84576659D01*
X163741459Y-84614820D01*
X163742406Y-84669951D01*
X163742505Y-84711213D01*
X163742505Y-84871364D01*
X163498635Y-84871364D01*
X163254765Y-84871364D01*
X163254765Y-84909450D01*
X163266235Y-84952316D01*
X163285462Y-84978234D01*
X163303346Y-84993622D01*
X163323503Y-85002819D01*
X163352693Y-85007380D01*
X163397677Y-85008856D01*
X163419097Y-85008931D01*
X163472841Y-85007965D01*
X163508147Y-85004199D01*
X163531546Y-84996332D01*
X163549568Y-84983065D01*
X163549724Y-84982919D01*
X163565882Y-84969129D01*
X163581280Y-84963344D01*
X163603466Y-84965237D01*
X163639988Y-84974482D01*
X163654045Y-84978409D01*
X163694617Y-84990866D01*
X163724411Y-85002023D01*
X163736165Y-85008790D01*
X163733930Y-85026793D01*
X163716099Y-85054349D01*
X163687390Y-85086422D01*
X163652526Y-85117976D01*
X163616226Y-85143976D01*
X163602073Y-85151837D01*
X163568974Y-85166942D01*
X163538436Y-85176306D01*
X163502970Y-85181127D01*
X163455092Y-85182605D01*
X163411763Y-85182314D01*
X163355272Y-85181071D01*
X163305847Y-85179116D01*
X163270405Y-85176765D01*
X163258800Y-85175310D01*
X163229047Y-85161609D01*
X163191361Y-85133798D01*
X163152432Y-85098060D01*
X163118949Y-85060577D01*
X163097603Y-85027533D01*
X163096727Y-85025522D01*
X163090290Y-84996885D01*
X163085293Y-84948926D01*
X163081782Y-84887296D01*
X163079800Y-84817647D01*
X163079393Y-84745631D01*
X163080043Y-84708784D01*
X163254765Y-84708784D01*
X163411092Y-84708784D01*
X163567419Y-84708784D01*
X163567419Y-84659667D01*
X163560605Y-84615681D01*
X163538512Y-84585353D01*
X163498665Y-84567083D01*
X163438590Y-84559270D01*
X163411232Y-84558710D01*
X163361612Y-84559832D01*
X163329199Y-84564482D01*
X163306239Y-84574589D01*
X163287857Y-84589378D01*
X163261308Y-84625762D01*
X163254765Y-84664415D01*
X163254765Y-84708784D01*
X163080043Y-84708784D01*
X163080605Y-84676899D01*
X163081206Y-84664415D01*
X163083482Y-84617101D01*
X163088069Y-84571891D01*
X163092952Y-84550144D01*
X163119959Y-84503876D01*
X163162743Y-84457698D01*
X163213337Y-84419561D01*
X163236006Y-84407383D01*
X163275622Y-84395814D01*
X163332137Y-84387776D01*
X163397648Y-84383557D01*
X163464253Y-84383445D01*
X163524049Y-84387731D01*
G37*
G36*
X163543926Y-86249327D02*
G01*
X163607149Y-86255205D01*
X163656032Y-86266404D01*
X163695820Y-86284085D01*
X163728363Y-86306637D01*
X163757618Y-86333388D01*
X163789803Y-86367612D01*
X163819987Y-86403393D01*
X163843242Y-86434816D01*
X163854636Y-86455964D01*
X163855061Y-86458654D01*
X163843966Y-86466465D01*
X163814615Y-86478412D01*
X163772911Y-86492151D01*
X163764391Y-86494679D01*
X163673722Y-86521132D01*
X163629423Y-86477882D01*
X163607246Y-86457189D01*
X163587980Y-86444442D01*
X163564750Y-86437717D01*
X163530681Y-86435089D01*
X163478899Y-86434633D01*
X163474972Y-86434633D01*
X163421871Y-86435019D01*
X163386983Y-86437440D01*
X163363509Y-86443789D01*
X163344650Y-86455960D01*
X163323606Y-86475847D01*
X163322299Y-86477154D01*
X163279778Y-86519675D01*
X163279778Y-86800830D01*
X163279778Y-87081985D01*
X163319670Y-87120987D01*
X163339399Y-87139192D01*
X163357583Y-87150616D01*
X163380602Y-87156837D01*
X163414832Y-87159434D01*
X163466652Y-87159986D01*
X163477248Y-87159990D01*
X163532333Y-87159680D01*
X163568821Y-87157624D01*
X163593128Y-87152126D01*
X163611669Y-87141496D01*
X163630861Y-87124040D01*
X163637118Y-87117805D01*
X163679303Y-87075619D01*
X163762717Y-87098749D01*
X163805179Y-87111097D01*
X163837165Y-87121471D01*
X163851922Y-87127677D01*
X163852023Y-87127771D01*
X163850410Y-87142292D01*
X163835423Y-87169525D01*
X163810850Y-87203989D01*
X163780477Y-87240199D01*
X163758926Y-87262555D01*
X163720292Y-87296371D01*
X163681885Y-87320068D01*
X163638092Y-87335290D01*
X163583304Y-87343687D01*
X163511912Y-87346903D01*
X163470898Y-87347093D01*
X163387356Y-87344972D01*
X163325269Y-87339334D01*
X163286249Y-87330331D01*
X163284222Y-87329491D01*
X163236154Y-87300608D01*
X163185680Y-87257752D01*
X163141647Y-87209287D01*
X163116292Y-87170721D01*
X163108836Y-87154230D01*
X163103085Y-87135410D01*
X163098823Y-87110950D01*
X163095829Y-87077539D01*
X163093887Y-87031869D01*
X163092778Y-86970627D01*
X163092284Y-86890504D01*
X163092185Y-86804877D01*
X163092721Y-86701979D01*
X163094266Y-86613114D01*
X163096724Y-86540823D01*
X163100001Y-86487649D01*
X163104001Y-86456133D01*
X163105403Y-86451080D01*
X163126488Y-86414710D01*
X163162162Y-86371700D01*
X163205800Y-86328660D01*
X163250777Y-86292200D01*
X163286031Y-86270886D01*
X163319346Y-86258830D01*
X163360387Y-86251536D01*
X163415668Y-86248141D01*
X163461117Y-86247614D01*
X163543926Y-86249327D01*
G37*
G36*
X159558218Y-82012588D02*
G01*
X159719062Y-82157274D01*
X159856822Y-82311370D01*
X159971799Y-82475417D01*
X160064297Y-82649954D01*
X160134615Y-82835521D01*
X160183058Y-83032658D01*
X160202621Y-83164273D01*
X160206804Y-83206271D01*
X160212255Y-83268818D01*
X160218626Y-83347503D01*
X160225571Y-83437914D01*
X160232745Y-83535641D01*
X160239800Y-83636272D01*
X160240750Y-83650217D01*
X160247956Y-83749399D01*
X160255775Y-83844919D01*
X160263803Y-83932668D01*
X160271639Y-84008532D01*
X160278878Y-84068403D01*
X160285117Y-84108167D01*
X160286119Y-84112944D01*
X160311063Y-84202627D01*
X160346070Y-84291055D01*
X160392493Y-84379937D01*
X160451687Y-84470982D01*
X160525006Y-84565898D01*
X160613805Y-84666394D01*
X160719437Y-84774178D01*
X160843257Y-84890959D01*
X160986618Y-85018445D01*
X161041095Y-85065424D01*
X161157580Y-85166015D01*
X161256914Y-85253912D01*
X161341655Y-85331822D01*
X161414361Y-85402451D01*
X161477591Y-85468508D01*
X161533901Y-85532700D01*
X161585850Y-85597732D01*
X161635996Y-85666314D01*
X161686895Y-85741151D01*
X161703595Y-85766608D01*
X161807695Y-85937318D01*
X161894505Y-86104787D01*
X161965990Y-86274335D01*
X162024112Y-86451282D01*
X162070836Y-86640950D01*
X162108124Y-86848660D01*
X162111662Y-86872348D01*
X162121807Y-86945993D01*
X162131254Y-87022872D01*
X162139654Y-87099077D01*
X162146656Y-87170698D01*
X162151910Y-87233829D01*
X162155064Y-87284561D01*
X162155770Y-87318984D01*
X162153675Y-87333191D01*
X162152998Y-87333309D01*
X162143109Y-87324167D01*
X162118822Y-87299920D01*
X162083043Y-87263522D01*
X162038681Y-87217927D01*
X161997897Y-87175706D01*
X161793273Y-86979123D01*
X161578791Y-86804583D01*
X161351951Y-86650224D01*
X161110256Y-86514185D01*
X161109960Y-86514034D01*
X160914435Y-86420537D01*
X160723930Y-86342870D01*
X160532147Y-86279083D01*
X160332787Y-86227226D01*
X160119552Y-86185349D01*
X159978153Y-86163618D01*
X159899251Y-86155171D01*
X159800440Y-86148618D01*
X159686749Y-86143960D01*
X159563209Y-86141197D01*
X159434851Y-86140328D01*
X159306706Y-86141355D01*
X159183803Y-86144276D01*
X159071173Y-86149093D01*
X158973847Y-86155805D01*
X158902624Y-86163587D01*
X158608989Y-86216183D01*
X158326380Y-86290389D01*
X158055573Y-86385879D01*
X157797346Y-86502324D01*
X157552473Y-86639397D01*
X157321732Y-86796771D01*
X157227420Y-86870303D01*
X157179862Y-86910433D01*
X157119928Y-86963377D01*
X157052954Y-87024287D01*
X156984276Y-87088316D01*
X156923839Y-87146135D01*
X156868132Y-87199778D01*
X156818661Y-87246578D01*
X156778136Y-87284041D01*
X156749269Y-87309669D01*
X156734772Y-87320967D01*
X156733654Y-87321221D01*
X156732624Y-87306982D01*
X156734254Y-87272373D01*
X156738094Y-87221837D01*
X156743696Y-87159824D01*
X156750608Y-87090778D01*
X156758381Y-87019146D01*
X156766565Y-86949375D01*
X156774710Y-86885911D01*
X156782366Y-86833201D01*
X156784135Y-86822324D01*
X156836087Y-86572228D01*
X156906320Y-86337285D01*
X156996225Y-86114195D01*
X157107194Y-85899662D01*
X157240620Y-85690386D01*
X157291988Y-85618977D01*
X157326874Y-85572936D01*
X157361833Y-85529512D01*
X157399083Y-85486514D01*
X157440841Y-85441747D01*
X157489324Y-85393019D01*
X157546749Y-85338136D01*
X157615333Y-85274905D01*
X157697294Y-85201134D01*
X157794847Y-85114629D01*
X157858360Y-85058712D01*
X157976627Y-84954223D01*
X158077575Y-84863596D01*
X158163157Y-84784750D01*
X158235326Y-84715602D01*
X158296034Y-84654072D01*
X158347236Y-84598076D01*
X158390884Y-84545535D01*
X158428931Y-84494365D01*
X158463330Y-84442486D01*
X158496033Y-84387815D01*
X158508506Y-84365726D01*
X158536045Y-84313607D01*
X158559373Y-84262356D01*
X158579042Y-84209028D01*
X158595602Y-84150678D01*
X158609606Y-84084363D01*
X158621604Y-84007136D01*
X158632147Y-83916054D01*
X158641786Y-83808170D01*
X158651074Y-83680542D01*
X158658484Y-83564470D01*
X158668321Y-83413073D01*
X158678157Y-83283584D01*
X158688478Y-83172903D01*
X158699771Y-83077929D01*
X158712522Y-82995564D01*
X158727218Y-82922707D01*
X158744344Y-82856259D01*
X158764386Y-82793119D01*
X158787831Y-82730188D01*
X158790312Y-82723962D01*
X158864183Y-82568658D01*
X158960365Y-82413980D01*
X159076305Y-82263280D01*
X159209451Y-82119910D01*
X159341645Y-82000112D01*
X159440942Y-81917291D01*
X159558218Y-82012588D01*
G37*
D14*
%TO.C,C2*%
X177870027Y-72340616D02*
X177671216Y-72141805D01*
X178591276Y-71619367D02*
X178392465Y-71420556D01*
%TO.C,J1*%
X140325000Y-76122000D02*
X140325000Y-85282000D01*
X141525000Y-76122000D02*
X140325000Y-76122000D01*
X141525000Y-85282000D02*
X140325000Y-85282000D01*
X145425000Y-76122000D02*
X143425000Y-76122000D01*
X145425000Y-85282000D02*
X143425000Y-85282000D01*
%TO.C,J10*%
X152030000Y-60595000D02*
X158450000Y-60595000D01*
X152030000Y-67335000D02*
X152030000Y-60595000D01*
X159050000Y-60595000D02*
X160390000Y-60595000D01*
X160390000Y-60595000D02*
X160390000Y-67335000D01*
X160390000Y-61515000D02*
X152030000Y-61515000D01*
X160390000Y-62515000D02*
X152030000Y-62515000D01*
X160390000Y-65615000D02*
X152030000Y-65615000D01*
X160390000Y-67335000D02*
X152030000Y-67335000D01*
X158750000Y-60595000D02*
X158310000Y-59985000D01*
X159190000Y-59985000D01*
X158750000Y-60595000D01*
G36*
X158750000Y-60595000D02*
G01*
X158310000Y-59985000D01*
X159190000Y-59985000D01*
X158750000Y-60595000D01*
G37*
%TO.C,C9*%
X151261252Y-79065000D02*
X150738748Y-79065000D01*
X151261252Y-80535000D02*
X150738748Y-80535000D01*
%TO.C,J8*%
X218250000Y-84350000D02*
X239250000Y-84350000D01*
X218250000Y-100650000D02*
X218250000Y-84350000D01*
X228750000Y-84350000D02*
X228750000Y-85600000D01*
X228750000Y-99400000D02*
X228750000Y-100650000D01*
X239250000Y-84350000D02*
X239250000Y-100650000D01*
X239250000Y-100650000D02*
X218250000Y-100650000D01*
%TO.C,C16*%
X179265000Y-63973752D02*
X179265000Y-63451248D01*
X180735000Y-63973752D02*
X180735000Y-63451248D01*
%TO.C,R3*%
X159972936Y-70465000D02*
X160427064Y-70465000D01*
X159972936Y-71935000D02*
X160427064Y-71935000D01*
%TO.C,R21*%
X167765000Y-62242936D02*
X167765000Y-62697064D01*
%TO.C,SW1*%
X143300000Y-69500000D02*
X143300000Y-70700000D01*
X143300000Y-72300000D02*
X143300000Y-73500000D01*
X143300000Y-73500000D02*
X149700000Y-73500000D01*
X149700000Y-69500000D02*
X143300000Y-69500000D01*
X149700000Y-70700000D02*
X149700000Y-69500000D01*
X149700000Y-73500000D02*
X149700000Y-72300000D01*
%TO.C,C13*%
X176056387Y-80854166D02*
X175686920Y-81223633D01*
X177095834Y-81893613D02*
X176726367Y-82263080D01*
%TO.C,FB1*%
X174876885Y-75347474D02*
X174646680Y-75117269D01*
X175598134Y-74626225D02*
X175367929Y-74396020D01*
%TO.C,C15*%
X208586252Y-81265000D02*
X208063748Y-81265000D01*
X208586252Y-82735000D02*
X208063748Y-82735000D01*
D16*
%TO.C,U3*%
X205570000Y-77070000D02*
X208570000Y-77070000D01*
X205570000Y-80070000D02*
X208570000Y-80070000D01*
D10*
X203670000Y-77570000D02*
G75*
G02*
X203470000Y-77570000I-100000J0D01*
G01*
X203470000Y-77570000D02*
G75*
G02*
X203670000Y-77570000I100000J0D01*
G01*
D14*
%TO.C,R18*%
X196727064Y-80765000D02*
X196272936Y-80765000D01*
X196727064Y-82235000D02*
X196272936Y-82235000D01*
%TO.C,D5*%
X164052500Y-60910000D02*
X165572500Y-60910000D01*
X164052500Y-61910000D02*
X164052500Y-60910000D01*
X164052500Y-64030000D02*
X164052500Y-63030000D01*
X165572500Y-60910000D02*
X165572500Y-60960000D01*
X165572500Y-62080000D02*
X165572500Y-62860000D01*
X165572500Y-63980000D02*
X165572500Y-64030000D01*
X165572500Y-64030000D02*
X164052500Y-64030000D01*
X166112500Y-62850000D02*
X165872500Y-62520000D01*
X166352500Y-62520000D01*
X166112500Y-62850000D01*
G36*
X166112500Y-62850000D02*
G01*
X165872500Y-62520000D01*
X166352500Y-62520000D01*
X166112500Y-62850000D01*
G37*
%TO.C,C10*%
X151223752Y-76065000D02*
X150701248Y-76065000D01*
X151223752Y-77535000D02*
X150701248Y-77535000D01*
D12*
%TO.C,J9*%
X147700000Y-94230000D02*
X147700000Y-101550000D01*
X147700000Y-101550000D02*
X160200000Y-101550000D01*
X149210000Y-94230000D02*
X147700000Y-94230000D01*
X151710000Y-94230000D02*
X151190000Y-94230000D01*
X154210000Y-94230000D02*
X153690000Y-94230000D01*
X156710000Y-94230000D02*
X156190000Y-94230000D01*
X160200000Y-94230000D02*
X158690000Y-94230000D01*
X160200000Y-101550000D02*
X160200000Y-94230000D01*
D17*
X147730000Y-101550000D02*
G75*
G02*
X147670000Y-101550000I-30000J0D01*
G01*
X147670000Y-101550000D02*
G75*
G02*
X147730000Y-101550000I30000J0D01*
G01*
D14*
%TO.C,R11*%
X190702500Y-71227064D02*
X190702500Y-70772936D01*
X192172500Y-71227064D02*
X192172500Y-70772936D01*
%TO.C,R17*%
X215290000Y-77702631D02*
X215290000Y-79297369D01*
X219710000Y-77702631D02*
X219710000Y-79297369D01*
%TO.C,U2*%
X178073943Y-77228594D02*
X178392141Y-76910396D01*
X178392141Y-77546792D02*
X178073943Y-77228594D01*
X182861056Y-72441481D02*
X183179254Y-72123283D01*
X183179254Y-72123283D02*
X183497452Y-72441481D01*
X183179254Y-82333905D02*
X182861056Y-82015707D01*
X183497452Y-82015707D02*
X183179254Y-82333905D01*
X187966367Y-76910396D02*
X188284565Y-77228594D01*
X188284565Y-77228594D02*
X187966367Y-77546792D01*
X182981264Y-71897009D02*
X182408508Y-71988933D01*
X182500431Y-71416176D01*
X182981264Y-71897009D01*
G36*
X182981264Y-71897009D02*
G01*
X182408508Y-71988933D01*
X182500431Y-71416176D01*
X182981264Y-71897009D01*
G37*
%TO.C,J7*%
X202360000Y-94280000D02*
X208180000Y-94280000D01*
X202360000Y-96000000D02*
X208180000Y-96000000D01*
X202360000Y-99100000D02*
X208180000Y-99100000D01*
X202360000Y-100100000D02*
X208180000Y-100100000D01*
X202360000Y-101020000D02*
X202360000Y-94280000D01*
X203700000Y-101020000D02*
X202360000Y-101020000D01*
X208180000Y-94280000D02*
X208180000Y-101020000D01*
X208180000Y-101020000D02*
X204300000Y-101020000D01*
X204440000Y-101630000D02*
X203560000Y-101630000D01*
X204000000Y-101020000D01*
X204440000Y-101630000D01*
G36*
X204440000Y-101630000D02*
G01*
X203560000Y-101630000D01*
X204000000Y-101020000D01*
X204440000Y-101630000D01*
G37*
%TO.C,C14*%
X176201248Y-88615000D02*
X176723752Y-88615000D01*
%TO.C,Q1*%
X194677500Y-69440000D02*
X196197500Y-69440000D01*
X194677500Y-69490000D02*
X194677500Y-69440000D01*
X194677500Y-71390000D02*
X194677500Y-70610000D01*
X194677500Y-72560000D02*
X194677500Y-72510000D01*
X196197500Y-69440000D02*
X196197500Y-70440000D01*
X196197500Y-71560000D02*
X196197500Y-72560000D01*
X196197500Y-72560000D02*
X194677500Y-72560000D01*
X194377500Y-70950000D02*
X193897500Y-70950000D01*
X194137500Y-70620000D01*
X194377500Y-70950000D01*
G36*
X194377500Y-70950000D02*
G01*
X193897500Y-70950000D01*
X194137500Y-70620000D01*
X194377500Y-70950000D01*
G37*
%TO.C,R19*%
X172627064Y-67265000D02*
X172172936Y-67265000D01*
D18*
%TO.C,U5*%
X192212800Y-92660400D02*
X196175200Y-92660400D01*
X193889200Y-87529600D02*
X192212800Y-87529600D01*
X194498800Y-87529600D02*
X193889200Y-87529600D01*
X196175200Y-87529600D02*
X194498800Y-87529600D01*
X194498800Y-87529600D02*
G75*
G02*
X193889200Y-87529600I-304800J0D01*
G01*
D14*
%TO.C,D2*%
X153915000Y-70240000D02*
X153915000Y-72160000D01*
X153915000Y-72160000D02*
X156775000Y-72160000D01*
X156775000Y-70240000D02*
X153915000Y-70240000D01*
%TO.C,J4*%
X170100000Y-89540000D02*
X171520000Y-89540000D01*
X170100000Y-101260000D02*
X170100000Y-89540000D01*
X171520000Y-89540000D02*
X171520000Y-94040000D01*
X171520000Y-94040000D02*
X175160000Y-94040000D01*
X172360000Y-89850000D02*
X172960000Y-89850000D01*
X172660000Y-90450000D02*
X172360000Y-89850000D01*
X172960000Y-89850000D02*
X172660000Y-90450000D01*
X175160000Y-101260000D02*
X170100000Y-101260000D01*
X175160000Y-101260000D02*
X180220000Y-101260000D01*
X178800000Y-89540000D02*
X178800000Y-94040000D01*
X178800000Y-94040000D02*
X175160000Y-94040000D01*
X180220000Y-89540000D02*
X178800000Y-89540000D01*
X180220000Y-101260000D02*
X180220000Y-89540000D01*
X172410000Y-95150000D02*
X172910000Y-95150000D01*
X172910000Y-100650000D01*
X172410000Y-100650000D01*
X172410000Y-95150000D01*
X174910000Y-95150000D02*
X175410000Y-95150000D01*
X175410000Y-100650000D01*
X174910000Y-100650000D01*
X174910000Y-95150000D01*
X177410000Y-95150000D02*
X177910000Y-95150000D01*
X177910000Y-100650000D01*
X177410000Y-100650000D01*
X177410000Y-95150000D01*
%TO.C,R9*%
X190240835Y-77880282D02*
X189919718Y-77559165D01*
X191280282Y-76840835D02*
X190959165Y-76519718D01*
%TO.C,U1*%
X159390000Y-75977500D02*
X161210000Y-75977500D01*
X159390000Y-76027500D02*
X159390000Y-75977500D01*
X159390000Y-79097500D02*
X159390000Y-79047500D01*
X161210000Y-75977500D02*
X161210000Y-76027500D01*
X161210000Y-77147500D02*
X161210000Y-77927500D01*
X161210000Y-79047500D02*
X161210000Y-79097500D01*
X161210000Y-79097500D02*
X159390000Y-79097500D01*
X158850000Y-76027500D02*
X158610000Y-75697500D01*
X159090000Y-75697500D01*
X158850000Y-76027500D01*
G36*
X158850000Y-76027500D02*
G01*
X158610000Y-75697500D01*
X159090000Y-75697500D01*
X158850000Y-76027500D01*
G37*
%TO.C,J3*%
X211710000Y-67160000D02*
X211710000Y-70160000D01*
X212910000Y-68660000D02*
X212110000Y-68660000D01*
X212910000Y-68660000D02*
G75*
G02*
X200910000Y-68660000I-6000000J0D01*
G01*
X200910000Y-68660000D02*
G75*
G02*
X212910000Y-68660000I6000000J0D01*
G01*
%TO.C,C7*%
X163090000Y-76376248D02*
X163090000Y-78698752D01*
X166510000Y-76376248D02*
X166510000Y-78698752D01*
%TO.C,R4*%
X191285060Y-79546133D02*
X191620593Y-79881666D01*
%TO.C,SW2*%
X143300000Y-88000000D02*
X143300000Y-89200000D01*
X143300000Y-90800000D02*
X143300000Y-92000000D01*
X143300000Y-92000000D02*
X149700000Y-92000000D01*
X149700000Y-88000000D02*
X143300000Y-88000000D01*
X149700000Y-89200000D02*
X149700000Y-88000000D01*
X149700000Y-92000000D02*
X149700000Y-90800000D01*
%TO.C,C5*%
X179370027Y-70840616D02*
X179171216Y-70641805D01*
X180091276Y-70119367D02*
X179892465Y-69920556D01*
%TO.C,D1*%
X152765000Y-82190000D02*
X154285000Y-82190000D01*
X152765000Y-82240000D02*
X152765000Y-82190000D01*
X152765000Y-84140000D02*
X152765000Y-83360000D01*
X152765000Y-85310000D02*
X152765000Y-85260000D01*
X154285000Y-82190000D02*
X154285000Y-83190000D01*
X154285000Y-84310000D02*
X154285000Y-85310000D01*
X154285000Y-85310000D02*
X152765000Y-85310000D01*
X152465000Y-83700000D02*
X151985000Y-83700000D01*
X152225000Y-83370000D01*
X152465000Y-83700000D01*
G36*
X152465000Y-83700000D02*
G01*
X151985000Y-83700000D01*
X152225000Y-83370000D01*
X152465000Y-83700000D01*
G37*
%TO.C,D3*%
X198087500Y-68990000D02*
X198087500Y-72250000D01*
X199787500Y-68990000D02*
X198087500Y-68990000D01*
X199787500Y-68990000D02*
X199787500Y-72250000D01*
D16*
%TO.C,J2*%
X184312500Y-60020000D02*
X199212500Y-60020000D01*
X184312500Y-60050000D02*
X184312500Y-67150000D01*
X184312500Y-67150000D02*
X199212500Y-67150000D01*
X199212500Y-67150000D02*
X199212500Y-60020000D01*
D10*
X199862500Y-67150000D02*
G75*
G02*
X199662500Y-67150000I-100000J0D01*
G01*
X199662500Y-67150000D02*
G75*
G02*
X199862500Y-67150000I100000J0D01*
G01*
%TD*%
M02*
