M48
; DRILL file {KiCad 9.0.8-9.0.8~ubuntu22.04.1} date 2026-06-12T17:49:23+0530
; FORMAT={-:-/ absolute / metric / decimal}
; #@! TF.CreationDate,2026-06-12T17:49:23+05:30
; #@! TF.GenerationSoftware,Kicad,Pcbnew,9.0.8-9.0.8~ubuntu22.04.1
; #@! TF.FileFunction,Plated,1,2,PTH
FMAT,2
METRIC
; #@! TA.AperFunction,Plated,PTH,ViaDrill
T1C0.350
; #@! TA.AperFunction,Plated,PTH,ComponentDrill
T2C0.400
; #@! TA.AperFunction,Plated,PTH,ComponentDrill
T3C0.500
; #@! TA.AperFunction,Plated,PTH,ComponentDrill
T4C0.800
; #@! TA.AperFunction,Plated,PTH,ComponentDrill
T5C0.900
; #@! TA.AperFunction,Plated,PTH,ComponentDrill
T6C0.950
; #@! TA.AperFunction,Plated,PTH,ComponentDrill
T7C1.000
; #@! TA.AperFunction,Plated,PTH,ComponentDrill
T8C1.000
; #@! TA.AperFunction,Plated,PTH,ComponentDrill
T9C1.100
; #@! TA.AperFunction,Plated,PTH,ComponentDrill
T10C1.200
; #@! TA.AperFunction,Plated,PTH,ComponentDrill
T11C1.300
; #@! TA.AperFunction,Plated,PTH,ComponentDrill
T12C2.200
%
G90
G05
T1
X142.5Y-90.0
X146.31Y-82.222
X147.75Y-80.0
X147.75Y-81.25
X150.375Y-71.5
X150.375Y-90.0
X155.8Y-75.4
X157.5Y-88.25
X163.875Y-62.47
X166.02Y-75.4
X167.0Y-69.25
X172.0Y-71.25
X172.25Y-79.5
X173.43Y-64.69
X174.1Y-84.4
X174.87Y-75.64
X175.254Y-65.229
X175.425Y-87.88
X175.814Y-80.955
X177.34Y-62.03
X177.43Y-65.655
X177.81Y-74.81
X179.654Y-76.683
X180.0Y-62.675
X180.0Y-64.75
X180.179Y-70.93
X181.333Y-76.667
X181.503Y-75.497
X182.25Y-66.75
X182.75Y-77.0
X183.16Y-70.92
X184.75Y-65.0
X185.957Y-86.207
X187.0Y-77.0
X188.25Y-69.5
X188.619Y-80.901
X190.167Y-82.167
X190.21Y-76.21
X190.34Y-87.85
X190.815Y-79.185
X191.05Y-83.562
X191.5Y-77.5
X194.5Y-71.95
X196.0Y-80.5
X197.0Y-72.0
X198.25Y-65.25
X198.36Y-80.76
X199.5Y-89.25
X201.79Y-77.87
X204.0Y-90.312
X207.36Y-78.04
X208.26Y-92.05
X209.362Y-82.0
X217.44Y-81.04
X217.5Y-75.9
T2
X142.82Y-62.42
X142.82Y-99.0
X143.303Y-61.253
X143.303Y-63.587
X143.303Y-97.833
X143.303Y-100.167
X144.47Y-60.77
X144.47Y-64.07
X144.47Y-97.35
X144.47Y-100.65
X145.637Y-61.253
X145.637Y-63.587
X145.637Y-97.833
X145.637Y-100.167
X146.12Y-62.42
X146.12Y-99.0
X213.19Y-62.42
X213.19Y-98.99
X213.673Y-61.253
X213.673Y-63.587
X213.673Y-97.823
X213.673Y-100.157
X214.84Y-60.77
X214.84Y-64.07
X214.84Y-97.34
X214.84Y-100.64
X216.007Y-61.253
X216.007Y-63.587
X216.007Y-97.823
X216.007Y-100.157
X216.49Y-62.42
X216.49Y-98.99
T4
X184.795Y-92.585
X184.795Y-95.125
X184.795Y-97.665
T5
X206.91Y-65.66
X206.91Y-71.66
T6
X172.66Y-91.95
X175.16Y-91.95
X177.66Y-91.95
T7
X150.2Y-94.23
X152.7Y-94.23
X155.2Y-94.23
X157.7Y-94.23
T8
X186.762Y-67.15
X189.262Y-67.15
X191.762Y-67.15
X194.262Y-67.15
X196.762Y-67.15
T9
X196.92Y-85.0
X199.46Y-85.0
X202.0Y-85.0
T10
X153.67Y-64.115
X156.21Y-64.115
X158.75Y-64.115
X163.66Y-97.485
X166.2Y-97.485
X192.06Y-97.5
X194.6Y-97.5
X197.14Y-97.5
X204.0Y-97.5
X206.54Y-97.5
T11
X224.0Y-92.5
X231.0Y-65.7
X231.0Y-75.2
X233.5Y-92.5
T12
X144.47Y-62.42
X144.47Y-99.0
X214.84Y-62.42
X214.84Y-98.99
T3
G00X143.075Y-76.382
M15
G01X142.375Y-76.382
M16
G05
G00X143.075Y-85.022
M15
G01X142.375Y-85.022
M16
G05
G00X146.875Y-76.382
M15
G01X146.175Y-76.382
M16
G05
G00X146.875Y-85.022
M15
G01X146.175Y-85.022
M16
G05
M30
