%TF.GenerationSoftware,KiCad,Pcbnew,9.0.8-9.0.8~ubuntu22.04.1*%
%TF.CreationDate,2026-06-12T17:49:26+05:30*%
%TF.ProjectId,Metal-Air_BMS,4d657461-6c2d-4416-9972-5f424d532e6b,V1.2.1*%
%TF.SameCoordinates,Original*%
%TF.FileFunction,Legend,Bot*%
%TF.FilePolarity,Positive*%
%FSLAX46Y46*%
G04 Gerber Fmt 4.6, Leading zero omitted, Abs format (unit mm)*
G04 Created by KiCad (PCBNEW 9.0.8-9.0.8~ubuntu22.04.1) date 2026-06-12 17:49:26*
%MOMM*%
%LPD*%
G01*
G04 APERTURE LIST*
%ADD10C,0.300000*%
%ADD11C,0.150000*%
%ADD12C,0.120000*%
G04 APERTURE END LIST*
D10*
G36*
X157073676Y-100018622D02*
G01*
X150333291Y-100018622D01*
X150333291Y-99683802D01*
X150488847Y-99683802D01*
X150488847Y-99742330D01*
X150511245Y-99796402D01*
X150552629Y-99837786D01*
X150606701Y-99860184D01*
X150635965Y-99863066D01*
X151435965Y-99863066D01*
X151465229Y-99860184D01*
X151519301Y-99837786D01*
X151560685Y-99796402D01*
X151583083Y-99742330D01*
X151583083Y-99683802D01*
X151560685Y-99629730D01*
X151548093Y-99617138D01*
X151822181Y-99617138D01*
X151822181Y-99675664D01*
X151826379Y-99685798D01*
X151844578Y-99729735D01*
X151863233Y-99752466D01*
X151929899Y-99819132D01*
X151952630Y-99837787D01*
X151984304Y-99850906D01*
X152006701Y-99860184D01*
X152006702Y-99860184D01*
X152065228Y-99860184D01*
X152065229Y-99860184D01*
X152087626Y-99850906D01*
X152105795Y-99843381D01*
X152119299Y-99837788D01*
X152142030Y-99819133D01*
X152208697Y-99752467D01*
X152227353Y-99729736D01*
X152249750Y-99675664D01*
X152249750Y-99617138D01*
X152246377Y-99608995D01*
X152237825Y-99588346D01*
X152227354Y-99563065D01*
X152227352Y-99563063D01*
X152208698Y-99540334D01*
X152142031Y-99473667D01*
X152119305Y-99455016D01*
X152119300Y-99455011D01*
X152083782Y-99440300D01*
X152065229Y-99432615D01*
X152065227Y-99432615D01*
X152006701Y-99432615D01*
X151952629Y-99455012D01*
X151929898Y-99473668D01*
X151863232Y-99540335D01*
X151844577Y-99563066D01*
X151837674Y-99579733D01*
X151825554Y-99608995D01*
X151822181Y-99617138D01*
X151548093Y-99617138D01*
X151519301Y-99588346D01*
X151465229Y-99565948D01*
X151435965Y-99563066D01*
X151185965Y-99563066D01*
X151185965Y-98741865D01*
X151196566Y-98752466D01*
X151208070Y-98761907D01*
X151210665Y-98764899D01*
X151215174Y-98767737D01*
X151219297Y-98771121D01*
X151222958Y-98772637D01*
X151235550Y-98780564D01*
X151368884Y-98847230D01*
X151396347Y-98857740D01*
X151454727Y-98861888D01*
X151510250Y-98843380D01*
X151554465Y-98805034D01*
X151580639Y-98752684D01*
X151584787Y-98694304D01*
X151566280Y-98638782D01*
X151527933Y-98594567D01*
X151504367Y-98579733D01*
X152485965Y-98579733D01*
X152485965Y-98713066D01*
X152487423Y-98727877D01*
X152487143Y-98731827D01*
X152488324Y-98737021D01*
X152488847Y-98742330D01*
X152490364Y-98745992D01*
X152493663Y-98760500D01*
X152560330Y-98960501D01*
X152572318Y-98987352D01*
X152575849Y-98991423D01*
X152577911Y-98996401D01*
X152596566Y-99019132D01*
X153140500Y-99563066D01*
X152635965Y-99563066D01*
X152606701Y-99565948D01*
X152552629Y-99588346D01*
X152511245Y-99629730D01*
X152488847Y-99683802D01*
X152488847Y-99742330D01*
X152511245Y-99796402D01*
X152552629Y-99837786D01*
X152606701Y-99860184D01*
X152635965Y-99863066D01*
X153502632Y-99863066D01*
X153531896Y-99860184D01*
X153554293Y-99850906D01*
X153585967Y-99837787D01*
X153627353Y-99796401D01*
X153640472Y-99764727D01*
X153649750Y-99742330D01*
X153649750Y-99683802D01*
X153640472Y-99661405D01*
X153627353Y-99629731D01*
X153617018Y-99617138D01*
X153822181Y-99617138D01*
X153822181Y-99675664D01*
X153826379Y-99685798D01*
X153844578Y-99729735D01*
X153863233Y-99752466D01*
X153929899Y-99819132D01*
X153952630Y-99837787D01*
X153984304Y-99850906D01*
X154006701Y-99860184D01*
X154006702Y-99860184D01*
X154065228Y-99860184D01*
X154065229Y-99860184D01*
X154087626Y-99850906D01*
X154105795Y-99843381D01*
X154119299Y-99837788D01*
X154142030Y-99819133D01*
X154208697Y-99752467D01*
X154227353Y-99729736D01*
X154246379Y-99683802D01*
X154488847Y-99683802D01*
X154488847Y-99742330D01*
X154511245Y-99796402D01*
X154552629Y-99837786D01*
X154606701Y-99860184D01*
X154635965Y-99863066D01*
X155435965Y-99863066D01*
X155465229Y-99860184D01*
X155519301Y-99837786D01*
X155560685Y-99796402D01*
X155583083Y-99742330D01*
X155583083Y-99683802D01*
X155560685Y-99629730D01*
X155519301Y-99588346D01*
X155465229Y-99565948D01*
X155435965Y-99563066D01*
X155185965Y-99563066D01*
X155185965Y-98741865D01*
X155196566Y-98752466D01*
X155208070Y-98761907D01*
X155210665Y-98764899D01*
X155215174Y-98767737D01*
X155219297Y-98771121D01*
X155222958Y-98772637D01*
X155235550Y-98780564D01*
X155368884Y-98847230D01*
X155396347Y-98857740D01*
X155454727Y-98861888D01*
X155510250Y-98843380D01*
X155554465Y-98805034D01*
X155580639Y-98752684D01*
X155584787Y-98694304D01*
X155566280Y-98638782D01*
X155527933Y-98594567D01*
X155503047Y-98578902D01*
X155391485Y-98523121D01*
X155285868Y-98417504D01*
X155228750Y-98331827D01*
X155687143Y-98331827D01*
X155693663Y-98360500D01*
X156160330Y-99760500D01*
X156172318Y-99787351D01*
X156179340Y-99795447D01*
X156184133Y-99805033D01*
X156198342Y-99817356D01*
X156210666Y-99831566D01*
X156220251Y-99836358D01*
X156228347Y-99843380D01*
X156246189Y-99849327D01*
X156263013Y-99857739D01*
X156273704Y-99858499D01*
X156283872Y-99861888D01*
X156302627Y-99860555D01*
X156321393Y-99861889D01*
X156331564Y-99858498D01*
X156342252Y-99857739D01*
X156359069Y-99849330D01*
X156376917Y-99843381D01*
X156385016Y-99836356D01*
X156394599Y-99831565D01*
X156406919Y-99817359D01*
X156421132Y-99805033D01*
X156425925Y-99795445D01*
X156432946Y-99787351D01*
X156444935Y-99760500D01*
X156911600Y-98360500D01*
X156918120Y-98331827D01*
X156913971Y-98273447D01*
X156887797Y-98221100D01*
X156843583Y-98182752D01*
X156788058Y-98164244D01*
X156729678Y-98168393D01*
X156677331Y-98194567D01*
X156638984Y-98238781D01*
X156626995Y-98265632D01*
X156302631Y-99238723D01*
X155978267Y-98265632D01*
X155966279Y-98238781D01*
X155927932Y-98194567D01*
X155875585Y-98168393D01*
X155817204Y-98164244D01*
X155761680Y-98182752D01*
X155717466Y-98221099D01*
X155691292Y-98273446D01*
X155687143Y-98331827D01*
X155228750Y-98331827D01*
X155160773Y-98229861D01*
X155160704Y-98229777D01*
X155160685Y-98229730D01*
X155160578Y-98229623D01*
X155142142Y-98207111D01*
X155129802Y-98198847D01*
X155119301Y-98188346D01*
X155105723Y-98182721D01*
X155093512Y-98174544D01*
X155078949Y-98171631D01*
X155065229Y-98165948D01*
X155050533Y-98165948D01*
X155036123Y-98163066D01*
X155021554Y-98165948D01*
X155006701Y-98165948D01*
X154993122Y-98171572D01*
X154978708Y-98174424D01*
X154966350Y-98182662D01*
X154952629Y-98188346D01*
X154942237Y-98198737D01*
X154930010Y-98206889D01*
X154921746Y-98219228D01*
X154911245Y-98229730D01*
X154905620Y-98243307D01*
X154897443Y-98255519D01*
X154894530Y-98270081D01*
X154888847Y-98283802D01*
X154885995Y-98312754D01*
X154885965Y-98312908D01*
X154885975Y-98312960D01*
X154885965Y-98313066D01*
X154885965Y-99563066D01*
X154635965Y-99563066D01*
X154606701Y-99565948D01*
X154552629Y-99588346D01*
X154511245Y-99629730D01*
X154488847Y-99683802D01*
X154246379Y-99683802D01*
X154249750Y-99675664D01*
X154249750Y-99617138D01*
X154246377Y-99608995D01*
X154237825Y-99588346D01*
X154227354Y-99563065D01*
X154227352Y-99563063D01*
X154208698Y-99540334D01*
X154142031Y-99473667D01*
X154119305Y-99455016D01*
X154119300Y-99455011D01*
X154083782Y-99440300D01*
X154065229Y-99432615D01*
X154065227Y-99432615D01*
X154006701Y-99432615D01*
X153952629Y-99455012D01*
X153929898Y-99473668D01*
X153863232Y-99540335D01*
X153844577Y-99563066D01*
X153837674Y-99579733D01*
X153825554Y-99608995D01*
X153822181Y-99617138D01*
X153617018Y-99617138D01*
X153608698Y-99607000D01*
X152833737Y-98832039D01*
X152785965Y-98688725D01*
X152785965Y-98615143D01*
X152825910Y-98535253D01*
X152858152Y-98503010D01*
X152938042Y-98463066D01*
X153200555Y-98463066D01*
X153280443Y-98503010D01*
X153329899Y-98552466D01*
X153352629Y-98571121D01*
X153406702Y-98593518D01*
X153465228Y-98593518D01*
X153519300Y-98571121D01*
X153560686Y-98529735D01*
X153583083Y-98475663D01*
X153583083Y-98417137D01*
X153560686Y-98363064D01*
X153542031Y-98340334D01*
X153475364Y-98273667D01*
X153463862Y-98264228D01*
X153461266Y-98261234D01*
X153456752Y-98258393D01*
X153452633Y-98255012D01*
X153448973Y-98253496D01*
X153436380Y-98245569D01*
X153303047Y-98178902D01*
X153275584Y-98168393D01*
X153270209Y-98168011D01*
X153265229Y-98165948D01*
X153235965Y-98163066D01*
X152902632Y-98163066D01*
X152873368Y-98165948D01*
X152868390Y-98168009D01*
X152863013Y-98168392D01*
X152835550Y-98178902D01*
X152702216Y-98245569D01*
X152689624Y-98253494D01*
X152685962Y-98255012D01*
X152681839Y-98258395D01*
X152677330Y-98261234D01*
X152674734Y-98264226D01*
X152663231Y-98273668D01*
X152596565Y-98340335D01*
X152587126Y-98351835D01*
X152584133Y-98354432D01*
X152581292Y-98358944D01*
X152577910Y-98363066D01*
X152576393Y-98366727D01*
X152568468Y-98379318D01*
X152501801Y-98512651D01*
X152491292Y-98540114D01*
X152490910Y-98545488D01*
X152488847Y-98550469D01*
X152485965Y-98579733D01*
X151504367Y-98579733D01*
X151503047Y-98578902D01*
X151391485Y-98523121D01*
X151285868Y-98417504D01*
X151160773Y-98229861D01*
X151160704Y-98229777D01*
X151160685Y-98229730D01*
X151160578Y-98229623D01*
X151142142Y-98207111D01*
X151129802Y-98198847D01*
X151119301Y-98188346D01*
X151105723Y-98182721D01*
X151093512Y-98174544D01*
X151078949Y-98171631D01*
X151065229Y-98165948D01*
X151050533Y-98165948D01*
X151036123Y-98163066D01*
X151021554Y-98165948D01*
X151006701Y-98165948D01*
X150993122Y-98171572D01*
X150978708Y-98174424D01*
X150966350Y-98182662D01*
X150952629Y-98188346D01*
X150942237Y-98198737D01*
X150930010Y-98206889D01*
X150921746Y-98219228D01*
X150911245Y-98229730D01*
X150905620Y-98243307D01*
X150897443Y-98255519D01*
X150894530Y-98270081D01*
X150888847Y-98283802D01*
X150885995Y-98312754D01*
X150885965Y-98312908D01*
X150885975Y-98312960D01*
X150885965Y-98313066D01*
X150885965Y-99563066D01*
X150635965Y-99563066D01*
X150606701Y-99565948D01*
X150552629Y-99588346D01*
X150511245Y-99629730D01*
X150488847Y-99683802D01*
X150333291Y-99683802D01*
X150333291Y-98007510D01*
X157073676Y-98007510D01*
X157073676Y-100018622D01*
G37*
D11*
X216353332Y-75224819D02*
X216019999Y-76224819D01*
X216019999Y-76224819D02*
X215686666Y-75224819D01*
X215019999Y-75701009D02*
X214877142Y-75748628D01*
X214877142Y-75748628D02*
X214829523Y-75796247D01*
X214829523Y-75796247D02*
X214781904Y-75891485D01*
X214781904Y-75891485D02*
X214781904Y-76034342D01*
X214781904Y-76034342D02*
X214829523Y-76129580D01*
X214829523Y-76129580D02*
X214877142Y-76177200D01*
X214877142Y-76177200D02*
X214972380Y-76224819D01*
X214972380Y-76224819D02*
X215353332Y-76224819D01*
X215353332Y-76224819D02*
X215353332Y-75224819D01*
X215353332Y-75224819D02*
X215019999Y-75224819D01*
X215019999Y-75224819D02*
X214924761Y-75272438D01*
X214924761Y-75272438D02*
X214877142Y-75320057D01*
X214877142Y-75320057D02*
X214829523Y-75415295D01*
X214829523Y-75415295D02*
X214829523Y-75510533D01*
X214829523Y-75510533D02*
X214877142Y-75605771D01*
X214877142Y-75605771D02*
X214924761Y-75653390D01*
X214924761Y-75653390D02*
X215019999Y-75701009D01*
X215019999Y-75701009D02*
X215353332Y-75701009D01*
X214353332Y-75224819D02*
X214353332Y-76034342D01*
X214353332Y-76034342D02*
X214305713Y-76129580D01*
X214305713Y-76129580D02*
X214258094Y-76177200D01*
X214258094Y-76177200D02*
X214162856Y-76224819D01*
X214162856Y-76224819D02*
X213972380Y-76224819D01*
X213972380Y-76224819D02*
X213877142Y-76177200D01*
X213877142Y-76177200D02*
X213829523Y-76129580D01*
X213829523Y-76129580D02*
X213781904Y-76034342D01*
X213781904Y-76034342D02*
X213781904Y-75224819D01*
X213353332Y-76177200D02*
X213210475Y-76224819D01*
X213210475Y-76224819D02*
X212972380Y-76224819D01*
X212972380Y-76224819D02*
X212877142Y-76177200D01*
X212877142Y-76177200D02*
X212829523Y-76129580D01*
X212829523Y-76129580D02*
X212781904Y-76034342D01*
X212781904Y-76034342D02*
X212781904Y-75939104D01*
X212781904Y-75939104D02*
X212829523Y-75843866D01*
X212829523Y-75843866D02*
X212877142Y-75796247D01*
X212877142Y-75796247D02*
X212972380Y-75748628D01*
X212972380Y-75748628D02*
X213162856Y-75701009D01*
X213162856Y-75701009D02*
X213258094Y-75653390D01*
X213258094Y-75653390D02*
X213305713Y-75605771D01*
X213305713Y-75605771D02*
X213353332Y-75510533D01*
X213353332Y-75510533D02*
X213353332Y-75415295D01*
X213353332Y-75415295D02*
X213305713Y-75320057D01*
X213305713Y-75320057D02*
X213258094Y-75272438D01*
X213258094Y-75272438D02*
X213162856Y-75224819D01*
X213162856Y-75224819D02*
X212924761Y-75224819D01*
X212924761Y-75224819D02*
X212781904Y-75272438D01*
X173117142Y-73604819D02*
X172783809Y-74604819D01*
X172783809Y-74604819D02*
X172450476Y-73604819D01*
X172117142Y-74604819D02*
X172117142Y-73938152D01*
X172117142Y-74128628D02*
X172069523Y-74033390D01*
X172069523Y-74033390D02*
X172021904Y-73985771D01*
X172021904Y-73985771D02*
X171926666Y-73938152D01*
X171926666Y-73938152D02*
X171831428Y-73938152D01*
X171117142Y-74557200D02*
X171212380Y-74604819D01*
X171212380Y-74604819D02*
X171402856Y-74604819D01*
X171402856Y-74604819D02*
X171498094Y-74557200D01*
X171498094Y-74557200D02*
X171545713Y-74461961D01*
X171545713Y-74461961D02*
X171545713Y-74081009D01*
X171545713Y-74081009D02*
X171498094Y-73985771D01*
X171498094Y-73985771D02*
X171402856Y-73938152D01*
X171402856Y-73938152D02*
X171212380Y-73938152D01*
X171212380Y-73938152D02*
X171117142Y-73985771D01*
X171117142Y-73985771D02*
X171069523Y-74081009D01*
X171069523Y-74081009D02*
X171069523Y-74176247D01*
X171069523Y-74176247D02*
X171545713Y-74271485D01*
X170783808Y-73938152D02*
X170402856Y-73938152D01*
X170640951Y-74604819D02*
X170640951Y-73747676D01*
X170640951Y-73747676D02*
X170593332Y-73652438D01*
X170593332Y-73652438D02*
X170498094Y-73604819D01*
X170498094Y-73604819D02*
X170402856Y-73604819D01*
X176766974Y-70646588D02*
X176766974Y-70700463D01*
X176766974Y-70700463D02*
X176820848Y-70808212D01*
X176820848Y-70808212D02*
X176874723Y-70862087D01*
X176874723Y-70862087D02*
X176982473Y-70915962D01*
X176982473Y-70915962D02*
X177090222Y-70915962D01*
X177090222Y-70915962D02*
X177171035Y-70889024D01*
X177171035Y-70889024D02*
X177305722Y-70808212D01*
X177305722Y-70808212D02*
X177386534Y-70727400D01*
X177386534Y-70727400D02*
X177467346Y-70592713D01*
X177467346Y-70592713D02*
X177494283Y-70511901D01*
X177494283Y-70511901D02*
X177494283Y-70404151D01*
X177494283Y-70404151D02*
X177440409Y-70296402D01*
X177440409Y-70296402D02*
X177386534Y-70242527D01*
X177386534Y-70242527D02*
X177278784Y-70188652D01*
X177278784Y-70188652D02*
X177224909Y-70188652D01*
X176713099Y-70053965D02*
X176793911Y-70080902D01*
X176793911Y-70080902D02*
X176847786Y-70080902D01*
X176847786Y-70080902D02*
X176928598Y-70053965D01*
X176928598Y-70053965D02*
X176955535Y-70027028D01*
X176955535Y-70027028D02*
X176982473Y-69946215D01*
X176982473Y-69946215D02*
X176982473Y-69892341D01*
X176982473Y-69892341D02*
X176955535Y-69811528D01*
X176955535Y-69811528D02*
X176847786Y-69703779D01*
X176847786Y-69703779D02*
X176766974Y-69676841D01*
X176766974Y-69676841D02*
X176713099Y-69676841D01*
X176713099Y-69676841D02*
X176632287Y-69703779D01*
X176632287Y-69703779D02*
X176605349Y-69730716D01*
X176605349Y-69730716D02*
X176578412Y-69811528D01*
X176578412Y-69811528D02*
X176578412Y-69865403D01*
X176578412Y-69865403D02*
X176605349Y-69946215D01*
X176605349Y-69946215D02*
X176713099Y-70053965D01*
X176713099Y-70053965D02*
X176740036Y-70134777D01*
X176740036Y-70134777D02*
X176740036Y-70188652D01*
X176740036Y-70188652D02*
X176713099Y-70269464D01*
X176713099Y-70269464D02*
X176605349Y-70377214D01*
X176605349Y-70377214D02*
X176524537Y-70404151D01*
X176524537Y-70404151D02*
X176470662Y-70404151D01*
X176470662Y-70404151D02*
X176389850Y-70377214D01*
X176389850Y-70377214D02*
X176282100Y-70269464D01*
X176282100Y-70269464D02*
X176255163Y-70188652D01*
X176255163Y-70188652D02*
X176255163Y-70134777D01*
X176255163Y-70134777D02*
X176282100Y-70053965D01*
X176282100Y-70053965D02*
X176389850Y-69946215D01*
X176389850Y-69946215D02*
X176470662Y-69919278D01*
X176470662Y-69919278D02*
X176524537Y-69919278D01*
X176524537Y-69919278D02*
X176605349Y-69946215D01*
X175618098Y-78270462D02*
X176076034Y-78189649D01*
X175941347Y-78593710D02*
X176507032Y-78028025D01*
X176507032Y-78028025D02*
X176291533Y-77812526D01*
X176291533Y-77812526D02*
X176210721Y-77785588D01*
X176210721Y-77785588D02*
X176156846Y-77785588D01*
X176156846Y-77785588D02*
X176076034Y-77812526D01*
X176076034Y-77812526D02*
X175995221Y-77893338D01*
X175995221Y-77893338D02*
X175968284Y-77974150D01*
X175968284Y-77974150D02*
X175968284Y-78028025D01*
X175968284Y-78028025D02*
X175995221Y-78108837D01*
X175995221Y-78108837D02*
X176210721Y-78324336D01*
X175698910Y-77219903D02*
X175806660Y-77327653D01*
X175806660Y-77327653D02*
X175833597Y-77408465D01*
X175833597Y-77408465D02*
X175833597Y-77462340D01*
X175833597Y-77462340D02*
X175806660Y-77597027D01*
X175806660Y-77597027D02*
X175725847Y-77731714D01*
X175725847Y-77731714D02*
X175510348Y-77947213D01*
X175510348Y-77947213D02*
X175429536Y-77974150D01*
X175429536Y-77974150D02*
X175375661Y-77974150D01*
X175375661Y-77974150D02*
X175294849Y-77947213D01*
X175294849Y-77947213D02*
X175187099Y-77839463D01*
X175187099Y-77839463D02*
X175160162Y-77758651D01*
X175160162Y-77758651D02*
X175160162Y-77704776D01*
X175160162Y-77704776D02*
X175187099Y-77623964D01*
X175187099Y-77623964D02*
X175321786Y-77489277D01*
X175321786Y-77489277D02*
X175402599Y-77462340D01*
X175402599Y-77462340D02*
X175456473Y-77462340D01*
X175456473Y-77462340D02*
X175537286Y-77489277D01*
X175537286Y-77489277D02*
X175645035Y-77597027D01*
X175645035Y-77597027D02*
X175671973Y-77677839D01*
X175671973Y-77677839D02*
X175671973Y-77731714D01*
X175671973Y-77731714D02*
X175645035Y-77812526D01*
X189522856Y-84142295D02*
X189522856Y-83342295D01*
X189522856Y-83342295D02*
X189065713Y-84142295D01*
X189065713Y-84142295D02*
X189065713Y-83342295D01*
X188684761Y-84142295D02*
X188684761Y-83342295D01*
X188684761Y-83342295D02*
X188379999Y-83342295D01*
X188379999Y-83342295D02*
X188303809Y-83380390D01*
X188303809Y-83380390D02*
X188265714Y-83418485D01*
X188265714Y-83418485D02*
X188227618Y-83494676D01*
X188227618Y-83494676D02*
X188227618Y-83608961D01*
X188227618Y-83608961D02*
X188265714Y-83685152D01*
X188265714Y-83685152D02*
X188303809Y-83723247D01*
X188303809Y-83723247D02*
X188379999Y-83761342D01*
X188379999Y-83761342D02*
X188684761Y-83761342D01*
X187884761Y-84142295D02*
X187884761Y-83342295D01*
X187884761Y-83342295D02*
X187427618Y-84142295D01*
X187427618Y-84142295D02*
X187427618Y-83342295D01*
X187046666Y-83837533D02*
X186437143Y-83837533D01*
X185789524Y-83723247D02*
X185675238Y-83761342D01*
X185675238Y-83761342D02*
X185637143Y-83799438D01*
X185637143Y-83799438D02*
X185599047Y-83875628D01*
X185599047Y-83875628D02*
X185599047Y-83989914D01*
X185599047Y-83989914D02*
X185637143Y-84066104D01*
X185637143Y-84066104D02*
X185675238Y-84104200D01*
X185675238Y-84104200D02*
X185751428Y-84142295D01*
X185751428Y-84142295D02*
X186056190Y-84142295D01*
X186056190Y-84142295D02*
X186056190Y-83342295D01*
X186056190Y-83342295D02*
X185789524Y-83342295D01*
X185789524Y-83342295D02*
X185713333Y-83380390D01*
X185713333Y-83380390D02*
X185675238Y-83418485D01*
X185675238Y-83418485D02*
X185637143Y-83494676D01*
X185637143Y-83494676D02*
X185637143Y-83570866D01*
X185637143Y-83570866D02*
X185675238Y-83647057D01*
X185675238Y-83647057D02*
X185713333Y-83685152D01*
X185713333Y-83685152D02*
X185789524Y-83723247D01*
X185789524Y-83723247D02*
X186056190Y-83723247D01*
X175603332Y-61392295D02*
X175869999Y-61011342D01*
X176060475Y-61392295D02*
X176060475Y-60592295D01*
X176060475Y-60592295D02*
X175755713Y-60592295D01*
X175755713Y-60592295D02*
X175679523Y-60630390D01*
X175679523Y-60630390D02*
X175641428Y-60668485D01*
X175641428Y-60668485D02*
X175603332Y-60744676D01*
X175603332Y-60744676D02*
X175603332Y-60858961D01*
X175603332Y-60858961D02*
X175641428Y-60935152D01*
X175641428Y-60935152D02*
X175679523Y-60973247D01*
X175679523Y-60973247D02*
X175755713Y-61011342D01*
X175755713Y-61011342D02*
X176060475Y-61011342D01*
X175336666Y-60592295D02*
X174803332Y-61392295D01*
X174803332Y-60592295D02*
X175336666Y-61392295D01*
X150103332Y-83922295D02*
X150369999Y-83541342D01*
X150560475Y-83922295D02*
X150560475Y-83122295D01*
X150560475Y-83122295D02*
X150255713Y-83122295D01*
X150255713Y-83122295D02*
X150179523Y-83160390D01*
X150179523Y-83160390D02*
X150141428Y-83198485D01*
X150141428Y-83198485D02*
X150103332Y-83274676D01*
X150103332Y-83274676D02*
X150103332Y-83388961D01*
X150103332Y-83388961D02*
X150141428Y-83465152D01*
X150141428Y-83465152D02*
X150179523Y-83503247D01*
X150179523Y-83503247D02*
X150255713Y-83541342D01*
X150255713Y-83541342D02*
X150560475Y-83541342D01*
X149341428Y-83922295D02*
X149798571Y-83922295D01*
X149569999Y-83922295D02*
X149569999Y-83122295D01*
X149569999Y-83122295D02*
X149646190Y-83236580D01*
X149646190Y-83236580D02*
X149722380Y-83312771D01*
X149722380Y-83312771D02*
X149798571Y-83350866D01*
X181825462Y-78161901D02*
X181744649Y-77703965D01*
X182148710Y-77838652D02*
X181583025Y-77272967D01*
X181583025Y-77272967D02*
X181367526Y-77488466D01*
X181367526Y-77488466D02*
X181340588Y-77569278D01*
X181340588Y-77569278D02*
X181340588Y-77623153D01*
X181340588Y-77623153D02*
X181367526Y-77703965D01*
X181367526Y-77703965D02*
X181448338Y-77784778D01*
X181448338Y-77784778D02*
X181529150Y-77811715D01*
X181529150Y-77811715D02*
X181583025Y-77811715D01*
X181583025Y-77811715D02*
X181663837Y-77784778D01*
X181663837Y-77784778D02*
X181879336Y-77569278D01*
X181071214Y-77784778D02*
X180694091Y-78161901D01*
X180694091Y-78161901D02*
X181502213Y-78485150D01*
X187492381Y-81214200D02*
X187378095Y-81252295D01*
X187378095Y-81252295D02*
X187187619Y-81252295D01*
X187187619Y-81252295D02*
X187111428Y-81214200D01*
X187111428Y-81214200D02*
X187073333Y-81176104D01*
X187073333Y-81176104D02*
X187035238Y-81099914D01*
X187035238Y-81099914D02*
X187035238Y-81023723D01*
X187035238Y-81023723D02*
X187073333Y-80947533D01*
X187073333Y-80947533D02*
X187111428Y-80909438D01*
X187111428Y-80909438D02*
X187187619Y-80871342D01*
X187187619Y-80871342D02*
X187340000Y-80833247D01*
X187340000Y-80833247D02*
X187416190Y-80795152D01*
X187416190Y-80795152D02*
X187454285Y-80757057D01*
X187454285Y-80757057D02*
X187492381Y-80680866D01*
X187492381Y-80680866D02*
X187492381Y-80604676D01*
X187492381Y-80604676D02*
X187454285Y-80528485D01*
X187454285Y-80528485D02*
X187416190Y-80490390D01*
X187416190Y-80490390D02*
X187340000Y-80452295D01*
X187340000Y-80452295D02*
X187149523Y-80452295D01*
X187149523Y-80452295D02*
X187035238Y-80490390D01*
X186235237Y-81176104D02*
X186273333Y-81214200D01*
X186273333Y-81214200D02*
X186387618Y-81252295D01*
X186387618Y-81252295D02*
X186463809Y-81252295D01*
X186463809Y-81252295D02*
X186578095Y-81214200D01*
X186578095Y-81214200D02*
X186654285Y-81138009D01*
X186654285Y-81138009D02*
X186692380Y-81061819D01*
X186692380Y-81061819D02*
X186730476Y-80909438D01*
X186730476Y-80909438D02*
X186730476Y-80795152D01*
X186730476Y-80795152D02*
X186692380Y-80642771D01*
X186692380Y-80642771D02*
X186654285Y-80566580D01*
X186654285Y-80566580D02*
X186578095Y-80490390D01*
X186578095Y-80490390D02*
X186463809Y-80452295D01*
X186463809Y-80452295D02*
X186387618Y-80452295D01*
X186387618Y-80452295D02*
X186273333Y-80490390D01*
X186273333Y-80490390D02*
X186235237Y-80528485D01*
X185511428Y-81252295D02*
X185892380Y-81252295D01*
X185892380Y-81252295D02*
X185892380Y-80452295D01*
X189191428Y-79194200D02*
X189077142Y-79232295D01*
X189077142Y-79232295D02*
X188886666Y-79232295D01*
X188886666Y-79232295D02*
X188810475Y-79194200D01*
X188810475Y-79194200D02*
X188772380Y-79156104D01*
X188772380Y-79156104D02*
X188734285Y-79079914D01*
X188734285Y-79079914D02*
X188734285Y-79003723D01*
X188734285Y-79003723D02*
X188772380Y-78927533D01*
X188772380Y-78927533D02*
X188810475Y-78889438D01*
X188810475Y-78889438D02*
X188886666Y-78851342D01*
X188886666Y-78851342D02*
X189039047Y-78813247D01*
X189039047Y-78813247D02*
X189115237Y-78775152D01*
X189115237Y-78775152D02*
X189153332Y-78737057D01*
X189153332Y-78737057D02*
X189191428Y-78660866D01*
X189191428Y-78660866D02*
X189191428Y-78584676D01*
X189191428Y-78584676D02*
X189153332Y-78508485D01*
X189153332Y-78508485D02*
X189115237Y-78470390D01*
X189115237Y-78470390D02*
X189039047Y-78432295D01*
X189039047Y-78432295D02*
X188848570Y-78432295D01*
X188848570Y-78432295D02*
X188734285Y-78470390D01*
X188391427Y-79232295D02*
X188391427Y-78432295D01*
X188391427Y-78432295D02*
X188200951Y-78432295D01*
X188200951Y-78432295D02*
X188086665Y-78470390D01*
X188086665Y-78470390D02*
X188010475Y-78546580D01*
X188010475Y-78546580D02*
X187972380Y-78622771D01*
X187972380Y-78622771D02*
X187934284Y-78775152D01*
X187934284Y-78775152D02*
X187934284Y-78889438D01*
X187934284Y-78889438D02*
X187972380Y-79041819D01*
X187972380Y-79041819D02*
X188010475Y-79118009D01*
X188010475Y-79118009D02*
X188086665Y-79194200D01*
X188086665Y-79194200D02*
X188200951Y-79232295D01*
X188200951Y-79232295D02*
X188391427Y-79232295D01*
X187629523Y-79003723D02*
X187248570Y-79003723D01*
X187705713Y-79232295D02*
X187439046Y-78432295D01*
X187439046Y-78432295D02*
X187172380Y-79232295D01*
X144934285Y-81682295D02*
X144667618Y-82482295D01*
X144667618Y-82482295D02*
X144400952Y-81682295D01*
X144134285Y-82482295D02*
X144134285Y-81682295D01*
X144134285Y-81987057D02*
X144058095Y-81948961D01*
X144058095Y-81948961D02*
X143905714Y-81948961D01*
X143905714Y-81948961D02*
X143829523Y-81987057D01*
X143829523Y-81987057D02*
X143791428Y-82025152D01*
X143791428Y-82025152D02*
X143753333Y-82101342D01*
X143753333Y-82101342D02*
X143753333Y-82329914D01*
X143753333Y-82329914D02*
X143791428Y-82406104D01*
X143791428Y-82406104D02*
X143829523Y-82444200D01*
X143829523Y-82444200D02*
X143905714Y-82482295D01*
X143905714Y-82482295D02*
X144058095Y-82482295D01*
X144058095Y-82482295D02*
X144134285Y-82444200D01*
X143067618Y-81948961D02*
X143067618Y-82482295D01*
X143410475Y-81948961D02*
X143410475Y-82368009D01*
X143410475Y-82368009D02*
X143372380Y-82444200D01*
X143372380Y-82444200D02*
X143296190Y-82482295D01*
X143296190Y-82482295D02*
X143181904Y-82482295D01*
X143181904Y-82482295D02*
X143105713Y-82444200D01*
X143105713Y-82444200D02*
X143067618Y-82406104D01*
X142724761Y-82444200D02*
X142648570Y-82482295D01*
X142648570Y-82482295D02*
X142496189Y-82482295D01*
X142496189Y-82482295D02*
X142419999Y-82444200D01*
X142419999Y-82444200D02*
X142381903Y-82368009D01*
X142381903Y-82368009D02*
X142381903Y-82329914D01*
X142381903Y-82329914D02*
X142419999Y-82253723D01*
X142419999Y-82253723D02*
X142496189Y-82215628D01*
X142496189Y-82215628D02*
X142610475Y-82215628D01*
X142610475Y-82215628D02*
X142686665Y-82177533D01*
X142686665Y-82177533D02*
X142724761Y-82101342D01*
X142724761Y-82101342D02*
X142724761Y-82063247D01*
X142724761Y-82063247D02*
X142686665Y-81987057D01*
X142686665Y-81987057D02*
X142610475Y-81948961D01*
X142610475Y-81948961D02*
X142496189Y-81948961D01*
X142496189Y-81948961D02*
X142419999Y-81987057D01*
X179490961Y-80313651D02*
X179544836Y-80313651D01*
X179544836Y-80313651D02*
X179652586Y-80259776D01*
X179652586Y-80259776D02*
X179706460Y-80205901D01*
X179706460Y-80205901D02*
X179760335Y-80098152D01*
X179760335Y-80098152D02*
X179760335Y-79990402D01*
X179760335Y-79990402D02*
X179733398Y-79909590D01*
X179733398Y-79909590D02*
X179652586Y-79774903D01*
X179652586Y-79774903D02*
X179571773Y-79694091D01*
X179571773Y-79694091D02*
X179437086Y-79613279D01*
X179437086Y-79613279D02*
X179356274Y-79586341D01*
X179356274Y-79586341D02*
X179248525Y-79586341D01*
X179248525Y-79586341D02*
X179140775Y-79640216D01*
X179140775Y-79640216D02*
X179086900Y-79694091D01*
X179086900Y-79694091D02*
X179033025Y-79801840D01*
X179033025Y-79801840D02*
X179033025Y-79855715D01*
X179006088Y-80906274D02*
X179329337Y-80583025D01*
X179167712Y-80744649D02*
X178602027Y-80178964D01*
X178602027Y-80178964D02*
X178736714Y-80205901D01*
X178736714Y-80205901D02*
X178844464Y-80205901D01*
X178844464Y-80205901D02*
X178925276Y-80178964D01*
X178278778Y-80609963D02*
X178224903Y-80609963D01*
X178224903Y-80609963D02*
X178144091Y-80636900D01*
X178144091Y-80636900D02*
X178009404Y-80771587D01*
X178009404Y-80771587D02*
X177982467Y-80852399D01*
X177982467Y-80852399D02*
X177982467Y-80906274D01*
X177982467Y-80906274D02*
X178009404Y-80987086D01*
X178009404Y-80987086D02*
X178063279Y-81040961D01*
X178063279Y-81040961D02*
X178171028Y-81094836D01*
X178171028Y-81094836D02*
X178817526Y-81094836D01*
X178817526Y-81094836D02*
X178467340Y-81445022D01*
X215904284Y-81512295D02*
X215904284Y-80712295D01*
X215523332Y-81512295D02*
X215523332Y-80712295D01*
X215523332Y-80712295D02*
X215066189Y-81512295D01*
X215066189Y-81512295D02*
X215066189Y-80712295D01*
X214685237Y-81207533D02*
X214075714Y-81207533D01*
X150053332Y-81142295D02*
X150319999Y-80761342D01*
X150510475Y-81142295D02*
X150510475Y-80342295D01*
X150510475Y-80342295D02*
X150205713Y-80342295D01*
X150205713Y-80342295D02*
X150129523Y-80380390D01*
X150129523Y-80380390D02*
X150091428Y-80418485D01*
X150091428Y-80418485D02*
X150053332Y-80494676D01*
X150053332Y-80494676D02*
X150053332Y-80608961D01*
X150053332Y-80608961D02*
X150091428Y-80685152D01*
X150091428Y-80685152D02*
X150129523Y-80723247D01*
X150129523Y-80723247D02*
X150205713Y-80761342D01*
X150205713Y-80761342D02*
X150510475Y-80761342D01*
X149748571Y-80418485D02*
X149710475Y-80380390D01*
X149710475Y-80380390D02*
X149634285Y-80342295D01*
X149634285Y-80342295D02*
X149443809Y-80342295D01*
X149443809Y-80342295D02*
X149367618Y-80380390D01*
X149367618Y-80380390D02*
X149329523Y-80418485D01*
X149329523Y-80418485D02*
X149291428Y-80494676D01*
X149291428Y-80494676D02*
X149291428Y-80570866D01*
X149291428Y-80570866D02*
X149329523Y-80685152D01*
X149329523Y-80685152D02*
X149786666Y-81142295D01*
X149786666Y-81142295D02*
X149291428Y-81142295D01*
X175327473Y-83709836D02*
X175785409Y-83629024D01*
X175650722Y-84033085D02*
X176216407Y-83467399D01*
X176216407Y-83467399D02*
X176000908Y-83251900D01*
X176000908Y-83251900D02*
X175920096Y-83224963D01*
X175920096Y-83224963D02*
X175866221Y-83224963D01*
X175866221Y-83224963D02*
X175785409Y-83251900D01*
X175785409Y-83251900D02*
X175704597Y-83332712D01*
X175704597Y-83332712D02*
X175677659Y-83413525D01*
X175677659Y-83413525D02*
X175677659Y-83467399D01*
X175677659Y-83467399D02*
X175704597Y-83548212D01*
X175704597Y-83548212D02*
X175920096Y-83763711D01*
X174788725Y-83171088D02*
X175111974Y-83494337D01*
X174950350Y-83332712D02*
X175516035Y-82767027D01*
X175516035Y-82767027D02*
X175489098Y-82901714D01*
X175489098Y-82901714D02*
X175489098Y-83009464D01*
X175489098Y-83009464D02*
X175516035Y-83090276D01*
X175004224Y-82255216D02*
X174950349Y-82201341D01*
X174950349Y-82201341D02*
X174869537Y-82174404D01*
X174869537Y-82174404D02*
X174815662Y-82174404D01*
X174815662Y-82174404D02*
X174734850Y-82201341D01*
X174734850Y-82201341D02*
X174600163Y-82282154D01*
X174600163Y-82282154D02*
X174465476Y-82416841D01*
X174465476Y-82416841D02*
X174384664Y-82551528D01*
X174384664Y-82551528D02*
X174357727Y-82632340D01*
X174357727Y-82632340D02*
X174357727Y-82686215D01*
X174357727Y-82686215D02*
X174384664Y-82767027D01*
X174384664Y-82767027D02*
X174438539Y-82820902D01*
X174438539Y-82820902D02*
X174519351Y-82847839D01*
X174519351Y-82847839D02*
X174573226Y-82847839D01*
X174573226Y-82847839D02*
X174654038Y-82820902D01*
X174654038Y-82820902D02*
X174788725Y-82740089D01*
X174788725Y-82740089D02*
X174923412Y-82605402D01*
X174923412Y-82605402D02*
X175004224Y-82470715D01*
X175004224Y-82470715D02*
X175031162Y-82389903D01*
X175031162Y-82389903D02*
X175031162Y-82336028D01*
X175031162Y-82336028D02*
X175004224Y-82255216D01*
X176399523Y-65992295D02*
X175942380Y-65992295D01*
X176170952Y-66792295D02*
X176170952Y-65992295D01*
X175751904Y-65992295D02*
X175218570Y-66792295D01*
X175218570Y-65992295D02*
X175751904Y-66792295D01*
X184690961Y-75188651D02*
X184744836Y-75188651D01*
X184744836Y-75188651D02*
X184852586Y-75134776D01*
X184852586Y-75134776D02*
X184906460Y-75080901D01*
X184906460Y-75080901D02*
X184960335Y-74973152D01*
X184960335Y-74973152D02*
X184960335Y-74865402D01*
X184960335Y-74865402D02*
X184933398Y-74784590D01*
X184933398Y-74784590D02*
X184852586Y-74649903D01*
X184852586Y-74649903D02*
X184771773Y-74569091D01*
X184771773Y-74569091D02*
X184637086Y-74488279D01*
X184637086Y-74488279D02*
X184556274Y-74461341D01*
X184556274Y-74461341D02*
X184448525Y-74461341D01*
X184448525Y-74461341D02*
X184340775Y-74515216D01*
X184340775Y-74515216D02*
X184286900Y-74569091D01*
X184286900Y-74569091D02*
X184233025Y-74676840D01*
X184233025Y-74676840D02*
X184233025Y-74730715D01*
X184206088Y-75781274D02*
X184529337Y-75458025D01*
X184367712Y-75619649D02*
X183802027Y-75053964D01*
X183802027Y-75053964D02*
X183936714Y-75080901D01*
X183936714Y-75080901D02*
X184044464Y-75080901D01*
X184044464Y-75080901D02*
X184125276Y-75053964D01*
X183667340Y-76320022D02*
X183990589Y-75996773D01*
X183828964Y-76158398D02*
X183263279Y-75592712D01*
X183263279Y-75592712D02*
X183397966Y-75619650D01*
X183397966Y-75619650D02*
X183505715Y-75619650D01*
X183505715Y-75619650D02*
X183586528Y-75592712D01*
X155172380Y-74352295D02*
X155553332Y-74352295D01*
X155553332Y-74352295D02*
X155591428Y-74733247D01*
X155591428Y-74733247D02*
X155553332Y-74695152D01*
X155553332Y-74695152D02*
X155477142Y-74657057D01*
X155477142Y-74657057D02*
X155286666Y-74657057D01*
X155286666Y-74657057D02*
X155210475Y-74695152D01*
X155210475Y-74695152D02*
X155172380Y-74733247D01*
X155172380Y-74733247D02*
X155134285Y-74809438D01*
X155134285Y-74809438D02*
X155134285Y-74999914D01*
X155134285Y-74999914D02*
X155172380Y-75076104D01*
X155172380Y-75076104D02*
X155210475Y-75114200D01*
X155210475Y-75114200D02*
X155286666Y-75152295D01*
X155286666Y-75152295D02*
X155477142Y-75152295D01*
X155477142Y-75152295D02*
X155553332Y-75114200D01*
X155553332Y-75114200D02*
X155591428Y-75076104D01*
X154905713Y-74352295D02*
X154639046Y-75152295D01*
X154639046Y-75152295D02*
X154372380Y-74352295D01*
X143666666Y-92104819D02*
X143999999Y-91628628D01*
X144238094Y-92104819D02*
X144238094Y-91104819D01*
X144238094Y-91104819D02*
X143857142Y-91104819D01*
X143857142Y-91104819D02*
X143761904Y-91152438D01*
X143761904Y-91152438D02*
X143714285Y-91200057D01*
X143714285Y-91200057D02*
X143666666Y-91295295D01*
X143666666Y-91295295D02*
X143666666Y-91438152D01*
X143666666Y-91438152D02*
X143714285Y-91533390D01*
X143714285Y-91533390D02*
X143761904Y-91581009D01*
X143761904Y-91581009D02*
X143857142Y-91628628D01*
X143857142Y-91628628D02*
X144238094Y-91628628D01*
X143095237Y-91533390D02*
X143190475Y-91485771D01*
X143190475Y-91485771D02*
X143238094Y-91438152D01*
X143238094Y-91438152D02*
X143285713Y-91342914D01*
X143285713Y-91342914D02*
X143285713Y-91295295D01*
X143285713Y-91295295D02*
X143238094Y-91200057D01*
X143238094Y-91200057D02*
X143190475Y-91152438D01*
X143190475Y-91152438D02*
X143095237Y-91104819D01*
X143095237Y-91104819D02*
X142904761Y-91104819D01*
X142904761Y-91104819D02*
X142809523Y-91152438D01*
X142809523Y-91152438D02*
X142761904Y-91200057D01*
X142761904Y-91200057D02*
X142714285Y-91295295D01*
X142714285Y-91295295D02*
X142714285Y-91342914D01*
X142714285Y-91342914D02*
X142761904Y-91438152D01*
X142761904Y-91438152D02*
X142809523Y-91485771D01*
X142809523Y-91485771D02*
X142904761Y-91533390D01*
X142904761Y-91533390D02*
X143095237Y-91533390D01*
X143095237Y-91533390D02*
X143190475Y-91581009D01*
X143190475Y-91581009D02*
X143238094Y-91628628D01*
X143238094Y-91628628D02*
X143285713Y-91723866D01*
X143285713Y-91723866D02*
X143285713Y-91914342D01*
X143285713Y-91914342D02*
X143238094Y-92009580D01*
X143238094Y-92009580D02*
X143190475Y-92057200D01*
X143190475Y-92057200D02*
X143095237Y-92104819D01*
X143095237Y-92104819D02*
X142904761Y-92104819D01*
X142904761Y-92104819D02*
X142809523Y-92057200D01*
X142809523Y-92057200D02*
X142761904Y-92009580D01*
X142761904Y-92009580D02*
X142714285Y-91914342D01*
X142714285Y-91914342D02*
X142714285Y-91723866D01*
X142714285Y-91723866D02*
X142761904Y-91628628D01*
X142761904Y-91628628D02*
X142809523Y-91581009D01*
X142809523Y-91581009D02*
X142904761Y-91533390D01*
X188655237Y-87803247D02*
X188540951Y-87841342D01*
X188540951Y-87841342D02*
X188502856Y-87879438D01*
X188502856Y-87879438D02*
X188464760Y-87955628D01*
X188464760Y-87955628D02*
X188464760Y-88069914D01*
X188464760Y-88069914D02*
X188502856Y-88146104D01*
X188502856Y-88146104D02*
X188540951Y-88184200D01*
X188540951Y-88184200D02*
X188617141Y-88222295D01*
X188617141Y-88222295D02*
X188921903Y-88222295D01*
X188921903Y-88222295D02*
X188921903Y-87422295D01*
X188921903Y-87422295D02*
X188655237Y-87422295D01*
X188655237Y-87422295D02*
X188579046Y-87460390D01*
X188579046Y-87460390D02*
X188540951Y-87498485D01*
X188540951Y-87498485D02*
X188502856Y-87574676D01*
X188502856Y-87574676D02*
X188502856Y-87650866D01*
X188502856Y-87650866D02*
X188540951Y-87727057D01*
X188540951Y-87727057D02*
X188579046Y-87765152D01*
X188579046Y-87765152D02*
X188655237Y-87803247D01*
X188655237Y-87803247D02*
X188921903Y-87803247D01*
X188121903Y-88222295D02*
X188121903Y-87422295D01*
X187779047Y-87993723D02*
X187398094Y-87993723D01*
X187855237Y-88222295D02*
X187588570Y-87422295D01*
X187588570Y-87422295D02*
X187321904Y-88222295D01*
X187093333Y-88184200D02*
X186979047Y-88222295D01*
X186979047Y-88222295D02*
X186788571Y-88222295D01*
X186788571Y-88222295D02*
X186712380Y-88184200D01*
X186712380Y-88184200D02*
X186674285Y-88146104D01*
X186674285Y-88146104D02*
X186636190Y-88069914D01*
X186636190Y-88069914D02*
X186636190Y-87993723D01*
X186636190Y-87993723D02*
X186674285Y-87917533D01*
X186674285Y-87917533D02*
X186712380Y-87879438D01*
X186712380Y-87879438D02*
X186788571Y-87841342D01*
X186788571Y-87841342D02*
X186940952Y-87803247D01*
X186940952Y-87803247D02*
X187017142Y-87765152D01*
X187017142Y-87765152D02*
X187055237Y-87727057D01*
X187055237Y-87727057D02*
X187093333Y-87650866D01*
X187093333Y-87650866D02*
X187093333Y-87574676D01*
X187093333Y-87574676D02*
X187055237Y-87498485D01*
X187055237Y-87498485D02*
X187017142Y-87460390D01*
X187017142Y-87460390D02*
X186940952Y-87422295D01*
X186940952Y-87422295D02*
X186750475Y-87422295D01*
X186750475Y-87422295D02*
X186636190Y-87460390D01*
X186293332Y-87917533D02*
X185683809Y-87917533D01*
X185150475Y-87422295D02*
X184998094Y-87422295D01*
X184998094Y-87422295D02*
X184921904Y-87460390D01*
X184921904Y-87460390D02*
X184845713Y-87536580D01*
X184845713Y-87536580D02*
X184807618Y-87688961D01*
X184807618Y-87688961D02*
X184807618Y-87955628D01*
X184807618Y-87955628D02*
X184845713Y-88108009D01*
X184845713Y-88108009D02*
X184921904Y-88184200D01*
X184921904Y-88184200D02*
X184998094Y-88222295D01*
X184998094Y-88222295D02*
X185150475Y-88222295D01*
X185150475Y-88222295D02*
X185226666Y-88184200D01*
X185226666Y-88184200D02*
X185302856Y-88108009D01*
X185302856Y-88108009D02*
X185340952Y-87955628D01*
X185340952Y-87955628D02*
X185340952Y-87688961D01*
X185340952Y-87688961D02*
X185302856Y-87536580D01*
X185302856Y-87536580D02*
X185226666Y-87460390D01*
X185226666Y-87460390D02*
X185150475Y-87422295D01*
X184464761Y-87422295D02*
X184464761Y-88069914D01*
X184464761Y-88069914D02*
X184426666Y-88146104D01*
X184426666Y-88146104D02*
X184388571Y-88184200D01*
X184388571Y-88184200D02*
X184312380Y-88222295D01*
X184312380Y-88222295D02*
X184159999Y-88222295D01*
X184159999Y-88222295D02*
X184083809Y-88184200D01*
X184083809Y-88184200D02*
X184045714Y-88146104D01*
X184045714Y-88146104D02*
X184007618Y-88069914D01*
X184007618Y-88069914D02*
X184007618Y-87422295D01*
X183740952Y-87422295D02*
X183283809Y-87422295D01*
X183512381Y-88222295D02*
X183512381Y-87422295D01*
X196972856Y-81092295D02*
X196972856Y-80292295D01*
X196972856Y-80292295D02*
X196515713Y-81092295D01*
X196515713Y-81092295D02*
X196515713Y-80292295D01*
X196134761Y-81092295D02*
X196134761Y-80292295D01*
X196134761Y-80292295D02*
X195829999Y-80292295D01*
X195829999Y-80292295D02*
X195753809Y-80330390D01*
X195753809Y-80330390D02*
X195715714Y-80368485D01*
X195715714Y-80368485D02*
X195677618Y-80444676D01*
X195677618Y-80444676D02*
X195677618Y-80558961D01*
X195677618Y-80558961D02*
X195715714Y-80635152D01*
X195715714Y-80635152D02*
X195753809Y-80673247D01*
X195753809Y-80673247D02*
X195829999Y-80711342D01*
X195829999Y-80711342D02*
X196134761Y-80711342D01*
X195334761Y-81092295D02*
X195334761Y-80292295D01*
X195334761Y-80292295D02*
X194877618Y-81092295D01*
X194877618Y-81092295D02*
X194877618Y-80292295D01*
X194496666Y-80787533D02*
X193887143Y-80787533D01*
X193049047Y-81016104D02*
X193087143Y-81054200D01*
X193087143Y-81054200D02*
X193201428Y-81092295D01*
X193201428Y-81092295D02*
X193277619Y-81092295D01*
X193277619Y-81092295D02*
X193391905Y-81054200D01*
X193391905Y-81054200D02*
X193468095Y-80978009D01*
X193468095Y-80978009D02*
X193506190Y-80901819D01*
X193506190Y-80901819D02*
X193544286Y-80749438D01*
X193544286Y-80749438D02*
X193544286Y-80635152D01*
X193544286Y-80635152D02*
X193506190Y-80482771D01*
X193506190Y-80482771D02*
X193468095Y-80406580D01*
X193468095Y-80406580D02*
X193391905Y-80330390D01*
X193391905Y-80330390D02*
X193277619Y-80292295D01*
X193277619Y-80292295D02*
X193201428Y-80292295D01*
X193201428Y-80292295D02*
X193087143Y-80330390D01*
X193087143Y-80330390D02*
X193049047Y-80368485D01*
X165210476Y-74652295D02*
X164715238Y-74652295D01*
X164715238Y-74652295D02*
X164981904Y-74957057D01*
X164981904Y-74957057D02*
X164867619Y-74957057D01*
X164867619Y-74957057D02*
X164791428Y-74995152D01*
X164791428Y-74995152D02*
X164753333Y-75033247D01*
X164753333Y-75033247D02*
X164715238Y-75109438D01*
X164715238Y-75109438D02*
X164715238Y-75299914D01*
X164715238Y-75299914D02*
X164753333Y-75376104D01*
X164753333Y-75376104D02*
X164791428Y-75414200D01*
X164791428Y-75414200D02*
X164867619Y-75452295D01*
X164867619Y-75452295D02*
X165096190Y-75452295D01*
X165096190Y-75452295D02*
X165172381Y-75414200D01*
X165172381Y-75414200D02*
X165210476Y-75376104D01*
X164486666Y-74652295D02*
X164219999Y-75452295D01*
X164219999Y-75452295D02*
X163953333Y-74652295D01*
X163762857Y-74652295D02*
X163267619Y-74652295D01*
X163267619Y-74652295D02*
X163534285Y-74957057D01*
X163534285Y-74957057D02*
X163420000Y-74957057D01*
X163420000Y-74957057D02*
X163343809Y-74995152D01*
X163343809Y-74995152D02*
X163305714Y-75033247D01*
X163305714Y-75033247D02*
X163267619Y-75109438D01*
X163267619Y-75109438D02*
X163267619Y-75299914D01*
X163267619Y-75299914D02*
X163305714Y-75376104D01*
X163305714Y-75376104D02*
X163343809Y-75414200D01*
X163343809Y-75414200D02*
X163420000Y-75452295D01*
X163420000Y-75452295D02*
X163648571Y-75452295D01*
X163648571Y-75452295D02*
X163724762Y-75414200D01*
X163724762Y-75414200D02*
X163762857Y-75376104D01*
X206492380Y-91993247D02*
X206378094Y-92031342D01*
X206378094Y-92031342D02*
X206339999Y-92069438D01*
X206339999Y-92069438D02*
X206301903Y-92145628D01*
X206301903Y-92145628D02*
X206301903Y-92259914D01*
X206301903Y-92259914D02*
X206339999Y-92336104D01*
X206339999Y-92336104D02*
X206378094Y-92374200D01*
X206378094Y-92374200D02*
X206454284Y-92412295D01*
X206454284Y-92412295D02*
X206759046Y-92412295D01*
X206759046Y-92412295D02*
X206759046Y-91612295D01*
X206759046Y-91612295D02*
X206492380Y-91612295D01*
X206492380Y-91612295D02*
X206416189Y-91650390D01*
X206416189Y-91650390D02*
X206378094Y-91688485D01*
X206378094Y-91688485D02*
X206339999Y-91764676D01*
X206339999Y-91764676D02*
X206339999Y-91840866D01*
X206339999Y-91840866D02*
X206378094Y-91917057D01*
X206378094Y-91917057D02*
X206416189Y-91955152D01*
X206416189Y-91955152D02*
X206492380Y-91993247D01*
X206492380Y-91993247D02*
X206759046Y-91993247D01*
X205959046Y-92412295D02*
X205959046Y-91612295D01*
X205616190Y-92183723D02*
X205235237Y-92183723D01*
X205692380Y-92412295D02*
X205425713Y-91612295D01*
X205425713Y-91612295D02*
X205159047Y-92412295D01*
X204930476Y-92374200D02*
X204816190Y-92412295D01*
X204816190Y-92412295D02*
X204625714Y-92412295D01*
X204625714Y-92412295D02*
X204549523Y-92374200D01*
X204549523Y-92374200D02*
X204511428Y-92336104D01*
X204511428Y-92336104D02*
X204473333Y-92259914D01*
X204473333Y-92259914D02*
X204473333Y-92183723D01*
X204473333Y-92183723D02*
X204511428Y-92107533D01*
X204511428Y-92107533D02*
X204549523Y-92069438D01*
X204549523Y-92069438D02*
X204625714Y-92031342D01*
X204625714Y-92031342D02*
X204778095Y-91993247D01*
X204778095Y-91993247D02*
X204854285Y-91955152D01*
X204854285Y-91955152D02*
X204892380Y-91917057D01*
X204892380Y-91917057D02*
X204930476Y-91840866D01*
X204930476Y-91840866D02*
X204930476Y-91764676D01*
X204930476Y-91764676D02*
X204892380Y-91688485D01*
X204892380Y-91688485D02*
X204854285Y-91650390D01*
X204854285Y-91650390D02*
X204778095Y-91612295D01*
X204778095Y-91612295D02*
X204587618Y-91612295D01*
X204587618Y-91612295D02*
X204473333Y-91650390D01*
X204130475Y-92107533D02*
X203520952Y-92107533D01*
X203139999Y-92412295D02*
X203139999Y-91612295D01*
X203139999Y-91612295D02*
X202949523Y-91612295D01*
X202949523Y-91612295D02*
X202835237Y-91650390D01*
X202835237Y-91650390D02*
X202759047Y-91726580D01*
X202759047Y-91726580D02*
X202720952Y-91802771D01*
X202720952Y-91802771D02*
X202682856Y-91955152D01*
X202682856Y-91955152D02*
X202682856Y-92069438D01*
X202682856Y-92069438D02*
X202720952Y-92221819D01*
X202720952Y-92221819D02*
X202759047Y-92298009D01*
X202759047Y-92298009D02*
X202835237Y-92374200D01*
X202835237Y-92374200D02*
X202949523Y-92412295D01*
X202949523Y-92412295D02*
X203139999Y-92412295D01*
X176639983Y-74044595D02*
X176639983Y-74098470D01*
X176639983Y-74098470D02*
X176693857Y-74206219D01*
X176693857Y-74206219D02*
X176747732Y-74260094D01*
X176747732Y-74260094D02*
X176855482Y-74313969D01*
X176855482Y-74313969D02*
X176963231Y-74313969D01*
X176963231Y-74313969D02*
X177044044Y-74287031D01*
X177044044Y-74287031D02*
X177178731Y-74206219D01*
X177178731Y-74206219D02*
X177259543Y-74125407D01*
X177259543Y-74125407D02*
X177340355Y-73990720D01*
X177340355Y-73990720D02*
X177367292Y-73909908D01*
X177367292Y-73909908D02*
X177367292Y-73802158D01*
X177367292Y-73802158D02*
X177313418Y-73694409D01*
X177313418Y-73694409D02*
X177259543Y-73640534D01*
X177259543Y-73640534D02*
X177151793Y-73586659D01*
X177151793Y-73586659D02*
X177097918Y-73586659D01*
X176047360Y-73559722D02*
X176370609Y-73882970D01*
X176208984Y-73721346D02*
X176774670Y-73155661D01*
X176774670Y-73155661D02*
X176747732Y-73290348D01*
X176747732Y-73290348D02*
X176747732Y-73398097D01*
X176747732Y-73398097D02*
X176774670Y-73478909D01*
X177841974Y-69071587D02*
X177841974Y-69125462D01*
X177841974Y-69125462D02*
X177895848Y-69233211D01*
X177895848Y-69233211D02*
X177949723Y-69287086D01*
X177949723Y-69287086D02*
X178057473Y-69340961D01*
X178057473Y-69340961D02*
X178165222Y-69340961D01*
X178165222Y-69340961D02*
X178246035Y-69314023D01*
X178246035Y-69314023D02*
X178380722Y-69233211D01*
X178380722Y-69233211D02*
X178461534Y-69152399D01*
X178461534Y-69152399D02*
X178542346Y-69017712D01*
X178542346Y-69017712D02*
X178569283Y-68936900D01*
X178569283Y-68936900D02*
X178569283Y-68829150D01*
X178569283Y-68829150D02*
X178515409Y-68721401D01*
X178515409Y-68721401D02*
X178461534Y-68667526D01*
X178461534Y-68667526D02*
X178353784Y-68613651D01*
X178353784Y-68613651D02*
X178299909Y-68613651D01*
X177868911Y-68074903D02*
X177976661Y-68182653D01*
X177976661Y-68182653D02*
X178003598Y-68263465D01*
X178003598Y-68263465D02*
X178003598Y-68317340D01*
X178003598Y-68317340D02*
X177976661Y-68452027D01*
X177976661Y-68452027D02*
X177895848Y-68586714D01*
X177895848Y-68586714D02*
X177680349Y-68802213D01*
X177680349Y-68802213D02*
X177599537Y-68829150D01*
X177599537Y-68829150D02*
X177545662Y-68829150D01*
X177545662Y-68829150D02*
X177464850Y-68802213D01*
X177464850Y-68802213D02*
X177357100Y-68694463D01*
X177357100Y-68694463D02*
X177330163Y-68613651D01*
X177330163Y-68613651D02*
X177330163Y-68559776D01*
X177330163Y-68559776D02*
X177357100Y-68478964D01*
X177357100Y-68478964D02*
X177491787Y-68344277D01*
X177491787Y-68344277D02*
X177572600Y-68317340D01*
X177572600Y-68317340D02*
X177626474Y-68317340D01*
X177626474Y-68317340D02*
X177707287Y-68344277D01*
X177707287Y-68344277D02*
X177815036Y-68452027D01*
X177815036Y-68452027D02*
X177841974Y-68532839D01*
X177841974Y-68532839D02*
X177841974Y-68586714D01*
X177841974Y-68586714D02*
X177815036Y-68667526D01*
X202522380Y-90193247D02*
X202408094Y-90231342D01*
X202408094Y-90231342D02*
X202369999Y-90269438D01*
X202369999Y-90269438D02*
X202331903Y-90345628D01*
X202331903Y-90345628D02*
X202331903Y-90459914D01*
X202331903Y-90459914D02*
X202369999Y-90536104D01*
X202369999Y-90536104D02*
X202408094Y-90574200D01*
X202408094Y-90574200D02*
X202484284Y-90612295D01*
X202484284Y-90612295D02*
X202789046Y-90612295D01*
X202789046Y-90612295D02*
X202789046Y-89812295D01*
X202789046Y-89812295D02*
X202522380Y-89812295D01*
X202522380Y-89812295D02*
X202446189Y-89850390D01*
X202446189Y-89850390D02*
X202408094Y-89888485D01*
X202408094Y-89888485D02*
X202369999Y-89964676D01*
X202369999Y-89964676D02*
X202369999Y-90040866D01*
X202369999Y-90040866D02*
X202408094Y-90117057D01*
X202408094Y-90117057D02*
X202446189Y-90155152D01*
X202446189Y-90155152D02*
X202522380Y-90193247D01*
X202522380Y-90193247D02*
X202789046Y-90193247D01*
X201989046Y-90612295D02*
X201989046Y-89812295D01*
X201646190Y-90383723D02*
X201265237Y-90383723D01*
X201722380Y-90612295D02*
X201455713Y-89812295D01*
X201455713Y-89812295D02*
X201189047Y-90612295D01*
X200960476Y-90574200D02*
X200846190Y-90612295D01*
X200846190Y-90612295D02*
X200655714Y-90612295D01*
X200655714Y-90612295D02*
X200579523Y-90574200D01*
X200579523Y-90574200D02*
X200541428Y-90536104D01*
X200541428Y-90536104D02*
X200503333Y-90459914D01*
X200503333Y-90459914D02*
X200503333Y-90383723D01*
X200503333Y-90383723D02*
X200541428Y-90307533D01*
X200541428Y-90307533D02*
X200579523Y-90269438D01*
X200579523Y-90269438D02*
X200655714Y-90231342D01*
X200655714Y-90231342D02*
X200808095Y-90193247D01*
X200808095Y-90193247D02*
X200884285Y-90155152D01*
X200884285Y-90155152D02*
X200922380Y-90117057D01*
X200922380Y-90117057D02*
X200960476Y-90040866D01*
X200960476Y-90040866D02*
X200960476Y-89964676D01*
X200960476Y-89964676D02*
X200922380Y-89888485D01*
X200922380Y-89888485D02*
X200884285Y-89850390D01*
X200884285Y-89850390D02*
X200808095Y-89812295D01*
X200808095Y-89812295D02*
X200617618Y-89812295D01*
X200617618Y-89812295D02*
X200503333Y-89850390D01*
X200160475Y-90307533D02*
X199550952Y-90307533D01*
X198750952Y-89850390D02*
X198827142Y-89812295D01*
X198827142Y-89812295D02*
X198941428Y-89812295D01*
X198941428Y-89812295D02*
X199055714Y-89850390D01*
X199055714Y-89850390D02*
X199131904Y-89926580D01*
X199131904Y-89926580D02*
X199169999Y-90002771D01*
X199169999Y-90002771D02*
X199208095Y-90155152D01*
X199208095Y-90155152D02*
X199208095Y-90269438D01*
X199208095Y-90269438D02*
X199169999Y-90421819D01*
X199169999Y-90421819D02*
X199131904Y-90498009D01*
X199131904Y-90498009D02*
X199055714Y-90574200D01*
X199055714Y-90574200D02*
X198941428Y-90612295D01*
X198941428Y-90612295D02*
X198865237Y-90612295D01*
X198865237Y-90612295D02*
X198750952Y-90574200D01*
X198750952Y-90574200D02*
X198712856Y-90536104D01*
X198712856Y-90536104D02*
X198712856Y-90269438D01*
X198712856Y-90269438D02*
X198865237Y-90269438D01*
D12*
%TO.C,TP10*%
X218610000Y-75850000D02*
G75*
G02*
X216710000Y-75850000I-950000J0D01*
G01*
X216710000Y-75850000D02*
G75*
G02*
X218610000Y-75850000I950000J0D01*
G01*
%TO.C,TP5*%
X175430000Y-74160000D02*
G75*
G02*
X173530000Y-74160000I-950000J0D01*
G01*
X173530000Y-74160000D02*
G75*
G02*
X175430000Y-74160000I950000J0D01*
G01*
%TO.C,C8*%
X178190773Y-72412022D02*
X177991962Y-72213211D01*
X178912020Y-71690773D02*
X178713209Y-71491962D01*
%TO.C,R6*%
X176174483Y-77213929D02*
X176495600Y-77535047D01*
X177213930Y-76174483D02*
X177535047Y-76495601D01*
%TO.C,TP11*%
X191900000Y-83780000D02*
G75*
G02*
X190000000Y-83780000I-950000J0D01*
G01*
X190000000Y-83780000D02*
G75*
G02*
X191900000Y-83780000I950000J0D01*
G01*
%TO.C,TP8*%
X178430000Y-61030000D02*
G75*
G02*
X176530000Y-61030000I-950000J0D01*
G01*
X176530000Y-61030000D02*
G75*
G02*
X178430000Y-61030000I950000J0D01*
G01*
%TO.C,R1*%
X149772936Y-82735000D02*
X150227064Y-82735000D01*
%TO.C,R7*%
X180548303Y-76712769D02*
X180212770Y-77048303D01*
%TO.C,TP6*%
X189850000Y-80890000D02*
G75*
G02*
X187950000Y-80890000I-950000J0D01*
G01*
X187950000Y-80890000D02*
G75*
G02*
X189850000Y-80890000I950000J0D01*
G01*
%TO.C,TP4*%
X191540000Y-78860000D02*
G75*
G02*
X189640000Y-78860000I-950000J0D01*
G01*
X189640000Y-78860000D02*
G75*
G02*
X191540000Y-78860000I950000J0D01*
G01*
%TO.C,TP2*%
X147220000Y-82180000D02*
G75*
G02*
X145320000Y-82180000I-950000J0D01*
G01*
X145320000Y-82180000D02*
G75*
G02*
X147220000Y-82180000I950000J0D01*
G01*
%TO.C,C12*%
X177665010Y-78795543D02*
X177295543Y-79165010D01*
%TO.C,TP9*%
X218320000Y-81138000D02*
G75*
G02*
X216420000Y-81138000I-950000J0D01*
G01*
X216420000Y-81138000D02*
G75*
G02*
X218320000Y-81138000I950000J0D01*
G01*
%TO.C,Y1*%
X180560913Y-79713483D02*
X184407574Y-75866822D01*
X186755168Y-78285127D02*
X182889062Y-82158304D01*
%TO.C,R2*%
X149772936Y-78765000D02*
X150227064Y-78765000D01*
%TO.C,R10*%
X175612611Y-82352058D02*
X175933728Y-82673175D01*
X176652058Y-81312611D02*
X176973175Y-81633728D01*
%TO.C,TP7*%
X178660000Y-66450000D02*
G75*
G02*
X176760000Y-66450000I-950000J0D01*
G01*
X176760000Y-66450000D02*
G75*
G02*
X178660000Y-66450000I950000J0D01*
G01*
%TO.C,C11*%
X182467294Y-74081661D02*
X182836761Y-73712194D01*
%TO.C,TP1*%
X157950000Y-74800000D02*
G75*
G02*
X156050000Y-74800000I-950000J0D01*
G01*
X156050000Y-74800000D02*
G75*
G02*
X157950000Y-74800000I950000J0D01*
G01*
%TO.C,R8*%
X143272936Y-89265000D02*
X143727064Y-89265000D01*
X143272936Y-90735000D02*
X143727064Y-90735000D01*
%TO.C,TP16*%
X191290000Y-87850000D02*
G75*
G02*
X189390000Y-87850000I-950000J0D01*
G01*
X189390000Y-87850000D02*
G75*
G02*
X191290000Y-87850000I950000J0D01*
G01*
%TO.C,TP13*%
X199310000Y-80760000D02*
G75*
G02*
X197410000Y-80760000I-950000J0D01*
G01*
X197410000Y-80760000D02*
G75*
G02*
X199310000Y-80760000I950000J0D01*
G01*
%TO.C,TP3*%
X167500000Y-75100000D02*
G75*
G02*
X165600000Y-75100000I-950000J0D01*
G01*
X165600000Y-75100000D02*
G75*
G02*
X167500000Y-75100000I950000J0D01*
G01*
%TO.C,TP14*%
X209210000Y-92050000D02*
G75*
G02*
X207310000Y-92050000I-950000J0D01*
G01*
X207310000Y-92050000D02*
G75*
G02*
X209210000Y-92050000I950000J0D01*
G01*
%TO.C,C1*%
X178088781Y-75910030D02*
X177889970Y-75711219D01*
X178810030Y-75188781D02*
X178611219Y-74989970D01*
%TO.C,C6*%
X179365773Y-70837022D02*
X179166962Y-70638211D01*
X180087022Y-70115773D02*
X179888211Y-69916962D01*
%TO.C,TP12*%
X205150000Y-90260000D02*
G75*
G02*
X203250000Y-90260000I-950000J0D01*
G01*
X203250000Y-90260000D02*
G75*
G02*
X205150000Y-90260000I950000J0D01*
G01*
%TD*%
M02*
